ply
format ascii 1.0
element vertex 140
property float x
property float y
property float z
end_header
0.008531 -0.034719 0.104794
0.095421 -0.043063 0.033425
-0.009343 0.017315 0.005102
-0.010692 0.061492 0.098861
-0.022782 0.050160 0.038300
0.035271 0.107911 0.047017
-0.029563 -0.027042 0.057722
0.010891 -0.033887 0.106057
-0.032060 0.028838 0.046169
0.120610 -0.011258 0.078616
0.073621 0.040428 0.005958
0.025834 -0.051890 0.039840
-0.027326 0.015226 0.021944
-0.005683 0.047510 0.015538
-0.033275 0.028623 0.053621
0.054548 0.024170 0.123470
0.112743 0.083565 0.035252
0.049191 0.066931 0.006293
0.041009 -0.020727 0.117440
-0.006565 0.018388 0.116529
0.026439 0.003506 0.004625
0.086202 -0.054787 0.042662
0.021699 0.048388 0.005023
0.042007 0.102560 0.031290
0.029514 -0.004338 0.005523
-0.030554 -0.021031 0.056780
-0.019058 -0.014237 0.028117
0.083107 0.065052 0.011537
-0.019256 0.060968 0.054959
0.001040 -0.060983 0.072573
0.016253 0.020855 0.121051
0.101461 0.007001 0.012082
-0.029613 0.036951 0.062928
0.011205 0.018717 0.004318
0.013741 -0.010438 0.008404
0.056045 0.012543 0.123466
0.108963 -0.011983 0.107866
0.116758 -0.017000 0.076438
-0.016079 -0.018327 0.092866
0.105046 -0.006988 0.116002
-0.011878 -0.030625 0.036826
-0.022315 -0.040959 0.058295
-0.026561 0.010215 0.016237
0.048217 0.108986 0.054224
-0.023380 -0.040196 0.059557
-0.025833 0.004916 0.017710
-0.015985 0.048079 0.024307
-0.009009 0.077214 0.087924
-0.002658 0.081930 0.044926
-0.032513 -0.016964 0.045662
-0.027776 -0.033603 0.051000
0.010195 0.073439 0.020730
-0.022205 0.013370 0.098717
0.022579 0.062825 0.008396
0.191038 0.109809 0.118174
0.087371 0.045469 0.010030
0.055558 -0.024413 0.116423
-0.020687 -0.021462 0.082253
0.085380 -0.025160 0.011867
-0.029609 0.014062 0.074162
0.071204 0.108937 0.036615
0.002013 0.090809 0.074074
0.059887 0.016306 0.002882
0.062233 0.099735 0.025784
0.093146 -0.021010 0.011978
0.107586 -0.014401 0.030366
0.115304 -0.018093 0.054849
0.020843 -0.024032 0.115426
0.109287 0.004607 0.019789
0.097411 0.091484 0.028797
0.050107 0.107664 0.038648
0.040531 0.078734 0.012090
0.009324 0.041626 0.120483
0.061372 -0.030416 0.112935
-0.022877 0.050388 0.077713
0.036482 0.094593 0.022481
-0.010850 0.074280 0.086023
-0.012302 -0.021428 0.095929
0.084040 -0.048205 0.025740
0.054029 -0.071765 0.066368
-0.033059 0.002438 0.048048
0.029620 -0.018921 0.009461
0.083404 -0.008407 0.005365
-0.021358 0.018454 0.009022
-0.003695 0.060102 0.105289
-0.026625 0.018295 0.085499
-0.029210 0.031114 0.070746
-0.031408 -0.002982 0.058110
0.095198 -0.044176 0.043919
0.063432 -0.000007 0.004622
0.090420 -0.047491 0.068412
-0.027608 -0.011000 0.071588
0.013011 0.093249 0.043430
0.182230 0.109204 0.119704
0.080374 0.045669 0.008228
-0.021017 -0.038285 0.067712
-0.010278 0.075574 0.066872
0.083920 -0.057634 0.034213
-0.024131 0.011642 0.091900
0.024159 -0.061448 0.086375
-0.013720 0.067429 0.046682
0.031751 -0.065794 0.056491
0.019518 -0.069764 0.071063
0.075968 -0.017733 0.117927
0.019713 -0.031624 0.021658
0.117079 0.075680 0.037225
-0.000091 0.085451 0.050172
0.117391 0.044929 0.029997
0.094028 -0.040893 0.075361
-0.033344 -0.004244 0.028023
0.014858 0.090088 0.034249
0.017164 -0.056067 0.089829
0.023808 -0.015671 0.118663
-0.014845 -0.046266 0.054870
0.040809 -0.072537 0.071576
0.036520 0.078516 0.011732
0.070947 0.006987 0.122120
-0.013721 0.065403 0.091023
0.059579 -0.061348 0.080559
0.090708 -0.047809 0.063996
0.069709 0.103458 0.029256
-0.012334 -0.041755 0.079842
0.005920 -0.065671 0.073053
-0.006232 -0.019359 0.103135
0.103982 0.030354 0.014564
0.017518 0.102614 0.073034
0.073582 -0.062608 0.048459
0.104545 0.071220 0.025519
-0.012760 0.009068 0.007586
0.116502 -0.004611 0.041766
-0.004758 -0.051291 0.078405
0.190836 0.112589 0.116978
0.036358 0.106492 0.121200
0.054236 -0.070688 0.061178
-0.033791 -0.010707 0.036588
0.082620 0.084003 0.018020
-0.032052 -0.019931 0.048566
-0.000858 -0.061155 0.067382
0.025583 -0.049151 0.036614
0.037853 0.030845 0.123519
