ply
format ascii 1.0
element vertex 142
property float x
property float y
property float z
end_header
0.039518 -0.139307 0.044599
0.100219 -0.054613 0.005642
-0.011805 -0.026698 0.026861
-0.015670 -0.031232 0.043921
0.005845 -0.098840 0.115067
-0.017966 -0.051052 0.069127
0.029326 -0.025169 0.123469
0.211099 -0.064367 0.117534
0.069982 -0.029574 0.004868
-0.019752 -0.058621 0.063450
-0.007898 -0.103091 0.030660
0.042015 -0.139798 0.045790
-0.020378 -0.068415 0.066156
0.065265 0.010340 0.048607
-0.006385 -0.022707 0.060851
-0.019843 -0.074798 0.070003
0.080985 -0.137005 0.113513
0.102661 -0.003772 0.108220
0.081013 -0.009455 0.120992
0.037915 0.009651 0.074794
0.022052 -0.135560 0.093931
0.023321 -0.012972 0.010418
0.095989 -0.070809 0.005372
0.011904 -0.000150 0.053583
0.101900 -0.117277 0.040156
0.004048 -0.008954 0.041905
0.031941 -0.009875 0.115453
0.088901 -0.005749 0.116207
0.028991 -0.018797 0.006168
0.073425 0.009876 0.078890
-0.012155 -0.064089 0.087033
0.030605 -0.123600 0.011062
0.043254 -0.139362 0.102867
0.098892 -0.009172 0.028571
-0.015757 -0.081791 0.082526
0.004923 -0.010783 0.023615
0.016211 -0.039431 0.009215
0.084765 -0.142403 0.099720
0.132706 -0.112589 0.069319
0.051155 0.011619 0.042513
0.010878 -0.128034 0.052002
0.129746 -0.117399 0.077411
0.001773 -0.108329 0.018466
0.027661 -0.057436 0.126405
0.000955 -0.109397 0.019690
0.098669 -0.138170 0.092679
-0.014193 -0.034105 0.062774
0.004053 -0.080322 0.120592
-0.003299 -0.040581 0.101243
-0.006642 -0.101128 0.021301
0.005244 -0.015434 0.083706
0.002439 -0.121095 0.078861
0.014927 -0.002149 0.068921
0.085908 -0.060306 0.124908
0.213608 -0.061130 0.120110
0.037516 -0.140349 0.085790
0.079527 0.007097 0.057211
0.085198 -0.138127 0.059133
0.021712 -0.125852 0.107611
0.004260 -0.119802 0.043993
-0.019292 -0.047322 0.050797
0.029670 -0.110913 0.122285
0.086782 -0.029426 0.004638
-0.010624 -0.101468 0.068421
0.060405 -0.006845 0.124738
0.008462 -0.059969 0.120717
0.057329 0.010104 0.011912
0.060354 -0.094709 0.124349
0.050796 -0.000660 0.112712
0.093590 -0.025966 0.005593
0.101479 -0.016954 0.023508
0.011247 -0.115449 0.104397
0.053155 -0.143151 0.057178
0.085073 0.002173 0.111368
0.040776 -0.013441 0.122534
0.030367 -0.126004 0.120941
0.090633 -0.134944 0.051793
-0.007669 -0.088257 0.098811
0.049768 -0.017804 0.124855
0.025178 0.001091 0.015075
0.026366 -0.004472 0.104687
0.002025 -0.080535 0.117393
0.015509 -0.131337 0.050485
0.099680 -0.044771 0.006402
0.076196 -0.106116 0.004506
0.082945 -0.013492 0.005992
-0.019178 -0.035435 0.033019
0.013739 -0.102099 0.119026
-0.004719 -0.108363 0.078058
-0.012832 -0.090178 0.080730
0.104519 -0.063475 0.010232
0.063052 -0.004893 0.006602
0.107876 -0.088823 0.017317
-0.006170 -0.107628 0.047779
0.010880 -0.029604 0.110045
0.204828 -0.061709 0.121452
0.004320 -0.114806 0.024927
-0.003270 -0.061772 0.105345
0.090468 -0.067174 0.002323
0.054386 -0.128772 0.018906
-0.010248 -0.052575 0.088175
0.052221 -0.103505 0.004871
0.050887 -0.002226 0.007128
0.047500 -0.120093 0.005281
0.104750 -0.132119 0.068037
0.030024 -0.049450 0.125958
0.000310 -0.042446 0.106812
0.112049 -0.072212 0.018645
0.016136 0.003766 0.038775
0.017218 -0.119008 0.110223
-0.020649 -0.066980 0.030004
0.010437 -0.021961 0.103450
0.085178 -0.097630 0.123393
0.048401 -0.131702 0.024803
0.056425 -0.145983 0.065768
-0.003880 -0.035168 0.019484
0.009361 -0.105790 0.012864
0.066928 -0.116257 0.005626
0.025998 0.001486 0.086276
0.102570 -0.136119 0.093069
0.000591 -0.089095 0.111562
0.084561 -0.112823 0.014964
0.107111 -0.084775 0.015723
0.057522 -0.000891 0.118227
0.015657 -0.124552 0.028293
0.036068 -0.124540 0.007313
0.022609 -0.135931 0.056866
0.097498 -0.001827 0.053049
0.087168 -0.080860 0.003250
0.095921 0.000419 0.092220
-0.011043 -0.035643 0.023069
0.024102 -0.125663 0.020981
0.213430 -0.058370 0.118866
0.035162 -0.130718 0.116202
0.074110 -0.101675 0.003796
-0.019106 -0.077625 0.029566
0.070816 0.007514 0.098772
0.052601 -0.130703 0.119360
-0.013075 -0.092437 0.030762
0.025023 0.011582 0.028021
0.028211 -0.119713 0.008008
0.061084 -0.136819 0.117481
