ply
format ascii 1.0
element vertex 155
property float x
property float y
property float z
end_header
0.044461 0.050187 0.000992
-0.020534 0.068631 0.120930
-0.037917 -0.057147 0.115810
-0.067334 0.021234 0.021918
0.042461 0.055264 0.045115
0.070784 -0.013367 0.047470
0.004285 0.069512 0.008728
-0.040198 -0.051043 0.001814
-0.036736 -0.060522 0.016152
0.026776 -0.065733 0.101489
-0.018205 -0.068656 0.041221
-0.053074 0.049345 0.125442
0.000525 -0.071230 0.037798
0.014801 0.070234 0.079693
-0.006150 -0.068838 0.009637
-0.057231 -0.035354 0.125966
-0.020979 -0.065868 0.010714
0.006421 -0.071121 0.042703
-0.035797 0.060029 0.008199
-0.057833 0.036434 0.015627
0.058806 0.000937 0.126484
-0.006413 -0.062292 0.125402
-0.065388 0.028883 0.124999
-0.063992 0.002372 0.126590
-0.070785 -0.012335 0.059708
0.068396 0.014773 0.074216
0.004859 0.070487 0.119391
-0.059717 -0.039409 0.077176
-0.063409 -0.030950 0.030672
-0.057006 -0.036540 0.016687
-0.016343 0.067790 0.014129
-0.060909 -0.036638 0.100860
-0.068055 0.013008 0.126430
0.035377 -0.060244 0.011218
-0.068648 0.020626 0.079723
0.064369 -0.026310 0.113155
-0.043319 0.056929 0.035888
0.012750 -0.070417 0.060403
-0.053229 -0.032622 0.002423
0.068692 0.007594 0.121881
0.034438 0.060928 0.117717
-0.046423 0.053327 0.035192
0.020295 0.068553 0.075271
-0.068990 0.012161 0.031488
0.054024 0.045779 0.086760
-0.044848 0.056449 0.094458
-0.025894 0.059004 0.126712
0.042318 0.053096 0.126366
-0.023705 -0.061788 0.125632
-0.054085 -0.042009 0.121336
-0.035058 -0.033103 -0.000094
0.047694 -0.047452 0.003607
0.064630 0.025600 0.120555
-0.026153 -0.065828 0.034610
0.011169 -0.070213 0.102706
-0.028375 -0.065374 0.075683
0.039190 -0.053488 -0.000094
0.003278 0.054613 0.126784
0.061575 0.022420 0.122964
-0.051616 -0.049918 0.056283
0.019960 -0.063285 0.121845
0.003330 0.070670 0.017381
-0.070499 -0.000144 0.036780
0.024054 0.063239 0.124325
-0.064710 0.031069 0.059040
0.065816 0.026095 0.079709
0.068304 -0.019475 0.045618
-0.063395 0.032981 0.116934
0.003956 0.071323 0.107540
0.055040 -0.043894 0.036883
0.036715 -0.054241 0.126052
-0.022891 0.058941 0.001667
0.046469 -0.051177 0.120313
0.032942 -0.062616 0.049895
0.052209 -0.044429 0.121448
-0.067466 -0.017711 0.124368
-0.016679 0.069107 0.119862
-0.061529 0.028248 0.001352
0.018710 -0.021346 0.127087
-0.025983 0.064290 0.004756
-0.013550 0.070128 0.036793
-0.047706 0.054252 0.092597
0.003599 0.071604 0.058891
0.070721 -0.003729 0.063559
-0.036477 0.060997 0.042036
-0.071048 0.010718 0.117488
-0.066998 -0.025261 0.068366
0.049661 -0.047517 0.125493
-0.061969 -0.031129 0.124741
-0.058906 -0.003502 0.001091
-0.062222 -0.035702 0.085471
0.011278 -0.070627 0.098791
0.008842 0.062185 0.000445
-0.004602 0.071592 0.084678
0.046790 0.011682 0.126829
-0.006296 0.069087 0.006776
0.057196 0.039523 0.002856
-0.017257 0.004667 -0.000082
-0.036889 0.054596 0.001272
-0.033229 -0.060913 0.003595
0.029765 -0.063239 0.110527
-0.069207 -0.007738 0.006619
0.019762 -0.068434 0.057095
-0.032200 0.064760 0.106825
0.013054 0.069316 0.022477
-0.022944 -0.030830 0.126776
0.056006 -0.043384 0.079707
0.033779 0.061838 0.036408
0.041624 -0.057912 0.034679
0.064421 0.029227 0.101850
0.052726 -0.043451 0.012241
0.045996 -0.052572 0.115849
0.021528 0.063975 0.000318
-0.036996 0.062063 0.118605
0.070550 0.007559 0.021815
-0.051228 0.023974 0.000393
0.067296 -0.000857 0.001350
0.057631 0.041059 0.096468
0.019392 0.068092 0.039349
-0.071112 -0.006056 0.060387
-0.004137 -0.063854 0.121946
-0.068273 -0.016990 0.017554
0.000505 -0.068095 0.000908
0.016685 0.069200 0.042937
-0.047516 -0.052062 0.080689
0.070641 -0.001019 0.023160
-0.053350 0.046392 0.049968
-0.041698 -0.040024 0.000840
0.064030 0.028521 0.005611
0.061986 0.028952 0.121970
0.059184 0.039298 0.029523
-0.069782 -0.016081 0.113316
0.061308 -0.033123 0.019947
0.050813 -0.015060 0.000510
0.068605 -0.013041 0.001596
-0.038085 -0.059491 0.080640
0.063251 -0.030164 0.053936
-0.026308 -0.064810 0.116781
0.014344 0.065718 0.125194
0.035854 0.057338 0.002195
-0.065496 0.028768 0.104138
-0.031461 -0.050210 0.000328
-0.013705 0.070156 0.058013
0.014373 0.070719 0.111678
0.052657 0.046207 0.047917
0.053968 -0.039518 0.124711
0.047268 0.050123 0.028780
-0.061363 0.034444 0.027144
0.012865 -0.068246 0.000180
0.062848 0.033007 0.113428
-0.071577 0.006243 0.099092
0.055438 -0.021238 0.126626
0.029315 -0.061378 0.004912
-0.069425 -0.004826 0.003480
0.060211 -0.011929 0.126121
