ply
format ascii 1.0
element vertex 145
property float x
property float y
property float z
end_header
0.110790 -0.035429 0.012315
0.052340 0.062295 0.105777
0.037875 -0.079981 0.089219
0.101218 -0.050155 0.008590
-0.006425 0.010012 0.017466
-0.009409 0.016452 0.034424
0.023246 0.003064 0.118893
-0.006135 0.018817 0.066439
0.052933 0.072127 0.089920
0.230089 0.042131 0.116332
-0.009960 0.008759 0.064625
-0.009618 -0.052869 0.059278
0.040509 -0.079871 0.090115
-0.011790 0.001447 0.071250
0.076604 0.037363 0.010569
0.038764 -0.064954 0.022092
0.003181 0.033090 0.042058
-0.010963 -0.001947 0.077878
0.094666 -0.037784 0.123459
0.046277 0.036988 0.121947
0.124736 0.061117 0.053491
0.054974 0.060450 0.030198
0.030647 -0.041366 0.118480
0.028135 0.000604 0.005606
0.096324 -0.064743 0.013090
0.024819 0.044481 0.022854
0.055492 0.075024 0.073067
0.032053 -0.007177 0.005054
-0.010306 -0.046929 0.060846
0.090082 0.056049 0.029092
0.002036 0.020261 0.085721
0.021907 -0.089178 0.052054
0.055471 -0.041225 0.120878
0.104047 0.002855 0.006088
-0.004117 0.000765 0.089900
0.013153 0.015796 0.007966
0.019194 -0.017046 0.009938
0.094647 -0.051010 0.120891
0.137896 -0.057553 0.079141
0.135014 -0.045252 0.046360
0.062219 0.036558 0.009601
0.012430 -0.060690 0.090495
0.137137 -0.057373 0.089172
0.002630 -0.047538 0.035067
0.065085 0.027622 0.122605
-0.003155 -0.065849 0.052378
0.047867 0.050750 0.119779
0.066951 0.070483 0.094235
-0.003845 -0.065730 0.054055
0.106271 -0.056499 0.116543
-0.004105 0.026917 0.051978
0.022992 0.023408 0.119975
0.014895 0.046686 0.083859
-0.009813 -0.056506 0.050353
0.020803 0.053280 0.055199
0.010155 -0.036258 0.107610
0.029074 0.052264 0.035799
0.232629 0.045319 0.118920
0.047772 -0.050728 0.117967
0.092056 0.038972 0.016650
0.087983 -0.077010 0.094059
0.004337 -0.058846 0.080432
-0.003970 -0.024705 0.088999
0.085379 0.080533 0.074127
0.027091 0.041728 0.111049
0.060430 0.015606 0.002831
0.078796 0.007683 0.123521
0.074365 0.076801 0.062665
0.094724 -0.023130 0.003389
0.113585 -0.022810 0.011592
0.127217 -0.036393 0.028147
0.053630 -0.076351 0.100171
0.113165 -0.001956 0.009209
0.108782 0.070454 0.054329
0.065327 0.076777 0.079788
0.048321 0.065412 0.044526
0.048388 -0.020558 0.124420
0.092044 -0.080031 0.086426
0.006566 0.004612 0.105713
0.075333 0.075303 0.084888
0.031002 0.014324 0.005207
0.047871 0.072380 0.062718
0.016467 -0.064844 0.090868
0.089043 -0.052893 0.004577
0.100301 -0.041421 0.006171
0.070793 -0.093103 0.030612
0.033402 -0.024036 0.008440
0.084287 -0.010006 0.003270
-0.014421 0.007361 0.027414
0.032971 0.001081 0.122211
0.002867 -0.025884 0.099815
-0.002578 -0.007875 0.093345
0.105418 -0.055086 0.015522
0.107374 -0.070214 0.035281
-0.004233 -0.045259 0.076351
0.029927 0.059271 0.083920
0.223830 0.044707 0.120357
0.000287 -0.067430 0.061389
0.013562 0.030528 0.099986
0.090686 -0.064510 0.005813
0.006273 -0.034653 0.101682
0.046795 -0.094126 0.058926
0.004487 0.030649 0.080935
0.047193 -0.084735 0.029294
0.038883 -0.094818 0.042985
0.109513 -0.071351 0.093872
0.018814 0.047716 0.089384
0.126030 0.029289 0.030737
-0.019458 -0.020699 0.041661
0.029240 0.061060 0.074172
0.041210 -0.091414 0.065752
0.101555 0.018466 0.010977
0.058617 -0.072265 0.107513
-0.000972 -0.002963 0.016167
0.004065 0.006963 0.011992
0.003278 -0.069016 0.045586
0.059001 -0.097018 0.038164
0.044340 0.064963 0.044950
0.110628 -0.056063 0.115670
0.018331 0.010754 0.116905
0.079107 -0.090199 0.046184
0.106400 -0.068465 0.031302
0.082354 0.078775 0.065745
0.011280 -0.075384 0.068827
0.026460 -0.093470 0.049422
0.024454 -0.065753 0.097284
0.108582 0.024181 0.015518
0.042357 0.053650 0.114004
0.085641 -0.074805 0.015796
0.114341 0.054466 0.040577
-0.007661 0.000614 0.019246
0.126030 -0.018869 0.022504
0.017917 -0.083067 0.062351
0.232430 0.048094 0.117712
0.076098 0.041787 0.121270
0.069647 -0.089719 0.026715
0.076680 0.019551 0.006024
-0.018135 -0.030041 0.046898
0.109044 -0.061705 0.109249
0.091736 0.068446 0.044473
-0.013653 -0.042935 0.054253
0.034536 0.029054 0.005175
0.019030 -0.087294 0.047745
0.037794 -0.061194 0.020378
0.077542 -0.033492 0.124189
