ply
format ascii 1.0
element vertex 145
property float x
property float y
property float z
end_header
0.072895 -0.087771 0.011739
0.020812 -0.155645 0.020964
0.071588 -0.053802 0.042025
-0.047238 -0.054879 0.010540
-0.058070 -0.066973 0.018697
-0.068945 -0.156905 0.060838
-0.069036 -0.095682 0.028277
-0.082817 -0.087175 0.101528
0.085537 -0.124547 0.118630
0.037276 -0.031795 0.032402
0.003570 -0.073563 0.129660
0.021991 -0.156642 0.023305
-0.061434 -0.107348 0.020758
-0.071595 -0.084831 0.121951
-0.061481 -0.115001 0.022023
0.004257 -0.183701 0.092499
-0.018040 -0.060824 0.127789
-0.050074 -0.038841 0.078066
-0.029952 -0.177920 0.049388
-0.015269 -0.030128 0.018678
-0.054152 -0.040204 0.047601
-0.004013 -0.175999 0.098078
-0.077471 -0.071491 0.100071
-0.033522 -0.064741 0.127660
-0.005162 -0.030069 0.018074
-0.025166 -0.038339 0.102335
-0.073953 -0.113172 0.040297
-0.020337 -0.183368 0.063281
0.032050 -0.030704 0.077367
-0.064491 -0.125943 0.029310
-0.038524 -0.037983 0.021071
-0.012557 -0.054261 0.007973
0.016388 -0.181752 0.083960
-0.019329 -0.022202 0.066792
-0.008800 -0.150374 0.014474
0.016397 -0.062153 0.119787
0.022969 -0.095356 0.128835
-0.003329 -0.141609 0.119018
-0.085567 -0.123334 0.105352
-0.078250 -0.089106 0.117582
0.028985 -0.174196 0.089802
-0.068620 -0.076357 0.030799
-0.081551 -0.143458 0.067834
-0.084733 -0.097584 0.061391
-0.012326 -0.112193 0.002197
0.032833 -0.120899 0.125005
-0.073361 -0.065642 0.059802
-0.035707 -0.159103 0.027559
-0.068954 -0.156461 0.082307
0.088033 -0.121213 0.121138
-0.005422 -0.033228 0.092245
0.042143 -0.159878 0.058331
-0.043107 -0.175690 0.059882
-0.009744 -0.140944 0.009927
-0.054919 -0.171714 0.079760
0.051966 -0.030770 0.041586
-0.044479 -0.136470 0.019119
-0.059336 -0.107742 0.120619
-0.061974 -0.067236 0.125396
-0.074737 -0.146128 0.089986
-0.086039 -0.125329 0.077925
-0.009026 -0.124144 0.124927
0.001902 -0.008173 0.048393
-0.039034 -0.155271 0.105448
-0.063823 -0.059996 0.110770
0.054649 -0.029308 0.048105
-0.051121 -0.165518 0.053041
0.013897 -0.058940 0.118993
0.038191 -0.037920 0.081734
-0.035408 -0.056749 0.125172
-0.075918 -0.074841 0.111068
-0.020935 -0.140587 0.011553
-0.061851 -0.155048 0.091246
-0.045212 -0.182116 0.074794
0.049954 -0.152887 0.057971
-0.069097 -0.140094 0.042652
-0.071783 -0.078599 0.122017
-0.022618 -0.021186 0.028246
-0.074542 -0.062832 0.090345
-0.080383 -0.142009 0.064339
-0.003720 -0.153372 0.015158
0.070175 -0.053308 0.028828
0.010711 -0.172124 0.103368
0.071464 -0.105369 0.009183
0.008764 -0.049317 0.011634
0.037144 -0.020426 0.049395
-0.053554 -0.067599 0.008283
-0.065723 -0.161937 0.067997
-0.044391 -0.147742 0.025912
-0.058774 -0.132653 0.027899
0.016482 -0.016159 0.042184
-0.025499 -0.131017 0.008903
-0.084163 -0.090093 0.080186
0.079240 -0.121775 0.122372
-0.003020 -0.125252 0.004629
-0.028258 -0.117552 0.124450
-0.081386 -0.120023 0.058297
0.077332 -0.063027 0.024494
-0.036519 -0.152883 0.024520
-0.077539 -0.103204 0.045555
-0.034397 -0.129620 0.119784
0.047549 -0.104327 0.005545
0.005784 -0.015198 0.035872
0.044264 -0.121289 0.004410
0.047318 -0.158099 0.079672
0.007735 -0.070122 0.006726
-0.085727 -0.101318 0.066989
0.011853 -0.051424 0.113154
-0.042235 -0.029594 0.040597
-0.050290 -0.170930 0.060343
-0.042102 -0.091261 0.003381
-0.078127 -0.103826 0.116559
0.013504 -0.139959 0.120302
-0.081254 -0.080693 0.077136
-0.015272 -0.154641 0.111955
0.040190 -0.139060 0.015238
0.019948 -0.170054 0.042993
0.062309 -0.116779 0.006483
0.033437 -0.161435 0.106936
0.030867 -0.172319 0.093332
-0.073834 -0.147179 0.057892
-0.061396 -0.060409 0.118565
0.008509 -0.136021 0.006474
0.034236 -0.126085 0.003777
-0.084018 -0.091438 0.071166
-0.001075 -0.159162 0.020625
0.012934 -0.036186 0.095414
-0.087595 -0.117901 0.097821
-0.070606 -0.104358 0.118466
0.075529 -0.079594 0.018958
0.008460 -0.144749 0.117995
-0.015820 -0.051619 0.117634
-0.042741 -0.062590 0.006315
-0.012030 -0.146059 0.116223
0.087852 -0.118506 0.119793
-0.036672 -0.183517 0.072736
0.069428 -0.101368 0.008886
-0.035210 -0.099488 0.002913
0.036197 -0.167873 0.088092
-0.041077 -0.046764 0.113179
0.008929 -0.114900 0.126393
-0.023216 -0.183419 0.084392
-0.032274 -0.017636 0.040768
0.028943 -0.085699 0.006547
-0.013088 -0.186664 0.085366
