ply
format ascii 1.0
element vertex 164
property float x
property float y
property float z
end_header
0.044377 0.050314 0.000045
0.001817 0.109622 0.100538
-0.013613 -0.008297 0.125342
-0.065505 0.027210 0.025484
0.077619 -0.001280 0.043554
0.005317 0.070636 0.005708
0.005442 0.092130 0.114942
-0.039604 -0.047877 0.013256
-0.034158 -0.052346 0.031579
0.047671 -0.027901 0.110577
-0.011948 -0.052126 0.059046
-0.029217 -0.004129 0.120038
-0.022997 0.042672 0.000426
-0.029688 0.096827 0.115283
0.005875 -0.056171 0.054619
0.027375 0.094463 0.057112
-0.004874 -0.063131 0.023972
-0.029655 0.016678 0.127007
-0.019454 -0.059956 0.025007
0.012257 -0.055246 0.058843
-0.035537 0.061018 0.007351
-0.057122 0.040151 0.014733
0.082688 0.044591 0.117138
-0.043840 0.075669 0.118624
-0.039529 0.052748 0.126004
-0.061698 0.009299 0.072036
0.081137 0.035066 0.059409
0.026597 0.109425 0.094593
0.039829 0.007904 0.000467
-0.045982 -0.011134 0.093197
-0.058037 -0.019367 0.045745
-0.054403 -0.029572 0.029264
-0.041742 0.001258 0.111703
-0.043463 0.061775 0.123687
-0.041097 0.004094 0.001709
0.036668 -0.056007 0.020145
-0.056603 0.047665 0.080466
0.086265 0.012658 0.107499
-0.040407 0.067687 0.030805
0.022621 -0.048705 0.076694
-0.052399 -0.029999 0.010951
-0.021190 -0.015923 0.003367
0.091593 0.047019 0.106987
0.055767 0.098689 0.091759
0.031166 0.091004 0.052176
-0.065623 0.021711 0.037891
0.068582 0.071624 0.064948
-0.028488 0.089514 0.081786
-0.000936 0.105350 0.112045
0.067632 0.095045 0.102458
0.047949 -0.044819 0.007616
0.003987 -0.010265 0.128425
-0.026792 0.007951 0.126111
-0.034606 -0.031101 0.006722
0.048346 -0.045860 0.008719
0.087347 0.063309 0.099639
-0.020695 -0.051477 0.052981
0.030552 -0.029507 0.116990
-0.013595 -0.036131 0.094888
0.039658 -0.052360 0.006854
-0.052095 0.048690 0.108189
0.027165 0.098309 0.109276
-0.026030 0.072253 0.122257
-0.041218 -0.028870 0.074323
0.058694 -0.031174 0.072396
0.042854 -0.014967 0.126241
-0.065807 0.011136 0.044858
0.046598 0.104014 0.099609
-0.056728 0.049417 0.057975
0.080045 0.050071 0.061834
-0.042960 0.076450 0.107930
0.023479 0.105639 0.083592
0.059411 -0.033824 0.041690
0.061182 -0.005690 0.126493
-0.022907 0.059180 0.001492
0.040460 -0.046250 0.062565
0.076375 -0.002199 0.119982
-0.042621 0.031623 0.125571
0.007914 -0.025827 0.117051
0.005523 0.109417 0.098958
-0.061594 0.028969 0.001536
-0.026071 0.064868 0.004344
-0.011362 0.079079 0.024516
-0.033168 0.069934 0.025628
-0.031620 0.086980 0.081024
0.010784 0.087865 0.040463
0.081740 0.013507 0.056543
-0.032469 0.073635 0.033674
-0.049637 0.056370 0.117602
-0.038529 0.009863 0.119565
-0.055107 -0.000038 0.083463
0.074065 -0.003356 0.125184
0.075054 0.053889 0.054576
0.033654 -0.039906 0.092949
-0.035563 0.018930 0.125990
-0.059306 -0.001466 0.005018
-0.046106 -0.004834 0.100441
0.029671 -0.031855 0.113869
0.008838 0.062352 0.000259
0.010014 0.098183 0.063923
-0.005922 0.070471 0.005760
0.056999 0.040012 0.002584
-0.016760 0.006575 0.000250
-0.036801 0.054797 0.001277
-0.032907 -0.056979 0.017199
-0.019502 0.093125 0.075400
0.051540 -0.021978 0.117726
-0.068683 -0.004305 0.013112
0.028412 -0.048599 0.071783
-0.012795 0.101029 0.090691
-0.049069 0.034878 0.001007
0.071045 -0.018661 0.081784
0.038950 0.070474 0.022060
0.046480 -0.047631 0.044552
-0.024752 -0.021757 0.105032
0.053858 -0.040001 0.017215
0.068899 -0.011448 0.117665
0.006846 -0.036215 0.099729
0.021486 0.064216 -0.000053
-0.015487 0.102898 0.102136
0.073030 0.011338 0.016695
0.016286 0.034052 0.125259
-0.051250 0.024276 0.000962
0.067332 -0.000571 0.001308
0.074276 0.070263 0.073929
-0.004677 -0.008865 0.127179
-0.012523 -0.032955 0.100821
-0.061892 0.015586 0.071144
-0.065741 -0.010682 0.027815
0.001227 -0.065246 0.014153
0.021525 0.079550 0.027010
-0.032299 -0.022231 0.097499
0.008980 -0.055041 0.058360
-0.018076 -0.039639 0.082193
-0.047473 0.061578 0.046971
-0.041189 -0.037379 0.009676
0.048135 -0.036846 0.003919
0.064336 0.029524 0.005065
-0.053863 -0.003702 0.082322
0.085368 0.067219 0.100606
0.061188 0.046519 0.018162
-0.048978 0.028319 0.118089
0.063371 -0.028117 0.022147
0.051241 -0.014297 0.000934
0.068812 -0.012701 0.001654
-0.022624 -0.028408 0.098860
0.071705 -0.015771 0.054793
-0.001552 -0.016982 0.124654
0.037824 0.107573 0.101575
0.035104 0.057280 0.001509
-0.031060 -0.047798 0.010756
0.038903 0.048420 0.122549
-0.006333 0.087244 0.043216
0.034306 0.106157 0.085456
0.078421 0.003188 0.122027
-0.058941 0.041890 0.026906
0.013653 -0.065875 0.013037
0.083712 0.068071 0.091248
0.079124 0.021866 0.122985
0.029963 -0.058469 0.014625
-0.069316 -0.002338 0.009140
0.063029 -0.017973 0.001513
0.024705 0.007097 0.000379
0.084094 0.031135 0.119577
