ply
format ascii 1.0
element vertex 151
property float x
property float y
property float z
end_header
0.011566 -0.046529 0.085533
-0.108674 -0.004486 0.123579
-0.027238 -0.054321 0.109714
-0.033763 -0.119584 0.073807
-0.010618 -0.007936 0.087745
-0.127686 -0.118318 0.043905
-0.159459 -0.044455 0.029314
-0.022479 0.001749 0.049940
-0.137455 0.014432 0.111223
-0.099270 -0.043784 0.126764
-0.079272 -0.091858 0.006046
-0.063173 -0.024723 0.122637
-0.171079 -0.030513 0.048073
-0.081871 -0.098345 0.008855
-0.143425 -0.020413 0.103988
-0.099847 -0.110748 0.118268
-0.149935 0.017970 0.083438
-0.163582 0.000579 0.070401
-0.115853 -0.005380 0.020429
-0.094924 -0.133427 0.071768
-0.094114 -0.022965 0.127211
-0.048636 -0.015033 0.007625
0.003138 -0.070563 0.050743
-0.133042 -0.031158 0.015554
-0.091777 -0.021439 0.005276
-0.109432 -0.104351 0.112758
-0.153871 -0.030040 0.026874
-0.159575 0.009095 0.073132
-0.040650 -0.012680 0.013538
-0.029488 -0.113614 0.011523
-0.119210 0.013346 0.051116
-0.107626 -0.089262 0.012495
-0.098854 -0.129088 0.087012
-0.058949 0.019865 0.070647
-0.091520 -0.104877 0.014866
-0.064991 -0.031667 0.002997
-0.035292 -0.040512 0.010249
-0.085832 -0.109918 0.118826
-0.055941 -0.027029 0.121006
-0.055281 -0.072841 0.122323
-0.007453 -0.063296 0.036248
-0.121312 -0.006303 0.124447
-0.080802 -0.058376 0.127477
-0.011401 -0.110758 0.018439
-0.167245 -0.075787 0.043587
-0.171332 -0.038257 0.043320
-0.012296 -0.112020 0.018192
-0.087216 -0.068291 0.004822
-0.137996 -0.105839 0.034480
-0.127052 -0.069515 0.009464
-0.016521 -0.108808 0.008716
-0.108757 -0.034449 0.125785
-0.116083 -0.042563 0.006832
-0.077293 -0.129010 0.045746
-0.142059 -0.109320 0.056251
-0.088567 -0.041573 0.127756
-0.059742 -0.037075 0.123390
-0.080276 -0.128908 0.078074
-0.049345 -0.094535 0.111915
-0.034540 -0.120673 0.067203
-0.111174 -0.129809 0.067698
-0.040697 -0.121972 0.041217
-0.132171 -0.120515 0.070689
-0.020516 0.010064 0.065413
-0.072680 -0.116320 0.023766
-0.161651 -0.049690 0.065147
-0.167038 -0.010652 0.049470
-0.150801 -0.099381 0.052446
-0.146113 -0.088026 0.029862
-0.001736 -0.014255 0.076113
-0.066746 -0.009948 0.116664
-0.055077 0.018147 0.023473
-0.139488 -0.091900 0.089467
-0.024135 0.013673 0.070533
-0.042081 0.004647 0.090676
-0.110278 -0.125650 0.053835
-0.048944 -0.011298 0.110590
-0.059566 0.016214 0.080550
-0.153355 0.010283 0.064556
-0.162448 -0.027842 0.034978
-0.144094 -0.103209 0.065672
-0.123916 -0.129799 0.077676
-0.044627 -0.087258 0.113205
-0.110493 -0.111747 0.026065
-0.170473 -0.025227 0.044958
-0.058144 -0.009511 0.006248
-0.141770 -0.028310 0.019406
-0.134543 -0.105767 0.032570
-0.001142 -0.010844 0.079534
-0.101946 -0.095285 0.123226
0.013316 -0.064439 0.086139
-0.020442 -0.044820 0.022383
-0.024932 -0.026698 0.026127
-0.033794 0.018049 0.054577
-0.062373 -0.064415 0.002196
-0.130429 -0.118946 0.052791
-0.079646 -0.121679 0.033566
-0.087056 -0.110417 0.019766
-0.114700 -0.068307 0.007797
-0.041631 0.013766 0.034284
-0.158612 -0.058235 0.068397
-0.084026 -0.130790 0.056615
-0.021210 -0.039788 0.107412
-0.141608 -0.057549 0.016964
-0.018806 -0.115672 0.028270
-0.127748 -0.090777 0.020058
0.005563 -0.019785 0.085786
-0.119523 0.005338 0.117368
-0.002620 -0.098407 0.076615
-0.113448 -0.017311 0.125491
-0.145506 -0.062183 0.089070
0.008964 -0.073850 0.063105
-0.044452 0.008853 0.023206
0.011990 -0.097276 0.057732
-0.061847 -0.081487 0.123260
0.004393 -0.071358 0.052559
-0.132900 -0.071051 0.012704
-0.115686 -0.126840 0.060818
-0.029285 -0.042524 0.111227
-0.045395 -0.088140 0.002623
-0.170744 -0.051602 0.048133
-0.136582 -0.049136 0.013260
-0.126197 -0.083728 0.107417
-0.006445 -0.104676 0.072024
-0.054683 -0.120070 0.091694
-0.007127 -0.105603 0.023652
0.011857 -0.077812 0.080883
-0.125441 -0.020143 0.015644
-0.079019 -0.094204 0.126480
-0.126747 -0.111915 0.035363
-0.006141 -0.070205 0.098607
-0.158397 -0.007710 0.043692
-0.017721 -0.117626 0.043829
0.009184 -0.106519 0.050412
-0.133599 -0.061228 0.012353
-0.049016 -0.125064 0.061094
-0.085246 0.019449 0.067651
-0.162319 -0.074237 0.035668
-0.167368 -0.049569 0.054700
0.006729 -0.036610 0.088061
-0.056602 0.001573 0.100352
-0.155217 -0.068006 0.070531
-0.116716 -0.128808 0.082938
0.012755 -0.061086 0.083198
-0.038006 -0.097156 0.002937
-0.140613 0.007006 0.050442
-0.115680 -0.120330 0.097982
-0.029819 -0.107013 0.006204
-0.072726 -0.006521 0.005784
-0.003854 -0.059200 0.043667
-0.108416 -0.120209 0.106244
