ply
format ascii 1.0
element vertex 147
property float x
property float y
property float z
end_header
0.111589 -0.039143 0.008754
0.051911 0.023930 0.119117
0.044226 -0.107614 0.072256
0.101503 -0.052099 0.005598
-0.006008 -0.004492 0.022837
-0.008292 -0.002161 0.040766
0.025878 -0.036938 0.119190
-0.005354 -0.009703 0.071446
0.050240 0.038129 0.108918
0.232765 0.001080 0.116756
-0.008442 -0.018725 0.068363
-0.004496 -0.075528 0.050043
0.046856 -0.107680 0.073226
-0.009374 -0.027170 0.073805
0.075705 0.030968 0.023307
0.071841 0.039339 0.109265
0.003206 0.012417 0.052096
-0.008343 -0.031923 0.079391
0.097688 -0.077597 0.121824
0.122229 0.042035 0.072851
0.052571 0.045133 0.048191
0.034359 -0.080668 0.113709
0.027555 -0.003809 0.006507
0.097876 -0.067508 0.007134
0.022885 0.029925 0.036097
0.052236 0.046517 0.093239
0.032009 -0.011966 0.005087
0.088216 0.043089 0.046704
0.029466 -0.106870 0.034291
0.059140 -0.081530 0.117388
0.104483 0.000532 0.007977
-0.001730 -0.032570 0.091920
0.012075 0.006753 0.013423
0.020502 -0.026347 0.009518
0.098439 -0.089287 0.115349
0.142265 -0.079275 0.071068
0.101740 0.003911 0.009731
0.137991 -0.056481 0.038843
0.061092 0.030585 0.020358
0.017629 -0.090891 0.078092
0.141314 -0.081037 0.080855
0.007492 -0.063779 0.027470
0.002793 -0.086008 0.039859
0.049391 0.007668 0.125277
0.063812 0.036369 0.112216
0.002118 -0.086391 0.041499
0.111443 -0.091107 0.107186
-0.003763 0.003096 0.059690
0.025139 -0.016567 0.121590
0.014048 0.013307 0.095373
-0.004616 -0.077086 0.040472
0.019447 0.028658 0.069688
0.014186 -0.072298 0.100416
0.027313 0.033776 0.050416
0.235291 0.004287 0.119341
0.051750 -0.089736 0.108953
0.090916 0.030648 0.029627
0.093839 -0.104005 0.079131
0.009551 -0.086533 0.068488
-0.000360 -0.057065 0.085392
0.081633 0.053006 0.096365
0.028557 0.002053 0.119699
0.060505 0.014512 0.003602
0.081187 -0.031866 0.124260
0.071008 0.051874 0.084241
0.094995 -0.024055 0.003117
0.114347 -0.026530 0.010495
0.105450 -0.009126 0.007230
0.028256 -0.056419 0.116464
0.129187 -0.043026 0.023727
0.059733 -0.106795 0.083924
0.113389 -0.005365 0.011651
0.105740 0.050183 0.075631
0.061867 0.046802 0.100329
0.050792 -0.061640 0.124421
0.098145 -0.104504 0.070816
0.009689 -0.032414 0.107733
0.071965 0.044640 0.105202
0.030699 0.010328 0.006165
0.044849 0.046221 0.082335
0.021785 -0.094955 0.077433
0.018531 -0.048073 0.111094
0.100452 -0.042811 0.004804
0.077842 -0.101016 0.014418
-0.013009 -0.009880 0.032358
0.035451 -0.038862 0.122477
0.006839 -0.060463 0.095607
0.000276 -0.041606 0.093296
0.107223 -0.058061 0.009616
0.064352 -0.002143 0.003528
0.111946 -0.078570 0.023719
0.000245 -0.072716 0.068013
0.028180 0.026404 0.098506
0.226505 0.003678 0.120747
0.006225 -0.089723 0.048114
0.014515 -0.006124 0.106402
0.091252 -0.065692 0.003016
0.054252 -0.111618 0.040485
0.004767 -0.002440 0.088459
0.054221 -0.094612 0.014696
0.046718 -0.108281 0.024719
0.114905 -0.096871 0.081217
0.051608 0.015321 0.122802
0.018136 0.013219 0.100884
0.115880 -0.062850 0.019574
0.058425 0.043706 0.045809
0.024874 0.025117 0.022687
0.035616 -0.058339 0.119534
-0.016044 -0.040442 0.039734
0.061646 0.022948 0.120454
0.027174 0.030960 0.089722
0.117900 -0.060828 0.020508
0.048683 -0.111286 0.047539
0.101980 0.014058 0.019034
0.064395 -0.105268 0.092226
0.000571 -0.016033 0.018597
0.004442 -0.004915 0.016340
0.009453 -0.086941 0.032757
0.066843 -0.107987 0.020374
0.041766 0.044028 0.063341
0.115585 -0.089735 0.106380
0.020499 -0.028888 0.117346
0.085686 -0.102211 0.029731
0.110748 -0.075638 0.020621
0.078745 0.053337 0.087937
0.017657 -0.098804 0.053442
0.034301 -0.109950 0.030765
0.029844 -0.097184 0.083783
0.108274 0.017835 0.025489
0.043376 0.012307 0.122414
0.089130 -0.076805 0.006427
0.112548 0.038990 0.058138
-0.006193 -0.014093 0.022539
0.024952 -0.104033 0.045708
0.235096 0.007057 0.118122
0.053657 -0.068668 0.122057
0.076202 -0.096757 0.011844
0.076767 0.016819 0.010261
-0.014496 -0.050832 0.042671
0.114343 -0.092591 0.098269
0.088903 0.050262 0.065020
0.072298 -0.067941 0.123546
-0.009072 -0.064915 0.047301
0.033325 0.025334 0.009246
0.026483 -0.104135 0.030541
0.042569 -0.070262 0.011654
0.080305 -0.074918 0.122979
