ply
format ascii 1.0
element vertex 155
property float x
property float y
property float z
end_header
0.044509 0.050126 0.000344
0.002837 0.088156 0.113807
-0.012514 -0.036657 0.123038
-0.064272 0.023504 0.026607
0.077932 -0.008627 0.040636
0.005035 0.070167 0.007267
-0.039401 -0.050033 0.005121
-0.034025 -0.057562 0.022412
0.048379 -0.049578 0.103103
-0.011697 -0.062471 0.049121
-0.028533 -0.028491 0.114407
-0.022970 0.042539 0.000475
-0.028220 0.071395 0.124910
0.006418 -0.065569 0.044582
0.028554 0.081989 0.068979
-0.004638 -0.067054 0.013474
-0.028331 -0.012630 0.127435
-0.019176 -0.064019 0.015045
0.012924 -0.065219 0.048703
-0.035250 0.060381 0.008343
-0.056267 0.037893 0.017342
0.083960 0.020936 0.120028
0.020266 -0.040085 0.126790
-0.041083 0.050574 0.124679
-0.037108 0.024931 0.127710
-0.059899 -0.003693 0.070077
0.081556 0.023892 0.062141
0.027246 0.089031 0.109026
-0.044788 -0.027466 0.088084
-0.057435 -0.026637 0.040345
-0.054063 -0.033922 0.024102
-0.015862 0.068887 0.012794
-0.039806 -0.020705 0.108445
-0.040650 0.035529 0.126840
0.036662 -0.058976 0.012176
-0.054559 0.031750 0.084610
0.086935 -0.009053 0.106232
-0.039178 0.061329 0.036403
0.023391 -0.062342 0.066482
-0.052186 -0.032003 0.006223
-0.020664 -0.017284 0.000410
0.092530 0.025618 0.110827
0.056778 0.079198 0.105106
0.032517 0.079599 0.063475
-0.064056 0.015772 0.038148
0.069525 0.057866 0.073599
-0.027126 0.071545 0.092092
-0.000367 0.081251 0.123808
0.068085 0.073155 0.115560
0.004705 -0.040183 0.127372
-0.026096 -0.020717 0.125358
-0.034397 -0.032492 0.001478
0.048017 -0.047231 0.003727
0.087813 0.043190 0.106832
-0.020454 -0.060657 0.043377
0.031788 -0.053489 0.108724
-0.012911 -0.053598 0.085798
0.039766 -0.053325 0.000073
0.027845 0.075421 0.120982
-0.040898 -0.041493 0.067230
0.044436 -0.042524 0.123944
0.005780 0.071952 0.015078
-0.064400 0.004341 0.044231
0.047462 0.082874 0.113452
-0.054839 0.038897 0.062756
0.080465 0.036934 0.066628
-0.040718 0.053188 0.115383
0.024414 0.087660 0.097391
0.059841 -0.040317 0.035534
0.062800 -0.033142 0.125094
-0.022847 0.059038 0.001660
0.071105 -0.032671 0.117816
0.041239 -0.056673 0.053043
0.077122 -0.026049 0.117515
-0.040700 0.004083 0.126608
0.009341 -0.049648 0.110099
-0.061482 0.028706 0.001624
-0.025909 0.064507 0.004708
-0.009810 0.074805 0.032585
0.012050 0.079679 0.050838
0.081782 0.003568 0.055249
-0.031319 0.066561 0.040735
-0.047056 0.031347 0.121308
-0.053763 -0.014928 0.079759
0.075308 -0.028418 0.122656
0.075530 0.042354 0.059968
0.034802 -0.056971 0.083715
-0.033937 -0.009273 0.126568
-0.058744 -0.003004 0.003190
-0.044945 -0.022820 0.095962
0.030973 -0.054825 0.105039
0.008881 0.062270 0.000383
0.011096 0.084206 0.076392
0.072621 0.031737 0.120387
-0.005885 0.069889 0.006337
0.057162 0.039813 0.002693
-0.017106 0.004825 -0.000013
-0.036721 0.054689 0.001400
-0.032686 -0.059757 0.007508
0.052667 -0.046195 0.111445
-0.068038 -0.006543 0.011232
0.029356 -0.061103 0.061952
-0.011626 0.081316 0.102641
0.015074 0.071256 0.018446
-0.049033 0.034723 0.001157
0.071632 -0.032941 0.076020
0.039389 0.066657 0.028008
0.046852 -0.054433 0.036227
-0.023897 -0.041245 0.098731
0.054015 -0.042535 0.012069
0.069958 -0.034830 0.113486
0.021546 0.064140 0.000114
-0.014378 0.080766 0.114058
0.073138 0.008970 0.016346
0.018821 0.006879 0.125945
-0.051197 0.024085 0.000782
0.067295 -0.000701 0.001232
0.075040 0.054670 0.082345
-0.003796 -0.038089 0.125903
-0.011953 -0.051860 0.092396
-0.060151 0.002639 0.070058
0.021664 -0.042701 0.123889
-0.065180 -0.014527 0.024527
0.001606 -0.067501 0.003598
0.022285 0.074646 0.034998
-0.031289 -0.039569 0.091049
0.024124 0.073879 0.034397
-0.045788 0.052987 0.052402
-0.041033 -0.039115 0.003546
0.064432 0.029096 0.005043
-0.052555 -0.018374 0.078009
0.085693 0.046761 0.108509
0.062118 0.042718 0.021653
-0.047216 0.004072 0.118910
0.063527 -0.031289 0.018392
0.050918 -0.014964 0.000453
0.068670 -0.012934 0.001505
-0.021884 -0.046692 0.091281
0.072119 -0.024682 0.049626
-0.000770 -0.044606 0.120057
0.038609 0.085852 0.115915
0.035564 0.057244 0.001941
-0.030862 -0.049581 0.002752
0.040732 0.023387 0.124744
0.035208 0.087665 0.099583
0.079417 -0.021009 0.120268
-0.057814 0.037323 0.029873
0.014005 -0.067875 0.002584
0.084161 0.049453 0.099420
-0.051974 0.022549 0.104393
-0.061651 0.028546 0.008158
0.081131 -0.002411 0.122464
0.030309 -0.060625 0.005949
-0.068776 -0.004114 0.007525
0.085705 0.007019 0.120479
