ply
format ascii 1.0
element vertex 157
property float x
property float y
property float z
end_header
0.040654 0.049932 0.013377
-0.049505 0.139771 0.055826
-0.074975 0.030124 0.007724
0.033951 0.017727 0.088600
-0.056093 0.129718 0.075340
-0.055298 -0.043764 0.019507
-0.059493 -0.043045 0.038698
-0.040605 0.015465 0.125066
-0.055115 -0.030965 0.071796
-0.107138 0.035742 0.095161
-0.085515 0.131313 0.054155
-0.038225 -0.035626 0.076458
-0.031096 -0.053493 0.049139
-0.113659 0.061407 0.095131
-0.044080 -0.051356 0.041913
-0.035213 -0.032503 0.082719
-0.072619 0.110675 0.082997
-0.003504 0.086524 0.126623
-0.104724 0.110598 0.056292
-0.111786 0.094424 0.074273
-0.102782 0.029781 0.038303
-0.024940 0.139717 0.064869
-0.103546 0.016690 0.068867
-0.086293 -0.008193 0.030616
-0.072752 -0.023850 0.022367
-0.112018 0.038098 0.079897
-0.111845 0.099583 0.066199
-0.045038 0.004867 0.001967
0.007701 -0.044878 0.062953
-0.096263 0.068935 0.033686
-0.000069 0.051310 0.126637
-0.050669 0.072373 0.006114
-0.037272 -0.019965 0.098351
-0.062559 -0.026614 0.007453
-0.030336 -0.014832 0.011785
0.010928 0.086254 0.123970
-0.000174 0.130113 0.081049
-0.082443 0.028841 0.012901
0.013519 -0.000834 0.022461
-0.067615 0.110662 0.034080
-0.058156 0.140452 0.064663
0.004982 0.131404 0.096464
-0.091043 0.038959 0.121786
-0.111890 0.053891 0.099629
-0.045941 -0.029017 0.012271
0.024577 -0.038688 0.056018
0.015134 0.099452 0.115660
-0.059204 -0.033665 0.062541
-0.058748 0.014990 0.124439
-0.079596 -0.003950 0.091999
0.016868 -0.045647 0.052251
-0.034174 0.134690 0.080800
-0.088162 -0.007504 0.063550
-0.003153 -0.001119 0.108888
-0.088541 0.021219 0.020120
-0.011501 0.137484 0.081132
0.011594 0.039845 0.117495
-0.082207 0.061382 0.019431
0.031402 0.075845 0.087586
0.030768 0.011735 0.089033
-0.097326 0.107168 0.049871
-0.022375 0.131420 0.056277
0.017392 -0.014530 0.085388
-0.013729 -0.020492 0.096488
-0.119228 0.071518 0.078981
-0.063236 0.033668 0.125893
-0.075486 0.015154 0.116304
0.009248 0.057760 0.000961
-0.018921 0.117054 0.100655
-0.057051 0.101869 0.096938
-0.045564 0.139384 0.056599
-0.062092 0.028751 0.000687
-0.045172 0.068567 0.123224
-0.027276 0.065013 0.002515
-0.022394 0.080570 0.009444
-0.022374 0.020281 0.124176
-0.070345 0.107927 0.032801
0.031466 0.037184 0.096305
-0.044512 0.080751 0.008553
-0.112128 0.091402 0.059315
-0.114794 0.049104 0.084932
-0.104994 0.024074 0.053697
-0.023154 0.042806 0.129139
-0.039017 -0.003667 0.114633
-0.117001 0.061316 0.089906
0.009529 0.029476 0.008564
-0.107864 0.026108 0.072819
-0.057461 0.011646 0.122586
-0.027013 0.007408 0.118710
0.008385 0.062443 0.000352
-0.023801 0.115659 0.037399
-0.007766 0.097038 0.118358
0.050495 0.040414 0.024793
-0.023197 0.006397 0.005987
-0.037219 0.054750 0.000775
-0.052110 -0.051264 0.028213
-0.055735 0.112324 0.032872
-0.041199 0.024398 0.126959
-0.075840 -0.002172 0.007169
-0.029223 -0.020629 0.098070
-0.057808 0.126294 0.044106
-0.049397 0.034743 0.000492
-0.000901 0.014068 0.117468
0.003150 -0.027282 0.085073
0.023009 0.091766 0.100612
0.025309 -0.029843 0.064363
-0.064744 -0.001038 0.106036
-0.081401 0.093697 0.033416
0.021044 0.064178 0.001618
-0.065894 0.132511 0.050193
0.049989 0.018708 0.056860
0.021279 0.048045 0.006635
-0.064586 0.080726 0.109323
0.041867 0.016463 0.027557
-0.051623 0.024069 0.000599
0.053397 0.000397 0.042397
0.022588 0.098402 0.086493
0.032769 0.008912 0.025577
-0.081168 0.000885 0.096428
0.019078 -0.013761 0.033237
-0.101191 0.035481 0.036003
-0.080232 -0.006416 0.016644
-0.021264 -0.057918 0.044084
-0.102652 0.052348 0.109327
-0.032203 0.111933 0.100044
-0.096104 0.007451 0.081778
-0.034184 0.087042 0.117386
0.047655 0.011975 0.061812
-0.075484 -0.012459 0.080412
-0.053683 -0.034506 0.013112
0.053687 0.029671 0.034246
-0.103882 0.020319 0.054555
0.000375 0.115222 0.107504
0.013978 0.103633 0.114355
-0.116760 0.065451 0.070600
0.032766 -0.016501 0.069232
0.035848 -0.012345 0.040704
0.051895 -0.010279 0.048236
-0.088144 0.003297 0.089078
0.019853 0.008517 0.097416
-0.070441 0.076879 0.018929
-0.092633 0.031056 0.117282
-0.019262 0.141054 0.076741
-0.096544 0.095420 0.044053
-0.046571 -0.044228 0.021375
-0.026216 0.095249 0.019322
-0.014305 0.133760 0.063012
-0.016169 0.047494 0.128510
0.047358 0.039487 0.021712
-0.067885 0.044916 0.006511
-0.009781 -0.057742 0.049026
0.018761 0.101720 0.106465
0.027788 0.086214 0.082019
-0.054427 0.116215 0.087075
-0.074385 -0.000939 0.004529
0.016639 0.007363 0.019078
-0.007626 0.073132 0.128151
