ply
format ascii 1.0
element vertex 146
property float x
property float y
property float z
end_header
0.040448 0.092349 0.080207
0.025383 -0.051073 0.101766
0.100382 -0.046509 0.020042
-0.008338 0.015731 0.007964
-0.014471 0.025798 0.021910
0.006374 0.041595 0.111784
-0.015062 0.039039 0.051486
0.043290 0.097093 0.062895
0.211455 0.083899 0.115894
-0.018718 -0.036006 0.061457
0.027920 -0.050528 0.102820
-0.022183 0.020494 0.058173
0.132107 -0.022959 0.064758
0.074788 0.039431 0.006072
0.033216 -0.057250 0.033351
-0.002307 0.043853 0.025443
-0.022257 0.018968 0.065558
0.076829 0.002565 0.123852
0.118462 0.076796 0.037958
0.051381 0.065849 0.011421
0.013904 -0.002352 0.119239
0.027590 0.002518 0.004773
0.092817 -0.059858 0.027984
0.022759 0.048077 0.007736
0.047704 0.094878 0.045875
0.030996 -0.005397 0.005208
-0.019675 -0.029902 0.061397
0.086020 0.062931 0.014441
-0.009025 0.047151 0.069569
0.013051 -0.071799 0.067378
0.038047 -0.000529 0.121632
0.103107 0.004777 0.007084
-0.017110 0.025685 0.076038
0.012128 0.017974 0.005005
0.016761 -0.012829 0.008966
0.077715 -0.009845 0.122907
0.126225 -0.029449 0.095077
0.127964 -0.028341 0.062381
0.005638 -0.007079 0.111950
0.061215 0.038258 0.005553
-0.000152 -0.032965 0.095521
0.123925 -0.026569 0.104597
-0.004078 -0.036614 0.038046
-0.011621 -0.049959 0.059169
0.114006 -0.018348 0.112585
-0.022093 0.005990 0.024424
0.033752 0.086787 0.096074
0.056978 0.097305 0.068443
-0.012491 -0.049385 0.060657
-0.011017 0.041597 0.035920
0.006118 0.059628 0.103560
0.005233 0.070984 0.061100
-0.017923 -0.041719 0.053779
0.014418 0.067904 0.033396
-0.004707 -0.003602 0.105809
0.025001 0.061019 0.017025
0.053422 0.045785 0.006993
0.214013 0.087069 0.118478
0.089436 0.043340 0.009437
0.074338 -0.044359 0.109378
-0.006715 -0.034567 0.085008
0.086678 -0.025314 0.005644
-0.016205 0.001116 0.083045
0.077442 0.100874 0.048244
0.014360 0.075031 0.090273
0.060125 0.015985 0.002620
0.067318 0.093654 0.037364
0.094343 -0.022176 0.005521
0.111708 -0.018301 0.019818
0.123059 -0.025994 0.041534
0.039545 -0.043043 0.112341
0.111892 0.001643 0.012406
0.102512 0.085493 0.034612
0.056772 0.098738 0.052833
0.043363 0.075849 0.021837
0.030971 0.020189 0.123414
0.079272 -0.049560 0.103854
-0.008670 0.035299 0.091829
0.041093 0.088858 0.036281
0.004042 0.056849 0.101608
0.003931 -0.036599 0.097421
0.087987 -0.050495 0.013268
0.099445 -0.037146 0.014878
0.064216 -0.081195 0.052452
-0.023247 -0.005724 0.056012
0.031647 -0.019982 0.008909
0.083891 -0.009274 0.003752
-0.018673 0.014946 0.016071
0.014871 0.039774 0.117592
-0.011191 0.003375 0.094441
-0.015930 0.018494 0.082330
0.101750 -0.049719 0.029767
0.005670 -0.003291 0.113395
0.100784 -0.057342 0.053655
-0.014861 -0.022937 0.076705
0.020601 0.082903 0.059303
0.205209 0.086457 0.119963
-0.009111 -0.048745 0.068555
0.001199 0.060767 0.081790
0.089116 -0.061109 0.019729
-0.007796 -0.004174 0.099203
0.037504 -0.074327 0.077578
-0.005394 0.055369 0.061967
0.040925 -0.073834 0.046583
0.030873 -0.079984 0.061985
0.095440 -0.038507 0.109431
0.024300 -0.034289 0.019410
0.122929 0.068686 0.038064
0.008576 0.073627 0.066406
0.121985 0.039459 0.025972
-0.026495 -0.009547 0.035581
0.021027 0.081583 0.049488
0.031229 -0.069650 0.082773
0.099798 0.021445 0.008320
0.043691 -0.036123 0.117875
-0.003826 0.002206 0.010403
0.002002 0.011191 0.006652
-0.004743 -0.054703 0.054091
0.051765 -0.082929 0.059302
0.039334 0.075512 0.022003
0.093262 -0.015957 0.120802
0.002266 0.047003 0.105244
0.071480 -0.073500 0.067205
0.100459 -0.056910 0.049239
0.075147 0.096668 0.040410
0.001099 -0.053920 0.078877
0.017816 -0.076580 0.066515
0.011113 -0.035533 0.104131
0.106461 0.028181 0.010978
0.029039 0.087240 0.089290
0.081110 -0.068668 0.033854
0.109141 0.066175 0.027088
-0.010743 0.006766 0.011355
0.122685 -0.010657 0.030938
0.008237 -0.063089 0.075186
0.213810 0.089847 0.117279
0.059408 0.083847 0.121308
0.063696 -0.079250 0.047540
-0.025707 -0.017152 0.043102
0.092614 -0.023465 0.118207
0.086435 0.080006 0.024441
-0.022268 -0.027802 0.053667
0.034260 0.029737 0.004286
0.010537 -0.071229 0.062495
0.032566 -0.054080 0.030624
0.059687 0.008290 0.124053
