ply
format ascii 1.0
element vertex 154
property float x
property float y
property float z
end_header
0.016149 0.036751 0.065259
-0.098723 0.116087 0.070181
-0.031712 -0.014755 0.112620
-0.007462 0.063429 0.037924
-0.061664 -0.049257 0.004842
-0.075263 -0.054906 0.014628
-0.121258 -0.029359 0.101033
-0.091800 -0.052479 0.042271
-0.155787 0.007680 0.041253
-0.024854 0.038076 0.010969
-0.125612 0.110572 0.044643
-0.091342 0.096859 0.106383
-0.079419 -0.060281 0.052566
-0.050785 0.091655 0.077623
-0.054959 -0.070767 0.033895
-0.164262 0.033663 0.043443
-0.062765 -0.065950 0.022021
-0.080301 -0.058920 0.060035
-0.130361 0.082511 0.070171
-0.091171 0.032297 0.128672
-0.139334 0.090524 0.028721
-0.153842 0.070648 0.035139
-0.114309 0.019442 0.005551
-0.083246 -0.016462 0.123593
-0.084198 0.111228 0.091502
0.004510 -0.006383 0.059850
-0.133460 -0.001796 0.020221
-0.093841 -0.014038 0.004990
-0.150770 0.015021 0.027946
-0.149626 0.077640 0.029944
-0.046352 0.002507 0.003070
-0.029913 -0.066783 0.065365
-0.113059 0.056147 0.010260
-0.087596 -0.001342 0.126537
-0.057331 0.067964 0.012793
-0.091821 -0.052324 0.070772
-0.065332 -0.028441 0.003281
-0.037660 -0.022792 0.013692
-0.076790 0.033821 0.127693
-0.070591 0.093205 0.112186
-0.045262 0.087056 0.079275
-0.007229 -0.013472 0.045892
-0.110769 0.114507 0.071854
-0.074133 0.087383 0.123785
-0.160163 0.001465 0.073222
-0.165109 0.025149 0.046140
-0.051240 -0.034827 0.007120
-0.012998 -0.059419 0.070284
-0.089512 -0.051891 0.032094
-0.132824 -0.027571 0.087287
-0.126985 -0.030995 0.045613
-0.016594 -0.064985 0.061352
-0.099806 0.101427 0.096747
-0.116534 -0.024555 0.021580
-0.072335 -0.038719 0.104506
-0.133351 -0.011951 0.102959
-0.105595 -0.012662 0.009060
-0.081296 0.101734 0.110225
-0.050858 0.088322 0.089402
-0.072741 -0.008656 0.124185
-0.042553 0.038445 0.119370
-0.033379 -0.020665 0.109782
-0.076042 0.106328 0.083820
-0.039178 -0.043810 0.094380
-0.120743 -0.008456 0.117878
-0.023242 0.056149 0.013024
-0.070993 -0.052893 0.083429
-0.160002 0.047715 0.029965
-0.141933 -0.008006 0.095318
-0.141013 -0.020715 0.072388
0.000468 0.050264 0.034601
-0.095226 0.075715 0.114566
-0.054946 0.093439 0.062784
-0.095945 0.115234 0.072976
-0.062217 0.028163 0.000628
-0.126943 0.025242 0.109587
-0.027594 0.061886 0.014192
-0.036849 0.074885 0.032984
-0.102175 -0.026917 0.110633
-0.098494 0.093786 0.031721
-0.039950 0.084170 0.058319
-0.042004 -0.000262 0.120197
-0.055259 0.075319 0.020150
-0.144531 0.071275 0.023053
-0.157473 0.024229 0.032466
-0.125665 0.009688 0.010948
-0.133732 -0.000877 0.104844
-0.111007 -0.009646 0.125656
-0.036742 0.042397 0.113953
-0.106845 -0.042877 0.086154
-0.163706 0.034993 0.037413
-0.141067 0.005798 0.022157
-0.129841 -0.029675 0.085713
-0.100571 -0.035323 0.099668
0.001098 0.055043 0.034041
-0.063535 0.098359 0.064075
-0.093412 0.046947 0.124477
-0.016051 0.064770 0.031103
0.017547 0.024333 0.078254
-0.022904 -0.014017 0.024824
-0.028712 -0.000065 0.014813
-0.037507 0.052007 0.003205
-0.062789 -0.060515 0.008389
-0.086940 0.098001 0.041448
-0.122653 -0.022144 0.106637
-0.085421 -0.052619 0.076227
-0.097078 0.107533 0.052392
-0.049825 0.034031 0.000924
-0.077871 -0.029417 0.113496
-0.012860 0.059597 0.075360
-0.048642 -0.055778 0.083243
-0.139581 -0.015068 0.041694
-0.018518 -0.052918 0.079441
-0.124356 -0.033629 0.067191
0.008866 0.053807 0.044388
-0.107706 0.111933 0.053873
0.000221 -0.004580 0.097871
-0.135873 0.043764 0.087937
0.011164 0.000818 0.070084
-0.051804 0.023048 0.000773
0.013476 -0.019066 0.084148
0.005892 -0.005519 0.061530
-0.131635 -0.028026 0.049474
-0.112329 0.025355 0.005970
-0.043546 -0.073834 0.032605
-0.163647 0.020102 0.058738
-0.135847 -0.015316 0.032154
-0.114647 0.044281 0.112281
-0.003869 -0.012266 0.098862
-0.050586 0.004125 0.121895
0.015481 0.011358 0.084740
-0.094392 0.086792 0.109904
-0.125097 0.005738 0.011265
-0.072551 0.052323 0.127441
-0.000130 0.031438 0.091200
-0.152132 0.043772 0.023564
-0.016909 -0.041332 0.090351
0.010072 -0.030671 0.085608
-0.132879 -0.022735 0.041062
-0.046884 -0.026353 0.109353
-0.157085 -0.004891 0.066957
-0.086008 0.107356 0.104059
0.010803 0.044922 0.059380
-0.054580 -0.052053 0.009065
-0.049206 0.084391 0.042647
-0.073620 0.105499 0.094285
-0.103903 -0.005672 0.126486
0.016970 0.024413 0.073796
-0.035862 -0.075143 0.041953
-0.065537 0.054180 0.125510
-0.134010 0.056247 0.016362
-0.044034 0.050350 0.116349
-0.003385 -0.005040 0.046921
-0.096160 0.018412 0.128560
