ply
format ascii 1.0
element vertex 155
property float x
property float y
property float z
end_header
-0.002310 -0.022781 0.094116
-0.125822 0.043567 0.111939
-0.123291 0.036338 0.117054
-0.054163 -0.092114 0.095633
-0.020604 0.016379 0.082118
-0.061214 -0.052018 0.003002
-0.141820 -0.092748 0.058272
-0.096523 -0.074339 0.009838
-0.163998 -0.025261 0.020453
-0.028128 0.013931 0.042711
-0.087603 -0.078397 0.009636
-0.146883 0.056462 0.082773
-0.119641 0.006284 0.125502
-0.086358 -0.088018 0.014020
-0.078119 0.019897 0.115413
-0.058237 -0.087176 0.006941
-0.176045 -0.005366 0.033526
-0.089628 -0.092287 0.019544
-0.153837 0.019748 0.087847
-0.118706 -0.062592 0.125517
-0.154396 0.050050 0.056183
-0.168053 0.030197 0.047407
-0.116791 0.006138 0.008238
-0.071520 -0.066152 0.118393
-0.112136 -0.100198 0.092385
-0.113704 0.027016 0.123659
-0.051599 -0.012074 0.006260
-0.009084 -0.055888 0.065467
-0.135786 -0.018635 0.007862
-0.093095 -0.018094 0.003535
-0.156792 -0.012428 0.015367
-0.163575 0.038875 0.047982
-0.043974 -0.009325 0.011634
-0.039668 -0.107922 0.031273
-0.121233 0.032652 0.030502
-0.117219 -0.089957 0.104984
-0.063877 0.040472 0.052452
-0.102597 -0.094069 0.028271
-0.065595 -0.030934 0.002706
-0.039155 -0.038088 0.013816
-0.105019 -0.061747 0.125634
-0.071742 0.015687 0.115504
-0.074125 -0.027143 0.125144
-0.017230 -0.052668 0.047997
-0.137797 0.041795 0.109753
-0.101404 -0.008032 0.127392
-0.175943 -0.049593 0.041748
-0.176539 -0.014053 0.031078
-0.024744 -0.105405 0.042566
-0.090984 -0.065630 0.006173
-0.149930 -0.082790 0.044987
-0.132815 -0.058441 0.011513
-0.026055 -0.104808 0.031676
-0.128428 0.015237 0.121122
-0.118091 -0.036266 0.004872
-0.093031 -0.106109 0.066657
-0.155664 -0.079230 0.065859
-0.108885 0.009003 0.126692
-0.078465 0.009679 0.121212
-0.070122 -0.051980 0.122938
-0.054540 -0.095193 0.089654
-0.127758 -0.096858 0.085923
-0.056719 -0.104852 0.063880
-0.148051 -0.085977 0.083973
-0.027398 0.027151 0.054746
-0.085344 -0.103442 0.042263
-0.170316 0.013604 0.030364
-0.162932 -0.070670 0.058807
-0.154934 -0.067201 0.034478
-0.011290 0.006536 0.073895
-0.079121 0.031218 0.104861
-0.123544 0.040967 0.114028
-0.056691 0.021232 0.009917
-0.154672 -0.052532 0.092440
-0.031536 0.032155 0.057986
-0.050304 0.031708 0.077786
-0.125893 -0.098002 0.071648
-0.116083 0.050132 0.069906
-0.060624 0.024265 0.101028
-0.065547 0.040833 0.062999
-0.156418 0.037049 0.040278
-0.165801 -0.007201 0.021549
-0.158007 -0.070611 0.072948
-0.141040 -0.092934 0.094130
-0.064558 -0.045354 0.122507
-0.123010 -0.094683 0.041091
-0.174428 -0.001118 0.029320
-0.060835 -0.007112 0.004502
-0.144043 -0.014503 0.009954
-0.146451 -0.083730 0.043346
-0.120889 -0.098020 0.057901
-0.010767 0.010730 0.076302
-0.121565 -0.046875 0.124896
-0.026797 0.022283 0.075288
-0.002642 -0.040378 0.099186
-0.026656 -0.038562 0.028663
-0.030499 -0.020110 0.027082
-0.038344 0.031534 0.040725
-0.063032 -0.064057 0.002411
-0.145067 -0.090362 0.066622
-0.093912 -0.103429 0.052291
-0.098200 -0.097990 0.034176
-0.120324 0.048431 0.093891
-0.044785 0.021104 0.022390
-0.100919 -0.103875 0.077573
-0.035701 -0.007378 0.108227
-0.146063 -0.043120 0.014308
-0.032823 -0.104978 0.052288
-0.136703 -0.074703 0.027694
-0.005638 0.003385 0.085538
-0.131452 0.051199 0.095407
-0.021166 -0.074773 0.096519
-0.131641 0.031883 0.116147
-0.158708 -0.023861 0.082452
-0.005304 -0.055818 0.078982
-0.046958 0.012590 0.013744
-0.004566 -0.080502 0.080439
-0.008155 -0.056180 0.067591
-0.138873 -0.058236 0.014560
-0.131520 -0.096286 0.078062
-0.044237 -0.007483 0.111698
-0.047079 -0.088721 0.005413
-0.177601 -0.025148 0.039128
-0.140084 -0.036717 0.009010
-0.089557 -0.089834 0.017267
-0.143007 -0.039238 0.108108
-0.025009 -0.081714 0.092753
-0.118678 -0.056082 0.007767
-0.075813 -0.085044 0.111496
-0.004980 -0.054667 0.097308
-0.127214 -0.007407 0.006711
-0.099520 -0.044059 0.127887
-0.139605 -0.089567 0.048348
-0.023649 -0.040508 0.109730
-0.160797 0.013888 0.025106
-0.034215 -0.101663 0.067819
-0.007445 -0.091090 0.075300
-0.138320 -0.048910 0.011389
-0.067840 -0.099832 0.083223
-0.089867 0.040949 0.047309
-0.170421 -0.051020 0.034163
-0.114323 0.017220 0.125297
-0.006555 -0.012247 0.092889
-0.065717 0.033986 0.086549
-0.102097 0.020349 0.123725
-0.134172 -0.090442 0.099144
-0.002392 -0.037923 0.095427
-0.040673 -0.097086 0.008942
-0.142682 0.028568 0.029672
-0.073211 -0.039686 0.124236
-0.133906 -0.077472 0.110345
-0.036888 -0.104001 0.023522
-0.073694 -0.005701 0.004360
-0.014086 -0.046831 0.054435
-0.126867 -0.074807 0.119449
