ply
format ascii 1.0
element vertex 161
property float x
property float y
property float z
end_header
0.034543 0.047203 0.030819
-0.067106 0.135669 0.055531
0.007806 0.011964 0.101675
0.000920 0.069579 0.010420
-0.078395 0.124488 0.071996
-0.060810 -0.045950 0.012601
-0.069548 -0.046602 0.030032
-0.075784 0.005011 0.120986
-0.073957 -0.036001 0.063112
-0.132003 0.029476 0.074387
-0.024248 0.042303 0.001219
-0.101326 0.127289 0.044025
-0.058508 -0.041433 0.070972
-0.086463 0.043226 0.008390
-0.044092 -0.057923 0.046040
-0.138612 0.055625 0.073645
-0.055137 -0.055450 0.036153
-0.056941 -0.038473 0.077834
-0.096314 0.105388 0.074687
-0.040390 0.074765 0.128141
-0.120185 0.106198 0.039806
-0.131508 0.089349 0.054858
-0.111220 0.026790 0.020731
-0.034375 0.022728 0.124597
-0.045875 0.134967 0.070762
-0.120930 0.012307 0.049013
-0.093524 -0.010148 0.016946
-0.077597 -0.025564 0.013447
-0.132727 0.032945 0.058587
-0.129474 0.094788 0.047204
-0.045810 0.004276 0.001904
-0.009467 -0.049489 0.068000
-0.104736 0.065775 0.019535
-0.037259 0.039864 0.127593
-0.052064 0.071838 0.006053
-0.063391 -0.027488 0.091851
-0.065063 -0.026973 0.004863
-0.034304 -0.017056 0.012215
-0.025672 0.075113 0.126776
-0.025921 0.123853 0.091715
-0.084175 0.027887 0.006541
0.005780 -0.003612 0.031951
-0.078586 0.107698 0.028504
-0.077735 0.135812 0.061774
-0.024741 0.123617 0.107882
-0.123498 0.030582 0.105093
-0.138236 0.047893 0.078162
-0.049940 -0.030968 0.009124
0.008424 -0.042873 0.065549
-0.020346 0.088886 0.123842
-0.075528 -0.038307 0.053089
-0.092908 0.003992 0.115042
-0.104078 -0.010444 0.076238
0.001891 -0.049694 0.059701
-0.058825 0.128740 0.083373
-0.104507 -0.011800 0.047680
-0.033008 -0.008603 0.111638
-0.087025 0.022274 0.122391
-0.092169 0.020305 0.009723
-0.036981 0.131329 0.089623
-0.015886 0.108179 0.064567
-0.023568 0.030300 0.123662
-0.086530 0.059199 0.010042
0.003740 0.069254 0.102051
0.004819 0.005903 0.100995
-0.040983 0.127318 0.062567
-0.006557 -0.019997 0.093251
-0.071087 0.029469 0.126665
-0.023646 0.059007 0.001425
-0.039653 -0.027487 0.095918
-0.139734 0.066435 0.056960
-0.097222 0.024448 0.119121
-0.106691 0.006853 0.102146
0.007415 0.055705 0.006893
-0.048916 0.109168 0.105108
-0.063500 0.135249 0.057287
-0.062096 0.028535 0.000533
-0.079757 0.059277 0.120109
-0.027712 0.064764 0.003047
-0.056713 0.009598 0.122729
-0.080869 0.105007 0.026468
0.002596 0.030705 0.109186
-0.047340 0.080030 0.009122
-0.127691 0.086840 0.040298
-0.136841 0.043640 0.063145
-0.118207 0.020507 0.034496
-0.087108 0.033584 0.122000
-0.060592 0.030705 0.128838
-0.070240 -0.012988 0.108237
-0.140416 0.055777 0.067697
-0.126558 0.021398 0.052107
-0.090895 0.001237 0.112900
-0.059385 -0.002537 0.115898
0.007403 0.060316 0.005212
-0.036832 0.112983 0.042958
-0.042911 0.086663 0.121459
-0.009495 0.070041 0.008422
0.040859 0.037487 0.044571
-0.017063 -0.007553 0.018389
-0.026092 0.004625 0.008148
-0.037382 0.054626 0.000832
-0.059844 -0.054324 0.021121
-0.066700 0.109689 0.030416
-0.076722 0.013354 0.123871
-0.055387 -0.027746 0.093938
-0.071953 0.122894 0.041308
-0.049522 0.034651 0.000499
-0.089371 -0.000165 0.011704
-0.034370 0.004670 0.119992
0.012608 0.073855 0.045475
-0.019778 -0.033046 0.088875
0.006840 -0.034306 0.074298
-0.061330 0.021414 0.126379
-0.093283 -0.008433 0.094224
-0.091175 0.090465 0.023673
0.019038 0.060936 0.011629
-0.081351 0.128730 0.045373
0.031963 0.014676 0.074849
-0.095338 0.073168 0.100859
0.031728 0.013537 0.044447
-0.051676 0.023861 0.000586
0.039133 -0.003148 0.060991
-0.004950 0.091626 0.100012
0.023542 0.006094 0.039957
-0.106778 -0.006047 0.080546
-0.109028 0.032534 0.019277
-0.082938 -0.007762 0.009436
-0.033297 -0.062049 0.042914
-0.131937 0.045526 0.089973
-0.061648 0.104477 0.100823
-0.117580 0.002135 0.063318
-0.067721 0.078016 0.116185
0.028454 0.007745 0.078823
-0.068321 0.067958 0.008423
-0.057983 -0.035993 0.008277
0.041404 0.026373 0.054151
-0.049403 0.118177 0.097722
-0.117420 0.016694 0.035446
-0.032416 0.106295 0.115368
-0.021223 0.093350 0.123043
0.030003 0.048504 0.060803
-0.135028 0.060638 0.049181
0.012566 -0.021096 0.081339
0.022618 -0.015823 0.054572
0.036288 -0.013999 0.065867
-0.111526 -0.002901 0.072023
-0.007915 0.002043 0.106188
-0.075052 0.074563 0.012043
-0.123363 0.022865 0.099824
-0.043445 0.135254 0.083722
-0.108649 0.091560 0.030014
-0.052696 -0.046915 0.016400
-0.033000 0.093721 0.023572
-0.035021 0.129156 0.071299
0.038679 0.036674 0.040722
-0.023070 -0.061964 0.050094
-0.014437 0.092653 0.117234
0.001615 0.079979 0.096408
-0.074516 -0.001312 0.003422
0.009546 0.004594 0.029705
-0.045215 0.060861 0.128919
