ply
format ascii 1.0
element vertex 149
property float x
property float y
property float z
end_header
0.007322 -0.040911 0.088691
-0.114584 0.007546 0.122056
-0.111099 -0.000756 0.124566
-0.039417 -0.113356 0.079155
-0.013952 -0.001724 0.087328
-0.131917 -0.111786 0.046623
-0.161048 -0.038350 0.026310
-0.024235 0.005396 0.048570
-0.141281 0.026189 0.104834
-0.105688 -0.031752 0.126623
-0.080667 -0.090828 0.006882
-0.068242 -0.013549 0.121637
-0.172960 -0.022990 0.043891
-0.083620 -0.096832 0.010494
-0.147388 -0.009584 0.100132
-0.106005 -0.099179 0.120619
-0.152143 0.027409 0.076628
-0.165635 0.009376 0.064333
-0.116220 -0.001449 0.016679
-0.100141 -0.125556 0.076436
-0.100309 -0.010807 0.126691
-0.049644 -0.013764 0.007077
-0.000268 -0.067092 0.054684
-0.133673 -0.027031 0.012787
-0.092038 -0.019968 0.004650
-0.155056 -0.024359 0.023327
-0.161539 0.017985 0.066612
-0.041628 -0.011360 0.012975
-0.031380 -0.112286 0.015087
-0.120285 0.019600 0.045748
-0.104466 -0.119944 0.091129
-0.060836 0.025939 0.066643
-0.094228 -0.101886 0.017221
-0.065169 -0.031299 0.002866
-0.036124 -0.039414 0.010969
-0.092280 -0.098400 0.120939
-0.061157 -0.016456 0.120368
-0.061328 -0.061978 0.123476
-0.010052 -0.060485 0.039292
-0.127064 0.005769 0.122243
-0.087274 -0.046414 0.127483
-0.014185 -0.109228 0.023787
-0.170061 -0.068384 0.042198
-0.173232 -0.031013 0.039641
-0.015079 -0.110489 0.023541
-0.088202 -0.067172 0.005043
-0.141533 -0.099674 0.036209
-0.128596 -0.065862 0.009188
-0.018211 -0.107817 0.013449
-0.115057 -0.022410 0.125252
-0.116784 -0.039851 0.005904
-0.081626 -0.123570 0.050382
-0.146199 -0.101542 0.057958
-0.094984 -0.029520 0.127561
-0.065822 -0.025723 0.123420
-0.085789 -0.121000 0.082816
-0.055890 -0.084725 0.115599
-0.040010 -0.114930 0.072626
-0.116167 -0.121904 0.071587
-0.044918 -0.118033 0.046246
-0.136956 -0.111923 0.073395
-0.022751 0.014895 0.063502
-0.075951 -0.113130 0.027639
-0.164454 -0.041100 0.062335
-0.168526 -0.003200 0.044167
-0.154577 -0.091720 0.053251
-0.148774 -0.082112 0.030095
-0.004802 -0.008931 0.076503
-0.071255 0.000606 0.114829
-0.112010 0.004553 0.123013
-0.055332 0.019912 0.019838
-0.144274 -0.081913 0.089941
-0.026527 0.018876 0.068220
-0.045034 0.011874 0.088241
-0.114847 -0.118891 0.057531
-0.053078 -0.002174 0.109044
-0.061855 0.023196 0.076811
-0.154950 0.018433 0.058237
-0.163815 -0.021382 0.031009
-0.148396 -0.094795 0.066894
-0.129164 -0.120907 0.081168
-0.050884 -0.077850 0.116544
-0.113985 -0.107335 0.028888
-0.172098 -0.017920 0.040474
-0.058903 -0.008267 0.005598
-0.142482 -0.023759 0.016242
-0.138041 -0.099844 0.034366
-0.004280 -0.005328 0.079731
-0.108107 -0.083514 0.123962
0.008562 -0.058944 0.090113
-0.021971 -0.042904 0.023853
-0.026455 -0.024581 0.026496
-0.035251 0.022209 0.051632
-0.062571 -0.064252 0.002175
-0.134813 -0.111706 0.055470
-0.083460 -0.117230 0.037553
-0.090014 -0.107075 0.022583
-0.115944 -0.065479 0.007709
-0.042446 0.016441 0.031478
-0.161738 -0.049511 0.066200
-0.088817 -0.124386 0.061288
-0.025984 -0.031902 0.108433
-0.142888 -0.052922 0.015393
-0.022225 -0.113272 0.033630
-0.130319 -0.086077 0.021093
0.001914 -0.014049 0.086802
-0.124253 0.017567 0.113187
-0.007930 -0.093096 0.081825
-0.119668 -0.005182 0.124564
-0.149758 -0.052048 0.087281
0.004898 -0.069711 0.067478
-0.044961 0.010554 0.020866
0.007532 -0.093603 0.063602
-0.068117 -0.069975 0.124023
0.000882 -0.067784 0.056602
-0.134565 -0.066972 0.012326
-0.120411 -0.119344 0.064364
-0.034241 -0.033983 0.112160
-0.045752 -0.088046 0.002902
-0.173097 -0.043929 0.045221
-0.137508 -0.044941 0.011342
-0.131626 -0.072806 0.107590
-0.011683 -0.099511 0.077308
-0.060894 -0.111799 0.096442
-0.010134 -0.103763 0.028997
0.006918 -0.072594 0.085542
-0.126046 -0.015935 0.012492
-0.085339 -0.082282 0.127004
-0.130526 -0.106071 0.037734
-0.011462 -0.063312 0.102045
-0.159583 -0.000871 0.038508
-0.022006 -0.114051 0.049418
0.004803 -0.103144 0.056638
-0.134815 -0.057150 0.011210
-0.054195 -0.119261 0.066258
-0.087091 0.025965 0.062947
-0.164844 -0.067553 0.034353
0.002532 -0.030755 0.090307
-0.059911 0.010185 0.097729
-0.158721 -0.059141 0.068947
-0.122074 -0.119610 0.086515
0.008234 -0.055753 0.086963
-0.038408 -0.096884 0.003565
-0.141726 0.013811 0.044952
-0.121412 -0.110070 0.100816
-0.030952 -0.106260 0.008586
-0.072811 -0.006027 0.005318
-0.006669 -0.056066 0.046607
-0.114331 -0.109435 0.109321
