ply
format ascii 1.0
element vertex 158
property float x
property float y
property float z
end_header
0.044000 0.050754 0.000543
-0.025140 0.136663 0.068034
-0.071459 0.030537 0.016004
0.061991 0.014034 0.066411
0.004364 0.070468 0.004055
-0.025517 0.125108 0.087802
-0.045462 -0.044011 0.022524
-0.044206 -0.043536 0.042160
0.006602 0.011124 0.123602
-0.029715 -0.033647 0.072938
-0.067605 0.030836 0.113617
-0.023289 0.042805 0.000329
-0.060174 0.127979 0.077000
-0.011865 -0.038249 0.073210
0.011236 0.109637 0.040010
-0.014187 -0.054435 0.044015
-0.073210 0.055351 0.117455
-0.028597 -0.051885 0.040853
-0.007032 -0.035663 0.078575
0.043677 0.082698 0.121385
-0.077804 0.107222 0.083475
-0.078769 0.089373 0.101037
-0.083481 0.027393 0.058457
0.061602 0.054890 0.071772
0.000876 0.136085 0.068574
-0.050262 -0.002464 0.004405
-0.073936 0.013232 0.087089
-0.071450 -0.009511 0.042815
-0.062989 -0.023808 0.030086
-0.077197 0.033068 0.101183
-0.081416 0.095285 0.093993
-0.042892 0.004816 0.001999
0.027158 -0.046833 0.047147
-0.078768 0.067614 0.055356
0.048155 0.047975 0.119345
-0.047391 0.073136 0.012019
-0.002752 -0.023337 0.095489
-0.056834 -0.027621 0.012671
-0.024496 -0.014475 0.009208
0.056304 0.082114 0.114424
0.029514 0.126044 0.075953
0.016173 0.104949 0.037820
-0.075714 0.028665 0.025998
-0.050023 0.109386 0.050285
-0.030620 0.136608 0.079245
0.039126 0.126594 0.089251
-0.042852 0.033766 0.128381
-0.069644 0.047757 0.120450
-0.038840 -0.029060 0.013231
0.041344 -0.040179 0.035801
0.056414 0.095063 0.102486
-0.036435 -0.035757 0.065111
-0.011300 0.011333 0.126179
-0.043597 -0.007574 0.101387
0.032840 -0.046991 0.034180
-0.002792 0.130221 0.086140
-0.062609 -0.009905 0.075412
0.033469 -0.006226 0.095837
0.018796 0.133283 0.079602
0.053117 0.034332 0.102028
-0.071689 0.061116 0.036168
0.060543 0.071672 0.069699
0.058951 0.008008 0.067443
-0.073177 0.104532 0.074511
0.000464 0.128408 0.059103
0.044346 -0.018284 0.066774
-0.023152 0.059296 0.000993
0.018582 -0.024395 0.086581
0.032553 0.037715 0.126290
-0.084358 0.066182 0.105249
-0.031370 0.011765 0.123050
-0.019270 0.096370 0.106957
-0.021169 0.136210 0.067493
-0.061882 0.028980 0.001099
0.001222 0.063535 0.124073
-0.026615 0.065180 0.002878
-0.017602 0.081016 0.010975
0.023574 0.015859 0.119588
-0.053013 0.106693 0.049609
0.000242 0.096329 0.024286
0.062704 0.032918 0.075683
-0.039702 0.080369 0.014743
-0.084265 0.087758 0.086865
-0.078049 0.043767 0.107654
-0.080215 0.021045 0.073281
0.027847 0.038807 0.128828
0.001931 -0.007863 0.111479
-0.078256 0.055111 0.114007
0.012812 0.030745 0.001344
-0.061050 -0.000922 0.004658
-0.076455 0.021916 0.092237
-0.011075 0.007905 0.124376
0.008608 0.062411 0.000110
-0.007597 0.113972 0.040873
0.056339 0.041356 0.004912
-0.019072 0.007231 0.002727
-0.036966 0.054815 0.000876
-0.039935 -0.051511 0.029908
-0.039253 0.111101 0.045782
0.007695 0.020032 0.126746
-0.072881 -0.002408 0.010229
0.004444 -0.024337 0.092524
-0.037029 0.124251 0.058365
-0.049232 0.034836 0.000657
0.040762 0.009330 0.104682
0.030345 -0.030841 0.070409
-0.057084 0.007505 0.104316
0.044798 -0.031924 0.043688
0.025072 0.028946 0.126396
-0.025344 -0.004862 0.110359
0.021293 0.064345 -0.000002
-0.042727 0.129831 0.067256
0.066403 0.017246 0.032646
-0.022893 0.074541 0.118242
0.049445 0.017187 0.007459
-0.051445 0.024310 0.000681
0.064961 0.000157 0.016495
0.052086 0.094226 0.072681
0.040286 0.009499 0.007762
-0.043861 -0.002779 0.106125
-0.082921 0.033238 0.056111
-0.073421 -0.006438 0.024154
0.026335 0.023800 0.122980
-0.006171 -0.058697 0.036445
-0.057791 0.045758 0.124656
0.005224 0.106842 0.102581
-0.062425 0.003844 0.096179
0.009472 0.081993 0.118341
0.065697 0.010168 0.037476
-0.043925 -0.015699 0.089006
-0.045937 -0.034755 0.016000
0.062610 0.030473 0.011307
-0.078815 0.017275 0.073477
0.054667 0.099127 0.101632
-0.084987 0.060955 0.096329
0.053580 -0.018930 0.046886
0.047701 -0.012801 0.019269
0.065296 -0.011036 0.021692
-0.052866 -0.000288 0.100976
0.051687 0.003970 0.078683
-0.045481 0.025127 0.125796
0.010039 0.136964 0.078064
-0.036566 -0.044233 0.021932
0.002189 0.086949 0.114968
0.035444 0.060403 0.126484
-0.017096 0.095263 0.023306
0.010368 0.130301 0.063112
0.034359 0.043592 0.127270
0.052221 0.040674 0.003242
-0.064832 0.045700 0.014267
0.006178 -0.058931 0.038200
0.056015 0.097172 0.092429
-0.020090 0.111207 0.097518
0.034736 0.062059 0.126373
0.021596 -0.050845 0.041274
-0.072451 -0.001189 0.006406
0.022927 0.008104 0.006097
0.042043 0.069904 0.125135
