ply
format ascii 1.0
element vertex 145
property float x
property float y
property float z
end_header
0.074749 -0.088822 0.008236
-0.073131 -0.104401 0.109644
0.022574 -0.155969 0.020016
0.076742 -0.054476 0.035975
-0.044331 -0.054474 0.012453
-0.054939 -0.066064 0.021709
-0.063064 -0.156094 0.066019
-0.065630 -0.094738 0.032870
-0.071819 -0.086112 0.106695
0.099522 -0.124970 0.118528
0.042060 -0.032224 0.028661
0.017392 -0.073890 0.129627
-0.015740 -0.118406 0.004634
0.023991 -0.156929 0.022244
-0.058997 -0.106861 0.024966
-0.058456 -0.084723 0.124027
-0.059163 -0.114539 0.026356
0.012299 -0.183743 0.092731
-0.004494 -0.060974 0.127834
-0.041150 -0.038047 0.080714
-0.025361 -0.177681 0.051768
-0.011401 -0.029864 0.018802
-0.047863 -0.039557 0.050480
0.004568 -0.175905 0.098905
-0.066500 -0.070447 0.104469
-0.019910 -0.064866 0.127851
-0.001335 -0.030037 0.017372
-0.014309 -0.037690 0.102851
-0.069388 -0.112525 0.045442
-0.014569 -0.183240 0.065180
0.040446 -0.030514 0.073988
-0.061514 -0.125808 0.033992
-0.034477 -0.037392 0.022590
-0.010127 -0.054352 0.008112
0.023780 -0.181937 0.083284
-0.011631 -0.021694 0.066949
-0.007495 -0.150633 0.015253
0.036533 -0.095459 0.128453
0.007751 -0.141245 0.119316
-0.074935 -0.121914 0.111289
-0.065499 -0.088858 0.119932
0.036908 -0.174409 0.088114
-0.064408 -0.075524 0.035032
-0.074907 -0.142395 0.073968
-0.077895 -0.096475 0.067215
-0.012163 -0.112288 0.002349
-0.066238 -0.064766 0.064421
-0.032998 -0.158992 0.030550
-0.061164 -0.155491 0.087369
0.102013 -0.121659 0.121067
0.004444 -0.032703 0.091479
0.047260 -0.160421 0.055523
-0.037523 -0.175230 0.063281
-0.008796 -0.140803 0.010925
-0.047737 -0.170959 0.083935
0.057456 -0.031203 0.036649
-0.042474 -0.136526 0.022414
-0.046735 -0.107133 0.123286
-0.048587 -0.067276 0.126704
-0.066054 -0.145066 0.095287
-0.078180 -0.124034 0.083980
0.003225 -0.123898 0.125333
0.008316 -0.007938 0.046974
-0.029400 -0.154571 0.107996
-0.051686 -0.059302 0.113636
0.060672 -0.029617 0.042888
-0.045974 -0.165037 0.056991
0.026190 -0.058623 0.117505
0.046918 -0.037677 0.077944
-0.022020 -0.056627 0.125892
-0.063730 -0.074153 0.115008
-0.019574 -0.140660 0.013496
-0.053260 -0.154138 0.095597
-0.038549 -0.181540 0.078380
0.055070 -0.153563 0.054415
-0.064743 -0.139516 0.047915
-0.058597 -0.078388 0.124218
-0.017817 -0.020766 0.028803
-0.064522 -0.061786 0.094733
-0.074026 -0.141010 0.070365
-0.002348 -0.153561 0.015524
0.074174 -0.054354 0.022919
0.019760 -0.172055 0.102977
0.072802 -0.106308 0.006988
0.011440 -0.049723 0.010357
0.043390 -0.020572 0.045455
-0.051447 -0.066692 0.010750
-0.059365 -0.161139 0.072954
-0.041844 -0.147651 0.029447
-0.055939 -0.132491 0.032299
0.022286 -0.016136 0.039799
-0.024248 -0.131417 0.010659
-0.075380 -0.088858 0.085883
0.093235 -0.122235 0.122327
-0.002577 -0.125329 0.004791
-0.015477 -0.117460 0.125439
-0.075197 -0.118916 0.064134
0.080756 -0.064372 0.018300
-0.034123 -0.152827 0.027477
0.047717 -0.134037 0.012126
-0.072257 -0.102354 0.050872
-0.022867 -0.129003 0.121762
-0.031964 -0.144372 0.021626
0.048270 -0.104735 0.005188
0.011182 -0.015149 0.034285
0.044694 -0.121455 0.003572
0.054454 -0.158670 0.076319
0.009381 -0.070438 0.006409
-0.078423 -0.100164 0.072915
0.023751 -0.051144 0.111442
-0.036605 -0.029099 0.042517
-0.044599 -0.170425 0.064235
-0.041172 -0.091808 0.004147
-0.065861 -0.103561 0.119705
0.024910 -0.139667 0.119508
-0.072661 -0.079560 0.082450
-0.005146 -0.154134 0.113161
0.041224 -0.139504 0.013489
0.023848 -0.170370 0.042008
0.063012 -0.117438 0.005448
0.043015 -0.161554 0.104669
0.039087 -0.172524 0.091465
-0.068130 -0.146312 0.063404
-0.048528 -0.059950 0.121015
0.009000 -0.136185 0.006532
0.034391 -0.126165 0.003596
-0.076191 -0.090267 0.076902
0.000779 -0.159438 0.021012
0.022964 -0.035990 0.093732
-0.077606 -0.116513 0.103908
-0.058340 -0.104098 0.121546
0.078312 -0.080684 0.014311
0.019743 -0.144477 0.117848
-0.003155 -0.051139 0.117592
-0.039791 -0.062130 0.007578
-0.001293 -0.145508 0.117228
0.101828 -0.118936 0.119750
-0.030230 -0.183091 0.075696
0.070672 -0.102239 0.006819
-0.034767 -0.099954 0.003400
-0.029013 -0.046262 0.114757
0.021661 -0.114819 0.126088
-0.015989 -0.183100 0.086430
-0.026527 -0.017143 0.041985
-0.005881 -0.186479 0.086831
