ply
format ascii 1.0
element vertex 162
property float x
property float y
property float z
end_header
-0.005247 0.000294 0.094466
-0.127947 0.068842 0.101297
-0.125476 0.062966 0.107929
-0.056481 -0.068183 0.105692
-0.023798 0.036268 0.075406
-0.061375 -0.051203 0.003158
-0.142954 -0.075945 0.068410
-0.097508 -0.068951 0.016909
-0.164642 -0.015939 0.020096
-0.030696 0.025822 0.036788
-0.148141 0.075783 0.069882
-0.123298 0.034293 0.123035
-0.087384 -0.081410 0.024454
-0.079981 0.045070 0.108516
-0.058438 -0.083900 0.014001
-0.176707 0.006305 0.029978
-0.064743 -0.073098 0.007361
-0.090265 -0.083999 0.031068
-0.155428 0.039967 0.080557
-0.122245 -0.035126 0.126619
-0.155403 0.064620 0.044584
-0.168880 0.043678 0.038882
-0.116700 0.013214 0.006098
-0.074152 -0.039410 0.123044
-0.113165 -0.077178 0.103433
-0.116433 0.054359 0.118583
-0.053135 -0.007629 0.005564
-0.010969 -0.037435 0.071086
-0.136233 -0.012869 0.007021
-0.093501 -0.016242 0.003532
-0.157338 -0.003809 0.013184
-0.164375 0.052262 0.038087
-0.045884 -0.003488 0.010127
-0.040238 -0.095529 0.045289
-0.121800 0.042338 0.022108
-0.118489 -0.065176 0.113671
-0.066377 0.053446 0.041700
-0.103694 -0.083191 0.039649
-0.065574 -0.029803 0.002846
-0.040143 -0.031979 0.015679
-0.108244 -0.034029 0.126857
-0.074122 0.040563 0.109556
-0.077240 0.000329 0.124846
-0.018683 -0.037907 0.053103
-0.139803 0.066635 0.099254
-0.105538 0.019882 0.127617
-0.057860 -0.071075 0.005688
-0.176633 -0.036202 0.044838
-0.177234 -0.002605 0.028833
-0.051483 -0.038573 0.007018
-0.025564 -0.090659 0.056192
-0.053507 -0.072110 0.007637
-0.092044 -0.062738 0.010204
-0.150715 -0.068247 0.053680
-0.133582 -0.051426 0.016963
-0.026687 -0.092193 0.045293
-0.131415 0.042717 0.116568
-0.118392 -0.033258 0.005744
-0.094000 -0.087332 0.079433
-0.156804 -0.061233 0.073700
-0.106069 -0.017062 0.004329
-0.112901 0.037103 0.125803
-0.081561 0.036433 0.116632
-0.101226 -0.070670 0.109392
-0.073600 -0.024861 0.124209
-0.056763 -0.072334 0.100396
-0.128710 -0.075181 0.096483
-0.057908 -0.086461 0.076732
-0.149054 -0.064797 0.092475
-0.030643 0.041373 0.046256
-0.086222 -0.089757 0.055314
-0.171008 0.024615 0.024325
-0.163826 -0.054092 0.065506
-0.155619 -0.055077 0.040899
-0.014117 0.025410 0.069255
-0.125878 0.012287 0.122596
-0.080947 0.053856 0.095935
-0.125681 0.066735 0.103892
-0.059627 0.024701 0.004189
-0.156155 -0.030273 0.095418
-0.035157 0.046641 0.048403
-0.052773 0.049787 0.068125
-0.126952 -0.078826 0.082647
-0.063331 0.046726 0.092744
-0.069503 -0.060012 0.115719
-0.067776 0.056068 0.051973
-0.157121 0.049212 0.030865
-0.166338 0.002407 0.018546
-0.159140 -0.051630 0.079343
-0.142082 -0.070205 0.103655
-0.067742 -0.018239 0.123155
-0.123869 -0.081264 0.052624
-0.174965 0.009909 0.025252
-0.144602 -0.007870 0.008375
-0.147235 -0.069514 0.052285
-0.121801 -0.081256 0.069516
-0.013753 0.029959 0.070909
-0.090397 0.057091 0.096655
-0.125196 -0.019746 0.124840
-0.029949 0.040689 0.067515
-0.005619 -0.016344 0.102106
-0.028020 -0.028473 0.031113
-0.032239 -0.011007 0.026104
-0.041048 0.042518 0.031669
-0.063112 -0.063231 0.003066
-0.108306 0.066513 0.071517
-0.146182 -0.072108 0.076221
-0.099071 -0.085976 0.046095
-0.121884 0.069740 0.082507
-0.047611 0.028358 0.015327
-0.102099 -0.083234 0.089799
-0.038572 0.017014 0.105075
-0.063580 -0.092289 0.059736
-0.146679 -0.035626 0.016710
-0.033741 -0.088468 0.065536
-0.137374 -0.064052 0.035730
-0.008763 0.024373 0.081406
-0.132964 0.072870 0.083244
-0.023793 -0.051016 0.104476
-0.133901 0.058449 0.107813
-0.160519 -0.003711 0.080675
-0.007589 -0.034954 0.084519
-0.049417 0.017929 0.008442
-0.006560 -0.058960 0.089787
-0.085382 -0.005996 0.126089
-0.010099 -0.037313 0.073251
-0.139592 -0.050610 0.019964
-0.132362 -0.076101 0.088608
-0.047100 -0.085942 0.011844
-0.178460 -0.012352 0.038373
-0.140330 -0.031060 0.010085
-0.145262 -0.014508 0.108367
-0.027320 -0.058523 0.101567
-0.119392 -0.050793 0.012337
-0.079091 -0.059610 0.119233
-0.132523 -0.029249 0.008225
-0.007785 -0.030844 0.102478
-0.127325 -0.001984 0.005757
-0.103760 -0.016194 0.128030
-0.140607 -0.074543 0.058356
-0.026801 -0.015092 0.111921
-0.161363 0.023857 0.019258
-0.035540 -0.082272 0.080101
-0.009177 -0.070250 0.086168
-0.138919 -0.042032 0.014974
-0.069678 -0.078049 0.094614
-0.092232 0.052865 0.037030
-0.171113 -0.039049 0.037664
-0.118076 0.044946 0.123745
-0.009718 0.010259 0.091265
-0.053962 -0.055866 0.006174
-0.068461 0.053903 0.076852
-0.105647 0.047970 0.120019
-0.135291 -0.066878 0.108080
-0.005247 -0.014536 0.098007
-0.040652 -0.091839 0.020081
-0.143472 0.038654 0.021956
-0.076373 -0.012405 0.124898
-0.134633 -0.052319 0.117169
-0.037267 -0.093632 0.036917
-0.015775 -0.030843 0.058400
-0.127491 -0.048491 0.124623
