ply
format ascii 1.0
element vertex 158
property float x
property float y
property float z
end_header
0.044431 0.050258 0.000121
0.003567 0.102355 0.105946
-0.011343 -0.018380 0.125133
-0.064799 0.026000 0.026179
0.078149 -0.004096 0.041902
0.005205 0.070612 0.006203
-0.039424 -0.048630 0.010297
-0.033852 -0.054233 0.028266
0.049544 -0.035987 0.107768
-0.011426 -0.055965 0.055433
-0.027347 -0.012894 0.118633
-0.022976 0.042636 0.000446
-0.027672 0.088149 0.120313
0.006450 -0.059693 0.050772
0.028548 0.090349 0.061390
-0.004636 -0.064625 0.019857
-0.027030 0.006435 0.127256
-0.019183 -0.061466 0.021204
0.012891 -0.059026 0.054931
-0.035401 0.060816 0.007659
-0.056682 0.039462 0.015815
0.084719 0.036163 0.117687
0.021230 -0.021454 0.127269
-0.041307 0.067169 0.121849
-0.036684 0.043138 0.127047
-0.060227 0.004745 0.071930
0.081973 0.031020 0.059654
0.028169 0.102434 0.099984
-0.044503 -0.016956 0.091827
-0.057393 -0.021883 0.044165
-0.054002 -0.031111 0.027534
-0.039763 -0.006508 0.110904
-0.040376 0.053025 0.125399
-0.040885 0.003769 0.001407
0.036857 -0.057313 0.016626
-0.054879 0.042270 0.082637
0.087940 0.004770 0.106439
-0.039554 0.065505 0.033383
0.023643 -0.053870 0.072857
-0.052175 -0.030621 0.009314
-0.020904 -0.016294 0.002143
0.093344 0.039364 0.107711
0.057384 0.092016 0.096435
0.032352 0.087243 0.056213
-0.064646 0.019753 0.038429
0.069730 0.066884 0.067600
-0.026964 0.083573 0.086103
0.000883 0.097171 0.117629
0.069216 0.087488 0.106815
0.048181 -0.045495 0.004927
0.006332 -0.020814 0.128062
-0.024508 -0.002182 0.125864
-0.034413 -0.031531 0.004757
0.048578 -0.046594 0.005973
0.088848 0.056213 0.101558
-0.020181 -0.054816 0.049517
0.032492 -0.038307 0.114109
-0.012300 -0.042584 0.091933
0.039938 -0.052963 0.003619
-0.049823 0.040956 0.110184
-0.022963 0.063790 0.124473
-0.040381 -0.033339 0.072119
0.045313 -0.024985 0.125628
-0.064867 0.008830 0.044978
0.048208 0.096787 0.104585
-0.055404 0.045855 0.060129
0.080950 0.045461 0.062911
-0.040695 0.068750 0.111187
0.024991 0.099579 0.088797
0.059846 -0.036482 0.038942
0.063578 -0.015630 0.126068
-0.022885 0.059136 0.001570
0.041279 -0.050309 0.058687
0.078352 -0.010882 0.118759
-0.039879 0.022130 0.126294
0.009920 -0.034448 0.114772
0.007278 0.102218 0.104374
-0.061547 0.028903 0.001587
-0.026020 0.064751 0.004480
-0.010532 0.077971 0.027545
-0.030072 0.081063 0.085199
0.011737 0.085117 0.044234
0.082402 0.009833 0.055378
-0.031604 0.071322 0.036622
-0.047022 0.047854 0.119872
-0.036131 0.001176 0.119227
-0.053693 -0.005277 0.082729
0.076288 -0.012531 0.124055
0.075912 0.049871 0.055926
0.035033 -0.046371 0.089314
-0.032883 0.009122 0.126367
-0.059026 -0.001912 0.004579
-0.044449 -0.011176 0.099320
0.031521 -0.040284 0.110749
0.008860 0.062334 0.000305
0.011349 0.093536 0.068700
-0.005942 0.070394 0.005909
0.057055 0.039927 0.002611
-0.016606 0.005980 0.000047
-0.036769 0.054766 0.001321
-0.032710 -0.057999 0.013631
-0.018020 0.087654 0.079935
0.053642 -0.030979 0.115258
-0.068299 -0.005036 0.012756
0.029400 -0.053377 0.067936
-0.011151 0.094441 0.095626
-0.049039 0.034839 0.001068
0.072215 -0.024031 0.079125
0.039392 0.069033 0.024122
0.046920 -0.050409 0.041164
-0.023258 -0.028712 0.103182
0.054188 -0.041192 0.014694
0.071018 -0.020008 0.115809
0.008265 -0.043088 0.096731
0.021512 0.064203 -0.000008
-0.013765 0.095417 0.107208
0.073159 0.010398 0.016026
-0.051215 0.024234 0.000910
0.067304 -0.000616 0.001255
0.075507 0.064848 0.076467
-0.002327 -0.019214 0.127003
-0.011218 -0.039846 0.098123
-0.060470 0.011049 0.071363
-0.065242 -0.011963 0.026972
0.001445 -0.066156 0.009943
0.022272 0.078003 0.029902
-0.030846 -0.028423 0.095652
-0.016929 -0.045068 0.079206
-0.046323 0.058690 0.049352
-0.041014 -0.037932 0.007440
0.048363 -0.037340 0.001714
0.064381 0.029376 0.005024
-0.052509 -0.008886 0.081342
0.086853 0.060022 0.102834
0.061656 0.045227 0.019038
-0.046643 0.019990 0.119120
0.063650 -0.029477 0.020272
0.050995 -0.014774 0.000570
0.068644 -0.012872 0.001571
-0.021315 -0.034992 0.096565
0.072403 -0.019241 0.052428
0.000665 -0.026852 0.123327
0.039426 0.100140 0.106823
0.035253 0.057247 0.001661
-0.030894 -0.048436 0.007764
0.041206 0.039564 0.123578
-0.005365 0.084418 0.046982
0.035826 0.099861 0.090619
0.080491 -0.005598 0.121012
-0.058212 0.040401 0.028220
0.013851 -0.066741 0.008767
0.085081 0.061539 0.093553
-0.051661 0.036520 0.103297
0.081536 0.013004 0.122365
0.030224 -0.059458 0.010884
-0.069008 -0.002922 0.008864
0.062829 -0.018259 0.001321
0.086308 0.022418 0.119391
