ply
format ascii 1.0
element vertex 151
property float x
property float y
property float z
end_header
0.070578 -0.086063 0.017671
0.019193 -0.154872 0.022654
0.065910 -0.052569 0.048523
-0.049445 -0.054976 0.008827
-0.060853 -0.067419 0.015948
-0.074327 -0.156914 0.056120
-0.071996 -0.095823 0.024071
-0.093063 -0.087374 0.096201
0.071584 -0.123122 0.118748
0.032358 -0.030794 0.036292
-0.010202 -0.072184 0.129561
0.020141 -0.155837 0.025145
-0.063494 -0.107044 0.017333
-0.084246 -0.084266 0.118556
-0.063494 -0.114779 0.018306
-0.003431 -0.182650 0.092786
-0.031501 -0.059668 0.127656
-0.054682 -0.069283 0.126228
-0.058738 -0.038771 0.075114
-0.034285 -0.177372 0.047595
-0.018895 -0.029733 0.018595
-0.060071 -0.040227 0.044393
-0.012210 -0.175093 0.097715
-0.087856 -0.071649 0.095256
-0.047098 -0.063642 0.127372
-0.008797 -0.029604 0.018778
-0.035996 -0.038163 0.101471
-0.077994 -0.113155 0.035524
-0.025775 -0.182677 0.062037
0.023355 -0.030039 0.080629
-0.067194 -0.125409 0.025170
-0.042217 -0.038118 0.019647
-0.014714 -0.053642 0.007878
0.009260 -0.180544 0.085179
-0.010177 -0.149767 0.014470
0.018368 -0.086366 0.006151
0.003923 -0.061615 0.121157
0.009441 -0.094099 0.129133
0.042572 -0.147177 0.111764
-0.014157 -0.140941 0.118658
-0.095389 -0.123817 0.099313
-0.090287 -0.088786 0.113557
0.021251 -0.172878 0.091866
-0.072164 -0.076381 0.026500
-0.087547 -0.143637 0.062075
-0.090953 -0.097890 0.055625
-0.012504 -0.112074 0.002123
0.020145 -0.119783 0.125978
-0.079943 -0.065698 0.054898
-0.038158 -0.158506 0.025274
-0.076122 -0.156531 0.077462
0.074085 -0.119772 0.121229
-0.015406 -0.032827 0.092617
0.036913 -0.158427 0.061751
-0.048242 -0.175307 0.057042
-0.010719 -0.140724 0.009675
-0.061623 -0.171596 0.075989
0.046162 -0.029687 0.046739
-0.046302 -0.135785 0.016456
-0.071329 -0.107626 0.117286
-0.075028 -0.066577 0.122920
-0.082761 -0.146311 0.084779
-0.093204 -0.125756 0.071967
-0.021057 -0.123475 0.124262
-0.004549 -0.007721 0.049546
-0.048275 -0.155004 0.103024
0.048234 -0.028334 0.053500
-0.055756 -0.165182 0.049607
0.001509 -0.058364 0.120253
0.029137 -0.037280 0.085417
-0.048646 -0.055937 0.124154
-0.087431 -0.074722 0.106557
-0.022113 -0.140007 0.010503
-0.069861 -0.155042 0.086996
-0.051402 -0.181833 0.071705
0.044537 -0.151248 0.062095
-0.072943 -0.139882 0.037959
-0.084537 -0.078098 0.118524
-0.027156 -0.021024 0.027547
-0.084022 -0.063027 0.085449
-0.086114 -0.142151 0.058698
-0.005095 -0.152710 0.015447
0.065707 -0.051824 0.035286
0.001958 -0.171119 0.104117
0.069625 -0.103788 0.013987
-0.043891 -0.108507 0.008011
0.006168 -0.048435 0.013080
0.030617 -0.019615 0.053303
-0.055210 -0.067907 0.006363
0.015396 -0.065913 0.117353
-0.071583 -0.161929 0.063489
-0.046734 -0.147143 0.023055
-0.061395 -0.132184 0.024137
0.010583 -0.015569 0.044484
-0.068814 -0.116308 0.114575
-0.026447 -0.130321 0.007959
-0.092300 -0.090463 0.074447
0.065335 -0.120316 0.122400
-0.003431 -0.125070 0.004591
-0.040585 -0.116902 0.122960
-0.086938 -0.120323 0.052757
0.073419 -0.061368 0.031500
-0.038710 -0.152239 0.022209
-0.082233 -0.103323 0.040462
-0.045524 -0.129310 0.117590
0.046700 -0.103505 0.006475
0.000391 -0.014617 0.037346
0.043579 -0.120807 0.005617
0.040128 -0.156340 0.083420
0.006137 -0.069444 0.007236
-0.092408 -0.101646 0.061108
-0.000086 -0.050778 0.114552
-0.047537 -0.029390 0.038390
-0.055495 -0.170610 0.056964
-0.042552 -0.090538 0.002889
-0.089641 -0.103659 0.111899
0.002174 -0.139128 0.120897
-0.089316 -0.081002 0.071662
-0.025107 -0.154183 0.110864
0.038948 -0.138116 0.017746
0.015999 -0.168916 0.044760
0.061215 -0.115431 0.009438
0.024051 -0.160107 0.109325
0.022825 -0.171012 0.095533
-0.078991 -0.147226 0.052815
0.065242 -0.115155 0.034276
-0.073858 -0.060073 0.115518
0.008019 -0.135695 0.006666
0.034040 -0.125809 0.004046
-0.091268 -0.091798 0.065380
-0.002930 -0.158438 0.020988
0.002826 -0.035556 0.096863
-0.096805 -0.118348 0.091683
-0.082365 -0.104063 0.114499
0.072418 -0.078020 0.025454
-0.002588 -0.143959 0.118211
-0.028443 -0.051203 0.117371
-0.044985 -0.062505 0.005467
-0.022441 -0.145579 0.115197
-0.034926 -0.118153 0.123683
0.073907 -0.117086 0.119855
-0.042676 -0.183077 0.070303
0.067613 -0.099786 0.013665
-0.035566 -0.099086 0.002621
0.028492 -0.166450 0.090798
-0.052968 -0.046441 0.110942
-0.003752 -0.113987 0.126562
-0.030101 -0.182818 0.082893
-0.037759 -0.017435 0.039237
0.027628 -0.085045 0.007370
-0.019990 -0.185901 0.084517
