ply
format ascii 1.0
element vertex 159
property float x
property float y
property float z
end_header
0.055623 -0.077759 0.044898
0.008120 -0.149900 0.034373
0.039015 -0.045315 0.071255
-0.056188 -0.054365 0.005040
-0.093453 -0.151229 0.041022
-0.078088 -0.092679 0.011428
-0.126467 -0.080896 0.070484
0.011269 -0.024225 0.048495
-0.062539 -0.056541 0.127927
-0.127073 -0.076099 0.095386
-0.070564 -0.109697 0.008875
-0.073483 -0.087597 0.124763
-0.036119 -0.171770 0.096926
-0.083427 -0.045002 0.125564
-0.105060 -0.056050 0.119035
-0.088537 -0.032695 0.059173
-0.052517 -0.171168 0.045748
-0.015292 -0.095118 0.127651
-0.031965 -0.025503 0.016546
-0.078547 -0.036327 0.028768
-0.046165 -0.164452 0.098636
-0.121767 -0.065200 0.070941
-0.098715 -0.049485 0.122407
-0.022317 -0.024895 0.019578
-0.075811 -0.029704 0.091813
-0.090106 -0.108337 0.019066
-0.048792 -0.174958 0.061836
-0.011213 -0.021992 0.087548
-0.075133 -0.120503 0.012660
-0.054684 -0.037004 0.012297
-0.022450 -0.049631 0.008139
-0.022128 -0.169745 0.092850
0.013232 -0.081284 0.011993
-0.043765 -0.048990 0.120592
-0.042398 -0.078943 0.129281
-0.002237 -0.130823 0.124410
-0.056189 -0.129532 0.115728
-0.128287 -0.117341 0.074122
-0.130229 -0.081494 0.088689
-0.040310 -0.047356 0.007777
-0.004054 -0.117393 0.003540
-0.012597 -0.161131 0.101709
-0.080241 -0.074492 0.011323
-0.107577 -0.137987 0.041955
-0.109874 -0.093038 0.032475
-0.013158 -0.111643 0.002071
-0.030176 -0.105718 0.127394
-0.080774 -0.064833 0.125255
-0.099982 -0.061425 0.033720
-0.048191 -0.153569 0.021835
-0.101791 -0.149968 0.060621
0.019522 -0.104353 0.121764
0.011258 -0.148099 0.077882
-0.068793 -0.168900 0.050345
-0.087000 -0.164533 0.064385
0.020839 -0.022611 0.062986
-0.052992 -0.130682 0.010188
-0.112577 -0.099595 0.098495
-0.121188 -0.057478 0.101918
-0.110863 -0.139891 0.065137
-0.116843 -0.120510 0.049100
-0.028688 -0.132292 0.121438
0.002582 -0.072857 0.116093
-0.066548 -0.112402 0.119079
-0.028423 -0.001736 0.048560
-0.083312 -0.146325 0.093486
0.020440 -0.021271 0.070057
0.012035 -0.040907 0.091624
-0.073573 -0.159222 0.040394
-0.045997 -0.045821 0.119166
0.014807 -0.064529 0.104777
-0.007493 -0.029319 0.094050
-0.098058 -0.043584 0.114274
-0.125581 -0.067647 0.081899
-0.027351 -0.136792 0.011511
-0.099052 -0.147927 0.071594
-0.076026 -0.174613 0.063704
0.017572 -0.140784 0.080297
-0.085726 -0.134660 0.023309
-0.127780 -0.070041 0.094658
0.028227 -0.061183 0.033371
-0.062586 -0.100863 0.006642
-0.042744 -0.017457 0.021840
-0.114795 -0.057422 0.061843
-0.105184 -0.136586 0.039141
-0.013353 -0.147825 0.021512
0.043325 -0.044297 0.058892
-0.004962 -0.074659 0.119859
-0.034605 -0.159542 0.108377
0.057037 -0.095040 0.040227
-0.004505 -0.059340 0.010993
-0.004434 -0.042998 0.019000
0.004111 -0.012728 0.063662
-0.059327 -0.066372 0.003341
-0.031896 -0.053392 0.119578
-0.092813 -0.155787 0.049148
-0.055340 -0.142168 0.016570
-0.069289 -0.127150 0.013374
-0.100422 -0.089109 0.025320
-0.108844 -0.108287 0.096980
-0.030024 -0.127595 0.006439
-0.118000 -0.085404 0.049470
-0.005100 -0.123830 0.005312
-0.085512 -0.106253 0.113350
-0.104477 -0.115932 0.032409
0.052101 -0.053617 0.058057
-0.042274 -0.067841 0.127509
-0.047663 -0.147489 0.018417
0.036707 -0.125652 0.032689
-0.095963 -0.098685 0.021524
-0.086439 -0.119769 0.107217
0.040712 -0.096988 0.021994
-0.019924 -0.008909 0.038930
0.039693 -0.116724 0.012924
0.006873 -0.143996 0.098824
0.030794 -0.092547 0.016798
-0.075405 -0.047495 0.125747
-0.113146 -0.096525 0.037262
-0.046202 -0.039145 0.112894
-0.065079 -0.025720 0.026451
-0.075680 -0.164252 0.047799
-0.043574 -0.088997 0.002333
-0.128118 -0.096412 0.087334
-0.042432 -0.126319 0.121063
-0.114698 -0.075753 0.047410
-0.063243 -0.144222 0.106601
0.031081 -0.131488 0.030415
-0.003630 -0.160986 0.055244
-0.049862 -0.046950 0.007666
0.003807 -0.111581 0.004060
0.052459 -0.106790 0.033106
-0.100653 -0.046406 0.053783
-0.015789 -0.147337 0.118239
-0.012081 -0.159095 0.105582
-0.096625 -0.141819 0.036076
0.046269 -0.106957 0.058135
-0.116562 -0.051514 0.094500
0.004855 -0.133280 0.010526
0.032026 -0.123348 0.006939
-0.113739 -0.086769 0.041138
-0.013295 -0.153147 0.027195
-0.036013 -0.026222 0.095891
-0.127352 -0.112231 0.066214
-0.122074 -0.096453 0.092110
0.053711 -0.069950 0.052817
-0.006195 -0.060918 0.009986
-0.048874 -0.061105 0.004076
-0.080328 -0.106634 0.115922
0.002478 -0.050757 0.104210
-0.067204 -0.175490 0.065157
0.055064 -0.091145 0.039172
-0.036488 -0.098326 0.002167
-0.005626 -0.154417 0.102473
-0.095615 -0.037981 0.096900
-0.052941 -0.101162 0.125016
-0.058790 -0.173953 0.080726
-0.056604 -0.013575 0.028912
0.024520 -0.120642 0.005703
-0.049254 -0.176411 0.085213
