ply
format ascii 1.0
element vertex 147
property float x
property float y
property float z
end_header
0.038130 0.096489 0.075785
0.021526 -0.046141 0.103058
0.099362 -0.045835 0.023181
-0.008559 0.016463 0.006888
-0.015416 0.027172 0.019762
0.002318 0.047888 0.108781
-0.017088 0.042945 0.048172
0.041347 0.100464 0.058429
0.206207 0.090555 0.115817
-0.021319 -0.033139 0.060965
0.024025 -0.045532 0.104146
-0.024694 0.023218 0.055146
0.129612 -0.019876 0.068116
0.074516 0.039704 0.005904
0.031407 -0.055778 0.035281
-0.003184 0.045245 0.022613
-0.025035 0.022036 0.062579
0.071791 0.008927 0.123794
0.117209 0.078803 0.036635
0.050886 0.066312 0.009206
0.009171 0.003778 0.118900
0.027348 0.002832 0.004722
0.091302 -0.058765 0.031682
0.022498 0.048183 0.006663
0.046366 0.097420 0.041551
0.030617 -0.005090 0.005288
-0.022287 -0.027046 0.060625
0.085386 0.063670 0.013072
-0.011583 0.051602 0.065934
0.010242 -0.068561 0.069316
0.033084 0.005846 0.121574
0.102795 0.005267 0.007651
-0.020198 0.029277 0.072712
0.011901 0.018235 0.004787
0.015969 -0.012066 0.008784
0.072882 -0.003310 0.123189
0.122549 -0.024585 0.098345
0.125519 -0.025352 0.065810
0.001460 -0.001598 0.111151
0.060966 0.038427 0.005393
-0.003825 -0.028442 0.095383
0.119839 -0.021215 0.107619
-0.006019 -0.034736 0.038042
-0.014154 -0.047135 0.059469
0.109397 -0.012547 0.114694
-0.023420 0.007405 0.022313
0.030974 0.091836 0.091737
0.054934 0.100930 0.064371
-0.015069 -0.046499 0.060906
-0.022417 0.002044 0.023375
-0.012300 0.043855 0.032844
0.002641 0.065131 0.099537
0.003388 0.074563 0.056698
-0.020310 -0.039138 0.053553
0.013404 0.069805 0.029728
-0.008803 0.001531 0.104361
0.024414 0.061924 0.014291
0.208768 0.093722 0.118400
0.088991 0.043895 0.009118
0.070067 -0.038676 0.111538
-0.009956 -0.030452 0.084791
0.086436 -0.025297 0.006409
-0.019360 0.005117 0.081067
0.076020 0.103412 0.044697
0.011541 0.079986 0.085960
0.060062 0.016070 0.002648
0.066133 0.095680 0.033817
0.094278 -0.021684 0.006206
0.110920 -0.017357 0.022142
0.121425 -0.023994 0.044656
0.035326 -0.037396 0.113536
0.111425 0.002389 0.013696
0.101397 0.087339 0.032473
0.055213 0.101604 0.048669
0.042679 0.076935 0.018650
0.026057 0.026473 0.122953
0.075209 -0.044136 0.106516
-0.012152 0.040035 0.088331
0.039974 0.090816 0.032145
0.000582 0.062341 0.097594
0.000208 -0.031959 0.097571
0.087092 -0.050126 0.016234
0.098631 -0.036666 0.017548
0.061881 -0.078658 0.056367
-0.025606 -0.003070 0.054139
0.031208 -0.019475 0.008990
0.083769 -0.009137 0.003985
-0.019500 0.016229 0.014028
0.010507 0.045951 0.114319
-0.014841 0.007940 0.092438
-0.019141 0.022511 0.079486
-0.022935 -0.009630 0.063288
0.100404 -0.048365 0.033160
0.001329 0.002229 0.112467
0.098505 -0.054741 0.057481
-0.017832 -0.019200 0.075851
0.018901 0.086193 0.054899
0.199961 0.093112 0.119894
-0.011907 -0.045479 0.068878
-0.001548 0.065440 0.077989
0.087884 -0.060448 0.023328
-0.011601 0.000633 0.097681
0.034421 -0.070573 0.080406
-0.007456 0.059345 0.058016
0.038770 -0.071607 0.049580
0.028208 -0.077026 0.064892
0.091063 -0.032757 0.112050
0.023135 -0.033462 0.020001
0.121657 0.070701 0.037213
0.006564 0.077432 0.061982
0.121005 0.040991 0.026366
-0.028219 -0.007865 0.033832
0.019606 0.084376 0.045194
0.027996 -0.065647 0.085176
0.099354 0.021946 0.008641
0.039225 -0.030042 0.118278
-0.004423 0.003055 0.009611
0.001591 0.011752 0.006240
-0.007136 -0.052068 0.054787
0.049226 -0.080006 0.062947
0.038651 0.076631 0.018716
0.088145 -0.009304 0.121222
-0.001559 0.052774 0.101692
0.068776 -0.070166 0.070982
0.098300 -0.054569 0.053045
0.073895 0.098859 0.036953
-0.002045 -0.050183 0.079692
0.015029 -0.073345 0.068839
0.007154 -0.030599 0.104417
0.105909 0.028730 0.011267
0.026475 0.091965 0.084849
0.079431 -0.067192 0.037694
0.108143 0.067702 0.026060
-0.011300 0.007758 0.010084
0.121380 -0.009150 0.033237
0.005197 -0.059503 0.076590
0.208566 0.096500 0.117202
0.054135 0.090470 0.121282
0.061505 -0.076976 0.051351
-0.027742 -0.015091 0.041705
0.087733 -0.017069 0.119000
0.085559 0.081278 0.022211
-0.024634 -0.025273 0.052749
0.034129 0.029896 0.004306
0.007862 -0.068209 0.064340
0.030831 -0.052753 0.032379
0.054671 0.014895 0.123906
