ply
format ascii 1.0
element vertex 157
property float x
property float y
property float z
end_header
0.023770 0.042191 0.053843
-0.087662 0.124794 0.063105
-0.019208 -0.003008 0.110633
-0.002934 0.066884 0.027356
-0.102099 0.111072 0.074330
-0.061694 -0.048463 0.006549
-0.074080 -0.052368 0.019948
-0.108241 -0.016108 0.109338
-0.086982 -0.046368 0.049991
-0.149695 0.015632 0.051455
-0.024487 0.039470 0.005478
-0.117499 0.117468 0.042012
-0.073573 -0.053161 0.059865
-0.039795 0.099679 0.068189
-0.052007 -0.065944 0.038785
-0.157243 0.041841 0.052159
-0.060850 -0.062340 0.027280
-0.073671 -0.051076 0.067231
-0.119445 0.091903 0.070196
-0.075695 0.049620 0.128672
-0.133259 0.096493 0.029938
-0.147228 0.077670 0.039641
-0.113694 0.021331 0.007554
-0.068291 -0.000427 0.124826
-0.070969 0.121980 0.083061
0.010811 -0.000986 0.053540
-0.130838 0.002999 0.028616
-0.094094 -0.013083 0.006791
-0.146254 0.021437 0.036881
-0.143552 0.084067 0.033422
-0.046003 0.003269 0.002398
-0.023713 -0.059556 0.067735
-0.110218 0.059666 0.011090
-0.072273 0.015515 0.127240
-0.054570 0.069703 0.008525
-0.083930 -0.042830 0.079008
-0.065270 -0.028003 0.003708
-0.036476 -0.020543 0.012996
-0.061159 0.050857 0.127485
-0.055819 0.106976 0.105329
-0.002550 -0.008986 0.041655
-0.090621 0.101033 0.030470
-0.099488 0.123786 0.066320
-0.058317 0.103023 0.119666
-0.150035 0.012638 0.083914
-0.157874 0.033620 0.055686
-0.050939 -0.033743 0.007529
-0.006194 -0.052247 0.070302
-0.055769 0.064876 0.126481
-0.085878 -0.047051 0.039662
-0.121751 -0.015500 0.097366
-0.121154 -0.023572 0.056048
-0.010808 -0.058434 0.062297
-0.086166 0.113415 0.090952
-0.113954 -0.020324 0.029862
-0.060529 -0.026277 0.108548
-0.119870 0.001732 0.110869
-0.104880 -0.010116 0.014049
-0.066494 0.114958 0.102552
-0.038616 0.097656 0.080282
-0.057845 0.007495 0.124834
-0.089612 0.056378 0.007520
-0.027564 0.052448 0.115132
-0.021428 -0.009037 0.108536
-0.063795 0.115933 0.075215
-0.029129 -0.033640 0.095771
-0.105474 0.006650 0.122676
-0.022567 0.057419 0.005994
-0.061800 -0.042699 0.089230
-0.154427 0.054551 0.037093
-0.129101 0.005018 0.104261
-0.131568 -0.010201 0.082811
0.004456 0.053322 0.024209
-0.080528 0.090020 0.111056
-0.084601 0.124173 0.065656
-0.062132 0.028285 0.000535
-0.112439 0.039316 0.113291
-0.026516 0.063375 0.007361
-0.032023 0.078069 0.024839
-0.088608 -0.012427 0.116241
-0.092174 0.098576 0.027613
-0.027917 0.013500 0.118027
-0.051694 0.077695 0.014422
-0.139492 0.077017 0.026508
-0.152077 0.031267 0.041327
-0.124228 0.013063 0.016954
-0.119702 0.012942 0.111724
-0.095633 0.006336 0.127636
-0.096420 -0.031421 0.094897
-0.157391 0.042644 0.046007
-0.137776 0.011231 0.030844
-0.119058 -0.017880 0.095628
0.005043 0.058037 0.023141
-0.053818 0.105210 0.055320
-0.077697 0.063486 0.123596
-0.012431 0.067684 0.021843
0.026489 0.030906 0.067574
-0.020734 -0.011302 0.022600
-0.027591 0.001796 0.012035
-0.037409 0.054136 0.001236
-0.062349 -0.058848 0.012653
-0.079570 0.103245 0.035563
-0.109098 -0.008223 0.114212
-0.076853 -0.042908 0.083515
-0.088196 0.114324 0.046410
-0.049643 0.034472 0.000685
-0.064954 -0.015602 0.117236
-0.003329 0.066576 0.065040
-0.039985 -0.046376 0.086790
-0.010488 -0.044835 0.079396
-0.095323 -0.001577 0.122649
-0.115787 -0.024066 0.076912
0.014075 0.057596 0.032531
-0.098562 0.119205 0.048679
0.011043 0.004343 0.091516
-0.123632 0.055632 0.091795
0.018767 0.006964 0.062254
-0.051734 0.023494 0.000670
0.022387 -0.011571 0.077858
-0.037013 0.073788 0.113533
0.012398 -0.000019 0.054972
-0.125202 -0.020031 0.060096
-0.111463 0.027293 0.007499
-0.040702 -0.069378 0.037002
-0.154942 0.029713 0.068427
-0.091835 0.086272 0.103265
-0.131560 -0.009228 0.042159
-0.099897 0.058370 0.113351
0.006955 -0.003094 0.093633
-0.035986 0.018659 0.120253
-0.058724 -0.038267 0.005716
0.024984 0.018615 0.075412
-0.079849 0.100411 0.105194
-0.123610 0.009166 0.017656
-0.066844 0.084101 0.121867
-0.056777 0.069433 0.126699
0.010732 0.039623 0.081670
-0.147484 0.049849 0.030193
-0.007474 -0.032427 0.089043
0.018974 -0.022950 0.080634
-0.127538 -0.015651 0.051332
-0.034930 -0.014135 0.109962
-0.079353 0.070819 0.011252
-0.147950 0.005633 0.077987
-0.071658 0.119841 0.096107
0.017785 0.049894 0.047936
-0.054299 -0.050567 0.011361
-0.042939 0.088923 0.034533
-0.060272 0.116316 0.085374
0.025421 0.030608 0.063216
-0.032154 -0.069930 0.045914
-0.049575 0.070545 0.123791
-0.130191 0.061127 0.019880
-0.028858 0.063731 0.110565
-0.074615 -0.002044 0.003354
0.001469 -0.000554 0.041438
-0.080716 0.035668 0.128783
