ply
format ascii 1.0
element vertex 156
property float x
property float y
property float z
end_header
0.044503 0.050010 0.000663
-0.002900 0.076403 0.119089
-0.019998 -0.049881 0.120248
-0.064945 0.021962 0.025667
0.076141 -0.011555 0.041920
0.004874 0.069715 0.008144
-0.040063 -0.050851 0.002157
-0.035526 -0.059603 0.018640
0.042135 -0.059344 0.100964
-0.013893 -0.066625 0.044650
-0.034657 -0.039907 0.110243
-0.022992 0.042474 0.000490
-0.034784 0.057664 0.126009
0.004548 -0.069285 0.040885
0.025117 0.074919 0.074781
-0.005684 -0.068384 0.010485
-0.036973 -0.026904 0.127115
-0.020364 -0.065403 0.011882
0.011031 -0.069066 0.045034
-0.035313 0.060097 0.008659
-0.056487 0.036852 0.017570
0.077719 0.009179 0.122987
0.012695 -0.053981 0.126088
-0.047331 0.037236 0.125747
-0.044707 0.010972 0.127563
-0.062998 -0.009349 0.066645
0.021652 0.077922 0.115194
-0.049253 -0.034954 0.083675
-0.059437 -0.029573 0.036362
-0.055317 -0.035590 0.020888
-0.015824 0.068214 0.013845
-0.045665 -0.030995 0.105446
-0.048347 0.021657 0.127241
0.035875 -0.059789 0.011268
-0.057970 0.024529 0.083991
0.081005 -0.019389 0.108173
-0.040067 0.058453 0.037495
0.020500 -0.067737 0.062243
-0.052890 -0.032633 0.003840
0.086448 0.014956 0.115108
0.051329 0.068581 0.111730
-0.043049 0.054815 0.037079
0.029641 0.073191 0.069474
-0.065218 0.013266 0.036199
0.065721 0.050511 0.079538
-0.031640 0.062124 0.095255
-0.006920 0.067790 0.125708
0.061278 0.061432 0.122549
-0.003585 -0.054202 0.126721
-0.034530 -0.034215 0.123910
-0.034947 -0.033050 0.000271
0.047857 -0.047356 0.003627
0.081803 0.032901 0.112613
-0.022437 -0.064251 0.038773
0.026124 -0.064093 0.105129
-0.017340 -0.061101 0.080727
0.039234 -0.053464 -0.000104
0.021858 0.063098 0.124987
-0.044344 -0.046976 0.062652
0.037819 -0.055193 0.122336
0.005044 0.071244 0.016546
-0.066069 0.001472 0.041898
0.041719 0.071498 0.119609
-0.057205 0.033788 0.063001
0.076674 0.030214 0.071576
0.073242 -0.017675 0.040598
-0.046327 0.040806 0.117435
0.019386 0.077777 0.103410
0.058532 -0.042773 0.034518
0.055768 -0.045989 0.124945
-0.022839 0.058976 0.001696
0.064510 -0.043900 0.117969
0.038930 -0.060513 0.049712
0.070455 -0.037175 0.118337
-0.048504 -0.009655 0.126144
0.000867 0.076655 0.117775
-0.061513 0.028440 0.001492
0.037805 -0.013330 0.125731
-0.025868 0.064358 0.004820
-0.010400 0.072155 0.036070
-0.034642 0.059854 0.093690
0.010010 0.074961 0.055736
0.078800 -0.000948 0.057449
-0.032466 0.062995 0.042790
-0.053627 0.018619 0.120621
-0.057578 -0.021577 0.075562
0.068566 -0.039981 0.123094
0.030679 -0.064168 0.080272
-0.042298 -0.023126 0.126123
-0.058788 -0.003417 0.001513
-0.050141 -0.031006 0.091909
0.025575 -0.064893 0.101265
0.008884 0.062212 0.000435
0.007178 0.076436 0.081804
0.066018 0.019857 0.123806
-0.005908 0.069390 0.006730
0.057215 0.039701 0.002771
-0.017193 0.004696 -0.000038
-0.036725 0.054629 0.001431
-0.033158 -0.060638 0.004158
0.046275 -0.056743 0.109677
-0.068480 -0.007318 0.008778
0.026778 -0.066015 0.058311
-0.016679 0.070903 0.106652
0.014723 0.070153 0.020830
0.067486 -0.039454 0.075763
0.037955 0.063826 0.032308
0.045326 -0.056815 0.034196
0.078547 0.035008 0.094270
0.053581 -0.043171 0.011473
0.063451 -0.045604 0.113418
0.021565 0.064050 0.000225
-0.019783 0.069004 0.118285
0.072591 0.007947 0.017894
-0.051226 0.023968 0.000643
0.067295 -0.000781 0.001267
0.070699 0.046421 0.088432
-0.011730 -0.051528 0.124181
-0.016601 -0.060038 0.087480
-0.063185 -0.003043 0.066950
0.014502 -0.055940 0.122812
-0.066217 -0.016099 0.021603
0.000806 -0.068031 0.001028
0.021031 0.071662 0.039176
-0.035890 -0.047461 0.086427
0.022883 0.070929 0.038568
0.072720 -0.000504 0.020018
-0.047604 0.048676 0.053067
-0.041647 -0.039806 0.001358
0.064383 0.028792 0.005186
-0.056240 -0.024861 0.073601
0.079518 0.036250 0.114491
0.061718 0.040874 0.024679
0.034020 0.065162 0.030965
-0.053543 -0.008273 0.117115
0.062929 -0.032452 0.018185
0.050889 -0.015038 0.000437
0.068664 -0.013009 0.001532
-0.026519 -0.054781 0.086232
0.069813 -0.028183 0.049496
-0.008047 -0.057450 0.118182
0.032571 0.074014 0.121896
0.035745 0.057259 0.002133
-0.031394 -0.050138 0.000485
0.034107 0.010858 0.125495
-0.007246 0.073567 0.057097
0.030111 0.077521 0.106169
0.072747 -0.032345 0.121567
-0.058571 0.035272 0.029914
0.013263 -0.068236 0.000488
0.078626 0.039791 0.105621
-0.057418 0.012367 0.103300
0.074862 -0.013686 0.123918
0.029578 -0.061167 0.005043
-0.069022 -0.004622 0.005219
0.079347 -0.004208 0.122860
