ply
format ascii 1.0
element vertex 149
property float x
property float y
property float z
end_header
0.001075 -0.028609 0.094034
-0.122666 0.032272 0.116906
-0.119967 0.024368 0.120861
-0.049482 -0.098763 0.090144
-0.017802 0.011112 0.085789
-0.138847 -0.097015 0.053185
-0.161952 -0.026034 0.021693
-0.025479 0.012292 0.045886
-0.085867 -0.078008 0.008113
-0.144341 0.048913 0.090797
-0.115726 -0.006408 0.126073
-0.083800 -0.087690 0.011141
-0.075304 0.009152 0.118650
-0.173879 -0.007499 0.036342
-0.087011 -0.092550 0.016099
-0.151166 0.012343 0.091983
-0.115085 -0.074899 0.124275
-0.152110 0.045718 0.063416
-0.165812 0.026763 0.052828
-0.114962 0.005941 0.010362
-0.108848 -0.107675 0.086029
-0.109952 0.014538 0.125316
-0.050604 -0.011756 0.006424
-0.005662 -0.058936 0.062711
-0.133833 -0.018839 0.008956
-0.092343 -0.018020 0.003783
-0.124809 -0.069568 0.117122
-0.154923 -0.012924 0.017414
-0.161357 0.035382 0.054217
-0.042352 -0.008941 0.011903
-0.036121 -0.108485 0.025862
-0.119046 0.031155 0.035769
-0.113749 -0.099295 0.099427
-0.061406 0.037333 0.058506
-0.099468 -0.095031 0.023948
-0.065304 -0.030767 0.002751
-0.037241 -0.037441 0.012877
-0.101573 -0.074090 0.124355
-0.068663 0.005294 0.118324
-0.070550 -0.038979 0.125088
-0.014095 -0.054350 0.045729
-0.134723 0.030686 0.115362
-0.097602 -0.021045 0.127412
-0.173656 -0.052573 0.040707
-0.174408 -0.015969 0.033172
-0.020890 -0.106334 0.036435
-0.147089 -0.085961 0.040821
-0.130795 -0.058504 0.010172
-0.022644 -0.104998 0.025696
-0.124706 0.002917 0.122986
-0.117206 -0.036172 0.005072
-0.089409 -0.110691 0.060694
-0.152861 -0.084393 0.062066
-0.105142 -0.004084 0.127145
-0.074886 -0.002142 0.122991
-0.095363 -0.102913 0.092860
-0.066196 -0.063203 0.121417
-0.049858 -0.101261 0.083896
-0.124543 -0.103934 0.080037
-0.052745 -0.108317 0.057854
-0.144861 -0.092810 0.079331
-0.024513 0.024201 0.059394
-0.082007 -0.105337 0.036924
-0.168208 0.011722 0.034515
-0.160295 -0.075109 0.055776
-0.152588 -0.069416 0.032044
-0.008419 0.002096 0.076668
-0.076683 0.021789 0.109915
-0.120330 0.029391 0.118478
-0.054154 0.022389 0.013548
-0.151648 -0.060505 0.090918
-0.028550 0.028931 0.063094
-0.047641 0.026248 0.082955
-0.122643 -0.103373 0.065811
-0.057913 0.016238 0.105397
-0.063031 0.036544 0.069011
-0.154267 0.034318 0.046303
-0.163841 -0.008260 0.024078
-0.155106 -0.076401 0.069860
-0.137876 -0.100922 0.088647
-0.060773 -0.056576 0.121374
-0.119920 -0.096989 0.036123
-0.172376 -0.002943 0.032428
-0.059870 -0.006747 0.004710
-0.142105 -0.014571 0.011529
-0.143566 -0.086657 0.039161
-0.117693 -0.101871 0.052288
-0.007904 0.006084 0.079412
-0.117771 -0.059127 0.124678
0.001089 -0.046452 0.097605
-0.024136 -0.038846 0.027298
-0.028107 -0.020360 0.027188
-0.035744 0.029852 0.045693
-0.062774 -0.063911 0.002246
-0.104227 0.040171 0.089215
-0.142066 -0.095429 0.061729
-0.090391 -0.106586 0.046852
-0.095187 -0.099443 0.029749
-0.042212 0.021080 0.026133
-0.165408 -0.031210 0.062275
-0.097263 -0.109624 0.071323
-0.032541 -0.015240 0.109872
-0.144283 -0.043624 0.014183
-0.028898 -0.106996 0.046186
-0.134323 -0.076126 0.024737
-0.002631 -0.001931 0.087974
-0.128845 0.041913 0.102577
-0.016921 -0.080604 0.092295
-0.128399 0.020000 0.119732
-0.155615 -0.030896 0.083606
-0.001636 -0.060022 0.076156
-0.044470 0.013376 0.016675
-0.000424 -0.084554 0.075617
-0.004701 -0.059400 0.064797
-0.136894 -0.058586 0.013164
-0.128334 -0.102438 0.072332
-0.041136 -0.016016 0.113344
-0.046325 -0.088106 0.004538
-0.175362 -0.027771 0.040254
-0.138431 -0.036748 0.009286
-0.086988 -0.089888 0.014102
-0.139815 -0.049245 0.107602
-0.020729 -0.087255 0.088162
-0.117169 -0.055705 0.007029
-0.071387 -0.093662 0.106137
-0.001049 -0.060508 0.094525
-0.125580 -0.007661 0.008143
-0.095592 -0.057015 0.127668
-0.136732 -0.092892 0.043708
-0.019827 -0.048030 0.108352
-0.158778 0.012609 0.029182
-0.030043 -0.105099 0.061907
-0.003238 -0.094724 0.069695
-0.136424 -0.049014 0.010722
-0.063499 -0.105531 0.077205
-0.087227 0.038194 0.053559
-0.168085 -0.053223 0.033061
-0.003264 -0.018089 0.093831
-0.063104 0.027238 0.091943
-0.098387 0.007621 0.125060
-0.130951 -0.099076 0.093922
0.001235 -0.043669 0.094076
-0.039230 -0.096366 0.006784
-0.140566 0.026972 0.034743
-0.130604 -0.087575 0.106498
-0.033995 -0.103827 0.018392
-0.072898 -0.005205 0.004630
-0.010935 -0.048998 0.052611
-0.123470 -0.086054 0.115356
