ply
format ascii 1.0
element vertex 150
property float x
property float y
property float z
end_header
0.016640 -0.051586 0.081891
-0.101559 -0.015893 0.124481
-0.020929 -0.061865 0.107746
-0.027827 -0.124905 0.068588
-0.006125 -0.013756 0.087509
-0.123455 -0.123870 0.041837
-0.157356 -0.049631 0.032889
-0.019843 -0.001874 0.050857
-0.131371 0.003651 0.116842
-0.091906 -0.055149 0.126785
-0.078315 -0.092682 0.005841
-0.056641 -0.035329 0.123394
-0.168318 -0.037100 0.052870
-0.080591 -0.099558 0.008115
-0.138236 -0.030144 0.107750
-0.092792 -0.121161 0.115473
-0.145959 0.009413 0.090131
-0.160112 -0.007173 0.076569
-0.114721 -0.008743 0.024493
-0.089458 -0.140156 0.067483
-0.086941 -0.034511 0.127644
-0.047374 -0.016206 0.008168
0.006696 -0.073756 0.046455
-0.091293 -0.023017 0.006121
-0.102499 -0.114346 0.111116
-0.152098 -0.034893 0.031062
-0.156048 0.001185 0.079705
-0.039188 -0.014121 0.014012
-0.028321 -0.114567 0.008850
-0.105384 -0.091978 0.011685
-0.092695 -0.137099 0.083142
-0.055604 0.013941 0.074292
-0.089165 -0.107164 0.013283
-0.064706 -0.032126 0.003238
-0.034347 -0.041662 0.009567
-0.078575 -0.120243 0.115889
-0.049445 -0.037156 0.121330
-0.047924 -0.082869 0.120910
-0.004739 -0.065894 0.032998
-0.114179 -0.017821 0.125564
-0.073385 -0.069719 0.127402
-0.009336 -0.112210 0.014110
-0.164002 -0.082094 0.045787
-0.168662 -0.044561 0.047673
-0.010266 -0.113469 0.013944
-0.086331 -0.069128 0.004840
-0.134478 -0.111055 0.033532
-0.125592 -0.072793 0.010508
-0.015515 -0.109720 0.006041
-0.101503 -0.045784 0.126192
-0.115294 -0.045015 0.008080
-0.072934 -0.133607 0.041495
-0.137681 -0.116016 0.055219
-0.081198 -0.052979 0.127824
-0.052606 -0.047661 0.123164
-0.074271 -0.135698 0.073520
-0.041981 -0.103592 0.108718
-0.028860 -0.125563 0.061985
-0.105902 -0.136620 0.064245
-0.036691 -0.125176 0.036480
-0.126951 -0.127947 0.068599
-0.017204 0.005302 0.066760
-0.069707 -0.118754 0.020504
-0.157919 -0.057198 0.068477
-0.164528 -0.017241 0.055212
-0.146785 -0.105835 0.052364
-0.143349 -0.093002 0.030375
0.002330 -0.019208 0.075135
-0.094737 -0.073961 0.125089
-0.060727 -0.019939 0.117987
-0.053726 0.016178 0.026979
-0.133756 -0.100741 0.089340
-0.020597 0.008551 0.072248
-0.037757 -0.002326 0.092568
-0.105645 -0.131450 0.050720
-0.043469 -0.019940 0.111673
-0.055774 0.009483 0.083884
-0.150258 0.003013 0.070961
-0.160336 -0.033453 0.039608
-0.139405 -0.110502 0.065058
-0.118203 -0.137517 0.074738
-0.037411 -0.096070 0.110306
-0.107070 -0.115486 0.023994
-0.167958 -0.031639 0.050029
-0.001182 -0.040287 0.054515
-0.057010 -0.010571 0.007095
-0.140563 -0.032062 0.023203
-0.131095 -0.110747 0.031516
0.003010 -0.015975 0.078715
-0.094949 -0.106072 0.122040
0.018775 -0.069408 0.081495
-0.018640 -0.046782 0.020619
-0.022797 -0.028822 0.025435
-0.031154 0.013860 0.057046
-0.062163 -0.064547 0.002253
-0.125907 -0.125169 0.050734
-0.075928 -0.125438 0.030033
-0.113266 -0.070898 0.008092
-0.011435 -0.023168 0.095318
-0.039734 0.010932 0.036864
-0.154598 -0.065858 0.071147
-0.015202 -0.046976 0.105794
-0.139982 -0.061563 0.019250
-0.015835 -0.117483 0.023433
-0.125240 -0.094681 0.019704
0.010167 -0.025085 0.084170
-0.112991 -0.006087 0.120597
0.002949 -0.102970 0.071223
-0.109446 -0.081982 0.009181
-0.140126 -0.071241 0.091047
0.013337 -0.077567 0.058291
-0.043099 0.007059 0.025468
0.016574 -0.100494 0.051686
-0.054317 -0.092160 0.122060
0.008069 -0.074623 0.048149
-0.131260 -0.074620 0.013875
-0.110752 -0.133225 0.057781
-0.023013 -0.050293 0.109763
-0.167648 -0.058294 0.051747
-0.135425 -0.052826 0.015841
-0.119829 -0.093611 0.107209
-0.001003 -0.109128 0.066662
-0.047992 -0.127168 0.086895
-0.004591 -0.107174 0.018817
0.017280 -0.082536 0.075665
-0.124359 -0.023516 0.019065
-0.081957 -0.088163 0.125789
-0.071953 -0.105249 0.125613
-0.123009 -0.116852 0.033626
0.000100 -0.076319 0.094617
-0.156258 -0.013768 0.049264
-0.013709 -0.120584 0.038669
0.004247 -0.097572 0.034806
0.013463 -0.109440 0.044089
-0.132189 -0.064742 0.014133
-0.043690 -0.130092 0.056183
-0.081984 0.013211 0.072390
-0.159437 -0.079919 0.037785
0.011784 -0.041969 0.085304
-0.051904 -0.006581 0.102557
-0.150824 -0.075756 0.072652
-0.110780 -0.136853 0.079775
0.017975 -0.065930 0.078762
-0.037684 -0.097408 0.002542
-0.138224 0.000950 0.056086
-0.109156 -0.129450 0.095354
-0.029147 -0.107496 0.005017
-0.072370 -0.006858 0.006373
-0.000786 -0.062131 0.040410
-0.101620 -0.129759 0.103382
