ply
format ascii 1.0
element vertex 137
property float x
property float y
property float z
end_header
0.037073 -0.146325 0.035952
0.099383 -0.055248 0.006790
-0.016488 -0.034739 0.026179
-0.021527 -0.041240 0.042171
-0.006148 -0.117941 0.108856
-0.025976 -0.064168 0.064947
0.015715 -0.044859 0.123766
0.196548 -0.084932 0.117830
0.068705 -0.030570 0.005455
-0.026746 -0.071101 0.058412
-0.009602 -0.110875 0.023422
0.039507 -0.146961 0.037206
-0.027195 -0.080981 0.060008
0.057063 0.001402 0.056927
-0.013882 -0.034925 0.060643
-0.026871 -0.087697 0.063375
0.071421 -0.153485 0.107522
0.089008 -0.021090 0.118352
0.066190 -0.029352 0.125310
0.027344 -0.003929 0.080761
0.014691 -0.150425 0.085183
0.019126 -0.017073 0.012679
0.095468 -0.071553 0.005911
0.003905 -0.011372 0.056980
0.098659 -0.122427 0.038780
-0.002389 -0.018577 0.044349
0.069208 -0.142803 0.113974
0.018569 -0.028797 0.117748
0.074488 -0.024711 0.123585
0.026311 -0.021306 0.007122
0.062126 -0.003369 0.087787
-0.021691 -0.079566 0.082172
0.034032 -0.155118 0.095044
0.092888 -0.013857 0.037654
-0.024100 -0.096611 0.075329
-0.000258 -0.018014 0.025934
0.012934 -0.043977 0.009140
0.076535 -0.156542 0.093560
0.126287 -0.122016 0.071890
0.043539 0.003022 0.049969
0.007476 -0.137432 0.042367
0.001435 -0.113833 0.011717
0.013385 -0.077639 0.126457
0.000531 -0.115099 0.012674
0.090861 -0.150693 0.088343
-0.021749 -0.046564 0.060517
-0.009198 -0.099949 0.116602
-0.014787 -0.057610 0.099085
-0.007819 -0.107729 0.014494
-0.004922 -0.030243 0.084582
-0.003943 -0.134582 0.069183
0.009819 -0.112998 0.120897
0.005670 -0.015213 0.072182
0.071598 -0.079991 0.125608
0.199052 -0.081685 0.120404
0.030157 -0.153187 0.076283
0.070563 -0.002960 0.066592
0.080638 -0.146440 0.053864
0.012039 -0.142868 0.100041
0.001784 -0.128284 0.035393
0.016547 -0.130736 0.118914
0.085998 -0.029935 0.005408
-0.016519 -0.114069 0.059847
0.046140 -0.027242 0.126732
-0.004983 -0.079517 0.118272
0.052208 0.006595 0.019732
0.046984 -0.114236 0.123403
0.037259 -0.019198 0.117589
0.092508 -0.026602 0.007012
0.001709 -0.132472 0.096586
0.070794 -0.016105 0.119988
0.027011 -0.033139 0.124119
0.021269 -0.112187 0.122253
0.018856 -0.144913 0.115005
0.086523 -0.142174 0.047430
-0.017849 -0.105079 0.091592
0.019866 -0.004095 0.019841
0.013835 -0.021808 0.107788
-0.010892 -0.099763 0.113066
0.012425 -0.140320 0.040896
0.075946 -0.106540 0.003966
0.080497 -0.014624 0.009933
-0.024039 -0.044429 0.030724
0.000993 -0.121753 0.113897
-0.011433 -0.122050 0.069185
-0.020581 -0.104506 0.072916
0.059958 -0.006788 0.011105
0.105949 -0.090709 0.018621
-0.009600 -0.117167 0.039391
-0.001136 -0.047489 0.110041
0.190275 -0.082260 0.121729
0.003491 -0.121020 0.017488
-0.014855 -0.079164 0.101369
0.090244 -0.067498 0.002499
0.054027 -0.131420 0.014115
0.066217 -0.086915 0.125265
0.047830 -0.004734 0.010790
0.046655 -0.120853 0.003844
0.098882 -0.141334 0.065377
0.015748 -0.069639 0.126109
-0.011652 -0.059975 0.104797
0.009210 -0.005250 0.043123
0.006960 -0.136640 0.102942
-0.023879 -0.075454 0.024696
-0.001074 -0.039291 0.104110
0.072062 -0.116158 0.122245
0.048053 -0.135503 0.019278
0.052111 -0.155783 0.056915
-0.007751 -0.042035 0.018436
0.009181 -0.110071 0.007707
0.066028 -0.117083 0.005001
0.014897 -0.013601 0.090213
0.094590 -0.148560 0.089369
-0.011365 -0.107489 0.105843
0.082971 -0.114830 0.013023
0.043631 -0.020075 0.122459
0.014821 -0.130520 0.021177
0.035858 -0.125397 0.004826
-0.006957 -0.049911 0.104254
0.019022 -0.145515 0.046965
0.088724 -0.010261 0.063251
0.007687 -0.072227 0.123650
0.086702 -0.081367 0.003405
0.083619 -0.014496 0.101634
-0.015093 -0.043267 0.021465
0.023815 -0.130227 0.014784
0.198876 -0.078929 0.119152
0.024458 -0.148821 0.109658
0.073740 -0.102295 0.003441
-0.021847 -0.085888 0.023353
0.013248 -0.118343 0.009467
0.057819 -0.008447 0.106814
0.041646 -0.149047 0.113624
-0.015351 -0.100509 0.024034
0.018498 0.004324 0.034187
0.028185 -0.121389 0.005320
0.050537 -0.154399 0.111453
