ply
format ascii 1.0
element vertex 140
property float x
property float y
property float z
end_header
0.034303 -0.152544 0.027629
0.097564 -0.056758 0.010405
-0.022126 -0.043224 0.025118
-0.028490 -0.051612 0.039702
-0.019002 -0.135574 0.099392
-0.035021 -0.077284 0.059465
-0.001103 -0.063253 0.122957
0.178400 -0.103871 0.118153
0.066170 -0.032078 0.007711
-0.034670 -0.083355 0.052211
0.094851 -0.053198 0.126043
-0.011561 -0.117851 0.016002
0.036610 -0.153296 0.029030
-0.034864 -0.093254 0.052628
0.046849 -0.009383 0.065420
-0.022941 -0.047418 0.059153
-0.034656 -0.100292 0.055502
0.060075 -0.168783 0.100640
0.072225 -0.039269 0.124049
0.014534 -0.018453 0.085164
0.006339 -0.164065 0.074923
0.013777 -0.022452 0.016096
0.094326 -0.072972 0.007412
-0.005773 -0.023430 0.059442
0.094189 -0.128472 0.039022
-0.010339 -0.028875 0.046084
0.056641 -0.159111 0.108082
0.002142 -0.047145 0.118046
0.057212 -0.043455 0.126295
0.022140 -0.024954 0.010564
0.048445 -0.017971 0.095280
-0.032285 -0.094546 0.075346
0.023817 -0.169395 0.085162
0.084677 -0.020854 0.047568
-0.033083 -0.110699 0.066302
-0.006707 -0.026133 0.028090
0.008774 -0.049064 0.009376
0.066610 -0.169861 0.087027
0.034033 -0.007301 0.057767
0.004032 -0.145789 0.032559
0.015842 -0.115831 0.123420
0.001001 -0.118188 0.006454
-0.004278 -0.096574 0.126221
0.000119 -0.119682 0.007007
0.081163 -0.163042 0.084244
-0.030658 -0.058960 0.057257
-0.024282 -0.118651 0.108804
-0.028066 -0.074294 0.094741
-0.009017 -0.113405 0.007956
-0.017017 -0.045236 0.083814
-0.010627 -0.147142 0.058282
-0.006031 -0.132118 0.115983
-0.005458 -0.028906 0.074198
0.053962 -0.098704 0.125903
0.180904 -0.100611 0.120720
0.022047 -0.164768 0.065896
0.059457 -0.015098 0.075773
0.074607 -0.154645 0.049268
0.075196 -0.037220 0.115502
0.001453 -0.158440 0.090118
0.002306 -0.149267 0.111541
0.083635 -0.031541 0.008625
-0.022858 -0.125882 0.050002
0.028449 -0.045942 0.127459
-0.005846 -0.120517 0.119928
-0.020853 -0.098395 0.113558
0.045156 0.000746 0.029314
0.031354 -0.132469 0.120702
0.020781 -0.037111 0.119881
0.089307 -0.028755 0.012212
-0.008694 -0.148087 0.086605
0.093761 -0.040032 0.097851
0.053901 -0.034431 0.124195
0.009868 -0.051672 0.124682
-0.007526 -0.134366 0.033684
0.005148 -0.131023 0.118743
0.006721 -0.162407 0.105264
0.081033 -0.149416 0.043903
-0.028714 -0.121063 0.082181
0.082716 -0.137332 0.033868
0.013191 -0.010919 0.025333
-0.001254 -0.039087 0.108919
-0.025341 -0.118085 0.105008
0.009206 -0.148369 0.031271
0.075537 -0.107039 0.003583
0.026441 -0.047529 0.007023
0.075657 -0.017236 0.018069
-0.029795 -0.053653 0.027954
-0.012750 -0.139976 0.104998
-0.018669 -0.134969 0.058894
-0.028982 -0.118128 0.063528
0.054498 -0.010555 0.019465
0.103213 -0.093486 0.021497
-0.013254 -0.125928 0.030467
-0.015768 -0.065131 0.108176
0.172130 -0.101179 0.122037
0.002496 -0.126343 0.010854
-0.028006 -0.096280 0.095167
0.089787 -0.068060 0.002951
0.053129 -0.133878 0.010163
0.048758 -0.105588 0.125706
0.042247 -0.009059 0.018355
0.046264 -0.121477 0.003005
0.091316 -0.150939 0.063446
-0.025716 -0.077138 0.100557
0.088815 -0.034574 0.091450
0.000817 -0.015431 0.047047
-0.004204 -0.152790 0.093139
-0.027700 -0.083656 0.019321
-0.015036 -0.056496 0.102891
0.056821 -0.133695 0.119863
0.046942 -0.138970 0.014059
0.046947 -0.164466 0.048287
0.020891 -0.025142 0.100289
0.007846 -0.113081 0.005309
0.065322 -0.117708 0.004430
0.001518 -0.029373 0.092327
0.084673 -0.160954 0.085920
-0.024220 -0.125063 0.097095
0.080674 -0.117284 0.011671
0.026659 -0.038220 0.124493
0.013854 -0.135766 0.014130
0.035771 -0.126037 0.003760
-0.021139 -0.067067 0.101490
0.015103 -0.153951 0.036903
0.077717 -0.021117 0.073258
-0.009585 -0.091040 0.122263
0.086177 -0.082255 0.004034
0.068332 -0.030457 0.108411
-0.020040 -0.051277 0.019668
0.023196 -0.133056 0.008472
0.180730 -0.097860 0.119459
0.012971 -0.165399 0.099883
0.073331 -0.102857 0.003276
-0.025067 -0.093808 0.017078
0.042017 -0.025212 0.112630
0.029986 -0.165698 0.104911
-0.017838 -0.107937 0.017288
0.010409 -0.004574 0.040215
0.039196 -0.170400 0.102711
