ply
format ascii 1.0
element vertex 161
property float x
property float y
property float z
end_header
0.038194 0.048685 0.021527
-0.058020 0.138449 0.054825
0.021237 0.015888 0.095652
0.002182 0.070836 0.006842
-0.067047 0.128034 0.073120
-0.058736 -0.044645 0.016644
-0.065187 -0.044353 0.035146
-0.058242 0.011593 0.123744
-0.065005 -0.032667 0.068410
-0.120198 0.033721 0.085457
-0.093485 0.130014 0.048405
-0.048808 -0.037560 0.074752
-0.085332 0.044530 0.012292
-0.038120 -0.055128 0.048549
-0.126729 0.059716 0.084817
-0.050211 -0.052887 0.039917
-0.046493 -0.034442 0.081292
-0.084384 0.109049 0.078615
-0.021827 0.082358 0.127497
-0.112735 0.109237 0.047674
-0.122078 0.092897 0.064500
-0.107993 0.028920 0.029519
-0.016503 0.029435 0.123209
-0.034892 0.138197 0.067053
-0.113065 0.015399 0.059427
-0.090806 -0.008867 0.024172
-0.075747 -0.024399 0.017998
-0.123055 0.036597 0.069727
-0.121075 0.098121 0.056511
-0.045504 0.004629 0.001926
-0.001039 -0.046478 0.066372
-0.100977 0.067892 0.026254
-0.018632 0.047169 0.127382
-0.051415 0.072215 0.005871
-0.050757 -0.022518 0.096119
-0.064159 -0.026670 0.006056
-0.032522 -0.015784 0.012243
-0.007216 0.082331 0.125853
-0.012376 0.128017 0.085767
-0.083430 0.028427 0.008843
0.009719 -0.001910 0.027308
-0.073089 0.109634 0.030580
-0.067744 0.138943 0.062436
-0.009146 0.128898 0.101613
-0.107678 0.035842 0.114365
-0.125636 0.052130 0.089437
-0.048377 -0.029881 0.010977
0.016505 -0.040175 0.061521
-0.002160 0.095818 0.120190
-0.067875 -0.035292 0.058791
-0.076025 0.010753 0.121197
-0.092505 -0.006020 0.085028
0.009273 -0.047096 0.056783
-0.046098 0.132732 0.081539
-0.097074 -0.008856 0.056309
-0.018043 -0.003608 0.111102
-0.069868 0.028851 0.125015
-0.090828 0.020927 0.014291
-0.023612 0.135440 0.084768
-0.005706 0.036683 0.121192
-0.084624 0.060585 0.014093
0.018297 0.073657 0.094876
0.018098 0.009856 0.095596
-0.031199 0.130112 0.058664
0.005501 -0.016312 0.090117
-0.023517 0.059173 0.001240
-0.026888 -0.022871 0.097178
-0.130090 0.070034 0.068181
-0.080031 0.030439 0.123514
-0.091521 0.012428 0.110011
0.008157 0.057180 0.002168
-0.033450 0.114398 0.102689
-0.070866 0.099699 0.093868
-0.054213 0.138059 0.056102
-0.062098 0.028653 0.000587
-0.062383 0.065387 0.122075
-0.027487 0.064964 0.002645
-0.039644 0.016484 0.123994
-0.075627 0.106907 0.028945
0.017505 0.035086 0.103189
-0.045877 0.080550 0.008320
-0.120394 0.089985 0.049617
-0.126479 0.047487 0.074494
-0.112474 0.023063 0.044363
-0.069560 0.039889 0.124562
-0.041899 0.038352 0.129068
-0.054882 -0.006956 0.112485
-0.129326 0.059713 0.079170
0.007675 0.028596 0.012785
-0.117962 0.024772 0.062981
-0.074370 0.007697 0.119112
-0.043348 0.003726 0.118161
0.007753 0.061974 0.001014
-0.029913 0.114861 0.039388
-0.025043 0.093486 0.119965
0.046249 0.039277 0.034396
-0.024801 0.005640 0.007110
-0.037287 0.054698 0.000786
-0.056682 -0.052463 0.025440
-0.061111 0.111442 0.030899
-0.059074 0.020281 0.126031
-0.042638 -0.023074 0.096982
-0.064747 0.125147 0.041907
-0.049449 0.034698 0.000477
-0.017640 0.010777 0.119418
-0.008447 -0.029212 0.087867
0.008030 0.088965 0.106672
0.016160 -0.031379 0.070065
-0.043127 0.028856 0.127043
-0.079472 -0.003378 0.101050
-0.086461 0.092559 0.028004
0.020289 0.062379 0.005206
-0.073511 0.131260 0.046989
0.041454 0.017331 0.066034
-0.080039 0.078209 0.105387
0.037191 0.015308 0.035933
-0.051644 0.023967 0.000587
0.046674 -0.000895 0.051954
0.009581 0.096142 0.093143
0.028424 0.007797 0.032776
-0.094574 -0.001347 0.089361
-0.106040 0.034611 0.027537
-0.082072 -0.007037 0.012890
-0.027771 -0.059482 0.044481
-0.117755 0.050259 0.100264
-0.046593 0.109459 0.100292
-0.107583 0.005844 0.073254
-0.050814 0.083925 0.116960
0.038496 0.010548 0.070617
-0.086827 -0.014232 0.073891
-0.067144 0.068953 0.010230
-0.056333 -0.035124 0.010939
0.048084 0.028435 0.044080
-0.034871 0.122910 0.094970
-0.111538 0.019281 0.045310
-0.015456 0.112244 0.111301
-0.003107 0.100121 0.119044
0.037770 0.050820 0.051474
-0.126538 0.063990 0.060075
0.022870 -0.018043 0.075945
0.029462 -0.013609 0.048016
0.044448 -0.011596 0.057467
-0.100508 0.001331 0.081316
0.006165 0.006406 0.102473
-0.073002 0.076091 0.014921
-0.108378 0.028083 0.109236
-0.030782 0.139157 0.079569
-0.102940 0.094168 0.036611
-0.050270 -0.045360 0.019474
-0.029452 0.094763 0.020613
-0.024084 0.132277 0.066412
0.043582 0.038374 0.030889
-0.068034 0.044493 0.005316
-0.016822 -0.059320 0.050550
0.002849 0.098674 0.112110
-0.025703 0.024372 0.123667
0.015421 0.084155 0.089119
-0.066938 0.114184 0.084702
-0.074482 -0.001065 0.003823
0.013225 0.006249 0.024377
-0.026335 0.068621 0.128694
