ply
format ascii 1.0
element vertex 147
property float x
property float y
property float z
end_header
0.043112 0.087938 0.085049
0.028481 -0.055878 0.099833
0.100994 -0.046867 0.016819
-0.008095 0.015376 0.009417
-0.013514 0.024934 0.024089
0.010451 0.035040 0.114079
-0.013134 0.036353 0.054531
0.045574 0.093636 0.067690
0.216278 0.076633 0.115974
-0.016620 -0.038388 0.061417
0.031047 -0.055440 0.100848
-0.019949 0.018006 0.060961
0.134167 -0.026010 0.061472
0.075121 0.039311 0.006239
0.034495 -0.058291 0.030953
-0.001291 0.042874 0.028347
-0.019811 0.016133 0.068257
0.081470 -0.004396 0.123879
0.119858 0.074711 0.040090
0.052028 0.065704 0.014097
0.018151 -0.008937 0.119295
0.027765 0.002419 0.004796
0.093734 -0.060618 0.024181
0.023177 0.048287 0.009494
0.049434 0.092358 0.050577
0.031272 -0.005462 0.005131
-0.017536 -0.032270 0.061679
0.086865 0.062408 0.016305
-0.006524 0.043226 0.073078
0.015124 -0.074621 0.064749
0.042615 -0.007444 0.121551
0.103344 0.004569 0.006623
-0.014201 0.022232 0.079097
0.012317 0.017933 0.005206
0.017360 -0.013120 0.009069
0.082169 -0.016981 0.122694
0.129330 -0.034382 0.091348
0.129970 -0.031271 0.059018
0.009449 -0.012699 0.112249
0.061491 0.038283 0.005767
0.002938 -0.037298 0.095117
0.127505 -0.032059 0.101069
-0.002584 -0.038002 0.037630
-0.009686 -0.052262 0.058243
0.118037 -0.024459 0.110055
-0.020896 0.005153 0.026324
0.036954 0.081485 0.100744
0.059232 0.093453 0.073066
-0.010506 -0.051759 0.059782
-0.009600 0.039856 0.038889
0.010007 0.053980 0.107656
0.007382 0.067708 0.065511
-0.016085 -0.043744 0.053459
0.015740 0.066329 0.037127
-0.001119 -0.008818 0.106696
0.025807 0.060306 0.019993
0.053737 0.045730 0.007630
0.218832 0.079806 0.118560
0.089939 0.042994 0.009985
0.077831 -0.050248 0.106529
0.119354 0.066080 0.035886
-0.004018 -0.038304 0.084587
0.086727 -0.025099 0.005165
-0.013375 -0.002736 0.084597
0.079106 0.098208 0.052482
0.017455 0.070039 0.094607
0.060197 0.015962 0.002605
0.068812 0.091562 0.041450
0.094339 -0.022024 0.004896
0.112323 -0.018912 0.017619
0.124314 -0.027788 0.038511
0.043088 -0.048800 0.110536
0.112236 0.001202 0.011277
0.103889 0.083636 0.037523
0.058675 0.095787 0.057513
0.044375 0.074974 0.025478
0.035520 0.013271 0.123736
0.082548 -0.055094 0.100506
-0.005299 0.030667 0.095049
0.042604 0.086973 0.040799
0.007831 0.051361 0.105600
0.007038 -0.041104 0.096665
0.088549 -0.050552 0.010165
0.100012 -0.037214 0.012229
0.065789 -0.083387 0.047944
-0.021200 -0.007892 0.057464
0.032007 -0.020177 0.008684
0.083976 -0.009297 0.003571
-0.017849 0.014254 0.018095
0.019281 0.033248 0.119284
-0.007882 -0.001128 0.095976
-0.012917 0.014693 0.084875
0.102694 -0.050707 0.026235
0.009628 -0.009021 0.113912
0.102483 -0.059699 0.049569
-0.012324 -0.026244 0.077084
0.022764 0.079700 0.063910
0.210028 0.079193 0.120034
-0.006910 -0.051562 0.067599
0.004033 0.056258 0.085568
0.089872 -0.061345 0.015987
-0.004406 -0.008976 0.100191
0.039768 -0.077773 0.074152
-0.003136 0.051921 0.065876
0.042394 -0.075631 0.043157
0.032713 -0.082462 0.058423
0.099077 -0.044585 0.106375
0.025130 -0.034696 0.018554
0.124284 0.066606 0.039688
0.010901 0.070068 0.070842
0.122937 0.038170 0.026065
-0.025035 -0.010801 0.036944
0.022887 0.078999 0.054034
0.033641 -0.073369 0.079745
0.100100 0.021203 0.008149
0.047528 -0.042478 0.116657
-0.003324 0.001837 0.011269
0.002353 0.010996 0.007148
-0.002962 -0.056781 0.052760
0.053575 -0.085430 0.055121
0.040355 0.074639 0.025729
0.097799 -0.023186 0.120094
0.006042 0.041074 0.108252
0.073446 -0.076592 0.062918
0.102014 -0.059033 0.045193
0.076673 0.094404 0.044488
0.003560 -0.057306 0.077379
0.019836 -0.079367 0.063506
0.014480 -0.040433 0.103305
0.106948 0.027901 0.010980
0.031907 0.082204 0.094152
0.082204 -0.069730 0.029692
0.110297 0.064734 0.028809
-0.010195 0.006299 0.012698
0.123730 -0.011975 0.028703
0.010531 -0.066287 0.073101
0.218630 0.082584 0.117360
0.064206 0.076662 0.121320
0.065106 -0.081159 0.043182
-0.024037 -0.018701 0.044130
0.096932 -0.030368 0.116902
0.087601 0.078775 0.027353
-0.020338 -0.029802 0.054137
0.034386 0.029707 0.004265
0.012484 -0.073801 0.059972
0.033783 -0.054971 0.028437
0.064241 0.001125 0.124154
