ply
format ascii 1.0
element vertex 149
property float x
property float y
property float z
end_header
0.111388 -0.041610 0.009998
0.047945 0.002482 0.122212
0.043481 -0.119655 0.062583
0.101116 -0.053059 0.005076
-0.006820 -0.011284 0.024784
-0.009187 -0.011358 0.042789
0.022288 -0.057804 0.118925
-0.007589 -0.023585 0.071888
0.046456 0.016976 0.117901
0.229153 -0.020769 0.116996
-0.010382 -0.032112 0.068022
-0.004833 -0.085250 0.043750
0.046093 -0.119860 0.063573
-0.011219 -0.041153 0.072672
0.073978 0.025470 0.031478
0.067828 0.018721 0.118527
0.001815 0.001363 0.056041
-0.010313 -0.046562 0.077661
0.094793 -0.098311 0.119915
0.118727 0.028208 0.084557
0.049895 0.034828 0.058048
0.032296 -0.100225 0.107464
0.026672 -0.006477 0.007022
0.097290 -0.068728 0.005732
0.020912 0.020962 0.042698
0.101586 -0.032644 0.005899
0.048639 0.028620 0.103110
0.031259 -0.014162 0.005289
0.085692 0.033618 0.057418
0.030225 -0.113584 0.025167
0.056321 -0.102025 0.113187
0.104281 -0.001802 0.012980
-0.004185 -0.049256 0.090353
0.010857 0.001917 0.016742
0.019911 -0.030464 0.009187
0.095977 -0.108480 0.110059
0.140757 -0.090939 0.068711
0.059387 0.025585 0.027343
0.016570 -0.104456 0.069812
0.139349 -0.093757 0.078117
0.002976 -0.094183 0.032469
0.045585 -0.014370 0.125994
0.059840 0.015061 0.120057
0.002263 -0.094806 0.034015
0.109275 -0.108265 0.101616
-0.005407 -0.008977 0.061766
0.021447 -0.037889 0.122070
0.010991 -0.004658 0.099086
-0.004648 -0.085603 0.034080
0.016931 0.014619 0.075786
0.012058 -0.089555 0.094237
0.025146 0.022783 0.057474
0.231672 -0.017552 0.119579
0.048644 -0.108050 0.101863
0.089032 0.024178 0.038310
0.092340 -0.116703 0.071403
0.035861 -0.086705 0.116432
0.008697 -0.098667 0.060534
-0.011708 -0.024906 0.053234
-0.002088 -0.072550 0.080984
0.077604 0.034722 0.107977
0.025369 -0.018748 0.121008
0.060408 0.013675 0.004545
0.077605 -0.052937 0.124521
0.067269 0.035696 0.095457
0.094915 -0.024658 0.003516
0.113916 -0.029426 0.012722
0.105275 -0.011196 0.010473
0.024978 -0.076753 0.113737
0.128186 -0.047502 0.024596
0.058713 -0.120451 0.074658
0.112645 -0.008465 0.016272
0.102035 0.035814 0.087965
0.057965 0.027671 0.110790
0.047068 -0.083569 0.124172
0.096809 -0.115899 0.063172
0.006603 -0.051431 0.106338
0.067814 0.024751 0.115475
0.030201 0.008280 0.007102
0.041563 0.030202 0.091766
0.018983 -0.039090 0.119297
0.020806 -0.108351 0.068793
0.015488 -0.067397 0.108441
0.100317 -0.043576 0.004756
0.078448 -0.103536 0.007843
0.084131 -0.011726 0.003774
-0.013706 -0.017981 0.033471
0.004943 -0.077125 0.090943
-0.001992 -0.058288 0.090565
0.106473 -0.059973 0.008376
0.064297 -0.002686 0.003933
0.111285 -0.082441 0.019431
-0.000818 -0.085104 0.061783
0.025152 0.008011 0.104039
0.222890 -0.018152 0.120962
0.006164 -0.098957 0.040201
0.011451 -0.024882 0.107491
0.091002 -0.066243 0.002441
0.054833 -0.118588 0.031674
0.002162 -0.019369 0.089867
0.054907 -0.098308 0.008651
0.047688 -0.113254 0.016200
0.113079 -0.109650 0.075459
0.047764 -0.006489 0.124557
0.015093 -0.005416 0.104538
0.115269 -0.066356 0.017479
0.023367 0.019213 0.027907
0.032025 -0.079135 0.117808
-0.016510 -0.049281 0.037148
0.057689 0.001234 0.123633
0.117382 -0.062424 0.018265
0.024113 0.013830 0.095973
0.117324 -0.064528 0.018699
0.049143 -0.119362 0.038475
0.100895 0.009839 0.026167
0.062994 -0.120364 0.083228
0.000055 -0.021912 0.019093
0.003506 -0.010429 0.018360
0.009928 -0.094010 0.025580
0.068025 -0.111709 0.012512
0.038843 0.030990 0.072518
0.113356 -0.106611 0.101090
0.017010 -0.049305 0.116665
0.086371 -0.106805 0.022560
0.110146 -0.079021 0.016865
0.074758 0.036478 0.099662
0.017601 -0.108516 0.044598
0.035192 -0.116014 0.021398
0.028609 -0.111361 0.075150
0.106740 0.012335 0.033609
0.039436 -0.009632 0.123395
0.065395 0.000084 0.123604
0.088285 -0.079185 0.004441
0.109787 0.027642 0.069152
-0.006765 -0.020785 0.023182
0.025232 -0.112404 0.036689
0.231483 -0.014785 0.118351
0.050397 -0.090009 0.120851
0.076417 -0.099039 0.006261
0.076155 0.014500 0.015430
-0.015038 -0.059954 0.038862
0.112308 -0.108031 0.092540
0.085656 0.037573 0.076773
0.068633 -0.089526 0.123063
-0.009513 -0.074457 0.042092
0.031876 0.022368 0.014856
0.027303 -0.110420 0.021712
0.042010 -0.075143 0.008589
0.076969 -0.096573 0.121611
