ply
format ascii 1.0
element vertex 163
property float x
property float y
property float z
end_header
0.044292 0.050426 0.000002
-0.006169 0.122949 0.087659
-0.024467 0.011195 0.125182
-0.067424 0.028820 0.022755
0.074531 0.004560 0.050086
0.005184 0.070489 0.004919
-0.003177 0.107801 0.104571
-0.040593 -0.046511 0.018736
-0.036135 -0.048612 0.037736
0.037849 -0.010586 0.117195
-0.015834 -0.044237 0.066327
-0.039014 0.012329 0.120580
-0.023062 0.042694 0.000367
-0.038912 0.112230 0.101705
0.002085 -0.048698 0.063258
0.022343 0.101678 0.048591
-0.006520 -0.059892 0.033085
-0.041730 0.035767 0.125811
-0.021147 -0.056780 0.032852
0.008077 -0.047124 0.067820
-0.035962 0.061209 0.006730
0.073036 0.061889 0.117594
-0.054183 0.091254 0.107782
-0.051295 0.070613 0.121560
-0.067760 0.017766 0.069427
0.076708 0.043414 0.061500
0.019134 0.122311 0.083051
-0.048888 -0.003001 0.004404
-0.053179 0.000213 0.093922
-0.061397 -0.014899 0.046907
-0.056412 -0.026904 0.031467
-0.051110 0.016075 0.110955
-0.055295 0.077726 0.116422
-0.041590 0.004311 0.001994
0.035148 -0.053024 0.030255
-0.063339 0.057645 0.073182
0.077471 0.028882 0.111289
-0.043035 0.070546 0.024186
0.016895 -0.037777 0.085336
-0.053320 -0.029206 0.013326
-0.021873 -0.015612 0.006063
0.083051 0.062723 0.107713
0.048495 0.111625 0.083258
0.026502 0.097551 0.044553
-0.068778 0.024972 0.034819
0.063440 0.080849 0.061235
-0.035191 0.099693 0.070200
-0.009514 0.120544 0.099514
0.060083 0.109790 0.094771
-0.007958 0.010439 0.128929
-0.038299 0.027460 0.126032
-0.035319 -0.030552 0.010471
0.047276 -0.044460 0.017825
0.079823 0.077603 0.098011
-0.024077 -0.044702 0.059683
0.020590 -0.010609 0.122749
-0.020619 -0.023077 0.100139
0.038580 -0.051129 0.016645
0.018815 0.113457 0.099426
-0.046270 -0.020146 0.077249
0.053123 -0.021021 0.081004
0.031000 0.005482 0.127313
-0.069426 0.015184 0.042428
0.038796 0.117925 0.089845
0.075342 0.017431 0.088556
-0.061628 0.055317 0.050992
0.075418 0.059317 0.062116
0.071650 -0.001547 0.050911
-0.052139 0.090314 0.097518
0.016698 0.116692 0.072624
0.056643 -0.027988 0.049965
-0.022960 0.059220 0.001285
0.059007 0.010297 0.124700
0.035772 -0.037390 0.072278
0.065991 0.015875 0.122946
-0.055320 0.047710 0.121758
-0.001650 -0.008210 0.121305
-0.002386 0.122584 0.086302
-0.061695 0.029022 0.001434
-0.026194 0.065002 0.004023
-0.013740 0.080126 0.018465
0.052960 -0.004217 0.110647
-0.038283 0.097091 0.069640
0.007228 0.092158 0.032839
0.077728 0.021431 0.061722
-0.035051 0.077106 0.026534
-0.060223 0.071522 0.108876
-0.049522 0.026137 0.118199
-0.061725 0.009629 0.082327
0.062776 0.015891 0.127277
0.070851 0.061838 0.054256
0.026328 -0.026145 0.101368
-0.047684 0.036582 0.124395
-0.059880 -0.001130 0.005014
-0.054068 0.007586 0.100463
0.019944 -0.013578 0.120098
0.008759 0.062359 0.000176
0.004528 0.106055 0.053833
-0.005951 0.070355 0.005439
0.056889 0.040152 0.002653
-0.017302 0.006716 0.001155
-0.036856 0.054826 0.001165
-0.034080 -0.054927 0.024111
-0.025636 0.102307 0.064056
0.040843 -0.003067 0.123115
-0.069794 -0.003398 0.012537
0.023089 -0.038386 0.080857
-0.020122 0.112697 0.078311
-0.049122 0.034867 0.000852
0.064257 -0.006896 0.089938
0.037436 0.072494 0.019229
0.043388 -0.041200 0.054234
-0.032716 -0.008036 0.107511
0.052387 -0.037507 0.025801
0.058411 0.006638 0.121984
-0.000785 -0.022009 0.105858
0.021409 0.064219 -0.000080
-0.023710 0.116333 0.089119
0.071965 0.013189 0.020254
0.005516 0.052759 0.124231
-0.051314 0.024289 0.000889
0.067153 -0.000490 0.001901
0.068640 0.080967 0.070621
0.041623 0.009334 0.000863
-0.019934 -0.019007 0.105564
-0.067852 0.023897 0.067895
-0.067813 -0.008640 0.027873
0.000057 -0.063153 0.023886
-0.039691 -0.010147 0.099852
0.004850 -0.047045 0.067059
0.072149 0.005477 0.023542
-0.024209 -0.028801 0.087448
-0.041997 -0.036525 0.013706
0.047285 -0.036110 0.011886
0.064123 0.029683 0.005314
-0.060309 0.005898 0.081739
0.077882 0.081648 0.098263
0.059989 0.048966 0.018109
-0.059050 0.043801 0.112852
0.061756 -0.025074 0.029415
0.050954 -0.014315 0.005112
0.068535 -0.012466 0.004495
-0.029849 -0.015337 0.102466
0.067407 -0.007991 0.062569
-0.012708 0.002682 0.125913
0.029938 0.121674 0.090717
-0.023221 0.031315 0.126477
-0.031919 -0.046630 0.016689
0.029274 0.066207 0.119871
0.068799 0.038609 0.124548
-0.009998 0.091643 0.034788
0.027336 0.117734 0.074897
0.067896 0.021491 0.124616
-0.061029 0.043916 0.022945
0.012528 -0.063795 0.023473
0.076882 0.081152 0.088806
0.070025 0.070527 0.062048
0.068093 0.040239 0.124913
0.028632 -0.056203 0.024875
-0.070184 -0.001726 0.008441
0.062757 -0.017772 0.006060
0.024688 0.007458 0.000744
0.073768 0.049107 0.121324
