ply
format ascii 1.0
element vertex 160
property float x
property float y
property float z
end_header
0.000545 0.015822 0.086251
-0.120056 0.088213 0.090264
-0.117362 0.083741 0.097844
-0.050903 -0.048415 0.110399
-0.018924 0.048666 0.062843
-0.061510 -0.050720 0.003325
-0.075942 -0.058773 0.006496
-0.138727 -0.060485 0.080438
-0.097262 -0.064648 0.024790
-0.163254 -0.008713 0.025232
-0.028853 0.031951 0.027236
-0.141947 0.089840 0.059529
-0.115562 0.058476 0.118894
-0.086603 -0.075442 0.034183
-0.071882 0.064430 0.098641
-0.058357 -0.080486 0.020585
-0.174127 0.015371 0.032206
-0.064774 -0.071592 0.010865
-0.088923 -0.076499 0.041396
-0.149060 0.056147 0.075975
-0.114889 -0.010470 0.127836
-0.151034 0.074732 0.036683
-0.165117 0.053513 0.035114
-0.115973 0.015669 0.005037
-0.066902 -0.016113 0.123741
-0.106655 -0.056429 0.113416
-0.108247 0.077226 0.110766
-0.007217 -0.024891 0.068910
-0.135893 -0.009941 0.008851
-0.093527 -0.015578 0.003603
-0.156238 0.002019 0.015804
-0.160539 0.061732 0.032729
-0.046873 -0.001252 0.006295
-0.038612 -0.085719 0.053878
-0.119342 0.047789 0.015911
-0.111081 -0.042688 0.121464
-0.063665 0.060612 0.030153
-0.102009 -0.073648 0.050705
-0.065514 -0.029337 0.002811
-0.039859 -0.028598 0.014866
-0.100747 -0.009109 0.127554
-0.094503 0.053220 0.121983
-0.066229 0.059811 0.100044
-0.069229 0.024212 0.122167
-0.016029 -0.028196 0.051736
-0.132029 0.085891 0.089276
-0.098271 0.045144 0.127197
-0.057942 -0.069889 0.008305
-0.173474 -0.023990 0.053389
-0.174876 0.006416 0.032474
-0.023246 -0.079470 0.063029
-0.053617 -0.070413 0.011020
-0.147405 -0.055043 0.065296
-0.133127 -0.045668 0.025360
-0.025041 -0.082682 0.052565
-0.123515 0.065743 0.110647
-0.118519 -0.031302 0.008016
-0.089556 -0.070654 0.089916
-0.151984 -0.044650 0.084219
-0.105951 -0.015886 0.004679
-0.105527 0.061949 0.123170
-0.073440 0.057731 0.108584
-0.095029 -0.049223 0.118511
-0.097729 0.047933 0.016338
-0.066340 -0.000895 0.123997
-0.051574 -0.053400 0.105908
-0.054100 -0.071296 0.084802
-0.143001 -0.045189 0.102572
-0.028203 0.048873 0.034014
-0.083488 -0.077687 0.066199
-0.168530 0.032503 0.023625
-0.159396 -0.038774 0.075693
-0.153073 -0.044194 0.051037
-0.009822 0.036795 0.057851
-0.118535 0.036052 0.120724
-0.073668 0.070661 0.084654
-0.117686 0.086611 0.093105
-0.061828 0.027225 0.001462
-0.149431 -0.010484 0.100672
-0.032654 0.054386 0.035648
-0.048085 0.061280 0.055545
-0.121885 -0.061173 0.093881
-0.056744 0.062764 0.081181
-0.063430 -0.038204 0.119644
-0.064113 0.065082 0.039819
-0.153836 0.057421 0.025630
-0.164639 0.009392 0.020824
-0.127707 0.004153 0.006579
-0.153747 -0.034262 0.088476
-0.134936 -0.048783 0.114131
-0.060296 0.005072 0.121601
-0.120980 -0.068923 0.064730
-0.172607 0.018201 0.026908
-0.144233 -0.004037 0.010607
-0.144041 -0.056597 0.063905
-0.117721 -0.065956 0.081162
-0.009313 0.041537 0.058718
-0.082896 0.074469 0.085522
-0.117741 0.004790 0.125028
-0.025749 0.051865 0.054885
0.000391 0.000484 0.096137
-0.027050 -0.022611 0.029106
-0.031520 -0.006301 0.021829
-0.039638 0.047712 0.020367
-0.063146 -0.062773 0.003995
-0.102330 0.079922 0.060217
-0.141449 -0.055267 0.087594
-0.096872 -0.075382 0.057141
-0.114998 0.085444 0.071313
-0.048128 0.031367 0.007613
-0.096956 -0.064687 0.100090
-0.031564 0.034757 0.096133
-0.060870 -0.079865 0.069367
-0.145904 -0.029669 0.023365
-0.030724 -0.075631 0.072404
-0.135312 -0.054553 0.046163
-0.003640 0.037588 0.069638
-0.125977 0.088928 0.072088
-0.018099 -0.032922 0.104661
-0.154817 0.013388 0.082481
-0.002954 -0.020459 0.081562
-0.051216 0.020519 0.002989
-0.001871 -0.043334 0.090283
-0.077782 0.018704 0.125461
-0.006211 -0.024451 0.070970
-0.138778 -0.044105 0.028735
-0.114665 0.020672 0.006418
-0.126666 -0.057294 0.099655
-0.046943 -0.082938 0.019214
-0.175501 -0.001696 0.043484
-0.140059 -0.026754 0.015383
-0.137864 0.007199 0.110096
-0.021837 -0.040704 0.103065
-0.072801 -0.035804 0.121496
-0.001961 -0.013764 0.098756
-0.118243 0.047658 0.118928
-0.126942 0.000341 0.006004
-0.096584 0.009120 0.128006
-0.020012 0.003701 0.106858
-0.159253 0.030639 0.018118
-0.031587 -0.067158 0.085893
-0.004818 -0.054972 0.088480
-0.138471 -0.036625 0.022181
-0.064785 -0.059574 0.101844
-0.089564 0.059761 0.027431
-0.168654 -0.028204 0.046397
-0.110438 0.069261 0.119299
-0.004037 0.025231 0.081777
-0.054300 -0.054830 0.006611
-0.062944 0.067333 0.064702
-0.097712 0.071045 0.113225
-0.127790 -0.045015 0.117194
0.000561 0.001665 0.091803
-0.040417 -0.087047 0.028434
-0.141078 0.045093 0.017658
-0.068617 0.011568 0.123767
-0.126803 -0.028984 0.122325
-0.036089 -0.085468 0.045175
-0.012765 -0.020356 0.055617
-0.119877 -0.024069 0.127211
