ply
format ascii 1.0
element vertex 143
property float x
property float y
property float z
end_header
0.025907 -0.155783 0.019733
0.085555 -0.055700 0.024461
-0.037787 -0.051911 0.016938
-0.047105 -0.062590 0.028020
-0.050060 -0.152192 0.076830
-0.057074 -0.090897 0.041959
-0.048135 -0.082206 0.114531
0.127392 -0.122866 0.118407
0.051165 -0.032547 0.020825
-0.053579 -0.095456 0.034993
0.044980 -0.071442 0.129196
-0.014718 -0.119321 0.005711
0.027673 -0.156741 0.021701
-0.052723 -0.104271 0.033728
0.014775 -0.021473 0.075708
-0.047902 -0.060467 0.047971
-0.052842 -0.111853 0.035524
0.028316 -0.181589 0.093736
0.022735 -0.058358 0.127739
-0.022191 -0.034013 0.084537
-0.015737 -0.175439 0.057739
-0.003101 -0.028165 0.018712
-0.033944 -0.036158 0.055239
-0.033568 -0.039405 0.041166
0.021865 -0.173316 0.100810
-0.043358 -0.066237 0.111029
0.007362 -0.062361 0.127965
0.006565 -0.028983 0.015503
0.007842 -0.034221 0.102804
-0.058592 -0.108913 0.055724
-0.002560 -0.181076 0.070030
0.056782 -0.028576 0.065823
-0.053976 -0.123140 0.044198
-0.025561 -0.034698 0.025372
-0.004612 -0.053540 0.008635
0.038303 -0.180373 0.082573
0.004362 -0.018684 0.065873
-0.004731 -0.150259 0.018483
-0.051688 -0.116856 0.120187
-0.039189 -0.085618 0.123539
0.052364 -0.172900 0.085126
-0.054310 -0.072152 0.043136
-0.059920 -0.137643 0.086113
-0.062454 -0.091675 0.077839
-0.011724 -0.112544 0.002779
-0.050439 -0.060667 0.072625
-0.026951 -0.157279 0.037981
-0.044343 -0.151138 0.097458
0.129892 -0.119584 0.120969
0.024213 -0.029154 0.088155
0.056693 -0.159986 0.050863
-0.025737 -0.172250 0.070934
-0.032425 -0.167008 0.092713
0.067584 -0.031570 0.026247
-0.037496 -0.135049 0.030081
-0.020358 -0.103551 0.125592
-0.021462 -0.064888 0.127638
-0.047379 -0.140396 0.105222
-0.060747 -0.118801 0.095203
0.028114 -0.120647 0.125446
0.021588 -0.006053 0.042632
-0.009582 -0.150757 0.112691
-0.026623 -0.055662 0.117962
0.071817 -0.029660 0.031749
-0.034971 -0.162020 0.065798
0.050820 -0.055378 0.112754
0.063784 -0.035644 0.069102
0.004816 -0.053695 0.126516
-0.038468 -0.070424 0.120155
-0.016601 -0.139875 0.018267
-0.034998 -0.149903 0.104057
-0.024557 -0.178212 0.086173
0.064325 -0.153651 0.048287
-0.054669 -0.135977 0.059065
-0.031626 -0.075541 0.126173
0.049852 -0.071472 0.006435
-0.007421 -0.018454 0.029088
-0.043294 -0.057368 0.101857
-0.059639 -0.136419 0.082352
0.000590 -0.152835 0.018147
0.080574 -0.056487 0.012189
0.037756 -0.169812 0.102323
0.074383 -0.106915 0.005572
0.016754 -0.049745 0.008073
0.055505 -0.019966 0.036477
-0.045350 -0.063570 0.016673
-0.045486 -0.157166 0.083339
-0.035827 -0.145720 0.037725
-0.048827 -0.130048 0.041958
0.033987 -0.014972 0.033832
-0.021620 -0.130889 0.015436
-0.056155 -0.083867 0.095471
0.121123 -0.120155 0.122275
-0.001479 -0.125478 0.005386
0.010649 -0.114863 0.126049
-0.061111 -0.114115 0.075336
0.085521 -0.067132 0.007704
-0.028523 -0.151199 0.034832
0.049530 -0.134520 0.009642
0.071374 -0.074632 0.006745
-0.059940 -0.098261 0.061027
0.001283 -0.125206 0.124573
0.022206 -0.013867 0.030007
0.045214 -0.121624 0.002806
0.067711 -0.158062 0.070020
0.012858 -0.070687 0.006233
-0.062066 -0.095248 0.083659
0.047380 -0.048248 0.106290
-0.024198 -0.026067 0.045763
-0.032476 -0.167288 0.072832
-0.037112 -0.090840 0.006958
-0.040181 -0.100038 0.124275
-0.053802 -0.074735 0.091441
0.015605 -0.150677 0.115413
0.042766 -0.139863 0.011702
0.031273 -0.169932 0.041532
-0.019962 -0.041661 0.099933
0.063888 -0.117954 0.004556
-0.036192 -0.046291 0.086936
0.055068 -0.170964 0.088023
-0.055227 -0.142123 0.074623
0.074492 -0.118157 0.018423
-0.022177 -0.057142 0.124056
0.009949 -0.136387 0.007287
0.034710 -0.126205 0.003357
-0.058777 -0.085310 0.086983
0.004672 -0.158884 0.023712
0.042818 -0.033138 0.088636
-0.055620 -0.111337 0.113469
-0.032491 -0.100799 0.125054
0.082121 -0.082614 0.008571
0.022308 -0.047792 0.116509
-0.033702 -0.059336 0.011373
0.020683 -0.141932 0.118628
0.020409 -0.132840 0.005831
0.129710 -0.116843 0.119691
-0.016819 -0.180096 0.082336
0.072156 -0.102897 0.005210
-0.032322 -0.100288 0.004795
-0.004068 -0.042775 0.116605
-0.001240 -0.180222 0.091191
-0.014033 -0.014352 0.043273
0.008707 -0.183894 0.090534
