ply
format ascii 1.0
element vertex 148
property float x
property float y
property float z
end_header
0.076075 -0.089817 0.006816
-0.061448 -0.102279 0.114238
0.024287 -0.155960 0.019530
0.081460 -0.055080 0.029675
-0.041187 -0.053448 0.014769
-0.051231 -0.064423 0.025013
-0.056669 -0.154488 0.071442
-0.061746 -0.093044 0.037620
-0.060090 -0.084334 0.110797
0.113492 -0.124403 0.118451
0.046710 -0.032418 0.024623
0.031231 -0.073166 0.129462
-0.015327 -0.118775 0.005039
0.025911 -0.156912 0.021615
-0.056148 -0.105762 0.029408
0.006006 -0.023269 0.077058
-0.045052 -0.083677 0.125109
-0.053736 -0.062494 0.044606
-0.056245 -0.113432 0.030958
0.020462 -0.182931 0.093150
0.009130 -0.060122 0.127868
-0.031666 -0.036308 0.082901
-0.020556 -0.176835 0.054693
-0.007301 -0.029150 0.018824
-0.040998 -0.038057 0.053101
-0.039144 -0.041082 0.039185
0.013331 -0.174907 0.099816
-0.054977 -0.068720 0.107892
-0.006286 -0.064034 0.127947
0.002595 -0.029578 0.016475
-0.003199 -0.036257 0.103080
-0.064211 -0.110999 0.050680
-0.008566 -0.182440 0.067498
0.048831 -0.029679 0.069941
-0.057882 -0.124812 0.039145
-0.030145 -0.036240 0.024139
-0.007411 -0.053988 0.008328
0.031217 -0.181370 0.082827
-0.003581 -0.020402 0.066649
-0.006148 -0.150617 0.016588
0.049980 -0.094570 0.127731
0.019067 -0.139901 0.119367
-0.063567 -0.119673 0.116455
-0.052474 -0.087572 0.121884
0.044839 -0.173847 0.086540
-0.059525 -0.074088 0.039284
-0.067625 -0.140404 0.080133
-0.070360 -0.094458 0.072827
-0.011985 -0.112395 0.002545
-0.058501 -0.063061 0.068844
-0.030104 -0.158408 0.034137
-0.052920 -0.153678 0.092547
0.115984 -0.121111 0.121012
0.014479 -0.031229 0.090069
0.052162 -0.160320 0.052960
-0.031661 -0.174065 0.067079
-0.007841 -0.140394 0.012241
-0.040136 -0.169333 0.088361
0.062691 -0.031425 0.031241
-0.040118 -0.136053 0.026124
-0.033563 -0.105734 0.124967
-0.035021 -0.066534 0.127393
-0.056871 -0.143100 0.100486
-0.069656 -0.121817 0.089788
0.015689 -0.122691 0.125402
0.015038 -0.007140 0.045010
-0.019404 -0.152991 0.110427
-0.039233 -0.057802 0.116071
0.066466 -0.029683 0.037114
-0.040565 -0.163873 0.061374
0.038609 -0.057367 0.115455
0.055580 -0.036778 0.073551
-0.008587 -0.055586 0.126335
-0.051147 -0.072659 0.117726
-0.018125 -0.140366 0.015809
-0.044239 -0.152387 0.100026
-0.031541 -0.180169 0.082298
0.059936 -0.153729 0.051130
-0.059873 -0.138075 0.053566
-0.045190 -0.077330 0.125411
0.048433 -0.071047 0.007516
-0.012672 -0.019740 0.029150
-0.053981 -0.059900 0.098548
-0.067022 -0.139076 0.076451
-0.000844 -0.153311 0.016517
0.077632 -0.055411 0.016904
0.028901 -0.171148 0.102619
0.073797 -0.106780 0.006342
0.014175 -0.049793 0.009040
0.049606 -0.020339 0.040938
-0.048679 -0.065148 0.013775
-0.052516 -0.159498 0.078161
-0.038956 -0.146972 0.033489
-0.052511 -0.131537 0.037112
0.028227 -0.015655 0.036903
-0.022970 -0.131337 0.012930
-0.065901 -0.086757 0.091067
0.107219 -0.121693 0.122299
-0.002063 -0.125376 0.005036
-0.002421 -0.116538 0.125902
-0.068328 -0.116891 0.069928
0.083449 -0.065820 0.012059
-0.031435 -0.152282 0.031015
0.048702 -0.134339 0.010570
0.069946 -0.073909 0.008912
-0.066313 -0.100623 0.056162
-0.010951 -0.127460 0.123343
0.016745 -0.014602 0.032279
0.044982 -0.121548 0.003075
0.061336 -0.158534 0.073046
0.011066 -0.070623 0.006230
-0.070395 -0.098105 0.078596
0.035730 -0.049956 0.109154
-0.030483 -0.027776 0.044338
-0.038588 -0.169186 0.068518
-0.039419 -0.091598 0.005472
-0.053155 -0.102179 0.122503
-0.063356 -0.077524 0.087362
0.005256 -0.152758 0.114268
0.042001 -0.139742 0.012330
0.027719 -0.170302 0.041502
0.063498 -0.117799 0.004900
-0.045711 -0.048833 0.084238
0.047287 -0.171936 0.089675
-0.061808 -0.144535 0.069070
0.072833 -0.117986 0.021374
-0.035416 -0.058943 0.122910
0.009471 -0.136294 0.006821
0.034541 -0.126190 0.003443
-0.067636 -0.088187 0.082282
0.002789 -0.159331 0.022066
0.033025 -0.034875 0.091440
-0.066910 -0.114343 0.109279
-0.045573 -0.102880 0.123940
0.080544 -0.081749 0.011118
0.031053 -0.143190 0.117358
0.009627 -0.049812 0.117219
-0.036820 -0.060931 0.009523
0.009730 -0.144039 0.118041
0.020044 -0.132803 0.005772
0.115798 -0.118376 0.119720
-0.023496 -0.181895 0.078997
0.071613 -0.102719 0.006088
-0.033933 -0.100227 0.004100
-0.016539 -0.044860 0.115946
-0.008529 -0.181940 0.088752
-0.020310 -0.015921 0.042916
0.001518 -0.185451 0.088613
