ply
format ascii 1.0
element vertex 157
property float x
property float y
property float z
end_header
0.043280 0.050875 0.001614
-0.032844 0.138772 0.062671
-0.072976 0.030433 0.013189
0.054678 0.016340 0.073337
-0.034972 0.128145 0.082823
-0.048150 -0.043657 0.022405
-0.048432 -0.042752 0.042089
-0.007664 0.015029 0.124647
-0.036747 -0.031634 0.073686
-0.079957 0.034074 0.108901
-0.023405 0.042835 0.000362
-0.068492 0.130327 0.068794
-0.019094 -0.036160 0.075267
0.006320 0.110970 0.039380
-0.018604 -0.053347 0.046635
-0.086090 0.059099 0.111351
-0.032736 -0.051036 0.042210
-0.014832 -0.033325 0.080943
-0.049417 0.108737 0.092503
0.029838 0.086462 0.123323
-0.086740 0.109593 0.074426
-0.089501 0.092598 0.092669
-0.089903 0.028990 0.052823
-0.006914 0.138443 0.065708
-0.050827 -0.002482 0.004313
-0.083008 0.015541 0.082535
-0.075988 -0.008563 0.039768
-0.065864 -0.023556 0.028461
-0.088278 0.036265 0.095511
-0.091425 0.098133 0.085115
-0.043468 0.004884 0.001961
0.022274 -0.045328 0.052787
-0.084662 0.068811 0.048381
0.033973 0.051456 0.122544
-0.048682 0.072876 0.008512
-0.012512 -0.020553 0.097591
-0.058563 -0.027252 0.011384
-0.026000 -0.014367 0.010097
0.043219 0.085795 0.117633
0.020956 0.128809 0.075928
-0.052047 0.070301 0.010456
0.011514 0.106233 0.037825
-0.078298 0.029052 0.021806
-0.055802 0.110531 0.044154
-0.039281 0.139203 0.073314
0.029400 0.129779 0.090089
-0.057810 0.037752 0.127435
-0.083088 0.051588 0.115088
-0.040755 -0.028868 0.013368
0.037375 -0.039002 0.042525
0.044829 0.098462 0.106034
-0.042768 -0.034093 0.065359
-0.025853 0.015068 0.126196
-0.054234 -0.004997 0.099628
0.029046 -0.045897 0.040379
-0.012204 0.133214 0.083117
-0.070116 -0.008150 0.072806
0.023351 -0.002848 0.100708
0.009936 0.136118 0.078366
0.041522 0.038115 0.107498
-0.075448 0.061735 0.030577
0.052683 0.074338 0.074529
0.051589 0.010349 0.074291
-0.081194 0.106484 0.066169
-0.006430 0.130354 0.056558
0.018980 0.032097 0.122582
0.037339 -0.015852 0.073077
-0.023248 0.059274 0.000983
0.009661 -0.021507 0.090702
0.017162 0.041578 0.126922
-0.095644 0.069605 0.097490
-0.044693 0.014827 0.122021
0.007228 0.115636 0.098758
-0.030727 0.100048 0.103463
-0.028835 0.138344 0.062514
-0.061934 0.028883 0.000939
-0.026831 0.065107 0.002623
-0.019112 0.080747 0.009594
0.009799 0.019724 0.121775
-0.058733 0.107812 0.043343
-0.002881 0.096842 0.023273
0.054442 0.035589 0.081985
-0.041402 0.080674 0.011597
-0.093484 0.090283 0.078102
-0.089863 0.047030 0.101460
-0.088058 0.022969 0.068033
0.012135 0.042739 0.129021
-0.009925 -0.004219 0.113589
-0.090764 0.058956 0.107341
-0.061479 -0.001026 0.004496
-0.086250 0.024511 0.087254
-0.025232 0.011600 0.124443
0.002863 0.006778 0.115862
0.008554 0.062433 0.000133
-0.012565 0.115104 0.038231
0.055252 0.041316 0.009415
-0.020094 0.007082 0.003558
-0.037041 0.054791 0.000812
-0.043209 -0.050990 0.030389
-0.044622 0.112167 0.040544
-0.007238 0.024087 0.127143
-0.074074 -0.002368 0.009188
-0.004989 -0.021486 0.095395
-0.043707 0.125820 0.052586
-0.049269 0.034800 0.000586
0.028907 0.012924 0.109516
0.023196 -0.028429 0.075730
-0.068053 0.010096 0.101209
0.040043 -0.030440 0.050501
0.009816 0.032943 0.127018
-0.036788 -0.001833 0.110180
0.021326 0.064424 0.000116
-0.050210 0.131784 0.060621
0.062569 0.018393 0.039476
-0.035515 0.078465 0.115538
0.047953 0.017204 0.012805
-0.051490 0.024236 0.000626
0.062619 0.000649 0.023974
0.043983 0.097022 0.075812
0.038726 0.009570 0.012631
-0.054904 -0.000154 0.104274
-0.089076 0.034770 0.050385
-0.075674 -0.006357 0.022433
0.011881 0.027697 0.124476
-0.009988 -0.057757 0.039807
-0.071997 0.049585 0.121896
-0.005797 0.110368 0.101033
-0.072633 0.006161 0.092819
-0.003464 0.085805 0.117882
0.061408 0.011496 0.044542
-0.053207 -0.013394 0.087492
-0.048072 -0.034511 0.015661
0.060833 0.030552 0.017278
-0.086696 0.019216 0.068512
0.043241 0.102525 0.104914
-0.095304 0.063985 0.088731
0.048498 -0.017294 0.053995
0.045150 -0.012235 0.025721
0.062475 -0.010294 0.029611
-0.063377 0.002203 0.098431
0.043155 0.006819 0.084914
-0.060013 0.029224 0.124771
0.001349 0.139680 0.075929
-0.039230 -0.043896 0.022536
-0.010045 0.090670 0.113506
-0.020039 0.095464 0.020856
0.003021 0.132512 0.061361
0.018920 0.047495 0.127811
0.051383 0.040528 0.007253
-0.066134 0.045398 0.010804
0.002206 -0.057786 0.042500
0.045656 0.100386 0.096012
-0.030498 0.114615 0.093508
0.017238 -0.049544 0.046589
-0.073251 -0.001148 0.005729
0.021611 0.008120 0.009551
0.027150 0.073409 0.126271
