ply
format ascii 1.0
element vertex 143
property float x
property float y
property float z
end_header
0.110994 -0.043897 0.012479
0.041973 -0.130061 0.053622
0.100696 -0.053837 0.005170
-0.008503 -0.018696 0.026337
-0.011487 -0.021011 0.044087
0.015631 -0.078648 0.117931
-0.011687 -0.037231 0.071372
0.039460 -0.004479 0.121768
0.221966 -0.042779 0.117255
-0.014145 -0.045296 0.066656
-0.006068 -0.094340 0.037584
0.044543 -0.130392 0.054660
-0.014906 -0.054792 0.070422
0.070526 0.018769 0.039993
0.060570 -0.002914 0.122955
-0.001177 -0.010289 0.059198
-0.014136 -0.060769 0.074818
0.089234 -0.118259 0.117812
0.112322 0.013144 0.096610
0.045183 0.022982 0.067169
0.028138 -0.118567 0.100984
0.025441 -0.009737 0.008452
0.096629 -0.069821 0.005329
0.017389 0.010912 0.048629
0.100913 -0.033639 0.007294
0.041869 0.009672 0.110699
0.030287 -0.016610 0.005618
0.080924 0.022688 0.068458
0.030501 -0.119141 0.017664
0.051085 -0.121362 0.108432
0.102491 -0.004885 0.020258
-0.008903 -0.065682 0.087508
0.008650 -0.004071 0.020352
0.018650 -0.034826 0.009319
0.091682 -0.126093 0.105070
0.137643 -0.101792 0.068271
0.056158 0.019501 0.034758
0.014180 -0.116826 0.061318
0.135611 -0.105616 0.077165
0.002553 -0.101573 0.025649
0.038375 -0.036240 0.126329
0.052419 -0.007040 0.123460
0.001791 -0.102421 0.027059
0.105219 -0.123645 0.097062
-0.008751 -0.021292 0.063052
0.014418 -0.059400 0.121964
0.005343 -0.022660 0.101240
-0.005384 -0.093534 0.027981
0.012365 -0.000237 0.080638
0.008008 -0.105806 0.087179
0.021205 0.010863 0.063832
0.224479 -0.039551 0.119834
0.044118 -0.125103 0.094013
0.085322 0.016583 0.047646
0.089951 -0.127812 0.064981
0.030009 -0.106842 0.112706
0.006801 -0.109694 0.052614
-0.014657 -0.035986 0.052813
-0.005611 -0.087287 0.075526
0.070475 0.014816 0.118558
0.018719 -0.039541 0.121453
0.059829 0.012336 0.006399
0.070728 -0.074013 0.124595
0.060619 0.018154 0.105565
0.094470 -0.025303 0.004470
0.112737 -0.032184 0.016569
0.104166 -0.013554 0.016167
0.019371 -0.096591 0.109908
0.056547 -0.132443 0.065948
0.110671 -0.011815 0.022967
0.095286 0.019891 0.100306
0.050947 0.007351 0.118835
0.040152 -0.105395 0.123386
0.094665 -0.125710 0.057040
0.000829 -0.070033 0.103590
0.060299 0.003620 0.122287
0.028869 0.005394 0.009959
0.035606 0.013135 0.099455
0.012162 -0.060034 0.119020
0.018597 -0.120500 0.060049
0.009909 -0.086253 0.104548
0.100094 -0.044131 0.005161
0.076599 -0.105298 0.005387
0.083882 -0.012450 0.004380
-0.015592 -0.026427 0.033919
0.000970 -0.093061 0.085267
-0.006393 -0.074470 0.086614
0.105596 -0.061710 0.008681
0.064167 -0.003502 0.004782
0.109894 -0.085755 0.017474
-0.002984 -0.096576 0.055297
0.019486 -0.010761 0.108127
0.215699 -0.040141 0.121197
0.005445 -0.107222 0.032792
0.005608 -0.043462 0.107240
0.090711 -0.066728 0.002285
0.054817 -0.124265 0.025150
-0.002711 -0.036070 0.089972
0.053363 -0.101886 0.006254
0.048131 -0.117323 0.010218
0.110027 -0.121012 0.071370
0.040636 -0.028274 0.125487
0.009253 -0.024060 0.106715
0.114000 -0.069365 0.017071
0.020660 0.012080 0.033437
0.026043 -0.099557 0.114842
-0.018083 -0.058056 0.034132
0.116201 -0.065672 0.018561
0.018678 -0.003921 0.100822
0.116041 -0.067809 0.018648
0.095280 -0.077749 0.123585
0.048969 -0.126040 0.031478
0.060425 -0.133832 0.074635
-0.001251 -0.028295 0.019663
0.001819 -0.016707 0.020525
0.009806 -0.100266 0.019261
0.067831 -0.114613 0.007730
0.033806 0.016749 0.080428
0.109230 -0.121749 0.096948
0.010373 -0.069488 0.114958
0.086073 -0.110122 0.018071
0.108911 -0.081945 0.015466
0.067778 0.018223 0.110237
0.016832 -0.117028 0.036481
0.035671 -0.120902 0.013897
0.026168 -0.124299 0.066442
0.103308 0.006027 0.042976
0.058179 -0.021906 0.124877
0.087683 -0.080167 0.003516
0.104274 0.015037 0.080860
-0.008215 -0.027959 0.023638
0.024843 -0.119560 0.028800
0.224295 -0.036788 0.118598
0.044180 -0.111020 0.119171
0.074708 -0.100732 0.004516
-0.016659 -0.068811 0.034727
0.079779 0.023413 0.088492
0.062003 -0.110635 0.122122
-0.010906 -0.083546 0.036857
0.029145 0.017744 0.021186
0.027789 -0.115553 0.014473
0.041028 -0.079046 0.007379
0.070535 -0.117324 0.120149
