ply
format ascii 1.0
element vertex 156
property float x
property float y
property float z
end_header
0.045138 -0.071609 0.057640
0.000294 -0.144777 0.043131
0.024527 -0.038334 0.079199
-0.058062 -0.053630 0.004161
-0.101411 -0.145667 0.037948
-0.138410 -0.073960 0.057766
0.000674 -0.018665 0.051519
-0.086199 -0.042842 0.126864
-0.072393 -0.098759 0.006958
-0.011337 -0.078082 0.121092
-0.142977 -0.067606 0.082081
-0.073825 -0.106557 0.007905
-0.096242 -0.074481 0.122533
-0.052292 -0.161380 0.101394
-0.106865 -0.032435 0.120375
-0.126314 -0.044628 0.109579
-0.099568 -0.026754 0.048843
-0.061716 -0.165266 0.049473
-0.038760 -0.081976 0.128201
-0.037418 -0.022746 0.014054
-0.092071 -0.060544 0.124387
-0.084393 -0.033231 0.020039
-0.062509 -0.154128 0.101417
-0.133879 -0.058342 0.058077
-0.120800 -0.037483 0.113470
-0.028214 -0.021630 0.018307
-0.093975 -0.104307 0.014295
-0.060272 -0.167507 0.065924
-0.027278 -0.013825 0.086666
-0.078212 -0.116957 0.010524
-0.058565 -0.035888 0.007921
-0.025951 -0.047338 0.008341
-0.038062 -0.159557 0.098859
0.009170 -0.077007 0.017496
-0.065201 -0.036384 0.117388
-0.066015 -0.065602 0.128848
-0.025845 -0.117007 0.126077
-0.075320 -0.118023 0.114623
-0.003728 -0.115378 0.004272
-0.028767 -0.128219 0.121827
-0.140644 -0.109982 0.063336
-0.144946 -0.073492 0.075366
-0.004695 -0.116680 0.004198
-0.029645 -0.150033 0.108191
-0.082036 -0.073383 0.007791
-0.115174 -0.132319 0.036044
-0.115519 -0.088296 0.023191
-0.013447 -0.111393 0.002281
-0.053539 -0.092673 0.127287
-0.104045 -0.052325 0.120663
-0.106061 -0.057809 0.023728
-0.053428 -0.149683 0.024839
-0.112291 -0.143122 0.055995
-0.005051 -0.091385 0.121776
-0.003063 -0.138783 0.087235
-0.078478 -0.162593 0.051568
-0.019299 -0.135823 0.017330
-0.098169 -0.157254 0.062785
0.007877 -0.016097 0.067277
-0.056314 -0.127968 0.010758
-0.128829 -0.090676 0.088725
-0.138519 -0.048542 0.088321
-0.122000 -0.132932 0.058455
-0.125378 -0.114728 0.040601
-0.049317 -0.119802 0.123155
-0.018155 -0.061893 0.119316
-0.038694 0.003344 0.044132
-0.098879 -0.136997 0.090752
0.006311 -0.014454 0.074118
-0.004996 -0.032490 0.095053
-0.081693 -0.153696 0.040382
-0.067250 -0.033443 0.115428
-0.004413 -0.055466 0.109651
-0.024688 -0.020765 0.094084
-0.118590 -0.032666 0.104260
-0.139374 -0.060046 0.068492
-0.111245 -0.140339 0.067066
-0.087450 -0.167306 0.064158
0.002521 -0.131339 0.089888
-0.090829 -0.130428 0.020349
-0.143600 -0.061617 0.080819
0.019839 -0.056051 0.040837
-0.064747 -0.099126 0.005495
-0.048380 -0.015164 0.017103
-0.125433 -0.051499 0.049301
-0.112388 -0.131123 0.033512
0.030703 -0.037795 0.067705
-0.026596 -0.063226 0.122075
-0.052519 -0.148536 0.112090
0.047473 -0.088885 0.053523
-0.008847 -0.055970 0.013599
-0.047507 -0.105215 0.004546
-0.009859 -0.039186 0.021399
-0.008567 -0.006307 0.064645
-0.060369 -0.065742 0.002929
-0.053117 -0.041182 0.118001
-0.101831 -0.149611 0.046374
-0.059563 -0.138699 0.017777
-0.072459 -0.123680 0.012048
-0.040232 -0.115969 0.006122
-0.104745 -0.084787 0.017375
0.021933 -0.049717 0.085984
-0.022595 -0.004224 0.047453
-0.124856 -0.099397 0.088267
0.022544 -0.075805 0.091232
-0.032317 -0.126661 0.007895
-0.126552 -0.080053 0.038277
-0.006176 -0.122725 0.007296
-0.104411 -0.095801 0.107424
-0.110572 -0.111316 0.025544
0.039454 -0.047097 0.068685
-0.065867 -0.054309 0.127052
0.029572 -0.120239 0.042933
-0.099781 -0.094608 0.014967
-0.104100 -0.109682 0.102108
0.034800 -0.091981 0.032553
-0.028842 -0.004356 0.036540
0.035767 -0.112489 0.021356
-0.010458 -0.132911 0.106662
0.026099 -0.087707 0.025551
-0.119656 -0.091390 0.027543
0.010898 -0.113327 0.007391
-0.084873 -0.158090 0.047758
-0.043956 -0.088660 0.002304
-0.142601 -0.088315 0.075279
-0.062981 -0.114057 0.120920
-0.123151 -0.070417 0.036114
-0.080612 -0.133785 0.106001
0.024620 -0.126062 0.039394
-0.014640 -0.154002 0.063141
0.002813 -0.110681 0.005070
0.044406 -0.100779 0.046057
-0.110621 -0.040933 0.042778
-0.036398 -0.134426 0.122275
-0.029658 -0.147823 0.111960
-0.103620 -0.136619 0.032010
0.034040 -0.100210 0.069917
-0.132549 -0.042991 0.081450
0.002283 -0.130907 0.016581
0.029590 -0.120131 0.013778
-0.120841 -0.081656 0.030655
-0.019635 -0.148506 0.033742
-0.052976 -0.017003 0.091424
-0.138558 -0.105401 0.055325
0.041777 -0.063542 0.064739
-0.010355 -0.057640 0.012435
-0.049931 -0.060375 0.003772
-0.016120 -0.041496 0.106680
-0.078905 -0.167897 0.066939
0.045694 -0.085042 0.052019
-0.036781 -0.098041 0.002137
-0.112705 -0.029089 0.086370
-0.072702 -0.165089 0.083258
-0.063471 -0.010941 0.021404
0.022687 -0.118259 0.010552
-0.063672 -0.167027 0.089039
