ply
format ascii 1.0
element vertex 140
property float x
property float y
property float z
end_header
0.038140 -0.142980 0.040353
0.099878 -0.054971 0.006062
-0.013900 -0.030614 0.026707
-0.018336 -0.036129 0.043273
-0.000020 -0.108521 0.112482
-0.021791 -0.057480 0.067341
0.022947 -0.035148 0.123762
0.204282 -0.074818 0.117678
0.069455 -0.030086 0.005102
-0.023084 -0.064773 0.061237
-0.008948 -0.106981 0.027076
0.040606 -0.143551 0.041595
-0.023656 -0.074599 0.063396
0.061585 0.005974 0.052729
-0.009803 -0.028675 0.060995
-0.023264 -0.081161 0.067000
0.076300 -0.145514 0.110841
0.096242 -0.012430 0.113575
0.073847 -0.019492 0.123797
0.033141 0.003008 0.077943
0.018485 -0.143149 0.089887
0.021570 -0.014864 0.011477
0.095743 -0.071215 0.005588
0.008271 -0.005613 0.055451
0.100116 -0.120140 0.039402
0.001139 -0.013599 0.043272
0.074771 -0.134294 0.116516
0.025702 -0.019350 0.116917
0.082096 -0.015126 0.120520
0.027918 -0.019917 0.006574
0.068312 0.003378 0.083523
-0.016708 -0.071793 0.084887
0.030508 -0.124926 0.008924
0.038668 -0.147460 0.099458
0.096269 -0.011490 0.033021
-0.019858 -0.089201 0.079312
0.002649 -0.014282 0.024919
0.014697 -0.041669 0.009178
0.080719 -0.149716 0.096905
0.129472 -0.117570 0.070325
0.047741 0.007461 0.046133
0.008963 -0.132864 0.047344
0.126094 -0.122770 0.077980
0.001469 -0.111089 0.015159
0.020956 -0.067690 0.126460
0.000619 -0.112257 0.016273
0.094853 -0.144641 0.090691
-0.017711 -0.040207 0.061941
-0.002322 -0.090227 0.118993
-0.008690 -0.049087 0.100462
-0.007313 -0.104479 0.017992
0.000565 -0.022699 0.084436
-0.000834 -0.127895 0.074350
0.016998 -0.102891 0.121948
0.010731 -0.008523 0.070790
0.079185 -0.070213 0.125327
0.206788 -0.071575 0.120252
0.033719 -0.146912 0.081333
0.075510 0.002213 0.061926
0.082832 -0.142553 0.056642
0.016962 -0.134526 0.104241
0.002831 -0.124133 0.039712
0.023349 -0.121049 0.121062
0.086464 -0.029673 0.004981
-0.013577 -0.107832 0.064411
0.053728 -0.017237 0.125922
0.002132 -0.069830 0.119744
0.055146 0.008489 0.015568
0.053981 -0.104631 0.124007
0.044418 -0.009933 0.115450
0.093165 -0.026255 0.006154
0.006580 -0.124145 0.100885
0.078379 -0.006976 0.116215
0.034358 -0.023406 0.123523
-0.001942 -0.120484 0.047376
0.024737 -0.135628 0.118519
0.088500 -0.138853 0.049688
-0.012637 -0.096688 0.095599
0.022815 -0.001345 0.017450
0.020581 -0.013047 0.106500
-0.004218 -0.090211 0.115657
0.013749 -0.135950 0.045822
0.099238 -0.045153 0.007423
0.076049 -0.106396 0.004244
0.082049 -0.014112 0.007490
-0.021373 -0.039817 0.032115
0.007586 -0.112023 0.117060
-0.008082 -0.115200 0.073984
-0.016674 -0.097361 0.077175
0.103949 -0.064215 0.011409
0.061855 -0.005800 0.008171
0.106885 -0.090005 0.017919
-0.008036 -0.112441 0.043868
0.005291 -0.038551 0.110308
0.198010 -0.072151 0.121585
0.003796 -0.117896 0.021277
-0.008769 -0.070443 0.103653
0.090365 -0.067353 0.002405
0.054076 -0.130262 0.016480
0.049711 -0.003406 0.008313
0.046787 -0.120550 0.004465
0.101826 -0.136933 0.066792
0.023315 -0.059679 0.126088
-0.005296 -0.051206 0.106100
0.013007 -0.000568 0.041053
0.012182 -0.128002 0.107035
-0.022221 -0.071109 0.027509
0.005092 -0.030601 0.104063
0.078864 -0.107049 0.123004
0.047999 -0.133816 0.021956
0.054110 -0.151154 0.061544
-0.005559 -0.038498 0.019101
0.009128 -0.107968 0.010182
0.066391 -0.116795 0.005288
0.020908 -0.005933 0.088451
0.098676 -0.142535 0.091382
-0.005259 -0.098321 0.109091
0.083728 -0.113949 0.013982
0.106214 -0.085855 0.016508
0.050972 -0.010533 0.120638
0.015021 -0.127616 0.024712
0.035642 -0.125026 0.005518
-0.000655 -0.041243 0.104831
0.020625 -0.140870 0.052149
0.093625 -0.005999 0.058091
0.015153 -0.062355 0.123893
0.086932 -0.081152 0.003308
0.090358 -0.007014 0.097383
-0.012814 -0.039376 0.022438
0.023631 -0.128022 0.017851
0.206612 -0.068818 0.119003
0.029892 -0.139995 0.113467
0.073894 -0.102049 0.003604
-0.020463 -0.081661 0.026618
0.064814 -0.000469 0.103089
0.047145 -0.140087 0.117066
-0.014337 -0.096392 0.027518
0.022134 0.008132 0.031153
0.028137 -0.120649 0.006225
0.055755 -0.145876 0.115148
