ply
format ascii 1.0
element vertex 161
property float x
property float y
property float z
end_header
0.008065 0.028216 0.076395
-0.109846 0.104069 0.080032
-0.042529 -0.030047 0.112730
-0.013204 0.057894 0.050314
-0.061587 -0.050075 0.003821
-0.075746 -0.057149 0.009554
-0.131566 -0.044378 0.091549
-0.095434 -0.058755 0.033686
-0.160369 -0.000471 0.032580
-0.026670 0.036023 0.018713
-0.134144 0.101642 0.051446
-0.104426 0.079583 0.113363
-0.083947 -0.067981 0.043907
-0.061736 0.080038 0.088211
-0.057215 -0.075770 0.027809
-0.169923 0.024882 0.037021
-0.064089 -0.069038 0.016464
-0.085578 -0.067661 0.051382
-0.140488 0.070562 0.072712
-0.104391 0.012137 0.128450
-0.145503 0.083582 0.031661
-0.159986 0.062763 0.034165
-0.115107 0.017728 0.004894
-0.056545 0.004911 0.122743
-0.096104 -0.035426 0.120385
-0.096883 0.096353 0.101576
-0.001762 -0.014213 0.065114
-0.135161 -0.006014 0.013536
-0.093663 -0.014851 0.004018
-0.154137 0.008637 0.021013
-0.155492 0.070434 0.030299
-0.047157 0.000984 0.004167
-0.035078 -0.075661 0.060860
-0.116323 0.052495 0.012014
-0.100678 -0.020993 0.125111
-0.060338 0.065639 0.020540
-0.098044 -0.062822 0.061355
-0.065410 -0.028854 0.002962
-0.038909 -0.025404 0.014359
-0.090141 0.013691 0.127736
-0.083651 0.074874 0.117935
-0.056177 0.075425 0.089813
-0.058097 0.045069 0.117812
-0.011991 -0.019747 0.049364
-0.121917 0.102005 0.080342
-0.087667 0.067919 0.125943
-0.057384 -0.067912 0.013268
-0.168043 -0.011000 0.063156
-0.170845 0.016089 0.038578
-0.051466 -0.035995 0.006900
-0.018913 -0.068605 0.067955
-0.091928 -0.056614 0.024030
-0.141490 -0.040958 0.076741
-0.131091 -0.038471 0.035203
-0.021554 -0.073185 0.058194
-0.112473 0.085515 0.104076
-0.118206 -0.028243 0.013891
-0.082186 -0.053829 0.098401
-0.144128 -0.027642 0.094209
-0.105952 -0.014424 0.005997
-0.094557 0.083810 0.117914
-0.062701 0.075084 0.099263
-0.085223 -0.027794 0.122468
-0.094938 0.051762 0.011522
-0.055746 0.020549 0.122520
-0.043686 -0.035617 0.109085
-0.047766 -0.056484 0.090841
-0.133486 -0.025899 0.111095
-0.025465 0.053838 0.022837
-0.078389 -0.064790 0.075758
-0.164768 0.040492 0.025765
-0.152083 -0.022865 0.085923
-0.148250 -0.032260 0.061864
-0.004629 0.045303 0.046233
-0.108000 0.057490 0.118077
-0.064636 0.083929 0.073584
-0.107294 0.102876 0.082914
-0.062320 0.028064 0.000853
-0.139566 0.008519 0.105559
-0.029869 0.059488 0.024118
-0.042487 0.069703 0.043820
-0.113510 -0.043378 0.103314
-0.048616 0.075328 0.069632
-0.054068 -0.017685 0.120955
-0.059703 0.071572 0.029336
-0.149517 0.065034 0.023281
-0.161704 0.017004 0.025799
-0.126872 0.006890 0.007571
-0.145213 -0.016794 0.097228
-0.124398 -0.027879 0.121893
-0.049694 0.025625 0.118602
-0.115196 -0.055640 0.076129
-0.168804 0.026918 0.031276
-0.143237 0.000778 0.015380
-0.138306 -0.042802 0.075256
-0.110541 -0.050044 0.091366
-0.004029 0.050116 0.046378
-0.073578 0.088293 0.074662
-0.106994 0.027221 0.124996
-0.020886 0.059988 0.042684
0.008516 0.014333 0.088071
-0.025286 -0.017607 0.027147
-0.030137 -0.002489 0.018178
-0.037966 0.050824 0.010886
-0.062991 -0.061974 0.005815
-0.094909 0.090509 0.050308
-0.133570 -0.038006 0.097924
-0.092292 -0.063670 0.067455
-0.106383 0.098153 0.061425
-0.049285 0.033072 0.002379
-0.088722 -0.046175 0.107990
-0.022634 0.049132 0.086180
-0.055800 -0.067124 0.077403
-0.143677 -0.022481 0.032100
-0.025503 -0.063296 0.077232
-0.123083 -0.034681 0.111961
-0.131036 -0.043962 0.056891
0.002589 0.047600 0.057220
-0.117206 0.102076 0.062506
-0.009778 -0.017043 0.102448
-0.146476 0.029604 0.085113
0.003621 -0.008213 0.076726
-0.051811 0.022493 0.001455
0.005089 -0.029673 0.088456
-0.066693 0.040800 0.123265
-0.000583 -0.013529 0.067015
-0.136279 -0.036170 0.038863
-0.113454 0.023367 0.005685
-0.045776 -0.078525 0.026669
-0.170567 0.009533 0.050556
-0.138773 -0.021189 0.023137
-0.127431 0.027145 0.111460
-0.013747 -0.024852 0.102174
-0.063072 -0.014192 0.122393
-0.129901 0.022939 0.009964
0.006178 0.000649 0.092772
-0.107304 0.069001 0.115031
-0.126240 0.002922 0.007432
-0.085991 0.032126 0.127829
-0.130786 -0.046242 0.081510
-0.010699 0.019518 0.099926
-0.156114 0.037538 0.019811
-0.025232 -0.053003 0.089430
0.001826 -0.041390 0.088384
-0.136602 -0.029811 0.031220
-0.057069 -0.041678 0.106821
-0.164058 -0.016396 0.056493
-0.099240 0.090408 0.112898
0.003179 0.037006 0.071041
-0.054559 -0.053527 0.007526
-0.056243 0.077584 0.053270
-0.086319 0.090416 0.104249
-0.117103 -0.024247 0.123676
0.008353 0.014929 0.083619
-0.038806 -0.081075 0.036203
-0.079208 0.034543 0.126555
-0.137797 0.051234 0.016020
-0.057469 0.032798 0.120921
-0.115845 -0.007235 0.124879
-0.008386 -0.011467 0.051768
-0.109316 -0.001655 0.128273
