ply
format ascii 1.0
element vertex 155
property float x
property float y
property float z
end_header
0.039279 -0.068445 0.063732
0.009317 -0.086960 0.096247
-0.004906 -0.141707 0.048102
0.017361 -0.034360 0.082320
-0.058785 -0.053282 0.003732
-0.105926 -0.142224 0.037615
-0.143535 -0.069704 0.051998
-0.004391 -0.015743 0.052325
-0.097117 -0.034694 0.126315
-0.073720 -0.097412 0.006638
-0.021734 -0.071311 0.122592
-0.149823 -0.062331 0.075638
-0.075054 -0.105204 0.007594
-0.106569 -0.066747 0.120416
-0.060955 -0.155076 0.104268
-0.117378 -0.024991 0.116048
-0.135586 -0.037900 0.103285
-0.104064 -0.023414 0.043691
-0.067157 -0.161508 0.052375
-0.049824 -0.074060 0.128294
-0.039778 -0.021570 0.012755
-0.086392 -0.031737 0.015934
-0.071134 -0.147849 0.103374
-0.138958 -0.054219 0.051954
-0.130517 -0.030486 0.107292
-0.030996 -0.020201 0.017506
-0.096111 -0.102178 0.012832
-0.066897 -0.162859 0.068775
-0.034614 -0.009023 0.085365
-0.080176 -0.115124 0.010314
-0.060380 -0.035331 0.006474
-0.027921 -0.046365 0.008621
-0.046694 -0.153426 0.102368
-0.015560 -0.071509 0.118668
-0.014942 -0.115466 0.110162
0.006632 -0.075088 0.020735
-0.077096 -0.057640 0.128490
-0.036581 -0.108923 0.126583
-0.004353 -0.115100 0.004981
-0.038922 -0.120426 0.123376
-0.146351 -0.105290 0.058824
-0.151276 -0.068518 0.069063
-0.005289 -0.116389 0.004930
-0.038695 -0.143365 0.111473
-0.083013 -0.072725 0.006957
-0.119212 -0.128844 0.034287
-0.118103 -0.085596 0.019425
-0.013688 -0.111290 0.002528
-0.064485 -0.084818 0.127189
-0.114528 -0.044909 0.117354
-0.108561 -0.055898 0.019424
-0.056909 -0.147381 0.027279
-0.117808 -0.138773 0.054768
-0.016254 -0.083907 0.121787
-0.011008 -0.133252 0.092087
-0.007465 -0.140610 0.041906
-0.084015 -0.158638 0.053290
-0.022167 -0.134437 0.020526
-0.104291 -0.152617 0.063058
0.001725 -0.012480 0.068414
-0.058655 -0.126515 0.011754
-0.136205 -0.085050 0.084223
-0.145801 -0.043027 0.081370
-0.127602 -0.128528 0.056155
-0.129521 -0.111135 0.037419
-0.059412 -0.112246 0.123894
-0.028159 -0.054977 0.119884
-0.042997 0.005960 0.041267
-0.106747 -0.131154 0.090033
-0.000312 -0.010571 0.075060
-0.013079 -0.027515 0.095855
-0.086517 -0.150318 0.041572
-0.076935 -0.026211 0.112986
-0.013667 -0.049830 0.111217
-0.032623 -0.015687 0.093253
-0.127392 -0.026197 0.098071
-0.145177 -0.055380 0.062053
-0.117499 -0.135532 0.065755
-0.093870 -0.162700 0.065486
-0.005790 -0.125735 0.094787
-0.093840 -0.128044 0.020028
-0.150312 -0.056395 0.074067
0.015305 -0.053457 0.044330
-0.065697 -0.098328 0.005364
-0.050757 -0.014199 0.014648
-0.129826 -0.048044 0.043288
-0.116260 -0.127802 0.031883
0.024337 -0.034244 0.071324
-0.036869 -0.056030 0.122308
-0.061735 -0.141869 0.114425
0.041814 -0.085821 0.060212
-0.010994 -0.054344 0.014979
-0.048026 -0.105034 0.004529
-0.012755 -0.037289 0.022658
-0.014389 -0.002755 0.064268
-0.060843 -0.065404 0.002744
-0.062869 -0.033995 0.116632
-0.106829 -0.145749 0.046191
-0.062397 -0.136740 0.019307
-0.074620 -0.121852 0.012404
-0.041124 -0.115755 0.006633
-0.106619 -0.082441 0.014222
0.014212 -0.045475 0.089213
-0.027189 -0.001370 0.046120
-0.132223 -0.093792 0.084362
0.014106 -0.071350 0.095361
-0.034333 -0.126272 0.009735
-0.130170 -0.076842 0.033366
-0.007229 -0.122120 0.009328
-0.113722 -0.108627 0.023235
0.032901 -0.043568 0.073270
-0.076869 -0.046178 0.126592
0.024772 -0.117574 0.048824
-0.101662 -0.092465 0.012644
-0.112575 -0.103358 0.099781
0.030906 -0.089607 0.038240
-0.032697 -0.002029 0.034860
0.032754 -0.110493 0.027186
-0.019942 -0.126367 0.110508
0.022876 -0.085483 0.030419
-0.122594 -0.088506 0.023576
-0.090133 -0.154254 0.048894
-0.044206 -0.088553 0.002338
-0.149051 -0.083212 0.069788
-0.072948 -0.106671 0.120911
-0.126586 -0.067346 0.031001
-0.089400 -0.127320 0.106207
0.020127 -0.123443 0.044870
-0.021100 -0.149982 0.067712
0.001934 -0.110418 0.006113
0.039292 -0.097875 0.052793
-0.114599 -0.037835 0.037378
-0.046500 -0.126624 0.124001
-0.038796 -0.141092 0.115302
-0.107522 -0.133466 0.031204
0.027025 -0.096549 0.075833
-0.139287 -0.037807 0.074733
-0.000049 -0.129403 0.020296
0.027381 -0.118315 0.019349
-0.123928 -0.078691 0.026194
-0.023961 -0.145692 0.037903
-0.060651 -0.011695 0.088336
-0.143712 -0.101090 0.050778
0.035350 -0.060105 0.070192
-0.012429 -0.056035 0.013761
-0.050593 -0.060073 0.003785
-0.024914 -0.035807 0.106987
-0.085509 -0.163100 0.068849
0.040201 -0.082016 0.058448
-0.036933 -0.097960 0.002164
-0.119894 -0.023642 0.080503
-0.080415 -0.159520 0.085348
-0.066128 -0.009808 0.017595
0.020825 -0.116705 0.015323
-0.071668 -0.161236 0.091663
