ply
format ascii 1.0
element vertex 144
property float x
property float y
property float z
end_header
0.111480 -0.038121 0.008935
0.052916 0.034266 0.116847
0.043158 -0.100932 0.076975
0.101495 -0.051728 0.006128
-0.005938 -0.000633 0.021796
-0.008274 0.002818 0.039546
0.026380 -0.026566 0.119207
-0.005037 -0.002311 0.070793
0.051576 0.047917 0.104397
0.233288 0.011767 0.116644
-0.008332 -0.011596 0.068055
-0.005328 -0.069881 0.052933
0.045791 -0.100946 0.077930
-0.009406 -0.019706 0.073878
0.076210 0.033122 0.019540
0.003449 0.018046 0.049913
-0.008384 -0.024127 0.079754
0.098017 -0.067325 0.122423
0.123430 0.047567 0.067409
0.053552 0.049759 0.043572
0.034491 -0.070648 0.115759
0.027807 -0.002421 0.006182
0.097912 -0.067014 0.008152
0.023555 0.034224 0.032790
0.053639 0.054619 0.088259
0.032090 -0.010771 0.005044
0.089032 0.046982 0.041834
0.027931 -0.102805 0.039084
0.059425 -0.071235 0.118737
0.104346 0.001200 0.006955
-0.001578 -0.023870 0.092181
0.012434 0.009410 0.012029
0.020365 -0.024031 0.009668
0.098418 -0.079621 0.117337
0.141787 -0.073856 0.072542
0.101678 0.004751 0.008424
0.137656 -0.053735 0.040005
0.061694 0.032657 0.016928
0.016960 -0.083345 0.081788
0.140973 -0.075197 0.082422
0.006632 -0.059766 0.029686
0.001689 -0.081144 0.043467
0.050138 0.018595 0.124725
0.065301 0.046079 0.108067
0.001025 -0.081398 0.045137
0.111009 -0.082536 0.109799
-0.003491 0.009410 0.058258
0.025708 -0.006106 0.121334
0.014840 0.022247 0.093170
-0.005550 -0.072064 0.043479
0.020057 0.035425 0.066382
0.013974 -0.063183 0.102925
0.028037 0.039090 0.046832
0.235818 0.014968 0.119229
0.051689 -0.079783 0.112231
0.091492 0.033233 0.025852
0.093040 -0.097495 0.082990
0.008800 -0.079664 0.072063
-0.000596 -0.048784 0.087052
0.083220 0.060888 0.090649
0.029057 0.012334 0.118695
0.060501 0.014878 0.003322
0.081755 -0.021555 0.124081
0.072446 0.058996 0.078719
0.094935 -0.023816 0.003115
0.114122 -0.025497 0.010134
0.105389 -0.008484 0.006763
0.028727 -0.046286 0.117351
0.128961 -0.041411 0.024133
0.058801 -0.099439 0.088423
0.113431 -0.004394 0.010400
0.107078 0.056083 0.069802
0.063381 0.055310 0.095214
0.051383 -0.050918 0.124475
0.097222 -0.098724 0.074738
0.009919 -0.022795 0.107956
0.073507 0.053313 0.100104
0.030823 0.011563 0.005852
0.046086 0.053609 0.077572
0.021060 -0.087476 0.081379
0.018852 -0.038313 0.111966
0.100403 -0.042558 0.004984
0.076479 -0.099420 0.018196
0.034279 -0.030216 0.008021
-0.013149 -0.005308 0.031566
0.036046 -0.028451 0.122532
0.006627 -0.051636 0.097425
0.000278 -0.032864 0.094121
0.107153 -0.057336 0.010683
0.064368 -0.001835 0.003419
0.111280 -0.076726 0.026317
-0.000347 -0.065824 0.070715
0.029128 0.035292 0.095412
0.227028 0.014360 0.120643
0.005177 -0.084292 0.051962
0.015026 0.003361 0.105508
0.091212 -0.065542 0.003529
0.052696 -0.107633 0.045216
0.005281 0.006243 0.087334
0.052729 -0.092521 0.018245
0.045044 -0.105307 0.029327
0.114297 -0.090689 0.084227
0.052452 0.025977 0.121377
0.018916 0.022439 0.098682
0.025428 0.028038 0.020372
0.036204 -0.047966 0.120024
-0.016565 -0.035375 0.040732
0.062818 0.033128 0.117815
0.028158 0.039191 0.086293
0.117480 -0.059284 0.021950
0.047205 -0.106690 0.052351
0.102032 0.015467 0.016402
0.063645 -0.097215 0.096533
0.000309 -0.012608 0.018245
0.004514 -0.001755 0.015392
0.008230 -0.082653 0.036368
0.065153 -0.105734 0.024754
0.042833 0.050091 0.058832
0.115211 -0.081398 0.108890
0.021008 -0.018648 0.117499
0.084437 -0.099657 0.033690
0.110108 -0.074070 0.022964
0.080279 0.060648 0.082188
0.016538 -0.093118 0.057811
0.032673 -0.106223 0.035738
0.029135 -0.089372 0.087761
0.108528 0.019855 0.022423
0.044218 0.023134 0.121385
0.088737 -0.076526 0.007994
0.113414 0.043505 0.053116
-0.006426 -0.010222 0.022070
0.127007 -0.023103 0.021400
0.023646 -0.099067 0.050324
0.235622 0.017740 0.118013
0.074941 -0.095328 0.015254
0.076880 0.017742 0.008421
-0.015051 -0.045556 0.044277
0.113906 -0.085079 0.101067
0.090096 0.055583 0.059480
-0.009789 -0.059398 0.049578
0.033732 0.026557 0.007347
0.024966 -0.100278 0.035170
0.041724 -0.068052 0.013801
0.080777 -0.064187 0.123499
