ply
format ascii 1.0
element vertex 133
property float x
property float y
property float z
end_header
0.029563 -0.154781 0.022397
0.092426 -0.056224 0.017170
-0.030314 -0.048068 0.021962
-0.038230 -0.057807 0.034832
-0.035064 -0.146002 0.088411
-0.046750 -0.085178 0.051767
-0.023508 -0.075549 0.119937
0.154680 -0.116849 0.118339
0.059421 -0.032306 0.014209
-0.044895 -0.090363 0.044352
0.071531 -0.065169 0.128302
-0.013909 -0.119835 0.009543
0.031624 -0.155655 0.024062
-0.044688 -0.099946 0.043697
0.031504 -0.016431 0.072061
-0.035671 -0.055070 0.055007
-0.044630 -0.107230 0.046118
0.044558 -0.177191 0.096280
0.049307 -0.051916 0.126771
-0.003282 -0.027900 0.086885
-0.005122 -0.171337 0.065438
0.005384 -0.025645 0.018438
-0.019661 -0.030919 0.059117
-0.022054 -0.035010 0.045067
0.039660 -0.168317 0.103884
-0.019448 -0.059459 0.116282
0.033952 -0.056127 0.127615
0.014436 -0.027177 0.013839
0.029054 -0.028006 0.100857
-0.046028 -0.103283 0.066506
0.010475 -0.177092 0.076819
0.071519 -0.025285 0.057605
-0.044397 -0.118367 0.055722
-0.016203 -0.030982 0.027888
0.001986 -0.051741 0.009532
0.052822 -0.176841 0.083653
0.019743 -0.013962 0.063467
-0.001163 -0.148780 0.024604
-0.026945 -0.109565 0.125185
0.067363 -0.169535 0.083564
-0.042933 -0.066592 0.051531
-0.042668 -0.130404 0.098424
-0.045304 -0.084831 0.087899
-0.011415 -0.113045 0.004037
-0.033559 -0.054572 0.080053
-0.019689 -0.153480 0.047656
-0.025464 -0.144177 0.107574
-0.021123 -0.037565 0.073259
0.157182 -0.113586 0.120911
0.042736 -0.023314 0.083479
0.065765 -0.158269 0.048666
0.052913 -0.049019 0.120299
-0.012544 -0.167279 0.080089
-0.015379 -0.160510 0.102222
0.076433 -0.031376 0.017545
-0.031100 -0.131530 0.039886
0.005127 -0.058651 0.127933
-0.026527 -0.133035 0.114124
-0.040945 -0.110878 0.105893
0.033833 -0.003040 0.037331
0.011282 -0.144158 0.117087
-0.001495 -0.049184 0.120346
0.081371 -0.029037 0.022276
-0.022359 -0.156936 0.076035
0.073742 -0.049292 0.106381
0.031121 -0.047122 0.126134
-0.012777 -0.064152 0.124025
-0.013012 -0.138166 0.025229
-0.014939 -0.143018 0.112184
-0.009191 -0.172518 0.095336
0.072850 -0.152395 0.044571
-0.042449 -0.130376 0.071043
-0.004947 -0.069343 0.126779
0.003000 -0.015137 0.028549
-0.021406 -0.050621 0.107556
-0.043051 -0.129438 0.094596
0.004113 -0.151372 0.023748
0.084988 -0.057218 0.007159
0.074913 -0.107128 0.004262
0.021611 -0.048906 0.007491
0.066236 -0.018617 0.027949
-0.038038 -0.059107 0.023142
-0.029610 -0.150800 0.094429
-0.028217 -0.141623 0.048187
-0.039743 -0.125445 0.052987
0.044734 -0.012994 0.027619
0.097418 -0.093614 0.028089
-0.018408 -0.129168 0.022395
-0.035443 -0.076674 0.103752
0.148413 -0.114160 0.122226
-0.000288 -0.125758 0.006931
-0.044943 -0.107098 0.086531
0.088301 -0.067997 0.004588
0.051018 -0.134558 0.009165
-0.045983 -0.092344 0.071179
0.026190 -0.118369 0.125763
0.032633 -0.011746 0.025243
0.045651 -0.121658 0.002710
0.080114 -0.155692 0.065414
0.056689 -0.053531 0.123939
-0.043906 -0.088178 0.093716
0.069422 -0.043059 0.099911
-0.011599 -0.021702 0.048188
-0.018789 -0.162053 0.082758
-0.033123 -0.087755 0.013123
-0.033881 -0.067740 0.099136
0.036856 -0.144644 0.117763
0.044481 -0.139756 0.012114
0.038855 -0.168246 0.043615
0.001398 -0.035519 0.102084
0.064435 -0.117918 0.004259
-0.016808 -0.039710 0.091757
0.070523 -0.167526 0.085893
-0.040313 -0.135665 0.086484
0.077560 -0.118015 0.014067
0.003842 -0.050630 0.125325
0.011141 -0.136435 0.009285
0.035133 -0.126182 0.003429
-0.039741 -0.078213 0.096106
0.009144 -0.157234 0.029216
0.061208 -0.028252 0.082261
-0.031681 -0.103912 0.119372
0.046780 -0.041360 0.113661
-0.027267 -0.055755 0.016282
0.021288 -0.132932 0.006471
0.157003 -0.110836 0.119652
-0.002175 -0.174847 0.090555
0.072730 -0.103013 0.003819
-0.029447 -0.097556 0.010444
0.020304 -0.036496 0.116352
0.014348 -0.175110 0.097432
-0.001627 -0.010263 0.043491
0.023972 -0.179214 0.095869
