ply
format ascii 1.0
element vertex 153
property float x
property float y
property float z
end_header
0.033326 -0.065236 0.068953
0.001010 -0.081872 0.099813
-0.010541 -0.138652 0.053162
0.010712 -0.030112 0.084316
-0.059317 -0.053105 0.003412
-0.110332 -0.138476 0.037768
-0.147787 -0.065160 0.046165
-0.008871 -0.012838 0.052316
-0.107115 -0.025986 0.125334
-0.074966 -0.096152 0.006338
-0.031563 -0.063518 0.123309
-0.155631 -0.056551 0.069065
-0.076290 -0.103871 0.007393
-0.116134 -0.058270 0.117527
-0.069647 -0.147999 0.107062
-0.126605 -0.016809 0.109875
-0.143519 -0.030633 0.096194
-0.107629 -0.020035 0.038068
-0.072807 -0.157347 0.055620
-0.060198 -0.065308 0.128201
-0.041692 -0.020725 0.011205
-0.087635 -0.030485 0.012049
-0.079679 -0.140769 0.105346
-0.143149 -0.049844 0.045760
-0.138821 -0.022947 0.100137
-0.033226 -0.019113 0.016312
-0.025813 -0.116258 0.005820
-0.098331 -0.099992 0.011692
-0.073608 -0.157668 0.072039
-0.041023 -0.003865 0.082979
-0.082266 -0.113311 0.010469
-0.061538 -0.035011 0.005060
-0.029717 -0.045577 0.008643
-0.055313 -0.146587 0.105880
-0.025134 -0.064096 0.119822
-0.023568 -0.108782 0.113493
0.003852 -0.073388 0.023793
-0.087610 -0.048828 0.127989
-0.046719 -0.100149 0.126906
-0.005131 -0.115076 0.005925
-0.059995 -0.135900 0.116384
-0.151514 -0.100120 0.054525
-0.156671 -0.063078 0.062757
-0.006075 -0.116351 0.005906
-0.047517 -0.136054 0.114963
-0.083787 -0.071963 0.006309
-0.123119 -0.125163 0.033030
-0.120110 -0.082749 0.016122
-0.013981 -0.111210 0.002908
-0.074865 -0.076128 0.126982
-0.123925 -0.036825 0.112725
-0.110508 -0.053942 0.015303
-0.060739 -0.144854 0.030236
-0.123098 -0.133943 0.053986
-0.100509 -0.035721 0.018288
-0.026590 -0.075870 0.122032
-0.019093 -0.127274 0.096644
-0.012683 -0.137991 0.046782
-0.089613 -0.154189 0.055409
-0.025531 -0.133088 0.024110
-0.110290 -0.147491 0.063738
-0.003775 -0.008708 0.068567
-0.061355 -0.125105 0.013050
-0.142732 -0.078774 0.079592
-0.151877 -0.037010 0.074052
-0.132845 -0.123677 0.054233
-0.133328 -0.107241 0.034559
-0.069117 -0.103776 0.124359
-0.037505 -0.047205 0.119789
-0.046450 0.008376 0.037584
-0.114243 -0.124538 0.089424
-0.006228 -0.006481 0.074971
-0.020349 -0.022011 0.095614
-0.091340 -0.146493 0.043170
-0.022216 -0.043415 0.111928
-0.039621 -0.010090 0.091364
-0.134852 -0.019273 0.090969
-0.150036 -0.050364 0.055483
-0.123436 -0.130173 0.064789
-0.100235 -0.157526 0.067187
-0.014127 -0.119726 0.099201
-0.097004 -0.125542 0.020171
-0.155953 -0.050699 0.067152
0.010919 -0.050930 0.047252
-0.066567 -0.097463 0.005400
-0.052618 -0.013699 0.012104
-0.133309 -0.044450 0.037245
-0.120016 -0.124282 0.030750
0.018366 -0.030552 0.073814
-0.046417 -0.047933 0.121971
-0.070650 -0.134412 0.116745
0.035944 -0.082685 0.066138
-0.012834 -0.052870 0.016205
-0.048531 -0.104941 0.004700
-0.015294 -0.035667 0.023414
-0.019426 0.000907 0.062861
-0.061239 -0.065165 0.002564
-0.111716 -0.141517 0.046466
-0.065598 -0.134705 0.021282
-0.077065 -0.120020 0.013154
-0.108277 -0.080134 0.011560
0.006969 -0.040865 0.091473
-0.031009 0.001373 0.043915
-0.138849 -0.087535 0.080376
0.006016 -0.066395 0.098674
-0.036754 -0.125736 0.011821
-0.133188 -0.073448 0.028703
-0.008749 -0.121722 0.012112
-0.116710 -0.105689 0.021303
0.026652 -0.039879 0.076695
-0.087277 -0.037253 0.125896
0.019484 -0.114947 0.054660
-0.103640 -0.090256 0.010884
-0.120488 -0.096252 0.097263
0.026610 -0.087499 0.043542
-0.035873 -0.000009 0.032456
0.029160 -0.108896 0.033571
-0.028809 -0.119522 0.114128
0.019308 -0.083569 0.035000
-0.124969 -0.085368 0.020026
-0.095390 -0.149958 0.050447
-0.154675 -0.077584 0.064358
-0.082492 -0.098429 0.120670
-0.129443 -0.064098 0.026128
-0.097858 -0.119969 0.106355
0.015022 -0.120852 0.050469
-0.028037 -0.145546 0.072466
0.000908 -0.110526 0.007625
0.033858 -0.094982 0.059003
-0.117950 -0.034502 0.031935
-0.056251 -0.118021 0.124976
-0.047825 -0.133634 0.118690
-0.111361 -0.130067 0.030887
0.020037 -0.092610 0.081135
-0.144839 -0.032197 0.067626
-0.002981 -0.127943 0.024617
0.024481 -0.116920 0.025571
-0.126352 -0.075583 0.022039
-0.028722 -0.142810 0.042163
-0.067320 -0.005977 0.084669
-0.148291 -0.096375 0.046464
0.029020 -0.056584 0.074723
-0.014267 -0.054506 0.014917
-0.032883 -0.029387 0.106383
-0.092129 -0.157726 0.071132
0.034503 -0.078944 0.064109
-0.037069 -0.097915 0.002188
-0.125857 -0.017901 0.073955
-0.088042 -0.153260 0.087621
-0.068027 -0.009344 0.013332
0.018396 -0.115448 0.020784
0.008989 -0.070426 0.030859
-0.079609 -0.154682 0.094472
