ply
format ascii 1.0
element vertex 156
property float x
property float y
property float z
end_header
0.044509 0.050020 0.000803
-0.007761 0.072053 0.120270
-0.025253 -0.054285 0.118427
-0.065234 0.021469 0.024973
0.046716 0.056231 0.042617
0.075424 -0.012593 0.042985
0.004863 0.069551 0.008480
-0.040052 -0.051006 0.002032
-0.035601 -0.060139 0.017651
0.037949 -0.062760 0.100685
-0.014597 -0.067929 0.043003
-0.022990 0.042447 0.000489
-0.040172 0.052949 0.125991
0.003954 -0.070534 0.039457
0.022878 0.072273 0.077056
-0.005705 -0.068646 0.010029
-0.043134 -0.031711 0.126733
-0.020417 -0.065607 0.011507
0.010417 -0.070387 0.043654
-0.035288 0.059973 0.008716
-0.056504 0.036487 0.017443
0.072474 0.004721 0.124492
0.007005 -0.058646 0.125620
-0.052623 0.032421 0.125793
-0.050411 0.006146 0.127162
-0.064692 -0.011217 0.064234
0.076121 0.016250 0.069011
0.017113 0.073784 0.117224
-0.051729 -0.037635 0.081030
-0.060132 -0.030436 0.034444
-0.055466 -0.036202 0.019721
-0.015727 0.067937 0.014233
-0.049877 -0.034401 0.103589
-0.054226 0.016745 0.126967
0.035882 -0.059992 0.011071
-0.060419 0.022078 0.082825
0.076527 -0.023210 0.109892
-0.040444 0.057480 0.037627
0.018946 -0.069480 0.060867
-0.052895 -0.032814 0.003302
0.081544 0.010900 0.117817
0.046764 0.064409 0.114194
-0.043475 0.053862 0.037055
0.027690 0.070672 0.071943
-0.065786 0.012440 0.035085
0.063110 0.047655 0.082436
-0.034858 0.058825 0.095611
-0.012256 0.063047 0.126281
0.055924 0.057205 0.124461
-0.009568 -0.058717 0.126297
-0.040416 -0.038740 0.122895
-0.034954 -0.033108 0.000138
0.047865 -0.047390 0.003594
0.077186 0.028796 0.115783
-0.023095 -0.065294 0.037138
0.022095 -0.067641 0.103859
-0.019954 -0.063612 0.078532
0.039231 -0.053476 -0.000118
0.016706 0.058461 0.125948
-0.045915 -0.048784 0.060350
0.032659 -0.059548 0.121902
0.004835 0.070939 0.017128
-0.066770 0.000449 0.040750
0.036868 0.067058 0.121615
-0.058697 0.032062 0.062373
0.074339 0.027693 0.074397
0.072597 -0.018701 0.041521
-0.051183 0.036282 0.117562
0.015427 0.074083 0.105353
0.058073 -0.043548 0.034538
0.050214 -0.050394 0.125237
-0.022812 0.058945 0.001719
0.059389 -0.047858 0.118711
0.037915 -0.061881 0.048962
0.065312 -0.041135 0.119420
-0.054236 -0.014241 0.125579
-0.003945 0.072440 0.119051
-0.061485 0.028264 0.001490
0.032227 -0.017750 0.126108
-0.025806 0.064276 0.004905
-0.010660 0.071081 0.037067
-0.037828 0.056641 0.093902
0.008864 0.073099 0.057442
0.077183 -0.002512 0.059157
-0.032971 0.061796 0.043150
-0.058690 0.014114 0.119433
-0.059799 -0.023816 0.072901
0.063183 -0.044069 0.123937
0.028109 -0.066519 0.079347
-0.048286 -0.027777 0.125822
-0.058790 -0.003490 0.001364
-0.053334 -0.033923 0.089480
0.021760 -0.068251 0.099965
0.008895 0.062192 0.000455
0.004425 0.073552 0.083398
0.060565 0.015254 0.125053
-0.005896 0.069181 0.006891
0.057271 0.039631 0.002768
-0.017200 0.004675 -0.000052
-0.036717 0.054607 0.001396
-0.033031 -0.060738 0.003974
0.041692 -0.060358 0.109656
-0.068573 -0.007638 0.007953
0.025497 -0.067642 0.057185
-0.020758 0.067225 0.107254
0.014562 0.069683 0.021718
-0.008958 -0.026942 0.126611
0.064824 -0.041906 0.076706
0.037279 0.062731 0.033912
0.044844 -0.057549 0.033644
0.075007 0.031641 0.097221
0.053548 -0.043344 0.011381
0.058548 -0.049419 0.114105
0.021580 0.064015 0.000261
-0.024459 0.064882 0.118819
0.072430 0.007618 0.018703
-0.051171 0.023953 0.000552
0.067332 -0.000812 0.001275
0.067566 0.043183 0.091467
0.023093 0.069005 0.037425
-0.064895 -0.004928 0.064731
0.009048 -0.060382 0.122228
-0.066461 -0.016626 0.020592
0.000591 -0.068078 0.000959
0.020507 0.070331 0.040964
-0.038722 -0.050249 0.084064
0.022348 0.069614 0.040324
0.072605 -0.000908 0.020467
-0.048634 0.047320 0.052562
-0.041604 -0.040033 0.001128
0.064409 0.028661 0.005232
0.074781 0.032102 0.117609
0.061527 0.040070 0.026125
0.033388 0.064097 0.032481
-0.058212 -0.012646 0.115769
0.062829 -0.032836 0.018298
0.050892 -0.015058 0.000439
0.068680 -0.013032 0.001530
-0.029292 -0.057557 0.083818
0.068728 -0.029412 0.050174
-0.013246 -0.061716 0.117310
0.027583 0.069514 0.123735
-0.024081 -0.035337 0.126645
0.035839 0.057264 0.002187
-0.031381 -0.050184 0.000417
-0.008401 0.071613 0.058082
0.026086 0.073742 0.108627
0.067484 -0.036293 0.122767
-0.058881 0.034642 0.029635
0.013004 -0.068264 0.000256
0.074566 0.035969 0.108823
-0.061232 0.008854 0.101935
0.069424 -0.017769 0.124918
0.029559 -0.061248 0.004940
-0.069015 -0.004834 0.004440
0.074025 -0.008421 0.124145
