ply
format ascii 1.0
element vertex 145
property float x
property float y
property float z
end_header
0.111001 -0.036372 0.010771
0.053005 0.053481 0.109471
0.062842 0.026488 0.007751
0.039832 -0.087025 0.085697
0.101240 -0.050949 0.007641
-0.006201 0.006723 0.019107
-0.008877 0.012226 0.036414
0.025036 -0.006442 0.119028
-0.005430 0.012156 0.068352
0.053056 0.064773 0.094756
0.231916 0.032353 0.116432
-0.009119 0.002377 0.066269
-0.008075 -0.058304 0.057820
0.042463 -0.086959 0.086584
-0.010642 -0.005151 0.072650
0.076591 0.036220 0.013221
0.040092 -0.067370 0.019850
0.003484 0.028513 0.044847
-0.009751 -0.008868 0.079056
0.096455 -0.047289 0.123163
0.124735 0.056962 0.057490
0.054799 0.057296 0.034392
0.032733 -0.050849 0.117949
0.028141 -0.000220 0.005714
0.097012 -0.065651 0.011262
0.024593 0.041544 0.026178
0.055373 0.068834 0.078037
0.032106 -0.008258 0.005081
-0.008795 -0.052453 0.059676
0.090018 0.053276 0.032854
0.002968 0.012270 0.087616
0.023841 -0.093811 0.048257
0.057429 -0.051014 0.120438
0.104120 0.002318 0.006210
-0.002778 -0.006938 0.091209
0.012970 0.013990 0.009220
0.019607 -0.019296 0.009948
0.096541 -0.060431 0.119975
0.139467 -0.063140 0.076605
0.136028 -0.048367 0.043775
0.062179 0.035477 0.011650
0.014164 -0.068099 0.088334
0.138774 -0.063459 0.086607
0.004025 -0.051535 0.033705
-0.001537 -0.070840 0.050044
0.049317 0.040294 0.122274
0.066983 0.062999 0.098717
-0.002205 -0.070842 0.051731
0.108305 -0.065180 0.114634
-0.003596 0.021517 0.054313
0.024614 0.014012 0.120512
0.015299 0.039121 0.087218
-0.008309 -0.061510 0.048719
0.020894 0.047874 0.059116
0.011873 -0.044894 0.106699
0.028974 0.048343 0.039487
0.234452 0.035545 0.119021
0.049822 -0.060144 0.116814
0.092035 0.037142 0.019323
0.089886 -0.083974 0.090564
0.006040 -0.065614 0.078405
-0.002474 -0.032323 0.088981
0.085228 0.074598 0.079301
0.028309 0.032139 0.113542
0.060437 0.015405 0.002976
0.080543 -0.001758 0.123681
0.074207 0.071406 0.067718
0.094785 -0.023390 0.003271
0.113661 -0.023822 0.010715
0.027354 -0.026507 0.118093
0.127752 -0.038328 0.026283
0.055731 -0.084099 0.096796
0.113272 -0.002828 0.009270
0.108673 0.066098 0.058931
0.065240 0.070263 0.084760
0.048180 0.061054 0.049068
0.050105 -0.030331 0.124440
0.093982 -0.086449 0.082676
0.008347 -0.004026 0.106994
0.075314 0.068590 0.089730
0.030978 0.013656 0.005323
0.047725 0.066695 0.067577
0.018213 -0.072275 0.088432
0.089189 -0.053381 0.004222
0.100290 -0.042041 0.005639
0.072584 -0.095588 0.026423
0.033755 -0.025963 0.008397
0.084321 -0.010222 0.003271
-0.013910 0.003443 0.029114
0.034739 -0.008347 0.122425
0.004578 -0.034072 0.099647
-0.001175 -0.015712 0.094217
0.106049 -0.056028 0.013633
0.108643 -0.072660 0.032160
-0.002696 -0.051860 0.075134
0.030118 0.051891 0.088012
0.225654 0.034934 0.120448
0.001965 -0.072971 0.058884
0.014667 0.021896 0.102133
0.090704 -0.065319 0.004900
0.007977 -0.042941 0.100928
0.048716 -0.098806 0.054744
0.005192 0.022996 0.083484
0.048803 -0.087542 0.025770
0.040751 -0.098497 0.038745
0.111448 -0.078038 0.090636
0.051786 0.046229 0.116636
0.019322 0.039825 0.092718
0.113959 -0.058303 0.025372
-0.018357 -0.025331 0.041822
0.029365 0.054387 0.078412
0.043187 -0.096655 0.061723
0.101812 0.017481 0.012435
0.060673 -0.080591 0.104410
-0.000494 -0.005970 0.017046
0.004283 0.004258 0.013199
0.004887 -0.073496 0.043087
0.060956 -0.100258 0.033863
0.044210 0.060534 0.049471
0.112614 -0.064539 0.113714
0.019887 0.001331 0.117245
0.080889 -0.093682 0.042138
0.107524 -0.070599 0.028370
0.082170 0.073311 0.070877
0.013103 -0.081247 0.065818
0.028412 -0.097854 0.045361
0.026306 -0.073535 0.094801
0.108694 0.022839 0.017342
0.043663 0.043953 0.117641
0.086860 -0.075925 0.013075
0.114368 0.051081 0.044161
-0.007212 -0.002765 0.020435
0.126431 -0.020481 0.021601
0.019811 -0.088407 0.058923
0.234255 0.038319 0.117811
0.071332 -0.091933 0.022824
0.076735 0.019024 0.006482
-0.016942 -0.034976 0.046573
0.111124 -0.069595 0.106719
0.091584 0.064568 0.048981
-0.012218 -0.048173 0.053286
0.034337 0.028510 0.005632
0.020933 -0.091695 0.044074
0.039077 -0.063539 0.018367
0.079348 -0.043410 0.124134
