ply
format ascii 1.0
element vertex 155
property float x
property float y
property float z
end_header
0.044473 0.050197 0.000224
0.003883 0.095139 0.110435
-0.010982 -0.028018 0.124363
-0.064395 0.024656 0.026576
0.078231 -0.006532 0.040939
0.005067 0.070437 0.006776
-0.039315 -0.049405 0.007577
-0.033752 -0.056042 0.025163
0.049736 -0.043216 0.105099
-0.011249 -0.059509 0.052058
-0.027199 -0.021168 0.116475
-0.022970 0.042585 0.000462
-0.027240 0.079722 0.123673
0.006709 -0.062920 0.047337
0.028913 0.086142 0.065438
-0.004510 -0.065951 0.016290
-0.026630 -0.003511 0.127378
-0.019036 -0.062829 0.017874
0.013185 -0.062455 0.051477
-0.035317 0.060580 0.008012
-0.056416 0.038623 0.016727
0.085136 0.028226 0.118619
0.021691 -0.031199 0.127042
-0.040395 0.058706 0.123806
-0.035898 0.033689 0.127550
-0.059617 0.000253 0.071252
0.082059 0.027280 0.060523
0.028378 0.095634 0.104871
-0.044123 -0.022527 0.090117
-0.057160 -0.024460 0.042364
-0.053864 -0.032650 0.025856
-0.039109 -0.013944 0.109683
-0.039475 0.044064 0.126356
-0.040782 0.003266 0.001165
0.036980 -0.058233 0.013747
-0.054220 0.036736 0.083980
0.088105 -0.002507 0.105978
-0.039243 0.063321 0.035189
0.023955 -0.058506 0.069402
-0.052108 -0.031382 0.007785
-0.020742 -0.016768 0.001137
0.093655 0.032159 0.108935
0.057722 0.085454 0.100792
0.032729 0.083391 0.060060
-0.064128 0.017609 0.038531
0.070014 0.062244 0.070519
-0.026502 0.077452 0.089534
0.001030 0.088949 0.121524
0.069466 0.080202 0.110960
0.048251 -0.045829 0.003221
0.006537 -0.030959 0.127707
-0.024290 -0.011895 0.125631
-0.034364 -0.032045 0.003028
0.048646 -0.046977 0.004202
0.089015 0.049455 0.103931
-0.020047 -0.057997 0.046282
0.032844 -0.046376 0.111223
-0.012089 -0.048500 0.088960
0.040227 -0.053184 0.001108
-0.049048 0.033094 0.111310
0.029113 0.082846 0.117750
-0.040236 -0.037709 0.069657
0.045727 -0.034269 0.124853
-0.064383 0.006455 0.044826
0.048521 0.089688 0.109102
-0.054768 0.042250 0.061793
0.081053 0.041070 0.064565
-0.040062 0.060793 0.113678
0.025290 0.093514 0.093435
0.059987 -0.038569 0.036937
0.064081 -0.024860 0.125527
-0.022867 0.059082 0.001624
0.041570 -0.053780 0.055539
0.078538 -0.018871 0.117853
-0.039308 0.012777 0.126603
0.010427 -0.042456 0.112384
-0.061506 0.028797 0.001627
-0.025969 0.064615 0.004606
-0.010111 0.076443 0.030218
0.012054 0.082407 0.047765
0.082319 0.006525 0.054954
-0.031305 0.068856 0.038918
-0.046138 0.039325 0.121012
-0.035493 -0.007137 0.118575
-0.053260 -0.010369 0.081527
0.076674 -0.020928 0.123110
0.076005 0.046000 0.057755
0.035421 -0.052086 0.086357
-0.032380 -0.000449 0.126572
-0.058847 -0.002519 0.004010
-0.044091 -0.017263 0.097820
0.031893 -0.048023 0.107677
0.008870 0.062305 0.000348
0.011681 0.088806 0.072889
0.073987 0.039069 0.118471
-0.005940 0.070166 0.006120
0.057106 0.039866 0.002655
-0.016791 0.005278 0.000004
-0.036744 0.054725 0.001363
-0.032567 -0.058965 0.010344
0.053967 -0.039119 0.113102
-0.068075 -0.005884 0.012197
0.029762 -0.057599 0.064572
-0.010805 0.087731 0.099667
-0.049028 0.034776 0.001121
0.072373 -0.028768 0.077186
0.039483 0.067766 0.025988
0.047071 -0.052651 0.038250
-0.023018 -0.035294 0.101012
0.054300 -0.041962 0.013043
0.071285 -0.027847 0.114381
0.021528 0.064178 0.000052
-0.013433 0.087910 0.111238
0.073188 0.009681 0.015996
-0.051202 0.024151 0.000841
0.067297 -0.000654 0.001231
0.075731 0.059617 0.079233
-0.002067 -0.029128 0.126561
-0.011059 -0.046238 0.095314
-0.059863 0.006596 0.070938
-0.065042 -0.013348 0.025893
0.001613 -0.066932 0.006356
0.022389 0.076275 0.032526
-0.030515 -0.034336 0.093401
0.024226 0.075467 0.031963
-0.016646 -0.050124 0.076312
-0.045809 0.055809 0.051097
-0.040960 -0.038571 0.005423
0.048312 -0.037592 0.000784
0.064404 0.029248 0.005023
-0.052086 -0.013904 0.079940
0.086967 0.053139 0.105445
0.061930 0.043976 0.020286
-0.046098 0.011760 0.119315
0.063713 -0.030433 0.019122
0.050933 -0.014903 0.000485
0.068662 -0.012897 0.001524
-0.021082 -0.041195 0.093972
0.072491 -0.022218 0.050663
0.000823 -0.036196 0.121632
0.039716 0.092877 0.111523
0.035408 0.057237 0.001812
-0.030796 -0.049060 0.005070
0.041822 0.031170 0.124268
0.036129 0.093644 0.095360
0.080783 -0.013706 0.120353
-0.057898 0.038773 0.029238
0.014025 -0.067399 0.005153
0.085231 0.055280 0.096264
-0.051116 0.029281 0.104240
0.082166 0.004874 0.122151
0.030452 -0.060111 0.007772
-0.068834 -0.003615 0.008397
0.062843 -0.018314 0.001244
0.086818 0.014333 0.119685
