ply
format ascii 1.0
element vertex 140
property float x
property float y
property float z
end_header
0.013153 -0.037899 0.104667
0.096801 -0.043976 0.029869
-0.009069 0.017257 0.005611
-0.005997 0.057919 0.102340
-0.020781 0.048383 0.041826
0.037680 0.106022 0.050460
-0.026749 -0.028400 0.059343
0.015569 -0.037141 0.105856
-0.029353 0.027775 0.049387
0.123993 -0.013919 0.074857
0.073928 0.040212 0.005848
0.027703 -0.052894 0.038594
-0.026091 0.014724 0.024191
-0.004792 0.047184 0.017836
-0.030232 0.027268 0.056890
0.060557 0.019660 0.123626
0.114483 0.082135 0.034917
0.049723 0.066856 0.006793
0.046325 -0.024781 0.116703
-0.001084 0.014238 0.117742
0.026752 0.003367 0.004676
0.087997 -0.056101 0.038963
0.021992 0.048395 0.005436
0.043742 0.101306 0.034264
0.029847 -0.004501 0.005495
-0.027702 -0.022355 0.058590
0.083920 0.064651 0.011569
-0.016409 0.058616 0.058796
0.004192 -0.062998 0.072002
0.022125 0.016571 0.121348
0.101753 0.006647 0.010003
-0.026212 0.035234 0.066425
0.011416 0.018632 0.004461
0.014411 -0.010736 0.008654
0.061969 0.007912 0.123376
0.114065 -0.015673 0.104840
0.120064 -0.019573 0.072654
-0.011771 -0.020949 0.094217
0.110529 -0.011266 0.113414
-0.010001 -0.031522 0.037634
-0.019571 -0.042421 0.059194
0.099086 -0.001984 0.117832
-0.025692 0.009760 0.018390
0.050881 0.106857 0.057199
-0.020578 -0.041687 0.060519
-0.024858 0.004447 0.019797
-0.014714 0.047227 0.027235
-0.004719 0.074104 0.091953
-0.000420 0.080213 0.048757
-0.030141 -0.017960 0.047680
-0.025301 -0.034812 0.052370
0.011349 0.072790 0.023557
-0.017354 0.010200 0.101010
0.023248 0.062777 0.009984
0.197221 0.105111 0.118249
0.087929 0.044942 0.009369
0.060847 -0.028530 0.115128
-0.016944 -0.023696 0.083622
0.085658 -0.025127 0.009813
-0.025994 0.011889 0.076790
0.073107 0.107483 0.038732
0.005604 0.088095 0.078027
0.059935 0.016242 0.002791
0.063748 0.098743 0.027948
0.093426 -0.020992 0.009665
0.108737 -0.015328 0.027280
0.117606 -0.019934 0.051190
0.026014 -0.027810 0.115128
0.109965 0.003947 0.017197
0.098981 0.090283 0.029297
0.052124 0.106124 0.041515
0.041320 0.078426 0.013880
0.015223 0.037234 0.121605
0.066390 -0.034434 0.111080
-0.018982 0.047803 0.081492
0.037845 0.093804 0.025328
-0.006663 0.071233 0.090037
-0.007896 -0.024221 0.096974
0.085038 -0.048793 0.022475
0.096480 -0.035261 0.023477
0.056817 -0.073776 0.063405
-0.030510 0.001353 0.050453
0.030187 -0.018920 0.009320
0.083446 -0.008729 0.004759
-0.020798 0.018208 0.010576
0.001327 0.056422 0.108492
-0.022438 0.015625 0.088219
-0.025625 0.029103 0.073921
-0.028482 -0.004427 0.060286
0.097088 -0.045525 0.040245
0.093378 -0.049670 0.064828
-0.024176 -0.013047 0.073424
0.015259 0.091608 0.047039
0.188413 0.104504 0.119764
0.080852 0.045267 0.007961
-0.017910 -0.040055 0.068620
-0.007001 0.073056 0.070617
0.085274 -0.058543 0.030514
-0.019640 0.008743 0.094228
0.027798 -0.064051 0.084837
-0.011395 0.065481 0.050522
0.034208 -0.067412 0.054532
0.022546 -0.071796 0.069468
0.081447 -0.022255 0.116437
0.020761 -0.032005 0.021328
0.118874 0.074193 0.036457
0.002376 0.083558 0.053992
0.118782 0.043672 0.028240
-0.031686 -0.004867 0.030347
0.016661 0.088822 0.037660
0.021011 -0.058736 0.088732
0.029313 -0.019764 0.118693
-0.012283 -0.047682 0.055343
0.043797 -0.074700 0.069089
0.037303 0.078214 0.013680
0.076927 0.002234 0.121942
-0.009297 0.062102 0.094746
0.062931 -0.063926 0.077662
0.093496 -0.049860 0.060393
0.071363 0.102276 0.031253
-0.008766 -0.043952 0.080316
0.009049 -0.067754 0.072163
-0.001481 -0.022393 0.104047
0.104607 0.029850 0.013026
0.020993 0.099843 0.076836
0.075641 -0.064048 0.045009
0.105901 0.070116 0.025077
-0.012321 0.008996 0.008252
0.118276 -0.006056 0.038553
-0.001288 -0.053459 0.078301
0.197018 0.107891 0.117053
0.042551 0.101827 0.121232
0.056830 -0.072529 0.058253
-0.031835 -0.011539 0.038781
0.076865 -0.005694 0.120281
0.083754 0.083256 0.018818
-0.029562 -0.021010 0.050482
0.002104 -0.063003 0.066882
0.027306 -0.050048 0.035478
0.043730 0.026142 0.123714
