ply
format ascii 1.0
element vertex 140
property float x
property float y
property float z
end_header
0.110533 -0.045333 0.014226
0.040948 -0.135034 0.049147
0.100486 -0.054204 0.005344
-0.009995 -0.022858 0.026706
-0.013411 -0.026351 0.044167
0.011149 -0.088949 0.116930
-0.014567 -0.044433 0.070424
0.034800 -0.014960 0.122860
0.216996 -0.053660 0.117391
-0.016723 -0.052263 0.065220
-0.006842 -0.099058 0.034098
0.043490 -0.135428 0.050251
-0.017419 -0.061902 0.068497
0.068050 0.014631 0.044451
-0.003564 -0.016689 0.060215
-0.016747 -0.068081 0.072638
0.085356 -0.127862 0.115961
0.107893 0.004821 0.102496
0.041697 0.016324 0.071236
0.025618 -0.127372 0.097524
0.024557 -0.011388 0.009442
0.096340 -0.070333 0.005281
0.014832 0.005285 0.051274
0.037168 -0.000253 0.113356
0.029761 -0.017780 0.005845
0.077390 0.016432 0.073873
-0.008119 -0.056116 0.088652
0.030770 -0.121667 0.014096
0.047541 -0.130582 0.105827
0.100998 -0.006882 0.024317
-0.012084 -0.074082 0.085264
0.006874 -0.007533 0.022060
0.017611 -0.037202 0.009346
0.088540 -0.134463 0.102535
0.135493 -0.107373 0.068666
0.053805 0.015599 0.038638
0.012718 -0.122798 0.056690
0.132990 -0.111615 0.077235
0.002315 -0.105301 0.022017
0.033452 -0.046937 0.126392
0.001526 -0.106259 0.023341
0.102277 -0.131058 0.094914
-0.011254 -0.027954 0.063114
0.009646 -0.070057 0.121495
0.001375 -0.031882 0.101497
-0.005864 -0.097691 0.024606
0.009067 -0.008007 0.082437
0.005494 -0.113847 0.083201
0.018249 0.004214 0.066523
0.219507 -0.050429 0.119970
0.041128 -0.132968 0.089941
0.082601 0.012032 0.052601
0.087873 -0.133149 0.061998
0.026250 -0.116600 0.110317
0.005728 -0.115107 0.048276
-0.016780 -0.041905 0.051906
-0.007869 -0.094742 0.072166
0.065877 0.004125 0.122449
0.014007 -0.049865 0.121247
0.058927 0.011320 0.008556
0.065934 -0.084475 0.124557
0.056073 0.008754 0.109648
0.094047 -0.025663 0.005055
0.111957 -0.033828 0.019155
0.103059 -0.015155 0.019642
0.015616 -0.106349 0.107282
0.055052 -0.138123 0.061524
0.109116 -0.013941 0.026840
0.090604 0.011112 0.106158
0.046200 -0.003169 0.121024
0.001906 -0.110235 0.055751
0.035570 -0.115944 0.122535
0.092939 -0.130487 0.054359
-0.003110 -0.079451 0.101551
0.055483 -0.007240 0.123931
0.027183 0.003232 0.012462
0.031286 0.004183 0.102408
0.007502 -0.070486 0.118434
0.017212 -0.126321 0.055297
0.099950 -0.044404 0.005664
0.076417 -0.105731 0.004861
0.083519 -0.012902 0.005012
-0.017238 -0.031108 0.033590
-0.001582 -0.101048 0.081881
-0.009363 -0.082661 0.083891
0.105135 -0.062591 0.009295
0.063826 -0.004169 0.005595
0.109034 -0.087379 0.017189
-0.004360 -0.102408 0.051609
0.015557 -0.020409 0.109331
0.210726 -0.051014 0.121322
0.005070 -0.111369 0.028831
0.001532 -0.052882 0.106535
0.090600 -0.066962 0.002280
0.054771 -0.126777 0.021916
-0.006173 -0.044605 0.089270
0.052755 -0.102853 0.005478
0.051875 -0.001327 0.006388
0.048300 -0.118890 0.007382
0.107652 -0.126683 0.069681
0.035778 -0.038985 0.125777
0.005176 -0.033498 0.107017
0.113194 -0.070868 0.017602
0.018536 0.007887 0.036183
0.021972 -0.109566 0.112740
-0.019197 -0.062810 0.032135
0.115401 -0.067307 0.019447
0.014864 -0.013126 0.102373
0.115181 -0.069441 0.019373
0.090664 -0.087814 0.123572
0.048906 -0.129083 0.028024
0.058618 -0.140222 0.070224
-0.002399 -0.031866 0.019651
0.009779 -0.103393 0.015949
0.067508 -0.115540 0.006345
0.030117 0.009037 0.083657
0.106229 -0.129062 0.095039
0.005866 -0.079520 0.113545
0.085450 -0.111540 0.016266
0.108162 -0.083445 0.015402
0.063141 0.008571 0.114666
0.016428 -0.121148 0.032303
0.036057 -0.123020 0.010318
0.024590 -0.130497 0.061744
0.100776 0.002256 0.047989
0.053270 -0.032661 0.125231
0.087464 -0.080530 0.003312
0.100369 0.007920 0.086679
-0.009492 -0.031939 0.023438
0.024737 -0.122973 0.024795
0.219325 -0.047667 0.118730
0.040043 -0.121096 0.118034
0.074421 -0.101206 0.004083
-0.017700 -0.073518 0.032252
0.075628 0.015530 0.093954
0.057656 -0.120862 0.121067
-0.011821 -0.088284 0.033860
0.027222 0.014689 0.024560
0.028140 -0.117950 0.010989
0.066079 -0.127266 0.119146
