ply
format ascii 1.0
element vertex 140
property float x
property float y
property float z
end_header
0.017408 -0.041648 0.103998
0.098143 -0.044941 0.026442
-0.008794 0.016964 0.006141
-0.001741 0.053439 0.105357
-0.018955 0.046069 0.044952
0.039686 0.103582 0.053859
-0.024024 -0.030412 0.060283
0.019871 -0.040964 0.105138
-0.026934 0.025855 0.052176
0.126962 -0.016718 0.071391
0.074234 0.039941 0.005800
0.029569 -0.054224 0.037039
-0.024693 0.013656 0.026240
-0.003945 0.046404 0.019988
-0.027539 0.025068 0.059679
0.066326 0.014688 0.123699
0.116006 0.080517 0.035189
0.050307 0.066595 0.007504
0.004105 0.009386 0.118339
0.027067 0.003124 0.004684
0.089705 -0.057446 0.035271
0.022275 0.048279 0.005904
0.045182 0.099591 0.037325
0.030226 -0.004781 0.005395
-0.024980 -0.024327 0.059718
0.084726 0.064117 0.011874
-0.013924 0.055503 0.062092
0.007167 -0.065499 0.070860
0.027726 0.011592 0.121520
0.102153 0.006096 0.008365
-0.023110 0.032676 0.069423
0.011659 0.018455 0.004586
0.015199 -0.011346 0.008675
0.067596 0.002605 0.123411
0.118424 -0.019990 0.101660
0.122952 -0.022289 0.069189
-0.003134 0.003430 0.109984
-0.007695 -0.024302 0.094835
0.115272 -0.016135 0.110625
-0.008064 -0.032925 0.037926
-0.016880 -0.044461 0.059468
0.104344 -0.007005 0.116506
-0.024626 0.008801 0.020298
0.028181 0.096487 0.087389
0.053084 0.104215 0.060191
-0.017837 -0.043769 0.060849
-0.023698 0.003460 0.021537
-0.013471 0.045758 0.029820
-0.001026 0.070110 0.095442
0.001597 0.077779 0.052372
-0.022826 -0.036647 0.053085
0.012399 0.071480 0.026347
-0.012971 0.006414 0.102667
0.023875 0.062466 0.011777
0.203152 0.099743 0.118325
0.088508 0.044355 0.008979
0.065564 -0.033320 0.113493
-0.013392 -0.026670 0.084294
0.086016 -0.025263 0.007954
-0.022597 0.009007 0.078862
0.074739 0.105632 0.041059
0.008690 0.084434 0.081647
0.059993 0.016152 0.002701
0.065101 0.097375 0.030279
0.093845 -0.021302 0.007652
0.109877 -0.016302 0.024525
0.119623 -0.021895 0.047799
0.030774 -0.032225 0.114445
0.110668 0.003218 0.015064
0.100357 0.088876 0.030261
0.053809 0.104132 0.044466
0.042056 0.077764 0.015777
0.020780 0.032162 0.122375
0.070898 -0.039033 0.108941
-0.015456 0.044373 0.084770
0.038993 0.092490 0.028190
-0.002999 0.067272 0.093500
-0.003729 -0.027667 0.097341
0.086046 -0.049452 0.019303
0.097612 -0.035962 0.020381
0.059388 -0.076147 0.060023
-0.028005 -0.000472 0.052270
0.030730 -0.019118 0.009120
0.083586 -0.008970 0.004305
-0.020190 0.017415 0.012171
0.005994 0.051717 0.111003
-0.018545 0.012315 0.090278
-0.022269 0.026240 0.076587
-0.025650 -0.006675 0.061786
0.098815 -0.046943 0.036639
0.096023 -0.052138 0.061203
-0.020976 -0.015721 0.074704
0.017213 0.089231 0.050504
0.194344 0.099134 0.119828
-0.014905 -0.042414 0.068894
-0.004184 0.069633 0.074055
0.086564 -0.059529 0.026904
-0.015533 0.005217 0.095940
0.031173 -0.067085 0.082793
-0.009331 0.062808 0.053971
0.036480 -0.069383 0.052205
0.025346 -0.074188 0.067325
0.086382 -0.027261 0.114369
0.021934 -0.032671 0.020675
0.120418 0.072497 0.036302
0.004595 0.080893 0.057627
0.120002 0.042345 0.026915
-0.029946 -0.006144 0.032091
0.018240 0.086862 0.040964
0.024545 -0.061924 0.087131
0.034398 -0.024526 0.118527
-0.009746 -0.049582 0.055210
0.046554 -0.077228 0.066149
0.038033 0.077525 0.015724
0.082637 -0.003197 0.121665
-0.005339 0.057898 0.097953
0.065943 -0.066877 0.074457
0.095993 -0.052167 0.056756
0.072807 0.100716 0.033480
-0.005390 -0.046685 0.080171
0.011996 -0.070282 0.070693
0.002927 -0.026056 0.104265
0.105245 0.029283 0.011802
0.023954 0.096385 0.080361
0.077609 -0.065598 0.041443
0.107135 0.068901 0.025070
-0.011822 0.008555 0.009030
0.119880 -0.007561 0.035637
0.001940 -0.056137 0.077644
0.202950 0.102522 0.117128
0.048492 0.096482 0.121260
0.059201 -0.074672 0.054931
-0.029805 -0.013050 0.040301
0.082426 -0.011088 0.119690
0.084775 0.082284 0.019964
-0.027105 -0.022803 0.051715
0.033971 0.030050 0.004331
0.004922 -0.065329 0.065811
0.029071 -0.051300 0.034018
0.049337 0.020874 0.123813
