ply
format ascii 1.0
element vertex 154
property float x
property float y
property float z
end_header
0.021935 -0.056537 0.077880
-0.093661 -0.026755 0.125053
-0.014143 -0.069069 0.105397
-0.022189 -0.129958 0.063226
-0.001099 -0.019511 0.086844
-0.119328 -0.129013 0.039977
-0.154754 -0.054788 0.036923
-0.016701 -0.005609 0.051527
-0.124247 -0.006728 0.120486
-0.083726 -0.065931 0.126772
-0.077396 -0.093564 0.005840
-0.049052 -0.045358 0.123703
-0.164851 -0.043626 0.058066
-0.079292 -0.100839 0.007656
-0.131666 -0.039675 0.111441
-0.085574 -0.130852 0.112559
-0.140601 0.000693 0.096913
-0.155554 -0.015009 0.083126
-0.112976 -0.012435 0.028668
-0.084073 -0.146329 0.063173
-0.078855 -0.045460 0.127867
-0.045850 -0.017461 0.008842
0.010359 -0.076899 0.042187
-0.090154 -0.025536 0.007127
-0.095327 -0.123817 0.109249
-0.149766 -0.039844 0.035625
-0.151333 -0.006853 0.086578
-0.037357 -0.015798 0.014507
-0.027421 -0.115278 0.007128
-0.103157 -0.094627 0.011221
-0.086566 -0.144555 0.079112
-0.051513 0.007936 0.077412
-0.086793 -0.109271 0.011899
-0.064102 -0.032887 0.003598
-0.033193 -0.042917 0.009141
-0.071300 -0.129780 0.112307
-0.042042 -0.046749 0.121171
-0.039871 -0.092373 0.119014
-0.001842 -0.068434 0.029852
-0.106124 -0.028817 0.126512
-0.065180 -0.080475 0.127315
-0.007714 -0.113458 0.010058
-0.076672 -0.117957 0.121083
-0.160351 -0.088200 0.048339
-0.165375 -0.050785 0.052452
-0.008670 -0.114706 0.009951
-0.064008 -0.118358 0.120591
-0.085465 -0.069898 0.005054
-0.130936 -0.115983 0.032881
-0.124034 -0.076013 0.011812
-0.014938 -0.110392 0.004417
-0.093367 -0.056522 0.126463
-0.113883 -0.048260 0.009678
-0.068869 -0.137706 0.037402
-0.133184 -0.122273 0.054382
-0.072947 -0.063771 0.127777
-0.044609 -0.057737 0.122874
-0.068384 -0.141907 0.068806
-0.034495 -0.112298 0.104948
-0.023539 -0.130156 0.056608
-0.100718 -0.142897 0.060922
-0.032914 -0.128126 0.032063
-0.121724 -0.134875 0.066627
-0.013343 0.000506 0.067648
-0.066907 -0.121069 0.017657
-0.153545 -0.064571 0.072017
-0.161144 -0.023828 0.061333
-0.142553 -0.112043 0.052570
-0.140392 -0.097868 0.031311
-0.086820 -0.084535 0.124895
-0.053785 -0.029580 0.118893
-0.051916 0.013850 0.030441
-0.127754 -0.109107 0.089217
-0.016476 0.003405 0.073470
-0.032679 -0.009151 0.093934
-0.101004 -0.136789 0.047757
-0.037120 -0.028230 0.112183
-0.051212 0.002794 0.086629
-0.146117 -0.004389 0.077626
-0.157620 -0.039098 0.044623
-0.134484 -0.117381 0.064617
-0.112512 -0.144652 0.071846
-0.029828 -0.104708 0.106913
-0.103888 -0.118966 0.022235
-0.164744 -0.038010 0.055526
0.002602 -0.044052 0.052283
-0.055570 -0.011527 0.008344
-0.138739 -0.036160 0.027475
-0.127631 -0.115467 0.030777
0.007638 -0.021108 0.077473
-0.063064 -0.029665 0.120636
-0.087360 -0.116270 0.120405
0.024308 -0.074240 0.076623
-0.016839 -0.048921 0.018974
-0.020528 -0.031117 0.024657
-0.027906 0.009518 0.059225
-0.061927 -0.064690 0.002317
-0.121419 -0.130954 0.048851
-0.072473 -0.128813 0.026727
-0.081952 -0.115528 0.015790
-0.111805 -0.073871 0.008596
-0.005884 -0.029403 0.094419
-0.037422 0.007821 0.039292
-0.150018 -0.073277 0.074056
-0.008663 -0.053949 0.103794
-0.042780 -0.123058 0.017679
-0.138175 -0.065493 0.021876
-0.013285 -0.119150 0.018879
-0.122657 -0.098422 0.019764
0.015218 -0.030334 0.082115
-0.105364 -0.017168 0.123336
0.008450 -0.107396 0.065658
-0.107765 -0.084529 0.009281
-0.134248 -0.079916 0.093095
0.017733 -0.081165 0.053449
-0.041300 0.004936 0.027715
0.020894 -0.103603 0.045552
-0.045935 -0.102317 0.120320
0.011843 -0.077830 0.043755
-0.129460 -0.078128 0.015332
-0.105877 -0.139186 0.054918
-0.016172 -0.057767 0.107896
-0.163980 -0.064799 0.055686
-0.133960 -0.056521 0.018739
-0.113075 -0.102914 0.106908
0.004353 -0.113454 0.061166
-0.041567 -0.133898 0.081898
-0.002441 -0.108639 0.014185
0.022693 -0.087069 0.070301
-0.122910 -0.027070 0.022950
-0.074008 -0.098763 0.125642
-0.064360 -0.115603 0.124156
-0.119337 -0.121471 0.032245
0.006480 -0.082244 0.090356
-0.153265 -0.019898 0.055207
-0.009917 -0.123335 0.033498
0.007530 -0.100015 0.029745
0.017393 -0.112253 0.037746
-0.130626 -0.068253 0.016175
-0.038805 -0.134705 0.051260
-0.077940 0.006778 0.076612
-0.156243 -0.085472 0.040273
0.017194 -0.047233 0.082166
-0.046355 -0.014509 0.104183
-0.145947 -0.083255 0.074899
-0.104850 -0.144351 0.076601
0.023281 -0.070652 0.074120
-0.037451 -0.097620 0.002321
-0.134938 -0.005334 0.061911
-0.102494 -0.138029 0.092639
-0.028605 -0.107837 0.004410
-0.071356 -0.007420 0.007710
0.002453 -0.065028 0.037250
-0.094646 -0.138740 0.100333
