ply
format ascii 1.0
element vertex 149
property float x
property float y
property float z
end_header
0.004019 -0.034465 0.091698
-0.119126 0.020032 0.119977
-0.116101 0.011856 0.123313
-0.044761 -0.105818 0.085087
-0.016003 0.005124 0.086658
-0.135692 -0.103919 0.050083
-0.161527 -0.031376 0.023745
-0.024733 0.009156 0.047120
-0.084969 -0.079349 0.007095
-0.142954 0.038537 0.097835
-0.111100 -0.019103 0.126369
-0.082089 -0.089256 0.008811
-0.072099 -0.002030 0.120509
-0.173451 -0.014243 0.039763
-0.085248 -0.094653 0.013289
-0.149496 0.002315 0.095855
-0.110932 -0.086944 0.122753
-0.152085 0.037724 0.069597
-0.165726 0.019238 0.058133
-0.115364 0.002666 0.013004
-0.104977 -0.116272 0.081580
-0.105626 0.001862 0.126180
-0.050112 -0.012594 0.006467
-0.002998 -0.062840 0.059013
-0.133446 -0.022365 0.010432
-0.092018 -0.018827 0.004109
-0.120539 -0.081161 0.116149
-0.154944 -0.017895 0.019991
-0.161408 0.027853 0.059946
-0.041881 -0.010067 0.012189
-0.033663 -0.110559 0.020758
-0.119474 0.026240 0.040366
-0.109646 -0.109323 0.095505
-0.061026 0.032286 0.062442
-0.096937 -0.098279 0.020594
-0.065218 -0.030979 0.002798
-0.036560 -0.038379 0.011851
-0.097414 -0.086142 0.122952
-0.065226 -0.005373 0.119705
-0.066372 -0.050494 0.124555
-0.012101 -0.057251 0.042701
-0.131373 0.018418 0.119147
-0.092903 -0.033835 0.127467
-0.172048 -0.059705 0.041355
-0.173870 -0.022528 0.036111
-0.017918 -0.108562 0.030390
-0.144486 -0.092228 0.038606
-0.129644 -0.061713 0.009597
-0.020275 -0.106743 0.019898
-0.120310 -0.009723 0.124317
-0.116951 -0.037579 0.005305
-0.085686 -0.116935 0.055893
-0.149865 -0.092330 0.060176
-0.100471 -0.016904 0.127340
-0.070801 -0.013939 0.123399
-0.091048 -0.111734 0.087997
-0.061432 -0.074150 0.119441
-0.045221 -0.107883 0.078706
-0.120808 -0.112530 0.076037
-0.048889 -0.113032 0.052467
-0.141329 -0.101807 0.076601
-0.023529 0.019899 0.061373
-0.079003 -0.109130 0.032494
-0.168326 0.005320 0.038872
-0.157728 -0.082716 0.054617
-0.150830 -0.075166 0.031105
-0.006679 -0.003065 0.076722
-0.074296 0.011544 0.112851
-0.116700 0.017051 0.121281
-0.054448 0.021512 0.016271
-0.148342 -0.070496 0.090556
-0.027398 0.024329 0.065577
-0.046421 0.019617 0.085642
-0.119080 -0.110711 0.061866
-0.055788 0.007490 0.107372
-0.062404 0.030548 0.072810
-0.154522 0.027464 0.051804
-0.163800 -0.013961 0.027114
-0.152074 -0.084890 0.068523
-0.134011 -0.110420 0.085142
-0.056117 -0.067304 0.119638
-0.117179 -0.101814 0.032555
-0.172257 -0.009446 0.036046
-0.059277 -0.007251 0.004995
-0.142127 -0.018626 0.013451
-0.140965 -0.092706 0.036888
-0.114503 -0.108069 0.048391
-0.006181 0.000752 0.079699
-0.113322 -0.071255 0.124532
0.004608 -0.052415 0.094254
-0.022936 -0.040703 0.025615
-0.027184 -0.022299 0.026755
-0.035333 0.026466 0.048431
-0.062663 -0.064072 0.002186
-0.138768 -0.103043 0.058848
-0.087007 -0.111683 0.042495
-0.092660 -0.103169 0.026257
-0.042069 0.019143 0.028518
-0.163801 -0.039421 0.064124
-0.093308 -0.116741 0.066726
-0.029551 -0.023154 0.109374
-0.143592 -0.047727 0.014614
-0.025586 -0.110122 0.040246
-0.132467 -0.080696 0.023002
-0.000485 -0.007634 0.087584
-0.126881 0.030435 0.108151
-0.012627 -0.086621 0.087514
-0.124616 0.007575 0.122514
-0.152909 -0.040627 0.085516
0.001522 -0.064685 0.072182
-0.044497 0.012294 0.018472
0.003394 -0.088973 0.070094
-0.001954 -0.063422 0.061026
-0.135739 -0.062287 0.012627
-0.124800 -0.110462 0.068546
-0.038013 -0.024568 0.112998
-0.045967 -0.088077 0.003603
-0.174370 -0.034902 0.042535
-0.137857 -0.040212 0.010053
-0.085255 -0.091807 0.011520
-0.136076 -0.060544 0.107751
-0.016421 -0.093175 0.083207
-0.116435 -0.057512 0.007062
-0.066480 -0.102355 0.101651
0.002725 -0.066309 0.090477
-0.125628 -0.011304 0.009853
-0.090826 -0.069734 0.127468
-0.133882 -0.099028 0.040870
-0.015940 -0.055327 0.105574
-0.159087 0.006846 0.033368
-0.026133 -0.109502 0.056087
0.000661 -0.098880 0.063685
-0.135592 -0.052576 0.010851
-0.059042 -0.112219 0.072170
-0.087072 0.032803 0.058029
-0.166592 -0.059662 0.033617
-0.000547 -0.024078 0.092372
-0.061644 0.019350 0.094933
-0.093916 -0.005077 0.125468
-0.161335 -0.048807 0.067538
-0.127017 -0.108862 0.090462
0.004548 -0.049433 0.090891
-0.038695 -0.096673 0.005026
-0.141030 0.021319 0.039391
-0.126543 -0.098321 0.103841
-0.032311 -0.105232 0.013516
-0.072694 -0.005533 0.004899
-0.008847 -0.052332 0.049834
-0.119658 -0.097340 0.112481
