ply
format ascii 1.0
element vertex 162
property float x
property float y
property float z
end_header
0.044237 0.050484 0.000041
-0.011922 0.128399 0.081063
-0.068687 0.029487 0.020891
0.071453 0.007738 0.054682
0.004944 0.070351 0.004460
-0.009724 0.114472 0.099088
-0.041867 -0.045582 0.020490
-0.038281 -0.046705 0.039767
0.029422 -0.002358 0.119848
-0.019452 -0.040345 0.069126
-0.046836 0.019524 0.119640
-0.023118 0.042709 0.000337
-0.045392 0.118477 0.093934
-0.001551 -0.044895 0.066969
0.019005 0.104786 0.045058
-0.008467 -0.058054 0.036993
-0.050895 0.043376 0.124569
-0.023083 -0.055053 0.035928
0.004136 -0.042983 0.071771
-0.036155 0.061198 0.006056
0.065217 0.069857 0.118350
-0.061404 0.097709 0.100473
-0.059775 0.078336 0.116145
-0.072310 0.021436 0.066736
0.072834 0.047452 0.063954
0.013677 0.127719 0.077750
-0.049324 -0.002792 0.004433
0.039457 0.008354 0.001985
-0.058926 0.005231 0.092809
-0.064277 -0.012737 0.046278
-0.058280 -0.025664 0.031519
-0.058432 0.022549 0.109073
-0.063358 0.084715 0.109763
-0.041967 0.004462 0.002014
0.033190 -0.051128 0.035646
-0.068079 0.061610 0.068015
0.069932 0.036327 0.113561
-0.044529 0.071568 0.020393
0.011757 -0.032451 0.089193
-0.054327 -0.028630 0.013574
-0.022601 -0.015242 0.007197
0.076040 0.070021 0.109063
0.043056 0.117204 0.079955
0.023371 0.100364 0.041546
-0.070924 0.026546 0.032236
0.059243 0.085045 0.060482
-0.039790 0.103729 0.063741
-0.015845 0.126811 0.092862
0.054264 0.116222 0.091948
-0.017487 0.019689 0.129004
-0.047042 0.035561 0.125496
-0.036245 -0.030011 0.011689
0.045864 -0.043342 0.023259
0.073625 0.084142 0.098395
-0.027265 -0.041426 0.062096
0.012173 -0.002006 0.124689
-0.026730 -0.017068 0.101630
0.037186 -0.050029 0.022104
0.012551 0.119939 0.094722
-0.050762 -0.016115 0.077510
0.048064 -0.015943 0.085804
0.021720 0.014665 0.127529
-0.072076 0.017040 0.040201
0.033001 0.123874 0.085725
0.069735 0.023501 0.092325
-0.064810 0.057830 0.046559
0.071503 0.063759 0.063524
0.068531 0.001621 0.055598
-0.058566 0.096092 0.090520
0.011796 0.121310 0.067617
0.053592 -0.024852 0.054970
-0.023006 0.059248 0.001165
0.031263 -0.032843 0.077206
0.057236 0.024285 0.124288
-0.064242 0.054717 0.117595
-0.009631 -0.000232 0.122684
-0.000846 0.083752 0.113865
-0.008074 0.127987 0.079921
-0.061761 0.029031 0.001356
-0.026302 0.065083 0.003701
-0.015092 0.080442 0.015616
0.045218 0.003272 0.113855
-0.042867 0.101106 0.063181
0.004957 0.093892 0.029426
0.073887 0.025289 0.065604
-0.036638 0.078365 0.022740
-0.067555 0.078035 0.102534
-0.057804 0.032871 0.116164
-0.066929 0.013977 0.080331
0.053442 0.024802 0.127985
0.019895 -0.019396 0.105233
-0.056619 0.043255 0.122558
-0.060259 -0.001013 0.004894
-0.060352 0.013098 0.098873
0.011741 -0.005209 0.122381
0.008708 0.062361 0.000137
0.000808 0.109267 0.049087
-0.006033 0.070248 0.005102
0.056815 0.040228 0.002748
-0.017796 0.006879 0.001596
-0.036879 0.054837 0.001070
-0.035605 -0.053680 0.026539
-0.029895 0.105939 0.057962
0.031930 0.005869 0.125040
-0.070689 -0.002982 0.011888
0.018208 -0.033286 0.085089
-0.025332 0.117355 0.071719
-0.049146 0.034854 0.000773
0.058204 -0.001151 0.094657
0.036368 0.073536 0.018686
0.040086 -0.037742 0.059333
-0.039409 -0.001886 0.107483
0.050522 -0.035926 0.031173
0.049657 0.015149 0.123935
-0.007335 -0.015475 0.108047
0.021357 0.064235 -0.000075
-0.029531 0.121725 0.082007
0.070723 0.014222 0.023445
-0.002283 0.061065 0.122943
0.050502 0.016999 0.001811
-0.051361 0.024306 0.000817
0.066950 -0.000785 0.005477
0.064031 0.085891 0.070151
0.041477 0.009543 0.001782
-0.026299 -0.012694 0.106798
-0.072337 0.027504 0.064915
-0.069472 -0.007651 0.027052
-0.001479 -0.061720 0.028235
-0.045884 -0.004659 0.099702
0.061738 0.043216 0.124405
0.070695 0.006680 0.027155
-0.029532 -0.023750 0.088978
-0.043044 -0.035861 0.014871
0.046162 -0.035328 0.016855
0.063846 0.029886 0.005737
-0.065470 0.010232 0.080014
0.071722 0.088216 0.098272
-0.066965 0.050558 0.108448
0.059799 -0.023335 0.034444
0.050289 -0.014151 0.008928
0.067983 -0.012523 0.009130
-0.036049 -0.009438 0.103081
0.063472 -0.003970 0.067359
-0.021623 0.011540 0.126125
0.024120 0.127634 0.085903
-0.032282 0.039713 0.125680
-0.033112 -0.045769 0.018830
0.021826 0.074172 0.118279
0.059932 0.047109 0.125402
-0.012327 0.093301 0.030630
0.022263 0.122665 0.070322
0.059079 0.030063 0.125721
0.052498 0.039946 0.001819
-0.062196 0.044779 0.020140
0.010969 -0.062276 0.028474
0.071301 0.087124 0.088831
0.059200 0.048771 0.125586
0.026896 -0.054611 0.030197
-0.070887 -0.001507 0.007776
0.062047 -0.017616 0.010787
0.024314 0.007958 0.001568
0.065433 0.057291 0.122465
