ply
format ascii 1.0
element vertex 138
property float x
property float y
property float z
end_header
0.031834 -0.153794 0.024294
0.095218 -0.056149 0.013814
-0.026260 -0.045658 0.024411
-0.033339 -0.054892 0.038117
-0.026667 -0.141925 0.093877
-0.040785 -0.081757 0.056371
-0.011099 -0.071170 0.122116
0.167934 -0.112379 0.118308
0.063139 -0.032003 0.010872
-0.039774 -0.087344 0.048959
0.084599 -0.060870 0.127288
-0.013143 -0.118915 0.012470
0.034045 -0.154612 0.025789
-0.039732 -0.096949 0.048608
0.039561 -0.013437 0.069568
-0.029105 -0.051691 0.058046
-0.039650 -0.104157 0.051191
0.052838 -0.174065 0.097286
0.062044 -0.047248 0.125670
0.006195 -0.024063 0.087179
0.000813 -0.168406 0.069320
0.009552 -0.024057 0.018006
0.092757 -0.072812 0.009276
-0.012455 -0.027672 0.060439
-0.016059 -0.032221 0.046573
0.048707 -0.164915 0.105012
-0.007639 -0.054940 0.117925
0.046901 -0.051638 0.127199
0.018278 -0.025956 0.012787
0.039462 -0.023932 0.098944
-0.038947 -0.099620 0.071572
0.017418 -0.174109 0.079945
0.078433 -0.023157 0.052959
-0.038688 -0.115130 0.061305
-0.011410 -0.028667 0.028923
0.005339 -0.050329 0.009838
0.060186 -0.174210 0.084095
0.027191 -0.011060 0.061543
0.053401 -0.050682 0.006649
0.001232 -0.147620 0.027931
-0.014448 -0.104932 0.125979
-0.000908 -0.118776 0.005555
0.074787 -0.167027 0.082683
-0.036699 -0.063258 0.055322
-0.032943 -0.125794 0.103962
-0.036101 -0.080541 0.092245
-0.010204 -0.113282 0.005232
-0.024800 -0.050783 0.083009
-0.015163 -0.150772 0.052437
-0.015164 -0.139657 0.111898
-0.012847 -0.033914 0.074875
0.170438 -0.109119 0.120877
0.016805 -0.167983 0.060610
0.051665 -0.019818 0.080283
0.070449 -0.156748 0.047833
0.065195 -0.044399 0.118368
-0.005288 -0.163845 0.084382
-0.006076 -0.156341 0.106373
0.080291 -0.031193 0.013089
-0.027050 -0.129002 0.044860
0.018088 -0.054217 0.127849
-0.015386 -0.128444 0.117383
-0.030196 -0.106010 0.110339
0.039593 -0.001157 0.034167
0.022210 -0.139904 0.118562
0.010766 -0.044865 0.120880
0.085524 -0.028589 0.017335
-0.015292 -0.153422 0.080815
0.084604 -0.045513 0.102305
0.043722 -0.042518 0.125632
-0.000284 -0.059755 0.124837
-0.010457 -0.136498 0.029217
-0.004219 -0.138632 0.115499
-0.000872 -0.168731 0.099494
0.077185 -0.151117 0.043132
-0.035402 -0.126516 0.076857
0.007987 -0.064887 0.126841
0.008136 -0.013063 0.027896
-0.010437 -0.046243 0.109292
-0.033718 -0.124990 0.100149
0.006528 -0.150088 0.026759
0.086445 -0.057138 0.005760
0.075170 -0.107048 0.003782
0.024152 -0.048168 0.007337
0.071118 -0.017629 0.023323
-0.034021 -0.056240 0.026417
-0.020805 -0.146659 0.099567
-0.023482 -0.138787 0.053280
-0.034297 -0.122350 0.058434
0.049713 -0.011646 0.024114
0.100471 -0.093419 0.024079
-0.016015 -0.127837 0.026281
-0.024687 -0.072141 0.106953
0.161666 -0.109692 0.122195
0.000924 -0.126066 0.008299
0.049141 -0.104217 0.126038
-0.036039 -0.102655 0.091500
0.089157 -0.067981 0.003600
0.051982 -0.134201 0.009332
0.038627 -0.113739 0.125782
0.037493 -0.010316 0.022467
0.045920 -0.121555 0.002785
0.086109 -0.153766 0.063286
-0.034181 -0.083724 0.098014
0.079855 -0.039568 0.095946
-0.005214 -0.018926 0.048721
-0.011219 -0.158452 0.087360
-0.030675 -0.085721 0.016583
-0.023618 -0.063292 0.102088
0.047721 -0.140626 0.118398
0.045592 -0.139385 0.012676
0.043114 -0.166728 0.044997
0.011918 -0.031512 0.102175
0.064801 -0.117768 0.004276
-0.006963 -0.035612 0.093218
0.078134 -0.164990 0.084699
-0.031895 -0.131504 0.091924
0.078973 -0.117600 0.012331
0.016478 -0.046257 0.125410
0.012347 -0.136196 0.011206
0.035418 -0.126074 0.003532
-0.029716 -0.073765 0.099768
0.012183 -0.155897 0.032320
0.069985 -0.025248 0.078318
-0.019551 -0.099145 0.121154
0.085515 -0.082330 0.004993
0.058454 -0.037131 0.111553
-0.023789 -0.053442 0.018703
0.022039 -0.132884 0.007144
0.170261 -0.106367 0.119618
0.005747 -0.171292 0.094335
0.072991 -0.102906 0.003415
-0.027604 -0.095602 0.014060
0.032106 -0.032264 0.115366
0.022573 -0.171601 0.100223
-0.019945 -0.109439 0.014291
0.004531 -0.007640 0.043028
0.032011 -0.175935 0.098214
