ply
format ascii 1.0
element vertex 139
property float x
property float y
property float z
end_header
0.036035 -0.149765 0.032075
0.098763 -0.056093 0.008248
-0.019016 -0.039300 0.025445
-0.024741 -0.046676 0.040768
-0.012524 -0.126994 0.104415
-0.030300 -0.071060 0.062185
0.007691 -0.054219 0.123481
0.187912 -0.094641 0.117990
0.067793 -0.031417 0.006280
-0.030602 -0.077582 0.055285
0.103457 -0.044965 0.123260
-0.010454 -0.114898 0.019725
0.038427 -0.150435 0.033396
-0.030889 -0.087447 0.056298
0.052225 -0.003931 0.061164
-0.018193 -0.041474 0.059797
-0.030621 -0.094291 0.059471
0.065995 -0.161182 0.104591
0.080839 -0.030054 0.121590
0.057813 -0.038895 0.126233
0.021125 -0.011213 0.083021
0.010770 -0.157505 0.080469
0.016733 -0.019904 0.014115
0.095145 -0.072301 0.006530
-0.000696 -0.017561 0.058100
0.096845 -0.125440 0.039137
-0.006096 -0.023971 0.045037
0.063135 -0.150967 0.111533
0.010676 -0.038075 0.118036
0.066161 -0.034263 0.125233
0.024657 -0.023202 0.008350
0.055501 -0.010545 0.091676
-0.026850 -0.087283 0.078900
0.029144 -0.162421 0.090561
0.089124 -0.017174 0.042651
-0.028486 -0.103940 0.070983
-0.003188 -0.022344 0.026814
0.011258 -0.046832 0.009090
0.071887 -0.163262 0.090753
0.039074 -0.002120 0.053756
0.005951 -0.142095 0.037743
0.001468 -0.116812 0.008929
0.004936 -0.087276 0.126373
0.000539 -0.118187 0.009694
0.086367 -0.156834 0.086773
-0.025984 -0.053111 0.058760
-0.016665 -0.109356 0.113102
-0.021287 -0.066051 0.097043
-0.008298 -0.111168 0.011200
-0.010810 -0.037935 0.084184
-0.007143 -0.141195 0.064029
0.002006 -0.122730 0.118977
0.000266 -0.022192 0.073120
0.063168 -0.089516 0.125831
0.190416 -0.091389 0.120561
0.026286 -0.159210 0.071445
0.065304 -0.008845 0.071218
0.077954 -0.150604 0.051903
0.006916 -0.150866 0.095498
0.009386 -0.140098 0.115902
0.085273 -0.030754 0.006398
-0.019575 -0.120371 0.055071
0.037682 -0.036796 0.127165
0.002643 -0.110986 0.121640
-0.012725 -0.088969 0.116284
0.049029 0.003689 0.024275
0.039372 -0.123513 0.122452
0.029357 -0.028302 0.118889
0.091412 -0.027684 0.008973
-0.003333 -0.140536 0.091931
0.062565 -0.025362 0.122646
0.018815 -0.042572 0.124449
-0.005388 -0.130370 0.038437
0.013394 -0.121809 0.120982
0.012884 -0.153883 0.110660
0.084189 -0.145857 0.045999
-0.023209 -0.113284 0.087183
0.085063 -0.134578 0.035086
0.016828 -0.007641 0.022358
0.006517 -0.030546 0.108470
-0.018042 -0.109054 0.109381
0.011055 -0.144827 0.036382
0.075822 -0.106818 0.003727
0.028113 -0.046144 0.006819
0.078514 -0.015875 0.013733
-0.026620 -0.049389 0.029177
-0.005855 -0.131096 0.109797
-0.014978 -0.128838 0.064324
-0.024703 -0.111623 0.068411
0.057605 -0.008639 0.015063
0.104934 -0.092030 0.020064
-0.011318 -0.122104 0.034955
-0.008248 -0.056353 0.109209
0.181640 -0.091961 0.121882
0.003261 -0.124313 0.014224
-0.021320 -0.087833 0.098453
0.090108 -0.067805 0.002680
0.053847 -0.132889 0.011995
0.057860 -0.096358 0.125581
0.045408 -0.006977 0.014315
0.046527 -0.121234 0.003390
0.095495 -0.146096 0.064789
-0.018531 -0.068638 0.102824
0.005285 -0.010495 0.044930
0.001516 -0.144940 0.098436
-0.025527 -0.080029 0.021863
-0.007844 -0.047960 0.103568
0.064658 -0.124978 0.121475
0.047799 -0.137512 0.016606
0.049986 -0.160359 0.052904
0.028071 -0.017255 0.098210
0.008688 -0.112185 0.006466
0.065763 -0.117436 0.004720
0.008389 -0.021532 0.091375
0.089990 -0.154708 0.088139
-0.017759 -0.116517 0.101751
0.082146 -0.116114 0.012396
0.035490 -0.029301 0.123575
0.014599 -0.133657 0.017904
0.035938 -0.125813 0.004244
-0.013849 -0.058547 0.103000
0.017385 -0.150176 0.042198
0.083566 -0.015487 0.068418
-0.000617 -0.081791 0.123118
0.086536 -0.081840 0.003680
0.076257 -0.022400 0.105321
-0.017260 -0.047624 0.020404
0.023886 -0.132307 0.011639
0.190240 -0.088634 0.119306
0.018861 -0.157321 0.105263
0.073605 -0.102629 0.003348
-0.023187 -0.090326 0.020084
0.012866 -0.120125 0.007166
0.050144 -0.016771 0.109973
0.036004 -0.157525 0.109773
-0.016350 -0.104727 0.020668
0.014683 -0.000220 0.037054
0.028015 -0.122078 0.004714
0.045088 -0.162514 0.107591
