ply
format ascii 1.0
element vertex 154
property float x
property float y
property float z
end_header
0.067617 -0.083982 0.024131
0.017207 -0.154055 0.024771
0.059587 -0.051036 0.054664
-0.051908 -0.054745 0.007542
-0.079448 -0.156294 0.051526
-0.074361 -0.095460 0.020543
-0.102634 -0.087006 0.090390
0.057534 -0.120679 0.118926
0.027039 -0.029443 0.039856
-0.023730 -0.069804 0.129310
0.017863 -0.154908 0.027395
-0.096190 -0.083197 0.114339
-0.065280 -0.113741 0.014948
-0.011377 -0.181136 0.093169
-0.044780 -0.057519 0.127251
-0.067928 -0.067480 0.125387
-0.067034 -0.038149 0.071945
-0.038749 -0.176504 0.046033
-0.022635 -0.029008 0.018416
-0.065618 -0.039777 0.041246
-0.020561 -0.173663 0.097383
-0.097589 -0.071233 0.089926
-0.060498 -0.061612 0.126889
-0.012574 -0.028724 0.019345
-0.046560 -0.037421 0.100138
-0.081665 -0.112520 0.030964
-0.031372 -0.181585 0.061014
0.014542 -0.028920 0.083330
-0.069654 -0.124397 0.021318
-0.045970 -0.037976 0.018266
-0.017029 -0.052848 0.007901
0.001761 -0.178952 0.086512
0.017186 -0.085694 0.006664
-0.008299 -0.060231 0.121829
-0.003861 -0.091836 0.129346
0.032877 -0.144373 0.116785
-0.024917 -0.139569 0.117964
-0.104543 -0.123605 0.093087
-0.101517 -0.088102 0.108718
0.013136 -0.171181 0.093968
-0.075284 -0.075917 0.022691
-0.093135 -0.143139 0.056394
-0.096678 -0.097558 0.049909
-0.012693 -0.111971 0.002087
0.007485 -0.117816 0.126602
-0.086020 -0.065276 0.050073
-0.040797 -0.157549 0.023418
-0.082979 -0.156008 0.072644
0.060083 -0.117301 0.121337
-0.025179 -0.031779 0.092397
0.031197 -0.156722 0.065398
-0.053399 -0.174477 0.054387
-0.011741 -0.140379 0.009863
-0.068176 -0.170884 0.072273
0.039916 -0.028306 0.051446
-0.048105 -0.134665 0.014099
-0.082651 -0.106906 0.113300
-0.087623 -0.065301 0.118955
-0.090375 -0.145897 0.079494
-0.099888 -0.125550 0.065996
-0.032879 -0.122090 0.123155
-0.011039 -0.006820 0.050271
-0.057327 -0.154204 0.100377
0.041377 -0.027041 0.058377
0.038203 -0.047594 0.081312
-0.060336 -0.164368 0.046405
-0.010652 -0.056961 0.120837
0.019896 -0.036243 0.088510
-0.061590 -0.054236 0.122540
-0.098264 -0.074193 0.101360
-0.023320 -0.139237 0.009933
-0.077601 -0.154483 0.082710
-0.057598 -0.181029 0.068729
0.038557 -0.149398 0.066339
-0.076479 -0.139123 0.033458
-0.096638 -0.077097 0.114011
-0.031717 -0.020493 0.026667
-0.092941 -0.062619 0.080210
-0.091451 -0.141625 0.053150
-0.006801 -0.151865 0.016094
0.060538 -0.050064 0.041501
-0.007002 -0.169558 0.104831
0.067336 -0.101558 0.019978
0.001255 -0.062896 0.008578
-0.045016 -0.107377 0.006660
0.003352 -0.047373 0.014471
0.023798 -0.018410 0.056737
-0.057388 -0.067784 0.005380
0.003356 -0.064339 0.118872
-0.077189 -0.161285 0.059082
-0.049048 -0.146115 0.020539
-0.063683 -0.131163 0.020597
-0.079701 -0.115651 0.110735
-0.027305 -0.129540 0.007317
-0.099816 -0.090293 0.068539
0.051383 -0.117843 0.122538
-0.003838 -0.124849 0.004595
-0.052448 -0.115623 0.120986
-0.092042 -0.120041 0.047309
0.068710 -0.059459 0.038327
-0.004098 -0.080503 0.127582
-0.041048 -0.151262 0.020306
0.043733 -0.130942 0.020051
-0.086531 -0.102780 0.035542
-0.056311 -0.128295 0.115237
0.045913 -0.102362 0.008555
-0.005129 -0.013639 0.038482
0.043069 -0.120052 0.006700
0.032416 -0.154438 0.087248
0.004471 -0.068535 0.007874
0.034700 -0.097603 0.007143
-0.036794 -0.060064 0.127058
-0.098582 -0.101322 0.055226
-0.011935 -0.049390 0.115184
-0.052757 -0.028941 0.036069
-0.060648 -0.169787 0.053767
-0.042892 -0.089666 0.002618
-0.100411 -0.103137 0.106385
-0.009234 -0.137409 0.121143
-0.096795 -0.080741 0.066057
-0.034857 -0.153114 0.109627
0.037590 -0.136752 0.020361
0.011570 -0.167521 0.046696
0.004815 -0.112605 0.003325
0.059932 -0.113374 0.014437
0.014405 -0.158386 0.111518
0.014446 -0.169321 0.097735
-0.083844 -0.146654 0.047875
0.061451 -0.113343 0.039844
-0.085707 -0.058938 0.111145
0.007470 -0.135303 0.007000
0.033826 -0.125400 0.004396
-0.097945 -0.091540 0.059538
-0.005081 -0.157467 0.021695
-0.007217 -0.034375 0.097731
-0.105384 -0.118133 0.085397
-0.093366 -0.103449 0.109551
0.068528 -0.076027 0.032201
-0.013724 -0.142334 0.118106
-0.047064 -0.061978 0.004813
-0.032705 -0.144466 0.113967
-0.046887 -0.116667 0.122274
0.059887 -0.114650 0.119902
-0.048760 -0.182149 0.068025
0.065251 -0.097612 0.019495
-0.035914 -0.098829 0.002413
0.020407 -0.164694 0.093459
-0.064383 -0.045564 0.108149
-0.016470 -0.112140 0.126454
-0.037127 -0.181713 0.081507
-0.043213 -0.016863 0.037378
0.025854 -0.122045 0.004034
0.026066 -0.084028 0.008720
-0.027085 -0.184633 0.083827
