ply
format ascii 1.0
element vertex 149
property float x
property float y
property float z
end_header
0.111246 -0.042737 0.011173
0.044821 -0.008265 0.123307
0.042626 -0.124881 0.058107
0.100896 -0.053495 0.005086
-0.007466 -0.014650 0.025655
-0.010077 -0.015861 0.043586
0.019361 -0.068198 0.118547
-0.009360 -0.030178 0.071831
0.043457 0.006176 0.120151
0.226017 -0.031786 0.117124
-0.012032 -0.038473 0.067583
-0.005511 -0.089599 0.040754
0.045217 -0.125163 0.059106
-0.012869 -0.047767 0.071807
0.072595 0.022366 0.035768
0.064732 0.008063 0.121199
0.000645 -0.004197 0.057768
-0.012039 -0.053498 0.076483
0.092294 -0.108422 0.118921
0.116012 0.020841 0.090670
0.047883 0.029128 0.062784
0.030415 -0.109482 0.104373
0.026131 -0.007915 0.007574
0.096921 -0.069310 0.005471
0.019459 0.016158 0.045813
0.101341 -0.033180 0.006494
0.045605 0.019295 0.107361
0.030759 -0.015286 0.005473
0.083716 0.028425 0.063007
0.030151 -0.116339 0.021392
0.054051 -0.111904 0.110797
0.103621 -0.003279 0.016428
-0.006259 -0.057297 0.089214
0.009972 -0.000755 0.018555
0.019354 -0.032446 0.009250
0.094014 -0.117480 0.107515
0.139303 -0.096312 0.068259
0.058080 0.022754 0.030977
0.015369 -0.110626 0.065600
0.137623 -0.099685 0.077414
0.002647 -0.097723 0.029084
0.042451 -0.025302 0.126155
0.056667 0.004022 0.122105
0.001904 -0.098457 0.030568
0.107415 -0.116097 0.099224
-0.006776 -0.014866 0.062564
0.018403 -0.048638 0.122103
0.008600 -0.013543 0.100430
-0.005087 -0.089365 0.031092
0.015036 0.007387 0.078424
0.010149 -0.097670 0.090823
0.023591 0.017064 0.060827
0.228534 -0.028565 0.119706
0.046550 -0.116766 0.098068
0.087542 0.020631 0.042964
0.091175 -0.122381 0.068124
0.033259 -0.096827 0.114814
0.007656 -0.104075 0.056652
-0.013004 -0.030185 0.053223
-0.003698 -0.079797 0.078431
0.074463 0.025129 0.113260
0.022476 -0.029091 0.121326
0.060282 0.013103 0.005211
0.074528 -0.063463 0.124598
0.064398 0.027146 0.100746
0.094761 -0.024968 0.003932
0.113339 -0.030803 0.014503
0.104885 -0.012323 0.013171
0.022452 -0.086701 0.112054
0.127387 -0.049625 0.025863
0.057616 -0.126545 0.070277
0.111912 -0.010072 0.019503
0.099128 0.028085 0.094217
0.054877 0.017692 0.115256
0.043956 -0.094534 0.123808
0.095719 -0.120948 0.059976
0.004080 -0.060618 0.105200
0.064564 0.014430 0.119474
0.029817 0.007101 0.008077
0.038951 0.021827 0.095927
0.016019 -0.049515 0.119236
0.019671 -0.114426 0.064433
0.012989 -0.076822 0.106680
0.100214 -0.043903 0.004891
0.077385 -0.104717 0.006232
0.084056 -0.012090 0.004010
-0.014489 -0.021844 0.033838
0.003151 -0.084984 0.088281
-0.003945 -0.066262 0.088837
0.106004 -0.060901 0.008416
0.064287 -0.003007 0.004233
0.110554 -0.084179 0.018250
-0.001894 -0.090670 0.058759
0.022730 -0.001250 0.106342
0.219751 -0.029160 0.121079
0.005684 -0.102960 0.036547
0.008910 -0.034152 0.107541
0.090836 -0.066497 0.002336
0.054638 -0.121422 0.028380
0.000084 -0.027600 0.090137
0.054190 -0.100326 0.007105
0.047738 -0.115389 0.013141
0.111660 -0.115423 0.073182
0.044691 -0.017370 0.125113
0.012634 -0.014636 0.105887
0.114603 -0.067948 0.017111
0.022315 0.015931 0.030681
0.029320 -0.089356 0.116517
-0.017233 -0.053392 0.035800
0.054582 -0.009710 0.124233
0.116774 -0.064126 0.018222
0.021789 0.005081 0.098670
0.116671 -0.066255 0.018495
0.099117 -0.067455 0.123534
0.048935 -0.122633 0.035016
0.099902 0.007490 0.030295
0.061713 -0.127219 0.078929
-0.000477 -0.024815 0.019427
0.002856 -0.013295 0.019466
0.009751 -0.097010 0.022416
0.067893 -0.113402 0.010136
0.036730 0.024092 0.076717
0.111468 -0.114320 0.098887
0.014108 -0.059376 0.116003
0.086109 -0.108645 0.020176
0.109497 -0.080539 0.015957
0.071788 0.027604 0.105146
0.017065 -0.112720 0.040569
0.035204 -0.118493 0.017626
0.027375 -0.117813 0.070854
0.105303 0.009380 0.038198
0.036318 -0.020465 0.123735
0.062251 -0.010974 0.124312
0.087901 -0.079800 0.003871
0.107426 0.021577 0.075019
-0.007369 -0.024030 0.023488
0.024907 -0.115943 0.032753
0.228347 -0.025799 0.118475
0.047628 -0.100624 0.120098
0.075289 -0.100168 0.005197
0.075484 0.013009 0.018421
-0.015846 -0.064123 0.036946
0.083154 0.030767 0.082757
0.065698 -0.100196 0.122617
-0.010203 -0.078766 0.039610
0.030704 0.020374 0.017987
0.027314 -0.112983 0.018057
0.041457 -0.077036 0.007902
0.074089 -0.107109 0.120979
