ply
format ascii 1.0
element vertex 157
property float x
property float y
property float z
end_header
-0.006263 -0.015213 0.097025
-0.129904 0.053957 0.106746
-0.127044 0.047647 0.112902
-0.058082 -0.084039 0.100394
-0.024340 0.023231 0.081855
-0.061291 -0.051710 0.003086
-0.143417 -0.087516 0.061404
-0.097217 -0.072562 0.011795
-0.165077 -0.023461 0.018749
-0.030660 0.017947 0.042493
-0.151600 0.062386 0.076712
-0.122816 0.019044 0.124986
-0.087307 -0.085842 0.017311
-0.081378 0.030734 0.112273
-0.058404 -0.086193 0.008908
-0.178038 -0.003123 0.030670
-0.090514 -0.089617 0.023272
-0.157543 0.025937 0.084549
-0.121553 -0.050081 0.126332
-0.158433 0.053747 0.051183
-0.171311 0.033057 0.043285
-0.117615 0.008745 0.007354
-0.074708 -0.054944 0.121087
-0.114547 -0.091884 0.096668
-0.116831 0.039485 0.121437
-0.052242 -0.010688 0.006441
-0.011959 -0.050120 0.069823
-0.136452 -0.016402 0.006961
-0.093429 -0.017268 0.003558
-0.158027 -0.010595 0.013366
-0.167103 0.041849 0.043435
-0.045132 -0.007305 0.012132
-0.041214 -0.104000 0.036787
-0.123625 0.035492 0.027084
-0.119907 -0.080490 0.108713
-0.066916 0.044960 0.049240
-0.103947 -0.090528 0.031761
-0.065606 -0.030439 0.002842
-0.040078 -0.035969 0.015536
-0.107835 -0.049002 0.126410
-0.075257 0.026221 0.113100
-0.077065 -0.014621 0.125026
-0.019380 -0.047933 0.051890
-0.141844 0.051576 0.105013
-0.104319 0.005210 0.127514
-0.177400 -0.046370 0.041250
-0.178287 -0.011885 0.028666
-0.026810 -0.100915 0.048625
-0.091507 -0.064506 0.006936
-0.151272 -0.078580 0.047238
-0.133388 -0.056349 0.012355
-0.027651 -0.100866 0.037627
-0.131740 0.027365 0.119732
-0.118367 -0.035165 0.004930
-0.095404 -0.099812 0.071218
-0.157506 -0.073653 0.067834
-0.111995 0.022222 0.126459
-0.082031 0.021603 0.119231
-0.073246 -0.039780 0.123870
-0.058370 -0.087528 0.094633
-0.129906 -0.089156 0.089790
-0.059476 -0.098942 0.069060
-0.150229 -0.078861 0.086544
-0.030489 0.032044 0.053552
-0.087091 -0.099022 0.046769
-0.172698 0.015750 0.026864
-0.164555 -0.065849 0.060176
-0.156071 -0.063987 0.035521
-0.014638 0.012956 0.074692
-0.082631 0.040434 0.100783
-0.127509 0.051750 0.109140
-0.058325 0.022596 0.008968
-0.157337 -0.045050 0.092996
-0.034818 0.037169 0.056310
-0.053623 0.038220 0.075238
-0.127945 -0.091485 0.075573
-0.120074 0.055794 0.064743
-0.064406 0.032881 0.098241
-0.068719 0.046271 0.059607
-0.159712 0.039814 0.035956
-0.167375 -0.005362 0.019081
-0.160073 -0.064693 0.074362
-0.143294 -0.084727 0.097565
-0.067734 -0.033304 0.123177
-0.124392 -0.090593 0.044780
-0.176377 0.000940 0.026330
-0.061450 -0.006110 0.004526
-0.144921 -0.012535 0.008427
-0.147769 -0.079627 0.045729
-0.122698 -0.092552 0.061844
-0.014258 0.017288 0.076846
-0.092212 0.043444 0.101387
-0.124537 -0.034500 0.124920
-0.030297 0.028655 0.074423
-0.006887 -0.032776 0.103015
-0.028229 -0.035243 0.031339
-0.032214 -0.017069 0.028324
-0.040806 0.035342 0.039084
-0.063089 -0.063698 0.002623
-0.110720 0.054437 0.077496
-0.146835 -0.084551 0.069509
-0.095898 -0.098149 0.056599
-0.099598 -0.094092 0.037914
-0.124557 0.056478 0.088447
-0.046830 0.023703 0.021289
-0.103499 -0.096730 0.082110
-0.039778 0.001257 0.108684
-0.064819 -0.102300 0.051172
-0.146772 -0.040985 0.013988
-0.035251 -0.099919 0.058033
-0.137698 -0.071741 0.029578
-0.009458 0.010538 0.086733
-0.135832 0.059156 0.089621
-0.025418 -0.067326 0.101310
-0.135322 0.042948 0.112638
-0.161820 -0.017470 0.081067
-0.008739 -0.049357 0.083489
-0.048607 0.014487 0.013173
-0.008143 -0.074050 0.086167
-0.084763 -0.020904 0.125939
-0.011121 -0.050293 0.071999
-0.139513 -0.056066 0.015209
-0.133517 -0.089314 0.081807
-0.047057 -0.087862 0.006885
-0.179389 -0.022371 0.037263
-0.140495 -0.034849 0.008553
-0.146184 -0.029930 0.108077
-0.029050 -0.074473 0.097640
-0.119084 -0.054383 0.008456
-0.079382 -0.075227 0.116852
-0.132646 -0.032245 0.007115
-0.009178 -0.047211 0.101773
-0.127744 -0.005364 0.006027
-0.102569 -0.030868 0.127940
-0.141040 -0.085049 0.051264
-0.028204 -0.031956 0.112563
-0.162977 0.015874 0.021893
-0.037231 -0.095674 0.073342
-0.010861 -0.084848 0.081354
-0.138862 -0.046812 0.011496
-0.071352 -0.092474 0.088083
-0.093121 0.044763 0.043513
-0.171642 -0.048250 0.033934
-0.117467 0.030186 0.124841
-0.010552 -0.004787 0.094938
-0.069390 0.041399 0.083120
-0.105384 0.033088 0.122076
-0.136537 -0.081722 0.102471
-0.006407 -0.030541 0.099139
-0.040864 -0.095608 0.013117
-0.145381 0.031041 0.026158
-0.076194 -0.027340 0.124852
-0.136417 -0.067465 0.112889
-0.038068 -0.100716 0.028891
-0.074125 -0.005001 0.004275
-0.016528 -0.041713 0.058079
-0.129099 -0.063572 0.121637
