ply
format ascii 1.0
element vertex 155
property float x
property float y
property float z
end_header
0.050706 -0.074854 0.051347
0.004778 -0.147538 0.038367
0.031936 -0.042195 0.075582
-0.057164 -0.054081 0.004620
-0.097354 -0.148554 0.039087
-0.132684 -0.077612 0.064078
0.006009 -0.021612 0.050439
-0.074684 -0.050161 0.127373
-0.071055 -0.100300 0.007503
-0.135373 -0.072213 0.088753
-0.072403 -0.108052 0.008267
-0.085141 -0.081509 0.123984
-0.043998 -0.167116 0.098756
-0.095464 -0.039085 0.123915
-0.116069 -0.050639 0.115129
-0.094237 -0.029809 0.054320
-0.056996 -0.168521 0.047135
-0.027256 -0.089031 0.128026
-0.034681 -0.024077 0.015528
-0.080361 -0.067515 0.125580
-0.081509 -0.034701 0.024587
-0.054178 -0.159834 0.099683
-0.128072 -0.061959 0.064496
-0.110131 -0.043791 0.118535
-0.025349 -0.023175 0.019246
-0.092077 -0.106281 0.016392
-0.054338 -0.171609 0.063421
-0.019246 -0.018311 0.087674
-0.076551 -0.118863 0.011279
-0.056704 -0.036451 0.010120
-0.024096 -0.048364 0.008234
-0.029824 -0.165149 0.095515
-0.054728 -0.043132 0.119261
-0.054416 -0.072742 0.129083
-0.014295 -0.124309 0.125404
-0.065749 -0.124315 0.115094
-0.134633 -0.113931 0.068500
-0.137881 -0.077827 0.081983
-0.004332 -0.117060 0.003755
-0.020935 -0.156110 0.104685
-0.081052 -0.073901 0.009074
-0.111354 -0.135260 0.038638
-0.112893 -0.090708 0.027687
-0.013284 -0.111519 0.002131
-0.042053 -0.099687 0.127349
-0.092652 -0.059007 0.123568
-0.103285 -0.059579 0.028718
-0.050752 -0.151779 0.022945
-0.107045 -0.146805 0.057968
0.006844 -0.098185 0.121764
0.004425 -0.143787 0.082448
-0.073540 -0.165986 0.050510
-0.017322 -0.137214 0.014945
-0.092532 -0.161135 0.063212
0.014427 -0.019658 0.065612
-0.054453 -0.129331 0.010205
-0.120946 -0.095517 0.093596
-0.130311 -0.053395 0.095348
-0.116482 -0.136650 0.061497
-0.121192 -0.117759 0.044612
-0.039013 -0.126546 0.122320
-0.007818 -0.068001 0.118142
-0.076882 -0.107280 0.117492
-0.033676 0.000704 0.046920
-0.091049 -0.142118 0.091892
0.013439 -0.018204 0.072600
0.003588 -0.037190 0.093787
-0.077540 -0.156611 0.039972
-0.056874 -0.040053 0.117601
0.005224 -0.060674 0.107562
-0.016097 -0.025515 0.094598
-0.108699 -0.038440 0.109785
-0.132805 -0.064116 0.075208
-0.028680 -0.135660 0.012956
-0.105171 -0.144431 0.069047
-0.081636 -0.171284 0.063488
0.010396 -0.136402 0.085073
-0.088194 -0.132595 0.021555
-0.136077 -0.066182 0.087791
0.024187 -0.058746 0.037205
-0.063788 -0.099976 0.005879
-0.045774 -0.016198 0.019704
-0.120317 -0.054573 0.055539
-0.108750 -0.133945 0.035976
0.037203 -0.041338 0.063626
-0.015965 -0.069526 0.121258
-0.043346 -0.154605 0.109953
0.052626 -0.092100 0.046750
-0.006671 -0.057603 0.012336
-0.047047 -0.105483 0.004688
-0.007126 -0.041121 0.020359
-0.002241 -0.009792 0.064721
-0.059817 -0.066081 0.003141
-0.042748 -0.047768 0.119006
-0.097279 -0.152856 0.047358
-0.057306 -0.140509 0.016827
-0.070767 -0.125524 0.012375
-0.102754 -0.086977 0.021120
0.029862 -0.053759 0.082266
-0.117026 -0.104210 0.092564
0.030926 -0.080113 0.086691
-0.030930 -0.127053 0.006780
-0.122480 -0.082810 0.043818
-0.005555 -0.123345 0.006040
-0.095147 -0.101525 0.110410
-0.107554 -0.113663 0.028718
0.046012 -0.050648 0.063659
-0.054282 -0.061596 0.127312
0.033651 -0.123006 0.037306
-0.098031 -0.096650 0.018000
-0.095343 -0.115205 0.104573
0.038108 -0.094531 0.027011
-0.024480 -0.006708 0.038233
0.038044 -0.114679 0.016034
-0.001562 -0.138892 0.102721
0.028701 -0.090139 0.020841
-0.087519 -0.041534 0.124271
-0.116592 -0.094016 0.032262
-0.080203 -0.161374 0.047353
-0.043746 -0.088808 0.002298
-0.135621 -0.092703 0.081204
-0.052768 -0.120721 0.120922
-0.119158 -0.073163 0.041759
-0.071848 -0.139548 0.106094
0.028382 -0.128851 0.034340
-0.008765 -0.157795 0.058885
-0.051606 -0.046224 0.006968
0.003350 -0.111113 0.004439
0.048841 -0.103822 0.039280
-0.105845 -0.043731 0.048376
-0.026070 -0.141455 0.120285
-0.020688 -0.153984 0.108524
-0.100040 -0.139285 0.033681
0.040548 -0.103868 0.063887
-0.124959 -0.047584 0.088223
0.003883 -0.132265 0.013191
0.031017 -0.121872 0.009123
-0.117483 -0.084272 0.035792
-0.016121 -0.151105 0.030188
-0.044615 -0.022006 0.094087
-0.133099 -0.109045 0.060550
-0.129971 -0.092579 0.086444
0.048018 -0.066979 0.058943
-0.008278 -0.059209 0.011227
-0.049321 -0.060758 0.003883
-0.090113 -0.101671 0.113303
-0.006811 -0.046718 0.105849
-0.072909 -0.172051 0.065607
0.050736 -0.088222 0.045493
-0.036632 -0.098163 0.002141
-0.104550 -0.033886 0.092109
-0.065544 -0.169981 0.081566
-0.060276 -0.012214 0.025454
0.023760 -0.119587 0.007080
-0.056240 -0.172227 0.086706
