ply
format ascii 1.0
element vertex 156
property float x
property float y
property float z
end_header
0.042055 0.050655 0.006246
-0.041189 0.139797 0.058358
-0.074105 0.030263 0.010014
0.045310 0.017691 0.080794
-0.045433 0.129664 0.078460
-0.051562 -0.043561 0.021351
-0.053729 -0.042559 0.040917
-0.023510 0.016553 0.125142
-0.045413 -0.030682 0.073350
-0.093417 0.035760 0.102756
-0.077214 0.131336 0.060810
-0.028040 -0.035211 0.076438
0.000694 0.111706 0.040251
-0.024419 -0.052986 0.048400
-0.099898 0.061018 0.103916
-0.038080 -0.050816 0.042603
-0.024363 -0.032190 0.082404
-0.060882 0.110504 0.087430
0.013910 0.087808 0.125191
-0.095991 0.110626 0.065082
-0.100754 0.094248 0.083555
-0.096607 0.029736 0.046013
-0.015713 0.139699 0.064317
-0.093219 0.016661 0.076408
-0.081175 -0.008204 0.035798
-0.069237 -0.023649 0.025694
-0.100181 0.037921 0.088307
-0.101829 0.099502 0.075621
-0.044259 0.004924 0.001934
0.015660 -0.044603 0.058136
-0.090741 0.069130 0.040981
0.017753 0.052726 0.125129
-0.049750 0.072508 0.006788
-0.024141 -0.019347 0.098618
-0.060584 -0.026906 0.009410
-0.028060 -0.014443 0.010938
0.027937 0.087327 0.120918
0.010909 0.130257 0.077580
-0.053333 0.070042 0.008399
-0.080779 0.029029 0.017235
-0.061818 0.110863 0.038441
-0.048741 0.140438 0.068197
0.017805 0.131554 0.092416
-0.074223 0.039556 0.125728
-0.097432 0.053482 0.108034
-0.043185 -0.028842 0.012994
0.031673 -0.038449 0.049323
0.030936 0.100079 0.110573
-0.050543 -0.033344 0.064509
-0.041778 0.016334 0.125646
-0.066482 -0.003701 0.096683
0.023584 -0.045387 0.046471
-0.022920 0.134739 0.081203
-0.078956 -0.007343 0.068816
0.011034 -0.001025 0.105157
-0.085497 0.021098 0.025568
-0.000359 0.137595 0.078802
0.027618 0.040094 0.112818
-0.079100 0.061667 0.024808
0.042946 0.075982 0.080535
0.042152 0.011725 0.081570
-0.089509 0.107281 0.057671
-0.014211 0.131405 0.055478
0.028269 -0.014534 0.079357
-0.023348 0.059244 0.001028
-0.001198 -0.020135 0.094055
-0.107507 0.071311 0.088657
-0.046139 0.034749 0.126901
-0.059336 0.015938 0.120072
-0.005286 0.117354 0.099152
-0.043550 0.101895 0.100014
-0.037187 0.139395 0.058657
-0.062012 0.028812 0.000794
-0.028399 0.069200 0.123593
-0.027057 0.065030 0.002504
-0.020733 0.080521 0.008948
-0.005596 0.021322 0.123367
-0.064665 0.108126 0.037430
0.044007 0.037193 0.088888
-0.043021 0.080768 0.009556
-0.103018 0.091403 0.068723
-0.102320 0.048872 0.093751
-0.096580 0.023972 0.061475
-0.004984 0.044191 0.129124
-0.023666 -0.002787 0.114686
-0.103911 0.060928 0.099191
0.011013 0.030029 0.004905
-0.061841 -0.001098 0.004293
-0.097027 0.025959 0.080746
-0.040800 0.012885 0.123900
-0.011338 0.008322 0.117742
0.008485 0.062460 0.000209
-0.018092 0.115658 0.036926
0.053428 0.040964 0.016087
-0.021535 0.006830 0.004623
-0.037133 0.054773 0.000777
-0.047438 -0.050883 0.029822
-0.050213 0.112503 0.035978
-0.023704 0.025590 0.127185
-0.075078 -0.002353 0.008180
-0.016298 -0.020174 0.097306
-0.050831 0.126425 0.047556
-0.049324 0.034772 0.000525
0.014979 0.014626 0.113980
0.013979 -0.027128 0.080736
-0.080333 0.011428 0.096867
0.033453 -0.029688 0.057455
-0.006975 0.034404 0.127184
-0.050084 -0.000490 0.108962
0.021306 0.064475 0.000476
-0.058171 0.132611 0.054615
0.057127 0.018880 0.047577
0.022255 0.048831 0.002901
-0.049504 0.080732 0.112531
0.045443 0.016971 0.019495
-0.051559 0.024160 0.000598
0.058767 0.000726 0.032618
0.034057 0.098581 0.080450
0.036183 0.009390 0.018522
-0.067632 0.001171 0.101215
-0.095424 0.035461 0.043564
-0.078043 -0.006389 0.019888
-0.004196 0.029279 0.125314
-0.015189 -0.057450 0.042420
-0.087045 0.051941 0.116718
-0.018496 0.112130 0.100122
-0.084116 0.007434 0.088117
-0.018167 0.087616 0.117528
0.055423 0.012100 0.052680
-0.063961 -0.012244 0.084807
-0.050732 -0.034424 0.014597
0.057905 0.030227 0.024883
-0.095323 0.020228 0.062169
0.029549 0.104191 0.109300
-0.106096 0.065397 0.080071
0.041505 -0.016430 0.061501
0.041135 -0.012035 0.032869
0.057970 -0.010037 0.038470
-0.075410 0.003466 0.094587
0.032455 0.008488 0.091237
-0.067306 0.077175 0.023260
-0.076167 0.031397 0.122195
-0.008623 0.141112 0.075384
-0.042698 -0.043878 0.022338
-0.023154 0.095474 0.019370
-0.005370 0.133730 0.061216
0.001965 0.048911 0.128237
0.049899 0.040049 0.013459
-0.067267 0.045208 0.008209
-0.003285 -0.057340 0.046190
0.033139 0.102125 0.100773
0.038626 0.086328 0.075470
-0.042234 0.116252 0.089865
-0.073919 -0.001105 0.005137
0.019464 0.007897 0.013902
0.010368 0.074603 0.127251
