ply
format ascii 1.0
element vertex 162
property float x
property float y
property float z
end_header
0.044151 0.050569 0.000149
-0.018238 0.133076 0.074314
-0.070000 0.030191 0.018504
0.067402 0.010944 0.060016
0.004647 0.070378 0.004176
-0.017151 0.120399 0.093335
-0.043537 -0.044664 0.021941
-0.040982 -0.044861 0.041437
0.018906 0.005119 0.122142
-0.024114 -0.036641 0.071431
-0.056518 0.025981 0.117460
-0.023193 0.042752 0.000323
-0.052495 0.123924 0.085528
-0.006194 -0.041224 0.070407
0.015275 0.107527 0.042096
-0.011017 -0.056069 0.040858
-0.061272 0.050006 0.121860
-0.025570 -0.053278 0.038817
-0.000881 -0.038967 0.075468
0.055412 0.076957 0.119609
-0.069273 0.103209 0.092328
-0.068733 0.084409 0.108788
-0.077690 0.024858 0.063212
0.067952 0.051417 0.067371
0.007639 0.132372 0.072733
-0.049798 -0.002574 0.004451
0.038983 0.008241 0.004379
-0.065979 0.009723 0.090556
-0.067721 -0.010834 0.045063
-0.060529 -0.024512 0.031138
-0.067204 0.028515 0.105764
-0.071990 0.090690 0.102338
-0.042415 0.004665 0.002019
0.030560 -0.048891 0.041422
-0.073384 0.065106 0.061977
0.060153 0.042732 0.116021
-0.045903 0.072475 0.016135
0.005217 -0.027418 0.092634
-0.055537 -0.028043 0.013451
-0.023502 -0.014822 0.008299
0.067184 0.076632 0.111361
0.036767 0.122062 0.077339
0.019945 0.102948 0.039166
-0.073278 0.027865 0.029283
0.054519 0.088933 0.060797
-0.044733 0.107070 0.056926
-0.022851 0.132319 0.085916
0.047339 0.121932 0.089983
-0.029247 0.027619 0.128889
-0.057470 0.042302 0.123857
-0.037459 -0.029472 0.012722
0.043942 -0.041770 0.029367
0.065915 0.090115 0.099926
-0.031447 -0.038280 0.064026
0.001397 0.005475 0.125732
-0.034448 -0.011710 0.102126
0.035316 -0.048508 0.028085
0.005380 0.125623 0.090132
-0.056306 -0.012592 0.076902
0.041560 -0.010757 0.090748
-0.075069 0.018719 0.037568
0.026381 0.129070 0.082088
0.062447 0.029307 0.096991
-0.068246 0.059822 0.041545
0.066692 0.068085 0.065996
0.064415 0.004920 0.061097
-0.065606 0.101014 0.082794
0.006438 0.125284 0.062934
0.049584 -0.021452 0.060630
-0.023070 0.059283 0.001060
0.025614 -0.028235 0.081995
0.046046 0.031693 0.125389
-0.073846 0.061181 0.111901
-0.019647 0.006660 0.123283
-0.009345 0.090704 0.110492
-0.014324 0.132623 0.073445
-0.061826 0.029033 0.001240
-0.026442 0.065162 0.003276
-0.016343 0.080874 0.013079
0.035365 0.010100 0.116963
-0.047777 0.104418 0.056343
0.002652 0.095382 0.026524
0.069086 0.029313 0.070233
-0.038167 0.079573 0.018674
-0.075596 0.083631 0.095122
-0.067334 0.038998 0.112497
-0.073254 0.017983 0.077408
0.041730 0.032604 0.128481
0.011764 -0.013089 0.108580
-0.066756 0.049748 0.119186
-0.060651 -0.000917 0.004788
-0.067952 0.018168 0.096200
0.001257 0.002121 0.123748
0.008655 0.062384 0.000114
-0.003247 0.111968 0.044607
-0.006223 0.070219 0.004827
0.056702 0.040625 0.003011
-0.018386 0.007111 0.002112
-0.036911 0.054831 0.000962
-0.037597 -0.052439 0.028676
-0.034432 0.108950 0.051709
0.020819 0.013792 0.126147
-0.071748 -0.002604 0.011138
0.012036 -0.028380 0.089056
-0.030952 0.121294 0.064886
-0.049184 0.034856 0.000716
0.050408 0.004455 0.099579
0.034968 0.074731 0.018746
0.035812 -0.034096 0.064840
-0.047613 0.003512 0.106482
0.048058 -0.033883 0.037222
0.038474 0.022750 0.125436
-0.015603 -0.009505 0.109608
0.021298 0.064276 -0.000055
-0.035852 0.126357 0.074538
0.068869 0.015711 0.027474
-0.011742 0.068573 0.120749
0.050113 0.017123 0.003686
-0.051405 0.024332 0.000746
0.066198 -0.000426 0.010364
0.058706 0.090450 0.070763
0.041037 0.009366 0.004117
-0.034306 -0.007099 0.107050
-0.077437 0.030848 0.061094
-0.071383 -0.006865 0.025734
0.038897 0.017872 0.121017
-0.003553 -0.060107 0.032644
-0.044752 0.040229 0.125535
-0.053527 0.000170 0.098586
0.020559 0.076142 0.118948
0.050665 0.050546 0.125438
0.068534 0.008404 0.031746
-0.036172 -0.019184 0.089580
-0.044401 -0.035217 0.015781
0.063449 0.030238 0.007185
-0.071832 0.014217 0.077369
0.064076 0.094194 0.099421
-0.075572 0.056492 0.102991
0.057135 -0.021098 0.040328
0.049201 -0.013573 0.013655
0.066910 -0.011913 0.014873
-0.043779 -0.004226 0.102686
0.058308 0.000228 0.072741
-0.032667 0.019179 0.126112
0.017534 0.132809 0.081476
-0.043097 0.046576 0.124314
-0.034701 -0.044898 0.020755
0.012762 0.081258 0.116641
0.048783 0.054504 0.126013
-0.014643 0.094521 0.026578
0.016673 0.126914 0.066220
0.047860 0.037563 0.126549
0.052414 0.040155 0.001993
-0.063422 0.045405 0.017286
0.008860 -0.060506 0.033556
0.064469 0.092612 0.090055
-0.011043 0.105995 0.101834
0.048048 0.056172 0.126037
0.024581 -0.052652 0.035800
-0.071664 -0.001310 0.007097
0.023630 0.007985 0.003460
0.054866 0.064361 0.123787
