ply
format ascii 1.0
element vertex 156
property float x
property float y
property float z
end_header
0.029976 0.045319 0.042151
-0.077139 0.131252 0.058392
-0.005887 0.005757 0.106988
-0.000019 0.068685 0.018074
-0.090265 0.118852 0.072433
-0.061509 -0.047263 0.009004
-0.072327 -0.049365 0.024919
-0.092648 -0.004468 0.116414
-0.081180 -0.040726 0.056889
-0.141809 0.023130 0.062956
-0.024592 0.040936 0.002443
-0.109389 0.123002 0.041912
-0.066725 -0.046732 0.065942
-0.087222 0.041992 0.006591
-0.048491 -0.061611 0.042698
-0.148748 0.049387 0.062674
-0.058473 -0.058726 0.031844
-0.065985 -0.044120 0.073087
-0.108080 0.099607 0.071899
-0.058531 0.063851 0.128552
-0.126907 0.101723 0.033813
-0.139837 0.084021 0.046450
-0.112871 0.023941 0.013238
-0.051802 0.012725 0.125136
-0.058168 0.129821 0.076290
-0.126770 0.007916 0.038605
-0.094199 -0.011700 0.010552
-0.140301 0.027618 0.047549
-0.136873 0.089851 0.039393
-0.045903 0.003826 0.002055
-0.016937 -0.053887 0.068453
-0.107629 0.062726 0.014457
-0.055332 0.029328 0.127577
-0.052798 0.071222 0.006806
-0.074484 -0.034401 0.086063
-0.065180 -0.027446 0.004118
-0.035394 -0.018623 0.012493
-0.043910 0.064660 0.127246
-0.040764 0.117187 0.098695
-0.084366 0.027198 0.005298
0.001801 -0.005827 0.036978
-0.084358 0.104874 0.028544
-0.088500 0.130821 0.063104
-0.041582 0.115181 0.114793
-0.137651 0.022504 0.095007
-0.148947 0.041444 0.066834
-0.050521 -0.032329 0.008014
0.000935 -0.046860 0.068560
-0.038451 0.078584 0.125664
-0.081476 -0.042380 0.046633
-0.108370 -0.005005 0.106848
-0.113605 -0.016477 0.066494
-0.004686 -0.053430 0.061569
-0.072485 0.122441 0.086662
-0.110095 -0.015791 0.038761
-0.047361 -0.016200 0.110861
-0.103951 0.013118 0.117969
-0.092776 0.019503 0.007046
-0.051649 0.124776 0.095809
-0.026875 0.104213 0.072138
-0.041210 0.020561 0.124804
-0.088018 0.057781 0.007969
-0.011831 0.062446 0.109053
-0.008563 -0.000321 0.105618
-0.052069 0.122868 0.068280
-0.018183 -0.025838 0.095329
-0.088545 0.019287 0.125255
-0.023610 0.058611 0.001892
-0.051366 -0.034229 0.093284
-0.147777 0.060973 0.046503
-0.113970 0.015863 0.112540
-0.120107 -0.000872 0.093024
0.006764 0.054876 0.014802
-0.064894 0.101107 0.108045
-0.073794 0.130780 0.060594
-0.062096 0.028411 0.000512
-0.096551 0.050337 0.117480
-0.027532 0.064428 0.004045
-0.028490 0.079718 0.018617
-0.073154 0.000039 0.120159
-0.086299 0.102250 0.026108
-0.012772 0.023775 0.114509
-0.049068 0.079243 0.011168
-0.133924 0.082244 0.032504
-0.145281 0.037948 0.052003
-0.121919 0.016945 0.025224
-0.103949 0.024367 0.117883
-0.078605 0.019967 0.128519
-0.084088 -0.021348 0.102398
-0.149708 0.049792 0.056545
-0.133011 0.016666 0.041268
-0.105970 -0.007595 0.104951
0.007163 0.059527 0.013357
-0.044834 0.110025 0.048448
-0.060631 0.076715 0.122598
-0.010289 0.069377 0.014195
0.034380 0.034958 0.056174
-0.018870 -0.009200 0.020444
-0.026804 0.003426 0.009816
-0.037431 0.054550 0.000964
-0.061563 -0.056493 0.016742
-0.072788 0.107063 0.032060
-0.093256 0.003876 0.120225
-0.066863 -0.034513 0.089390
-0.079791 0.119375 0.042866
-0.049584 0.034593 0.000564
-0.089665 -0.001248 0.007784
-0.050349 -0.004187 0.119325
0.005313 0.071076 0.054996
-0.030357 -0.038878 0.088593
-0.002027 -0.038787 0.077544
-0.078735 0.011124 0.125170
-0.105408 -0.015535 0.086118
0.017532 0.059617 0.021355
-0.089767 0.124736 0.045971
0.021757 0.010517 0.083733
-0.109993 0.065520 0.096436
0.025670 0.010990 0.053580
-0.051688 0.023711 0.000612
0.031008 -0.006515 0.069995
-0.020728 0.084407 0.107082
0.018296 0.003681 0.047667
-0.116966 -0.012472 0.070709
-0.110568 0.029784 0.012379
-0.037406 -0.065376 0.040303
-0.144320 0.038407 0.079313
-0.076958 0.096750 0.101888
-0.125525 -0.003117 0.052843
-0.084097 0.069538 0.114940
0.017852 0.003338 0.086861
-0.058490 -0.037122 0.006619
0.033727 0.023310 0.065058
-0.064705 0.110823 0.101297
-0.121246 0.013094 0.026115
-0.049902 0.096958 0.118861
-0.039364 0.083148 0.125416
0.020942 0.045042 0.071416
-0.141910 0.055636 0.039130
0.002408 -0.025868 0.085943
0.027777 -0.017613 0.073906
-0.120521 -0.008773 0.061932
-0.021804 -0.004748 0.108921
-0.076972 0.072877 0.010904
-0.136597 0.015079 0.089379
-0.057413 0.129068 0.089465
-0.113745 0.087803 0.025236
-0.053817 -0.048694 0.013719
-0.037507 0.091937 0.028366
-0.047341 0.124141 0.077838
0.032751 0.034358 0.052027
-0.027994 -0.065514 0.048408
-0.032139 0.083352 0.120770
-0.013385 0.073411 0.103781
-0.074553 -0.001650 0.003306
0.005754 0.002485 0.035632
-0.063527 0.049867 0.128891
