ply
format ascii 1.0
element vertex 159
property float x
property float y
property float z
end_header
0.060140 -0.080231 0.038294
0.011489 -0.151793 0.030886
0.045923 -0.047712 0.066289
-0.055121 -0.054470 0.005718
-0.088956 -0.153520 0.043882
-0.077076 -0.093908 0.013769
-0.119565 -0.083752 0.077071
0.016398 -0.026409 0.045926
-0.050023 -0.061966 0.128468
0.011582 -0.152375 0.033680
-0.117909 -0.079355 0.101954
-0.068549 -0.111417 0.010233
-0.061380 -0.092648 0.125134
-0.027967 -0.175729 0.095492
-0.070829 -0.050145 0.126321
-0.093322 -0.060767 0.122014
-0.082148 -0.035147 0.063630
-0.047899 -0.173517 0.045225
-0.003032 -0.100179 0.127227
-0.029064 -0.026983 0.017290
-0.042971 -0.140715 0.013980
-0.074945 -0.037829 0.033038
-0.037837 -0.168404 0.098012
-0.114744 -0.067959 0.077322
-0.086510 -0.054422 0.124797
-0.019259 -0.026564 0.019603
-0.066873 -0.033075 0.095150
-0.087654 -0.110331 0.022397
-0.043004 -0.177821 0.061039
-0.003027 -0.024910 0.086722
-0.073513 -0.122240 0.014881
-0.052065 -0.037621 0.014224
-0.020810 -0.050953 0.008075
-0.014208 -0.173632 0.090584
0.014841 -0.083282 0.009719
-0.032417 -0.053879 0.121386
-0.029929 -0.084212 0.129389
0.009824 -0.136460 0.122800
-0.046311 -0.133835 0.116547
-0.121229 -0.120324 0.080051
-0.121758 -0.084553 0.095470
-0.038301 -0.048501 0.008216
-0.003801 -0.117716 0.003419
-0.004064 -0.165313 0.099178
-0.079230 -0.075182 0.014669
-0.103144 -0.140409 0.046099
-0.106176 -0.095222 0.037872
-0.013006 -0.111784 0.002062
-0.017913 -0.110790 0.127350
-0.068406 -0.069798 0.126073
-0.096210 -0.063094 0.039063
-0.045605 -0.155250 0.021722
-0.095965 -0.152753 0.064070
0.032704 -0.109581 0.121663
-0.044242 -0.027407 0.089431
0.018097 -0.151593 0.073749
-0.063765 -0.171389 0.051088
-0.081003 -0.167381 0.066442
0.027131 -0.024984 0.059580
-0.051375 -0.132215 0.010920
-0.103550 -0.102957 0.103481
-0.111157 -0.060904 0.108204
-0.104602 -0.142673 0.069397
-0.111778 -0.122962 0.054197
-0.018160 -0.137034 0.120523
-0.055896 -0.116591 0.120587
-0.023068 -0.003919 0.049549
-0.075139 -0.149830 0.095517
0.027332 -0.023682 0.066656
0.020523 -0.043742 0.088715
-0.069248 -0.161497 0.041753
-0.034699 -0.050655 0.120134
0.024378 -0.067424 0.101194
0.001270 -0.032304 0.092815
-0.086653 -0.047962 0.117656
-0.117566 -0.070656 0.088541
-0.025979 -0.137934 0.010498
-0.092399 -0.150913 0.074834
-0.070079 -0.177459 0.064779
0.024882 -0.144329 0.075835
-0.082799 -0.136629 0.026065
-0.118568 -0.073273 0.101427
0.032064 -0.063346 0.029342
-0.039421 -0.018796 0.023588
-0.108471 -0.059793 0.068033
-0.100960 -0.138944 0.043149
-0.011123 -0.149644 0.019110
0.049247 -0.046668 0.053608
-0.025604 -0.163775 0.107110
0.061028 -0.097599 0.033672
-0.002272 -0.060859 0.009872
-0.046158 -0.106410 0.005319
-0.001811 -0.044835 0.017493
0.010432 -0.015131 0.061819
-0.058855 -0.066870 0.003755
-0.020656 -0.058073 0.119801
-0.087817 -0.158274 0.051827
-0.053255 -0.143800 0.017189
-0.067553 -0.128883 0.015144
-0.097648 -0.091102 0.030136
-0.099998 -0.111632 0.101524
-0.029106 -0.128355 0.006540
-0.112843 -0.087836 0.055518
-0.004656 -0.124299 0.004894
-0.075279 -0.110235 0.116067
-0.100823 -0.117930 0.036818
0.057916 -0.055977 0.052003
-0.029884 -0.073136 0.127656
-0.045351 -0.149071 0.018412
0.039488 -0.127772 0.028215
-0.093419 -0.100587 0.025653
-0.077037 -0.123506 0.109949
0.042992 -0.099159 0.017138
-0.015363 -0.010887 0.039092
0.041092 -0.118276 0.010619
0.015402 -0.148213 0.095180
0.032584 -0.094742 0.012909
-0.062858 -0.052675 0.126386
-0.109026 -0.098836 0.042831
-0.035309 -0.043585 0.114229
-0.061538 -0.027174 0.029756
-0.070816 -0.166708 0.049167
-0.043364 -0.089225 0.002390
-0.119912 -0.099554 0.093608
-0.031866 -0.131014 0.121276
-0.109684 -0.078144 0.053402
-0.054262 -0.148134 0.107491
0.033618 -0.133603 0.026892
0.001588 -0.163660 0.052211
0.004219 -0.112042 0.003735
0.055672 -0.109337 0.026892
-0.094822 -0.048682 0.059036
-0.005689 -0.151994 0.116086
-0.003328 -0.163363 0.103037
-0.092603 -0.144055 0.039338
0.051792 -0.109482 0.052301
-0.107381 -0.054852 0.100464
0.005824 -0.134238 0.008708
0.032860 -0.124398 0.005746
-0.109280 -0.089079 0.046920
-0.010462 -0.155077 0.024850
-0.026995 -0.029745 0.097158
-0.120853 -0.115052 0.072206
-0.113517 -0.099702 0.097921
0.059060 -0.072388 0.046378
-0.004033 -0.062423 0.008989
-0.048512 -0.061370 0.004229
-0.069898 -0.110888 0.118204
0.011904 -0.053892 0.101909
-0.061195 -0.178440 0.065547
0.059008 -0.093683 0.032795
-0.036304 -0.098535 0.002206
0.003019 -0.158703 0.099586
-0.086115 -0.041460 0.101088
-0.041363 -0.105720 0.125764
-0.051723 -0.177361 0.080541
-0.052663 -0.015017 0.031884
0.025136 -0.121357 0.004913
-0.041977 -0.180012 0.084327
