ply
format ascii 1.0
element vertex 146
property float x
property float y
property float z
end_header
0.050975 0.070321 0.101900
0.035555 -0.073105 0.092427
0.101227 -0.048955 0.009745
-0.006858 0.012722 0.015649
-0.010227 0.020098 0.032121
0.020856 0.011985 0.118595
-0.007375 0.024873 0.064127
0.052101 0.078734 0.085235
0.227557 0.051492 0.116237
-0.011311 0.014423 0.062534
-0.011448 -0.047968 0.060411
0.038188 -0.072936 0.093349
-0.013402 0.007346 0.069394
0.138158 -0.037270 0.052178
0.076361 0.038271 0.008516
0.037295 -0.062626 0.024327
0.002517 0.037101 0.038944
-0.012647 0.004281 0.076218
0.092211 -0.028709 0.123623
0.043787 0.046475 0.121348
0.124005 0.065145 0.049936
0.054622 0.063046 0.026235
0.028156 -0.032309 0.118812
0.095396 -0.063773 0.015373
0.024727 0.046837 0.019528
0.054759 0.080593 0.068203
0.031859 -0.006320 0.005030
-0.012136 -0.041957 0.061679
0.089649 0.058563 0.025704
0.000537 0.027674 0.083571
0.019838 -0.084770 0.055709
0.053063 -0.031860 0.121188
0.103892 0.003423 0.006084
-0.006056 0.007870 0.087967
0.013048 0.017083 0.006954
0.018631 -0.015124 0.009912
0.092235 -0.041901 0.121419
0.135874 -0.051663 0.081665
0.133639 -0.041957 0.049314
0.062099 0.037550 0.007951
0.010266 -0.053606 0.092347
0.134987 -0.051020 0.091678
0.001079 -0.043999 0.036143
0.062870 0.036798 0.122231
-0.005010 -0.061279 0.054405
-0.017289 0.000601 0.032907
0.045855 0.060343 0.116839
0.066022 0.077392 0.089791
-0.005714 -0.061043 0.056065
0.103749 -0.047888 0.117918
-0.005087 0.031755 0.049206
0.020468 0.032097 0.119272
0.013839 0.053587 0.080330
-0.011573 -0.052026 0.051664
0.020079 0.058050 0.051285
0.007816 -0.028124 0.108088
0.028652 0.055683 0.032118
0.054945 0.044820 0.013617
0.230100 0.054677 0.118823
0.045270 -0.041635 0.118737
0.091697 0.040606 0.014401
0.085679 -0.070109 0.097424
0.002303 -0.052522 0.082145
-0.005999 -0.017660 0.088612
0.084623 0.086034 0.069101
0.025136 0.050661 0.108520
0.060388 0.015792 0.002715
0.076288 0.016694 0.123397
0.073679 0.081616 0.057722
0.094612 -0.022739 0.003600
0.113364 -0.021678 0.012852
0.126393 -0.034433 0.030373
0.051086 -0.068770 0.103293
0.112941 -0.000962 0.009438
0.108100 0.074574 0.050087
0.064531 0.082700 0.074950
0.047892 0.069193 0.040095
0.046075 -0.011282 0.124404
0.089824 -0.073650 0.090117
0.004080 0.012560 0.104048
0.074487 0.081478 0.080185
0.047316 0.077394 0.057874
0.014289 -0.057759 0.092997
0.088833 -0.052232 0.005188
0.100321 -0.039932 0.007010
0.068960 -0.090470 0.034900
-0.015523 -0.017200 0.061495
0.032899 -0.022440 0.008525
0.084215 -0.009769 0.003312
-0.015203 0.010672 0.025439
0.030542 0.010034 0.121909
0.000610 -0.018280 0.099577
-0.004658 -0.000634 0.091969
0.104487 -0.054049 0.017795
0.019061 -0.030374 0.114184
0.105893 -0.067541 0.038533
-0.006159 -0.039169 0.077149
0.029054 0.065952 0.079910
0.221302 0.054063 0.120272
-0.001637 -0.062284 0.063542
0.011831 0.038620 0.097437
0.090506 -0.063457 0.007717
0.004039 -0.026914 0.102009
0.044613 -0.089552 0.063012
0.003227 0.037665 0.078091
0.045470 -0.081994 0.032806
0.036794 -0.091231 0.047098
0.107202 -0.064590 0.096885
0.017654 0.054890 0.085822
0.125495 0.031936 0.029081
-0.020818 -0.016669 0.041046
0.028551 0.067077 0.070011
0.039041 -0.086327 0.069620
0.101092 0.019442 0.009828
0.056139 -0.064190 0.110356
-0.001694 -0.000536 0.015176
0.003684 0.009054 0.010707
0.001411 -0.064923 0.047873
0.057131 -0.093797 0.042452
0.043902 0.068830 0.040519
0.108149 -0.047596 0.117187
0.016006 0.019413 0.116182
0.077237 -0.086624 0.050319
0.104998 -0.066093 0.034420
0.081658 0.083769 0.060774
0.009203 -0.069838 0.071578
0.024362 -0.089259 0.053408
0.022200 -0.058283 0.099409
0.108164 0.025536 0.013952
0.040345 0.062722 0.110656
0.084297 -0.073421 0.019016
0.113668 0.057717 0.037432
-0.008321 0.003429 0.017873
0.125445 -0.017163 0.023744
0.015837 -0.078012 0.065580
0.229899 0.057453 0.117618
0.073764 0.051235 0.120988
0.067911 -0.087371 0.030735
-0.019600 -0.025690 0.046816
0.106575 -0.053730 0.111373
0.091181 0.071990 0.040205
-0.015377 -0.038246 0.054865
0.034588 0.029440 0.004850
0.016999 -0.083149 0.051268
0.036428 -0.058931 0.022420
0.075101 -0.024025 0.124296
