ply
format ascii 1.0
element vertex 155
property float x
property float y
property float z
end_header
0.027433 -0.061151 0.073513
-0.006830 -0.075805 0.102723
-0.016366 -0.134650 0.058163
0.004508 -0.025023 0.085713
-0.059768 -0.052955 0.003211
-0.115000 -0.133981 0.038574
-0.151540 -0.060088 0.041036
-0.013003 -0.009370 0.051823
-0.116193 -0.016676 0.123504
-0.076279 -0.094750 0.006023
-0.040673 -0.054790 0.123637
-0.160563 -0.050077 0.063008
-0.077797 -0.102344 0.007424
-0.124489 -0.049020 0.114547
-0.077886 -0.139862 0.109784
-0.134251 -0.007983 0.103073
-0.150037 -0.022791 0.089193
-0.110467 -0.016338 0.032823
-0.078590 -0.152195 0.059320
-0.069903 -0.055753 0.128030
-0.043764 -0.019426 0.009647
0.013943 -0.079879 0.038002
-0.088602 -0.028707 0.008684
-0.087776 -0.132676 0.107305
-0.146659 -0.044941 0.040084
-0.145618 -0.014850 0.092913
-0.035300 -0.017750 0.015111
-0.026633 -0.115939 0.006349
-0.100673 -0.097540 0.011211
-0.080281 -0.151491 0.075529
-0.046690 0.001905 0.080055
-0.084496 -0.111380 0.010987
-0.062880 -0.034204 0.004122
-0.031568 -0.044472 0.008794
-0.063537 -0.138588 0.109185
-0.033961 -0.055756 0.120601
-0.031528 -0.101363 0.116867
0.000987 -0.071092 0.026786
-0.097321 -0.039193 0.127318
-0.056267 -0.090648 0.127128
-0.006341 -0.114577 0.007300
-0.068578 -0.127418 0.118937
-0.156190 -0.094224 0.050997
-0.161314 -0.056958 0.057066
-0.007305 -0.115844 0.007242
-0.055972 -0.127713 0.118122
-0.084517 -0.070960 0.005589
-0.127116 -0.120710 0.032597
-0.121995 -0.079603 0.013484
-0.014457 -0.110915 0.003449
-0.084511 -0.066650 0.126741
-0.131925 -0.027988 0.107683
-0.112078 -0.051576 0.011772
-0.064864 -0.141703 0.033619
-0.128347 -0.128327 0.053926
-0.101906 -0.033665 0.014196
-0.063995 -0.073886 0.127644
-0.036005 -0.067149 0.122450
-0.062389 -0.147723 0.064457
-0.026909 -0.120226 0.100852
-0.018082 -0.134392 0.051638
-0.095353 -0.148871 0.057985
-0.029247 -0.130949 0.027905
-0.116223 -0.141441 0.064976
-0.008831 -0.004249 0.068096
-0.064173 -0.123358 0.015105
-0.148485 -0.071688 0.075400
-0.156848 -0.030368 0.067110
-0.137913 -0.117997 0.053041
-0.136996 -0.102742 0.032522
-0.078277 -0.094472 0.124663
-0.046064 -0.038679 0.119409
-0.049462 0.011023 0.033603
-0.121316 -0.117022 0.089171
-0.011663 -0.001673 0.074201
-0.026919 -0.015742 0.094810
-0.096321 -0.141937 0.045234
-0.030071 -0.036071 0.112166
-0.045854 -0.003778 0.088903
-0.140943 -0.011806 0.083854
-0.154079 -0.044782 0.049446
-0.129211 -0.123977 0.064460
-0.106603 -0.151366 0.069332
-0.022106 -0.112695 0.103175
-0.100426 -0.122435 0.020909
-0.160662 -0.044341 0.060749
0.006633 -0.047758 0.049756
-0.054090 -0.012895 0.009833
-0.136214 -0.040380 0.031800
-0.123897 -0.120014 0.030414
0.012776 -0.026052 0.075762
-0.055157 -0.039095 0.121399
-0.079261 -0.125783 0.118659
0.029999 -0.078737 0.071533
-0.014899 -0.051128 0.017453
-0.049152 -0.104708 0.005004
-0.017996 -0.033619 0.023993
-0.023980 0.005074 0.060883
-0.061595 -0.064931 0.002413
-0.116749 -0.136481 0.047385
-0.069107 -0.131999 0.023835
-0.079482 -0.117922 0.014164
-0.109935 -0.077383 0.009525
0.000211 -0.035360 0.093070
-0.034449 0.004452 0.041281
-0.144773 -0.080453 0.076846
-0.001622 -0.060452 0.101361
-0.039768 -0.124591 0.014318
-0.135823 -0.069622 0.024734
-0.010964 -0.120732 0.015190
-0.119650 -0.102322 0.020141
0.020701 -0.035363 0.079557
-0.096818 -0.027578 0.124915
0.013946 -0.111461 0.060161
-0.105618 -0.087653 0.009765
-0.127749 -0.088242 0.094982
0.022139 -0.084569 0.048587
-0.038846 0.002314 0.029689
0.025126 -0.106455 0.039540
-0.037286 -0.111873 0.118090
0.015531 -0.080872 0.039423
-0.127183 -0.081948 0.017157
-0.100796 -0.144877 0.052465
-0.008793 -0.064753 0.105559
-0.159625 -0.071224 0.059545
-0.131793 -0.060470 0.021831
-0.105814 -0.111686 0.106566
0.009697 -0.117423 0.055782
-0.034832 -0.140052 0.077214
-0.000615 -0.110033 0.010373
0.028192 -0.091327 0.064786
-0.120571 -0.030922 0.026875
-0.065470 -0.108707 0.125384
-0.056411 -0.125056 0.121695
-0.115430 -0.125986 0.031252
0.013059 -0.087725 0.085860
-0.149345 -0.026018 0.060844
-0.006409 -0.125943 0.028880
0.010493 -0.102341 0.024985
0.021068 -0.114821 0.031603
-0.128530 -0.072131 0.018570
-0.033751 -0.139095 0.046672
-0.073088 0.000310 0.080468
-0.152514 -0.090982 0.042919
0.022868 -0.052174 0.078556
-0.040066 -0.022128 0.105315
-0.140436 -0.090513 0.077083
-0.098730 -0.151371 0.073729
0.028762 -0.075066 0.069258
-0.037239 -0.097805 0.002216
-0.130770 -0.011648 0.067490
-0.095482 -0.145992 0.090073
-0.069787 -0.008682 0.009874
0.005635 -0.067937 0.034089
-0.087339 -0.147100 0.097355
