ply
format ascii 1.0
element vertex 157
property float x
property float y
property float z
end_header
0.044511 0.050057 0.000508
0.000571 0.081860 0.117071
-0.015724 -0.043990 0.121749
-0.064567 0.022591 0.026294
0.076991 -0.010308 0.041213
0.004955 0.069903 0.007754
-0.039859 -0.050489 0.003225
-0.034886 -0.058796 0.020271
0.045533 -0.055120 0.101791
-0.012857 -0.064887 0.046691
-0.031248 -0.034794 0.112388
-0.022984 0.042500 0.000488
-0.030829 0.063905 0.125640
0.005450 -0.067697 0.042588
0.027025 0.078107 0.072249
-0.005212 -0.067910 0.011559
-0.031944 -0.020474 0.127370
-0.019836 -0.064968 0.012988
0.011937 -0.067408 0.046723
-0.035273 0.060202 0.008558
-0.056354 0.037275 0.017619
0.081265 0.014525 0.121532
0.017121 -0.047757 0.126474
-0.043471 0.043378 0.125374
-0.040200 0.017315 0.127744
-0.061302 -0.006969 0.068576
0.024910 0.083113 0.112397
-0.046761 -0.031612 0.086109
-0.058439 -0.028355 0.038411
-0.054773 -0.034922 0.022446
-0.015830 0.068496 0.013433
-0.042176 -0.026416 0.107220
-0.043781 0.027999 0.127162
0.036131 -0.059490 0.011529
-0.056028 0.027607 0.084627
0.084341 -0.014798 0.106929
-0.039588 0.059684 0.037182
0.022020 -0.065492 0.064111
-0.052636 -0.032407 0.004909
-0.021096 -0.017824 0.000220
0.089890 0.019759 0.112924
0.054526 0.073490 0.108746
-0.042488 0.056004 0.036953
0.031211 0.076074 0.066781
-0.064580 0.014341 0.037384
0.067888 0.053850 0.076755
-0.029023 0.066431 0.094073
-0.002923 0.074095 0.125074
0.065252 0.066756 0.119324
0.001196 -0.047994 0.127065
-0.029719 -0.028160 0.124806
-0.034711 -0.032825 0.000508
0.047883 -0.047311 0.003668
0.085235 0.037489 0.109717
-0.021468 -0.062768 0.040833
0.029225 -0.059462 0.106852
-0.014998 -0.057854 0.083221
0.039324 -0.053443 -0.000082
0.025298 0.068878 0.123403
-0.042574 -0.044589 0.065042
0.041596 -0.049618 0.123138
0.005385 0.071552 0.015868
-0.065171 0.002683 0.043225
0.045208 0.076745 0.117023
-0.055872 0.036019 0.063171
0.078730 0.033279 0.069062
0.074060 -0.016462 0.040191
-0.042839 0.046567 0.116724
0.022353 0.082376 0.100700
0.059155 -0.041747 0.034848
0.059842 -0.040335 0.124960
-0.022842 0.058999 0.001687
0.068301 -0.038955 0.117641
0.040100 -0.058878 0.051090
0.074264 -0.032268 0.117657
-0.043902 -0.003452 0.126463
-0.061510 0.028572 0.001554
0.041884 -0.007763 0.125346
-0.025885 0.064413 0.004787
-0.010037 0.073326 0.034639
-0.032028 0.064061 0.092646
0.011149 0.077149 0.053567
0.080307 0.000989 0.056248
-0.031850 0.064556 0.042095
-0.049727 0.024441 0.121256
-0.055461 -0.018743 0.077917
0.072420 -0.034859 0.122659
0.073935 0.039102 0.062401
0.032922 -0.061085 0.081828
-0.037442 -0.016897 0.126476
-0.058847 -0.003291 0.002286
-0.047165 -0.027376 0.094141
0.028521 -0.060504 0.103065
0.008882 0.062236 0.000415
0.009518 0.080010 0.079466
0.069728 0.025267 0.122258
-0.005888 0.069609 0.006569
0.057188 0.039756 0.002750
-0.017180 0.004719 -0.000026
-0.036722 0.054651 0.001423
-0.033177 -0.060337 0.005354
0.049785 -0.052190 0.110353
-0.068305 -0.007000 0.010039
0.028126 -0.063943 0.059940
-0.013736 0.075704 0.105133
0.014919 0.070668 0.019734
0.069715 -0.036584 0.075645
0.038737 0.065183 0.030434
0.046023 -0.055811 0.035062
0.081284 0.038915 0.091507
0.053720 -0.042922 0.011695
0.067155 -0.040868 0.113197
0.021555 0.064091 0.000180
-0.016500 0.074439 0.116610
0.072835 0.008360 0.017158
-0.051227 0.024005 0.000728
0.067286 -0.000747 0.001256
0.073167 0.050141 0.085540
-0.007173 -0.045600 0.125183
-0.014083 -0.056457 0.089938
-0.061524 -0.000651 0.068758
0.018647 -0.050035 0.123368
-0.065751 -0.015439 0.023099
0.001266 -0.067825 0.001780
0.021667 0.073043 0.037260
-0.033376 -0.043939 0.088866
0.023512 0.072294 0.036664
-0.046578 0.050536 0.053140
-0.041434 -0.039519 0.002135
0.064399 0.028930 0.005126
-0.054169 -0.022099 0.076056
0.083082 0.040972 0.111523
0.061936 0.041671 0.023268
0.034722 0.066380 0.029174
-0.049896 -0.002569 0.118293
0.063158 -0.031962 0.018221
0.050897 -0.015008 0.000444
0.068662 -0.012978 0.001523
-0.024007 -0.051216 0.088837
0.070977 -0.026663 0.049388
-0.003933 -0.051776 0.119021
0.036179 0.079528 0.119361
0.035661 0.057242 0.002066
-0.031242 -0.049960 0.001147
0.037998 0.016552 0.125147
-0.006054 0.075743 0.055432
0.033108 0.082252 0.103116
0.076586 -0.027354 0.120642
-0.058147 0.036122 0.030098
0.013701 -0.068083 0.001094
0.081770 0.044122 0.102563
-0.054304 0.016983 0.104120
-0.061743 0.028225 0.008084
0.078525 -0.008685 0.123035
0.029813 -0.061008 0.005212
-0.068962 -0.004428 0.006410
0.083035 0.000686 0.121499
