ply
format ascii 1.0
element vertex 150
property float x
property float y
property float z
end_header
0.045925 0.083017 0.091171
0.030977 -0.060998 0.097526
0.100984 -0.047037 0.013595
-0.007766 0.015447 0.011381
-0.012417 0.024320 0.026723
0.014351 0.027614 0.116084
-0.011000 0.033629 0.057929
0.048117 0.089662 0.074000
0.220601 0.068786 0.116057
-0.014978 -0.040687 0.061279
0.033574 -0.060674 0.098499
-0.017721 0.015640 0.064010
0.135662 -0.029548 0.058065
0.075517 0.039294 0.006590
0.035189 -0.059163 0.028513
0.000072 0.041985 0.031854
-0.017369 0.013305 0.071149
0.085573 -0.011952 0.123804
0.037573 0.062220 0.115247
0.121405 0.072233 0.043249
0.052946 0.065761 0.017999
0.021980 -0.016127 0.119249
0.027851 0.002420 0.004937
0.094014 -0.061249 0.020343
0.023681 0.048718 0.012487
0.051461 0.089456 0.056854
0.031419 -0.005419 0.005104
-0.015800 -0.034591 0.061893
0.087821 0.061941 0.019269
-0.003881 0.039062 0.076936
0.016571 -0.077383 0.061798
0.046562 -0.015004 0.121494
0.103492 0.004407 0.006327
-0.011331 0.018579 0.082453
0.012533 0.018074 0.005570
0.017673 -0.013141 0.009367
0.085966 -0.024769 0.122275
0.131697 -0.040006 0.087690
0.131356 -0.034618 0.055464
0.012779 -0.018932 0.112439
0.061733 0.038435 0.006206
0.005549 -0.041938 0.094435
0.130262 -0.038296 0.097580
-0.001538 -0.039179 0.037226
-0.008251 -0.054449 0.057136
-0.019767 0.004635 0.028572
0.039714 0.075873 0.106593
0.061840 0.088974 0.079230
-0.009022 -0.054035 0.058727
0.097256 -0.031179 0.119584
-0.007909 0.038328 0.042436
0.013112 0.047166 0.112295
0.009821 0.064112 0.070726
-0.014714 -0.045621 0.053031
0.017359 0.064632 0.041936
0.002169 -0.014475 0.107564
0.026802 0.059766 0.023902
0.054084 0.045934 0.009087
0.223151 0.071963 0.118643
0.039096 -0.025313 0.119263
0.090491 0.042729 0.011146
0.080645 -0.056498 0.103412
0.120717 0.063932 0.038442
-0.001812 -0.042235 0.084052
0.086736 -0.024950 0.004762
-0.010814 -0.006719 0.086307
0.081160 0.095115 0.058313
0.034733 0.049222 0.118139
0.020145 0.064636 0.099822
0.060257 0.015993 0.002621
0.069879 0.033099 0.122744
0.070584 0.089162 0.047135
0.094266 -0.021889 0.004329
0.112657 -0.019445 0.015677
0.125060 -0.029719 0.035416
0.046045 -0.054870 0.108322
0.112406 0.000835 0.010437
0.105450 0.081448 0.041712
0.060912 0.092376 0.063808
0.045692 0.074111 0.030422
0.039527 0.005722 0.124020
0.085100 -0.060946 0.096888
-0.001981 0.025625 0.098555
0.044425 0.084846 0.046785
0.011003 0.044772 0.110002
0.009616 -0.045881 0.095679
0.088482 -0.050542 0.007231
0.100114 -0.037272 0.009859
0.066681 -0.085446 0.043195
-0.019320 -0.010005 0.059035
0.032157 -0.020299 0.008568
0.084019 -0.009301 0.003447
-0.017006 0.014018 0.020539
0.023592 0.026123 0.120488
-0.004845 -0.005957 0.097579
-0.010042 0.010602 0.087636
0.103093 -0.051555 0.022557
0.013188 -0.015417 0.114364
0.103510 -0.062084 0.045378
-0.010170 -0.029694 0.077387
0.025233 0.076252 0.069514
0.214350 0.071350 0.120109
-0.005211 -0.054342 0.066434
0.006822 0.051464 0.089804
0.089917 -0.061464 0.012319
-0.001357 -0.014114 0.101186
0.041299 -0.081268 0.070388
-0.000771 0.048227 0.070251
0.043218 -0.077285 0.039531
0.033827 -0.084933 0.054537
0.102007 -0.051077 0.103095
0.025491 -0.034853 0.017821
0.013434 0.066097 0.076120
0.123803 0.036687 0.026773
-0.023728 -0.011785 0.038441
0.025098 0.076113 0.059603
0.035384 -0.077194 0.076380
0.100277 0.020954 0.008353
0.050802 -0.049130 0.114776
-0.002918 0.001894 0.012460
0.002731 0.011072 0.008017
-0.001686 -0.058713 0.051253
0.054596 -0.087839 0.050616
0.041681 0.073797 0.030748
0.101763 -0.030986 0.119258
0.009569 0.034031 0.111045
0.074733 -0.079672 0.058358
0.102897 -0.061168 0.041070
0.078498 0.091809 0.050181
0.005432 -0.060765 0.075614
0.021187 -0.082075 0.060168
0.017263 -0.045621 0.102235
0.107248 0.027611 0.011583
0.034617 0.076752 0.099975
0.082618 -0.070582 0.025481
0.111475 0.063132 0.031530
-0.009676 0.006293 0.014325
0.124369 -0.013440 0.026647
0.012252 -0.069522 0.070704
0.222949 0.074740 0.117441
0.068161 0.068469 0.121008
0.065842 -0.082888 0.038627
-0.022662 -0.020031 0.045220
0.100546 -0.037838 0.115146
0.088897 0.077375 0.031680
-0.018770 -0.031675 0.054586
0.034492 0.029792 0.004370
0.013825 -0.076286 0.057136
0.034439 -0.055703 0.026226
0.068410 -0.006689 0.124174
