ply
format ascii 1.0
element vertex 143
property float x
property float y
property float z
end_header
0.111246 -0.037242 0.009707
0.053321 0.044165 0.112790
0.062832 0.025591 0.009083
0.041578 -0.094057 0.081562
0.101360 -0.051376 0.006850
-0.006030 0.003179 0.020566
-0.008477 0.007707 0.038109
0.026094 -0.016348 0.119154
-0.005089 0.005084 0.069783
0.052495 0.056614 0.099551
0.232993 0.022212 0.116536
-0.008598 -0.004466 0.067375
-0.006667 -0.064042 0.055597
0.044207 -0.094026 0.082486
-0.009878 -0.012259 0.073513
0.076486 0.034755 0.016317
0.003587 0.023514 0.047491
-0.008914 -0.016330 0.079668
0.097576 -0.057192 0.122855
0.124314 0.052469 0.062248
0.054322 0.053726 0.038888
0.033972 -0.060657 0.117168
0.028030 -0.001194 0.005887
0.097609 -0.066413 0.009565
0.024179 0.038150 0.029476
0.054735 0.061998 0.083154
0.032116 -0.009502 0.005063
0.089693 0.050289 0.037158
0.003375 0.003831 0.089210
0.025880 -0.098440 0.043855
0.058814 -0.061022 0.119726
0.104217 0.001771 0.006495
-0.001970 -0.015221 0.091971
0.012712 0.011807 0.010599
0.020053 -0.021638 0.009840
0.097809 -0.070003 0.118745
0.140750 -0.068484 0.074374
0.136926 -0.051138 0.041730
0.062068 0.034230 0.014132
0.015640 -0.075690 0.085343
0.140023 -0.069386 0.084314
0.005348 -0.055637 0.031812
0.000042 -0.076032 0.046967
0.050150 0.029523 0.123824
0.066379 0.054814 0.103377
-0.000609 -0.076153 0.048655
0.109855 -0.073880 0.112288
-0.003428 0.015638 0.056432
0.025507 0.004110 0.120987
0.015270 0.030939 0.090484
-0.006933 -0.066777 0.046311
0.020646 0.041919 0.062855
0.013122 -0.053958 0.105099
0.028621 0.043908 0.043233
0.235526 0.025408 0.119123
0.051078 -0.069768 0.115052
0.091882 0.035269 0.022397
0.091585 -0.090789 0.086869
0.007500 -0.072638 0.075521
-0.001371 -0.040437 0.088278
0.084472 0.068048 0.084874
0.029020 0.022327 0.116945
0.060465 0.015172 0.003148
0.081522 -0.011498 0.123888
0.073529 0.065468 0.073126
0.094866 -0.023604 0.003188
0.113866 -0.024686 0.010312
0.105290 -0.007967 0.006647
0.028394 -0.036266 0.117902
0.128361 -0.039987 0.025058
0.057406 -0.091852 0.092845
0.113374 -0.003634 0.009713
0.108095 0.061326 0.064177
0.064548 0.063056 0.089955
0.051140 -0.040478 0.124488
0.095702 -0.092638 0.078755
0.009434 -0.013260 0.107763
0.074659 0.061248 0.094859
0.030903 0.012731 0.005561
0.047098 0.060405 0.072601
0.019709 -0.079872 0.085171
0.100326 -0.042333 0.005288
0.074544 -0.097734 0.022230
-0.013453 -0.000796 0.030499
0.035787 -0.018212 0.122521
0.005793 -0.042761 0.098811
-0.000269 -0.024130 0.094461
0.106675 -0.056716 0.012063
0.064362 -0.001525 0.003401
0.109991 -0.074856 0.029128
-0.001423 -0.058776 0.073196
0.029864 0.043845 0.091907
0.226733 0.024797 0.120544
0.003595 -0.078656 0.055645
0.015068 0.012792 0.104123
0.090997 -0.065465 0.004195
0.050668 -0.103363 0.050106
0.005404 0.014819 0.085719
0.050680 -0.090247 0.022041
0.042812 -0.102082 0.034094
0.112995 -0.084401 0.087447
0.052496 0.036421 0.119170
0.019345 0.031391 0.095964
0.114750 -0.059941 0.023111
0.025921 0.030562 0.018321
-0.017387 -0.030220 0.041450
0.063437 0.042938 0.113548
0.028939 0.047037 0.082522
0.116743 -0.057806 0.023814
0.045195 -0.101800 0.057209
0.101991 0.016504 0.014310
0.062305 -0.088979 0.100725
-0.000051 -0.009217 0.017791
0.004412 0.001347 0.014362
0.006512 -0.078156 0.039888
0.063078 -0.103200 0.029315
0.043656 0.055512 0.054137
0.114116 -0.073010 0.111356
0.020770 -0.008531 0.117459
0.082777 -0.096859 0.037809
0.108833 -0.072500 0.025538
0.081440 0.067263 0.076409
0.014854 -0.087242 0.062012
0.030523 -0.102181 0.040745
0.027818 -0.081470 0.091562
0.108678 0.021448 0.019735
0.044324 0.033766 0.119863
0.087874 -0.076364 0.010404
0.114095 0.047448 0.048415
-0.006764 -0.006408 0.021414
0.126769 -0.021855 0.021315
0.021737 -0.093845 0.054804
0.235330 0.028181 0.117911
0.073131 -0.093867 0.018928
0.076851 0.018455 0.007204
-0.015920 -0.040167 0.045585
0.112722 -0.077439 0.103911
0.091033 0.060291 0.054086
-0.010933 -0.053704 0.051625
0.034061 0.027644 0.006273
0.022939 -0.096128 0.039799
0.040452 -0.065883 0.016047
0.080449 -0.053669 0.123920
