ply
format ascii 1.0
element vertex 138
property float x
property float y
property float z
end_header
0.027576 -0.155476 0.020789
0.089245 -0.056172 0.020582
-0.034182 -0.050103 0.019393
-0.042910 -0.060490 0.031343
-0.042901 -0.149373 0.082685
-0.052138 -0.088387 0.046731
-0.035952 -0.079335 0.117564
0.141135 -0.120352 0.118378
0.055518 -0.032540 0.017505
-0.049478 -0.093385 0.039454
0.058410 -0.068767 0.128876
-0.014248 -0.119867 0.007103
0.029469 -0.156412 0.022629
-0.049111 -0.102388 0.038514
0.023179 -0.019240 0.074084
-0.041950 -0.058027 0.051467
-0.049135 -0.109818 0.040694
0.036223 -0.179718 0.094984
0.036175 -0.055615 0.127368
-0.012825 -0.031285 0.085847
-0.010769 -0.173720 0.061488
0.001203 -0.027083 0.018626
-0.026841 -0.033848 0.057291
-0.027919 -0.037426 0.043159
0.030545 -0.171130 0.102355
-0.031505 -0.063121 0.113960
0.020798 -0.059798 0.127828
0.010595 -0.028200 0.014709
0.018434 -0.031455 0.102084
-0.052635 -0.106414 0.061150
0.003670 -0.179369 0.073414
0.064335 -0.027162 0.061870
-0.049563 -0.121093 0.049871
-0.020911 -0.032954 0.026666
-0.001438 -0.052756 0.009099
0.045361 -0.178956 0.083018
0.012103 -0.016597 0.064880
-0.003189 -0.149661 0.021280
-0.039447 -0.113462 0.123333
0.059748 -0.171563 0.084265
-0.048815 -0.069659 0.047357
-0.051687 -0.134389 0.092419
-0.054150 -0.088563 0.082925
-0.011522 -0.112818 0.003237
-0.042242 -0.057924 0.076515
-0.023682 -0.155668 0.042631
-0.035281 -0.147985 0.102714
-0.029346 -0.040706 0.070985
0.143639 -0.117079 0.120941
0.033504 -0.026494 0.086064
0.061037 -0.159378 0.049519
-0.019458 -0.170065 0.075479
-0.024230 -0.164049 0.097513
0.072259 -0.031595 0.021908
-0.034669 -0.133600 0.034828
-0.008084 -0.062291 0.127744
-0.037301 -0.137077 0.110056
-0.051280 -0.115134 0.100676
0.040433 -0.117972 0.125365
0.027866 -0.004746 0.040192
0.000559 -0.147732 0.115163
-0.014085 -0.052892 0.119417
0.076834 -0.029477 0.027051
-0.028999 -0.159757 0.070864
0.062375 -0.052665 0.109859
0.071511 -0.034224 0.064893
0.018017 -0.050909 0.126464
-0.025588 -0.067664 0.122307
-0.015001 -0.139213 0.021392
-0.025281 -0.146764 0.108341
-0.017207 -0.175662 0.090773
0.068473 -0.153302 0.046214
-0.048906 -0.133493 0.065008
-0.018168 -0.072935 0.126581
-0.002185 -0.016992 0.028926
-0.032471 -0.054186 0.104931
-0.051742 -0.133303 0.088603
0.002087 -0.152268 0.020688
0.083143 -0.057158 0.009189
0.046620 -0.167944 0.102504
0.074724 -0.107104 0.004826
0.019226 -0.049473 0.007698
0.061067 -0.019415 0.032331
-0.041857 -0.061557 0.019779
-0.037892 -0.154293 0.088937
-0.032389 -0.143964 0.042778
-0.044605 -0.128091 0.047398
0.039512 -0.014149 0.030880
-0.020196 -0.130190 0.018654
-0.046029 -0.080525 0.099818
0.134867 -0.117653 0.122258
-0.000941 -0.125628 0.005984
0.023637 -0.112312 0.126184
-0.053397 -0.110898 0.080990
0.087183 -0.067844 0.005770
0.050272 -0.134649 0.009235
-0.053233 -0.095593 0.066082
0.013671 -0.122213 0.125400
0.027552 -0.012958 0.027765
0.045437 -0.121681 0.002710
0.073826 -0.157218 0.067539
0.043686 -0.057477 0.125192
-0.053291 -0.092018 0.088774
0.058501 -0.046098 0.103247
-0.017912 -0.024135 0.047103
-0.025953 -0.164954 0.077778
-0.034976 -0.089458 0.009486
-0.027171 -0.097234 0.125122
-0.044046 -0.071522 0.095443
0.026049 -0.147926 0.116784
0.043587 -0.139920 0.011702
0.034800 -0.169343 0.042404
-0.009362 -0.038943 0.101205
0.064188 -0.118000 0.004341
-0.026618 -0.043274 0.089497
0.062697 -0.169591 0.086888
-0.048126 -0.139242 0.080639
0.076107 -0.118245 0.016140
-0.009151 -0.054421 0.124951
0.010417 -0.136464 0.008039
0.034913 -0.126225 0.003365
-0.049523 -0.082064 0.091654
0.006554 -0.158246 0.026199
0.052150 -0.030903 0.085596
-0.043882 -0.107868 0.117214
-0.019479 -0.098126 0.125559
0.034578 -0.044908 0.115275
-0.030587 -0.057606 0.013674
0.031663 -0.139172 0.119446
0.020801 -0.132914 0.006051
0.143457 -0.114331 0.119676
-0.009805 -0.177770 0.086460
0.072502 -0.103018 0.004403
-0.030661 -0.099155 0.006978
0.008152 -0.040059 0.116711
0.006281 -0.177959 0.094360
-0.007790 -0.012554 0.043482
0.016090 -0.181836 0.093232
