ply
format ascii 1.0
element vertex 150
property float x
property float y
property float z
end_header
0.044414 0.050086 0.001008
-0.014954 0.069407 0.121442
-0.032536 -0.056887 0.118116
-0.066879 0.021126 0.023426
0.043038 0.055250 0.044902
0.071663 -0.013450 0.046133
0.004228 0.069385 0.008876
-0.040179 -0.051038 0.001895
-0.036520 -0.060448 0.016824
0.031170 -0.065232 0.101396
-0.017638 -0.068580 0.042167
-0.023077 0.042412 0.000500
-0.047257 0.050104 0.126495
0.000940 -0.071206 0.038855
-0.006137 -0.068744 0.010003
-0.050659 -0.034620 0.126803
-0.020932 -0.065751 0.011063
0.007125 -0.071105 0.043450
-0.035756 0.059882 0.008477
-0.057540 0.036211 0.016775
0.065297 0.001876 0.125614
-0.000235 -0.061556 0.125867
-0.059579 0.029695 0.126265
-0.057653 0.003164 0.127398
-0.069273 -0.012444 0.062701
0.010103 0.071347 0.119142
-0.057312 -0.039238 0.079919
-0.062720 -0.030856 0.032319
-0.056805 -0.036435 0.017952
-0.016482 0.067631 0.014547
-0.056782 -0.036457 0.103211
-0.061623 0.013826 0.127435
0.035328 -0.060131 0.011408
-0.066072 0.020575 0.082296
0.069603 -0.025797 0.111503
-0.042935 0.056678 0.037285
0.014087 -0.070465 0.060872
-0.053281 -0.032728 0.002716
0.074464 0.008393 0.119922
0.039889 0.061953 0.116224
-0.045948 0.053072 0.036570
0.022251 0.068901 0.074434
-0.068353 0.011940 0.033397
0.057087 0.046003 0.085471
-0.041266 0.056771 0.096459
-0.019578 0.060058 0.127129
0.048764 0.054433 0.125676
-0.017086 -0.061389 0.126395
-0.047953 -0.041505 0.122720
-0.035059 -0.033129 -0.000003
0.047694 -0.047420 0.003669
0.070221 0.026422 0.118555
-0.025687 -0.065719 0.035838
0.015393 -0.069960 0.103927
-0.025845 -0.065213 0.077644
0.039184 -0.053488 -0.000082
0.009570 0.055639 0.126913
-0.050206 -0.049909 0.058561
0.025576 -0.062424 0.122356
0.003447 0.070570 0.017726
-0.069710 -0.000206 0.038909
0.029953 0.064465 0.123385
-0.063176 0.030951 0.061525
0.068568 0.026191 0.077607
0.069028 -0.019563 0.044496
-0.058215 0.033687 0.118163
0.008541 0.071923 0.107289
0.055301 -0.043924 0.036269
0.043085 -0.053342 0.125861
-0.022896 0.058905 0.001729
0.052272 -0.050567 0.119691
0.033780 -0.062598 0.049803
0.058186 -0.043821 0.120575
-0.061547 -0.017055 0.125768
-0.011132 0.069847 0.120240
-0.061529 0.028230 0.001467
0.024942 -0.020547 0.126894
-0.025987 0.064184 0.004924
-0.013309 0.070091 0.037677
-0.044204 0.054606 0.094673
0.004552 0.071678 0.059183
-0.035920 0.060862 0.043219
-0.065819 0.011417 0.119510
-0.064961 -0.025235 0.071449
0.056042 -0.046864 0.124863
-0.055719 -0.030546 0.125934
-0.058919 -0.003504 0.001231
-0.059327 -0.035642 0.088304
0.015213 -0.070469 0.100012
0.008827 0.062173 0.000476
-0.001640 0.071796 0.085139
0.053324 0.012547 0.126339
-0.006331 0.068955 0.007042
0.057164 0.039557 0.002890
-0.017261 0.004657 -0.000057
-0.036884 0.054570 0.001336
-0.033200 -0.060832 0.003808
0.034741 -0.062835 0.110474
-0.069080 -0.007745 0.007158
0.020948 -0.068497 0.057550
-0.027665 0.065090 0.108320
0.013005 0.069177 0.022834
-0.016345 -0.029947 0.126966
0.058768 -0.043336 0.078742
0.034201 0.061843 0.036224
0.042015 -0.057879 0.034554
0.052703 -0.043441 0.012197
0.051473 -0.052006 0.115119
0.021517 0.063981 0.000354
-0.031665 0.062526 0.119941
0.070697 0.007441 0.021457
-0.051229 0.023926 0.000489
0.067270 -0.000846 0.001356
0.061251 0.041322 0.094609
0.019843 0.068025 0.039365
-0.069551 -0.006141 0.063299
0.001827 -0.063189 0.122476
-0.067915 -0.016807 0.018908
0.000510 -0.068084 0.000974
0.017132 0.069167 0.042938
-0.044729 -0.051909 0.083061
0.070814 -0.001136 0.022814
-0.052371 0.046310 0.051958
-0.041750 -0.040070 0.000922
0.064018 0.028527 0.005653
-0.063403 -0.028404 0.069487
0.067702 0.029710 0.120264
0.059369 0.039308 0.029058
-0.065136 -0.015354 0.115566
0.061345 -0.033071 0.019787
0.050801 -0.015070 0.000507
0.068590 -0.013044 0.001618
-0.035323 -0.059338 0.082865
-0.020604 -0.064321 0.117643
0.020510 0.066897 0.125123
-0.031515 -0.038195 0.126802
0.035827 0.057269 0.002277
-0.061153 0.029356 0.106184
-0.031454 -0.050198 0.000380
-0.012661 0.070148 0.059019
0.019177 0.071511 0.110796
0.060325 -0.038957 0.123961
-0.060907 0.034183 0.028648
0.012887 -0.068235 0.000231
0.067863 0.033709 0.111593
-0.067840 0.006671 0.101743
0.062131 -0.020510 0.125924
0.029302 -0.061325 0.005009
-0.069381 -0.004863 0.003710
0.066814 -0.011120 0.125152
