ply
format ascii 1.0
element vertex 167
property float x
property float y
property float z
end_header
0.044334 0.050380 0.000003
-0.001359 0.116773 0.094424
-0.017994 0.001771 0.125391
-0.066364 0.028152 0.024300
0.076536 0.001652 0.046301
0.005310 0.070640 0.005369
-0.039893 -0.047193 0.016154
-0.034780 -0.050476 0.034826
0.043871 -0.019298 0.113856
-0.013315 -0.048165 0.062773
-0.033137 0.004385 0.120541
-0.023022 0.042691 0.000401
-0.033575 0.104988 0.108736
0.004562 -0.052457 0.058884
0.025375 0.098381 0.052676
-0.005377 -0.061548 0.028442
-0.034439 0.026626 0.126499
-0.019986 -0.058388 0.028948
0.010800 -0.051199 0.063195
-0.035713 0.061159 0.007119
-0.057575 0.040610 0.013391
0.078831 0.053270 0.117121
-0.048083 0.083911 0.113808
-0.044528 0.062027 0.124305
-0.064151 0.013795 0.071236
0.079381 0.039318 0.060054
0.023646 0.116266 0.088946
0.039790 0.007990 0.000607
-0.048761 -0.005232 0.093956
-0.059298 -0.017066 0.046684
-0.055130 -0.028164 0.030631
-0.045441 0.008984 0.111725
-0.048658 0.069924 0.120927
-0.041310 0.004248 0.001905
0.036233 -0.054572 0.024684
-0.059435 0.052990 0.077374
0.082828 0.020854 0.109171
-0.041599 0.069410 0.027938
0.020493 -0.043310 0.080890
-0.052722 -0.029562 0.012351
-0.021457 -0.015716 0.004687
0.088194 0.054894 0.106959
0.052886 0.105399 0.087443
0.029301 0.094546 0.048147
-0.066991 0.023431 0.036725
0.066480 0.076357 0.062721
-0.031213 0.095129 0.076307
-0.004320 0.113377 0.106155
0.064629 0.102569 0.098535
0.047611 -0.044170 0.011470
-0.000848 0.000287 0.128697
-0.031359 0.017959 0.126114
-0.034845 -0.030804 0.008681
0.048000 -0.045146 0.012634
0.084365 0.070542 0.098457
-0.021865 -0.048095 0.056471
0.026598 -0.020066 0.119924
-0.016303 -0.029505 0.097751
0.039293 -0.051745 0.011177
0.023824 0.106148 0.104485
-0.030508 0.080828 0.118621
-0.043100 -0.024368 0.076065
0.056624 -0.026280 0.076369
0.038047 -0.004617 0.126800
-0.067322 0.013288 0.044057
0.043516 0.111226 0.094769
-0.058821 0.052535 0.054934
0.078221 0.054728 0.061567
0.073633 -0.004515 0.046851
-0.046731 0.083798 0.103400
0.020789 0.111572 0.078189
0.058568 -0.030973 0.045189
0.056570 0.004477 0.126846
-0.022926 0.059204 0.001399
0.065573 0.000898 0.122977
0.038699 -0.041962 0.067125
0.072271 0.006834 0.121433
-0.047645 0.040490 0.124185
0.004158 -0.016870 0.119324
0.002369 0.116465 0.092914
-0.061642 0.029008 0.001484
-0.026117 0.064941 0.004213
-0.012470 0.079862 0.021532
-0.034054 0.071092 0.022802
0.058448 -0.012164 0.107052
-0.034318 0.092555 0.075646
0.009283 0.090308 0.036626
0.080247 0.017517 0.058701
-0.033583 0.075614 0.030381
-0.054044 0.064357 0.113598
-0.042919 0.018414 0.119290
-0.057708 0.005081 0.083375
0.069570 0.006277 0.126288
0.073391 0.057897 0.054030
0.030861 -0.033083 0.097104
-0.040422 0.028394 0.125351
-0.059582 -0.001225 0.005089
-0.049168 0.001577 0.100871
0.025827 -0.022767 0.117033
0.008803 0.062365 0.000218
0.007817 0.102506 0.058910
-0.005931 0.070452 0.005666
0.056948 0.040095 0.002591
-0.016979 0.006731 0.000685
-0.036828 0.054818 0.001232
-0.033234 -0.055960 0.020783
-0.022009 0.098224 0.069922
0.047348 -0.012571 0.120394
-0.069157 -0.003775 0.012986
0.026446 -0.043566 0.076155
-0.015815 0.107367 0.084799
-0.049098 0.034885 0.000932
0.068477 -0.012888 0.085585
0.038285 0.071604 0.020268
0.045453 -0.044503 0.048918
-0.027905 -0.014747 0.106430
0.053393 -0.038771 0.020876
0.064747 -0.002457 0.119719
0.003923 -0.029086 0.102897
0.021451 0.064220 -0.000077
-0.018914 0.110090 0.095968
0.072728 0.012335 0.018100
0.011749 0.043645 0.124859
-0.051277 0.024289 0.000948
0.067377 -0.000437 0.001397
0.071996 0.075737 0.071874
0.041740 0.009229 0.000626
-0.015422 -0.025824 0.103420
-0.064320 0.019997 0.070048
-0.066566 -0.009605 0.028110
0.000871 -0.064234 0.018842
0.020515 0.080716 0.024214
-0.035196 -0.016008 0.098840
0.007541 -0.051050 0.062613
-0.020358 -0.034169 0.084974
-0.048914 0.063962 0.043594
-0.041439 -0.036938 0.011839
0.047860 -0.036423 0.007288
0.064265 0.029630 0.005155
-0.056369 0.001379 0.082486
0.082397 0.074525 0.099090
0.060638 0.047835 0.017789
-0.053103 0.036369 0.116149
0.062875 -0.026629 0.025093
0.051435 -0.013990 0.002241
0.069132 -0.012231 0.002211
-0.025420 -0.021746 0.100814
0.070193 -0.011880 0.058250
-0.006034 -0.006989 0.125477
0.034718 0.114933 0.096254
0.034986 0.057305 0.001389
-0.031294 -0.047214 0.013818
0.034971 0.057401 0.121244
0.075354 0.029489 0.123401
-0.007862 0.089842 0.038980
0.031537 0.112322 0.080209
0.074251 0.012311 0.123319
-0.059895 0.043033 0.025118
0.013320 -0.064897 0.017937
0.080982 0.074731 0.089662
0.072985 0.065994 0.062574
0.074695 0.031066 0.123936
0.029570 -0.057386 0.019285
-0.069683 -0.001947 0.008944
0.063307 -0.017615 0.002739
0.024725 0.007199 0.000470
0.079944 0.040169 0.120284
