ply
format ascii 1.0
element vertex 147
property float x
property float y
property float z
end_header
0.111455 -0.040335 0.009135
0.050283 0.013245 0.120832
0.044352 -0.113943 0.067320
0.101313 -0.052536 0.005247
-0.006330 -0.007972 0.024013
-0.008565 -0.006895 0.042033
0.024519 -0.047408 0.119144
-0.006205 -0.016879 0.071940
0.048589 0.027508 0.113557
0.231390 -0.009790 0.116875
-0.009123 -0.025644 0.068452
-0.004271 -0.080690 0.046985
0.046972 -0.114078 0.068298
-0.009979 -0.034423 0.073474
0.074998 0.028412 0.027506
0.070123 0.029173 0.114240
0.002683 0.006807 0.054321
-0.008983 -0.039517 0.078751
0.096590 -0.087994 0.120946
0.120687 0.035353 0.078815
0.051450 0.040179 0.053412
0.033708 -0.090627 0.110880
0.027159 -0.005153 0.006817
0.097632 -0.068077 0.006298
0.021998 0.025396 0.039562
0.101654 -0.031997 0.005565
0.050709 0.037658 0.098523
0.031717 -0.013060 0.005203
0.087098 0.038589 0.052236
0.030231 -0.110450 0.029566
0.058071 -0.091853 0.115465
0.104545 -0.000426 0.010070
-0.002583 -0.041166 0.091342
0.011533 0.004292 0.015192
0.020343 -0.028470 0.009366
0.097645 -0.099036 0.112714
0.141902 -0.085121 0.069640
0.137439 -0.059721 0.038103
0.060328 0.028207 0.023802
0.017581 -0.098083 0.073970
0.140762 -0.087388 0.079261
0.003251 -0.090396 0.036169
0.047905 -0.003398 0.125697
0.062191 0.025778 0.116682
0.002560 -0.090904 0.037769
0.110814 -0.099818 0.104349
-0.004390 -0.003096 0.060969
0.023721 -0.027197 0.121869
0.012832 0.004231 0.097504
-0.004303 -0.081661 0.037349
0.018377 0.021577 0.072963
0.013582 -0.081261 0.097506
0.026393 0.028329 0.054106
0.233912 -0.006578 0.119457
0.050587 -0.099164 0.105574
0.090141 0.027637 0.034008
0.093525 -0.110452 0.075141
0.009545 -0.092964 0.064545
-0.010683 -0.019554 0.053313
-0.000833 -0.065123 0.083379
0.079904 0.044028 0.102552
0.027379 -0.008416 0.120466
0.060429 0.014119 0.004050
0.079847 -0.042368 0.124435
0.069375 0.043934 0.090197
0.094977 -0.024336 0.003253
0.114266 -0.027885 0.011392
0.105398 -0.010038 0.008460
0.026989 -0.066623 0.115239
0.128810 -0.045112 0.023895
0.059737 -0.113941 0.079195
0.113109 -0.006794 0.013629
0.104136 0.043206 0.081988
0.060173 0.037375 0.105937
0.049359 -0.072588 0.124415
0.097960 -0.110312 0.066809
0.008597 -0.042105 0.107228
0.070230 0.034870 0.110769
0.030460 0.009265 0.006611
0.043421 0.038235 0.087392
0.021792 -0.102041 0.073118
0.017432 -0.057873 0.109918
0.100379 -0.043156 0.004743
0.078476 -0.102382 0.010817
0.084219 -0.011341 0.003615
-0.013241 -0.014062 0.033170
0.033943 -0.049482 0.122354
0.006305 -0.069120 0.093428
-0.000467 -0.050212 0.092126
0.106898 -0.058932 0.008788
0.064311 -0.002408 0.003728
0.111875 -0.080479 0.021302
0.000116 -0.079226 0.065022
0.026968 0.017169 0.101577
0.225130 -0.007184 0.120854
0.006588 -0.094638 0.044180
0.013386 -0.015658 0.107150
0.091155 -0.065953 0.002656
0.054973 -0.115271 0.035814
0.003745 -0.011068 0.089441
0.054935 -0.096486 0.011389
0.047538 -0.110949 0.020228
0.114453 -0.103308 0.078282
0.050034 0.004432 0.123776
0.016953 0.003811 0.102969
0.115774 -0.064510 0.018321
0.024249 0.022221 0.025362
0.034203 -0.068779 0.118830
-0.016023 -0.045122 0.038592
0.059987 0.012163 0.122507
0.025936 0.022406 0.093133
0.117801 -0.062566 0.019392
0.049389 -0.115507 0.042809
0.101572 0.012094 0.022428
0.064219 -0.113108 0.087670
0.000376 -0.019067 0.018958
0.004031 -0.007725 0.017487
0.010010 -0.090742 0.029135
0.067766 -0.109943 0.016074
0.040542 0.037621 0.068261
0.114922 -0.098291 0.103673
0.019191 -0.039164 0.117086
0.086344 -0.104637 0.025886
0.110680 -0.077298 0.018472
0.076979 0.045040 0.094170
0.018064 -0.103977 0.048965
0.035122 -0.113208 0.025896
0.029716 -0.104661 0.079471
0.107629 0.015290 0.029406
0.041788 0.001274 0.123052
0.088786 -0.078084 0.005302
0.111353 0.033549 0.063715
-0.006408 -0.017530 0.023028
0.025553 -0.108485 0.041094
0.233719 -0.003809 0.118234
0.052391 -0.079362 0.121517
0.076695 -0.097928 0.008709
0.076471 0.015798 0.012712
-0.014480 -0.055680 0.040883
0.113769 -0.100404 0.095316
0.087468 0.044089 0.071122
0.070866 -0.078762 0.123382
-0.008929 -0.069990 0.044770
0.032737 0.023994 0.012020
0.027257 -0.107490 0.025981
0.042584 -0.072660 0.009804
0.079089 -0.085777 0.122269
