ply
format ascii 1.0
element vertex 149
property float x
property float y
property float z
end_header
0.048828 0.077180 0.096692
0.033315 -0.066635 0.095205
0.101016 -0.047798 0.011265
-0.007406 0.014709 0.013613
-0.011350 0.022825 0.029515
0.017971 0.020110 0.117738
-0.009038 0.029812 0.061379
0.050359 0.084672 0.080030
0.224385 0.060393 0.116145
-0.013360 -0.043683 0.061269
0.035939 -0.066392 0.096144
-0.015461 0.012236 0.067060
0.136899 -0.033418 0.054928
0.075939 0.038971 0.007204
0.035898 -0.060535 0.026494
0.001377 0.040213 0.035557
-0.014876 0.009515 0.074058
0.089232 -0.020059 0.123741
0.040914 0.055234 0.119530
0.122818 0.068931 0.046584
0.053809 0.064908 0.022165
0.025460 -0.023897 0.119114
0.027902 0.002112 0.005200
0.094520 -0.062404 0.017747
0.024229 0.048379 0.016074
0.053334 0.085465 0.062835
0.031563 -0.005676 0.005082
-0.014078 -0.037610 0.062201
0.088764 0.060646 0.022485
-0.001510 0.034040 0.080702
0.017972 -0.080633 0.059050
0.050136 -0.023144 0.121332
0.103658 0.004006 0.006159
-0.008487 0.013949 0.085497
0.012765 0.017887 0.006183
0.017977 -0.013726 0.009787
0.089425 -0.033096 0.121899
0.133861 -0.045852 0.084503
0.132492 -0.038297 0.052187
0.061894 0.038235 0.006875
0.007977 -0.047208 0.093763
0.132743 -0.044649 0.094468
-0.000523 -0.041058 0.036990
-0.006825 -0.057308 0.056179
-0.018685 0.003242 0.030926
0.043064 0.068835 0.111879
0.064257 0.083588 0.084826
-0.007549 -0.056980 0.057813
0.100767 -0.039406 0.118802
-0.006425 0.035654 0.045977
0.017095 0.039884 0.117158
0.012043 0.059455 0.075846
-0.013362 -0.048239 0.052777
0.018890 0.061919 0.046773
0.005137 -0.020749 0.108178
0.027825 0.058206 0.028140
0.054487 0.045748 0.011257
0.226931 0.063574 0.118733
0.042474 -0.033157 0.119071
0.091080 0.041943 0.012632
0.083265 -0.063112 0.100470
0.000228 -0.046793 0.083479
-0.008369 -0.011513 0.087864
0.083118 0.090922 0.063912
0.022667 0.058434 0.104572
0.060314 0.015942 0.002654
0.073347 0.025206 0.123119
0.072300 0.085795 0.052684
0.094380 -0.022203 0.003907
0.112954 -0.020436 0.014144
0.125617 -0.032074 0.032668
0.048710 -0.061447 0.105969
0.112601 0.000084 0.009847
0.106911 0.078307 0.045951
0.062972 0.087966 0.069674
0.046888 0.072197 0.035433
0.047405 0.029656 0.122202
0.043137 -0.002512 0.124213
0.087509 -0.067154 0.093487
0.001100 0.019635 0.101741
0.072840 0.086990 0.075124
0.046064 0.081652 0.052651
0.014853 0.037706 0.114325
0.012013 -0.051287 0.094696
0.088581 -0.051429 0.005930
0.100202 -0.038228 0.008114
0.067492 -0.087763 0.039017
-0.017476 -0.012938 0.060630
0.032341 -0.021052 0.008603
0.084091 -0.009480 0.003371
-0.016182 0.012994 0.023121
0.027426 0.018405 0.121390
-0.002012 -0.011521 0.098964
-0.007249 0.005709 0.090129
0.103598 -0.052714 0.019995
0.016417 -0.022438 0.114522
0.104486 -0.064705 0.041792
-0.008178 -0.033806 0.077647
0.027451 0.071654 0.075060
0.218129 0.062960 0.120188
-0.003552 -0.057762 0.065375
0.009494 0.045745 0.094052
0.090114 -0.062367 0.009883
0.001455 -0.019935 0.101971
0.042716 -0.085044 0.066876
0.001379 0.043552 0.074474
0.043965 -0.079312 0.036288
0.034978 -0.087744 0.051015
0.104724 -0.057772 0.099942
0.025813 -0.035576 0.017382
0.046155 0.072310 0.105745
0.015784 0.061076 0.081245
0.124682 0.034545 0.027789
-0.022399 -0.013580 0.040055
0.027098 0.072131 0.065133
0.037053 -0.081349 0.073240
0.100560 0.020351 0.008947
0.053677 -0.056361 0.112720
-0.002463 0.001253 0.013860
0.003156 0.010556 0.009317
-0.000398 -0.061286 0.049913
0.055541 -0.090574 0.046606
0.042886 0.071882 0.035821
0.105228 -0.039167 0.118301
0.013133 0.027025 0.114154
0.075737 -0.082972 0.054306
0.103670 -0.063541 0.037568
0.080265 0.088155 0.055690
0.007213 -0.064783 0.073954
0.022516 -0.085239 0.057069
0.019847 -0.051431 0.101144
0.107594 0.026797 0.012640
0.037771 0.070370 0.105586
0.083162 -0.071841 0.022075
0.112621 0.060679 0.034451
-0.009120 0.005498 0.016154
0.124838 -0.015336 0.025027
0.013884 -0.073292 0.068471
0.226730 0.066351 0.117530
0.070966 0.060127 0.120497
0.066531 -0.084941 0.034638
-0.021281 -0.022193 0.046355
0.103820 -0.045688 0.113227
0.090114 0.075070 0.036034
-0.017220 -0.034313 0.055125
0.034542 0.029737 0.004592
0.015158 -0.079268 0.054507
0.035107 -0.056946 0.024415
0.071982 -0.015074 0.124302
