ply
format ascii 1.0
element vertex 156
property float x
property float y
property float z
end_header
0.064261 -0.082173 0.031017
0.014616 -0.153168 0.027383
0.052933 -0.049540 0.060511
-0.053915 -0.054425 0.006522
-0.084253 -0.155285 0.047436
-0.076079 -0.094925 0.016958
-0.111509 -0.085891 0.083897
0.021735 -0.028093 0.043006
-0.037048 -0.066379 0.128953
0.014995 -0.153887 0.030076
-0.107506 -0.081852 0.108525
-0.066786 -0.112803 0.012136
-0.048771 -0.096760 0.125311
-0.019591 -0.178818 0.094176
-0.057918 -0.054348 0.126816
-0.080828 -0.064576 0.124185
-0.074935 -0.037018 0.068073
-0.043195 -0.175295 0.045269
0.009641 -0.104147 0.126621
-0.025962 -0.028101 0.017903
-0.070673 -0.039092 0.037249
-0.029150 -0.171402 0.097550
-0.106611 -0.070074 0.083864
-0.073675 -0.058474 0.126065
-0.016039 -0.027805 0.019536
-0.056963 -0.035695 0.097855
-0.084806 -0.111700 0.026478
-0.037024 -0.180028 0.060736
0.005675 -0.027280 0.085296
-0.071728 -0.123559 0.017785
-0.049151 -0.037814 0.016276
-0.019104 -0.052035 0.007937
-0.006127 -0.176638 0.088391
0.016039 -0.084734 0.007730
-0.020459 -0.057566 0.121742
-0.017034 -0.088479 0.129427
0.021678 -0.141180 0.119927
-0.035681 -0.137216 0.117308
-0.113205 -0.122501 0.086542
-0.112065 -0.086895 0.102372
0.004628 -0.168658 0.096469
-0.077741 -0.075655 0.018515
-0.098271 -0.142166 0.051005
-0.101788 -0.096764 0.043855
-0.012854 -0.111892 0.002068
-0.005269 -0.114852 0.127090
-0.091498 -0.064471 0.044596
-0.043160 -0.156587 0.022278
-0.089577 -0.154877 0.068170
0.046233 -0.113922 0.121453
-0.034889 -0.030030 0.091205
0.024882 -0.154459 0.069458
-0.058502 -0.173282 0.052421
-0.012801 -0.139959 0.010554
-0.074574 -0.169545 0.069132
0.033589 -0.026851 0.055664
-0.049754 -0.133596 0.012235
-0.093380 -0.105515 0.108549
-0.099840 -0.063590 0.114257
-0.097687 -0.144776 0.074317
-0.106071 -0.124732 0.059956
-0.007168 -0.140790 0.119359
-0.044509 -0.119826 0.121892
-0.017186 -0.005606 0.050212
-0.066263 -0.152481 0.097851
0.034420 -0.025583 0.062698
0.029412 -0.045972 0.085180
-0.064782 -0.163256 0.043783
-0.022822 -0.054329 0.120603
0.010537 -0.034663 0.090934
-0.074382 -0.051517 0.120235
-0.108380 -0.072940 0.095259
-0.024596 -0.138666 0.009920
-0.085104 -0.153187 0.078631
-0.063755 -0.179654 0.066453
0.031921 -0.147196 0.071025
-0.079720 -0.138136 0.029527
-0.108101 -0.075753 0.108164
-0.035773 -0.019759 0.025271
-0.101155 -0.061618 0.074323
-0.096324 -0.140667 0.047910
-0.008894 -0.150956 0.017352
0.055053 -0.048487 0.047525
-0.016275 -0.167055 0.105884
0.064542 -0.099655 0.026616
-0.000513 -0.061950 0.009025
-0.045682 -0.106878 0.005861
0.000723 -0.046264 0.015871
0.017065 -0.017016 0.059514
-0.058569 -0.067171 0.004453
-0.008727 -0.061747 0.119492
-0.082553 -0.160187 0.055197
-0.051137 -0.145152 0.018533
-0.065729 -0.130242 0.017606
-0.090090 -0.114211 0.106258
-0.028191 -0.128988 0.006849
-0.106733 -0.089531 0.062053
0.037551 -0.114559 0.122634
-0.004243 -0.124624 0.004664
-0.064053 -0.113402 0.118668
-0.096609 -0.119405 0.041849
0.063516 -0.057817 0.045074
-0.017080 -0.077371 0.127589
-0.043157 -0.150323 0.019092
0.041903 -0.129483 0.023778
-0.090222 -0.102033 0.030487
-0.066818 -0.126352 0.112662
0.044763 -0.100915 0.012297
-0.010392 -0.012489 0.038983
0.042326 -0.119431 0.007897
0.024186 -0.151719 0.091138
0.033853 -0.096459 0.009297
-0.049947 -0.056898 0.126792
-0.104151 -0.100481 0.048993
-0.023844 -0.047042 0.114885
-0.057401 -0.028177 0.033031
-0.065707 -0.168594 0.051183
-0.043165 -0.089404 0.002470
-0.110514 -0.101918 0.100141
-0.020603 -0.134664 0.121258
-0.103688 -0.079900 0.059776
-0.044580 -0.151055 0.108490
0.035832 -0.135331 0.023427
0.006785 -0.165814 0.049258
0.004545 -0.112359 0.003467
0.058318 -0.111477 0.020487
-0.088114 -0.050406 0.064295
0.004408 -0.155704 0.113620
0.005665 -0.166766 0.100310
-0.088302 -0.145729 0.043373
0.056942 -0.111514 0.045836
-0.097034 -0.057380 0.106275
0.006742 -0.134890 0.007577
0.033585 -0.125039 0.004897
-0.103983 -0.090739 0.053216
-0.007610 -0.156433 0.023018
-0.017286 -0.032491 0.097681
-0.113434 -0.117113 0.078763
-0.103767 -0.102156 0.103892
0.064087 -0.074246 0.039134
-0.002387 -0.063474 0.008274
-0.048187 -0.061502 0.004392
-0.058593 -0.114269 0.120422
0.021898 -0.056368 0.099054
0.046008 -0.111333 0.119922
-0.054870 -0.180682 0.066483
0.062480 -0.095728 0.025899
-0.036131 -0.098690 0.002275
0.011837 -0.162098 0.096463
-0.075596 -0.043994 0.104853
-0.029096 -0.109381 0.126147
-0.044298 -0.179918 0.080779
-0.048177 -0.016065 0.034804
0.025640 -0.121750 0.004367
0.024452 -0.082679 0.010919
-0.034380 -0.182659 0.083850
