ply
format ascii 1.0
element vertex 206
property float x
property float y
property float z
end_header
0.044604 0.050454 0.001056
-0.019793 0.054300 0.131066
-0.067154 0.019397 0.024612
0.041756 0.052007 0.049762
0.070261 -0.016624 0.049281
0.003979 0.068726 0.011237
-0.040264 -0.051009 0.001852
-0.036651 -0.060741 0.015392
0.027287 -0.075519 0.104385
-0.051919 0.034798 0.133862
0.016013 0.060432 0.091013
-0.006111 -0.069246 0.009308
-0.056165 -0.049439 0.131971
-0.021099 -0.066216 0.009823
0.006935 -0.073931 0.038990
-0.035986 0.059489 0.009316
-0.063676 0.014405 0.133077
-0.062267 -0.012001 0.134225
-0.069768 -0.017975 0.063822
0.006001 0.055900 0.130627
-0.058193 -0.047755 0.078676
-0.016839 0.066261 0.016730
-0.066467 -0.001537 0.133867
0.035637 -0.060477 0.011071
-0.067410 0.012051 0.086872
0.064467 -0.038098 0.119622
-0.042938 0.052748 0.040948
0.013934 -0.075278 0.058250
0.069253 -0.006163 0.129804
0.035181 0.046996 0.131118
-0.025355 0.043695 0.135080
0.042941 0.037808 0.135615
0.003765 -0.053919 0.133603
-0.035074 -0.033183 -0.000083
0.064762 0.011801 0.128432
-0.027118 -0.072819 0.075064
0.039221 -0.053515 -0.000127
0.004168 0.039019 0.135323
-0.050586 -0.055087 0.056361
0.002975 0.068889 0.020537
0.024577 0.048349 0.134453
0.066126 0.017160 0.086399
0.005116 0.058413 0.118834
0.037780 -0.068183 0.131907
0.046854 -0.063681 0.125623
0.033956 -0.066096 0.047966
0.052445 -0.057105 0.127338
-0.065696 -0.031758 0.131881
-0.015941 0.054946 0.130013
-0.061513 0.028177 0.001406
-0.026022 0.064039 0.005174
-0.013356 0.065763 0.042691
-0.046493 0.043351 0.102571
0.004260 0.065155 0.068673
0.070772 -0.009126 0.066210
-0.069629 -0.003220 0.125626
-0.066432 -0.032207 0.071539
0.049915 -0.060592 0.131303
-0.060699 -0.044864 0.131282
0.012429 -0.079558 0.099083
-0.003336 0.061376 0.095978
-0.006493 0.068305 0.008501
0.057258 0.039226 0.002906
-0.017252 0.004652 -0.000023
-0.033262 -0.060905 0.003594
0.029975 -0.074690 0.113713
-0.069076 -0.008423 0.006345
0.020270 -0.073036 0.054584
0.012894 0.067538 0.025184
0.056426 -0.050793 0.080686
0.042210 -0.059340 0.034339
0.065241 0.016833 0.110192
0.046278 -0.064687 0.120792
0.021542 0.063848 0.000473
-0.036031 0.048492 0.127443
0.058457 0.029878 0.104411
-0.027221 -0.073488 0.081899
0.016438 0.064794 0.049860
0.070687 -0.002002 0.024066
-0.052859 0.041702 0.058910
0.063703 0.028275 0.006079
-0.064971 -0.035355 0.069492
0.058874 0.037095 0.033045
-0.067793 -0.029578 0.120210
0.061255 -0.033988 0.019054
0.068699 -0.013098 0.001509
-0.037036 -0.067800 0.081124
-0.025230 -0.078281 0.121019
0.014843 0.049893 0.135216
0.036198 0.057453 0.002225
-0.031505 -0.050213 0.000351
-0.013180 0.063671 0.068154
0.015512 0.056910 0.123294
0.052112 0.043648 0.051627
-0.061145 0.031958 0.030437
0.012852 -0.068381 0.000201
0.063101 0.019461 0.121589
-0.070546 -0.005242 0.106356
0.055750 -0.035106 0.133811
0.029574 -0.061666 0.004645
-0.069366 -0.005212 0.003434
0.060854 -0.026175 0.133766
-0.070379 -0.005886 0.075244
0.054142 -0.055936 0.111949
0.049358 -0.049635 0.004373
-0.010458 -0.067985 0.004348
-0.053191 -0.045949 0.026879
0.011827 0.067474 0.014523
-0.013744 0.058540 0.108973
-0.059987 -0.034169 0.012397
0.002518 -0.068886 0.000131
-0.042134 0.044117 0.126330
-0.028385 0.062073 0.022507
-0.040670 0.042249 0.134737
-0.059201 0.019873 0.133986
0.069666 0.008541 0.055245
-0.069121 -0.011382 0.019805
-0.033527 0.056085 0.066271
-0.021904 -0.064477 0.132998
0.039134 -0.070565 0.118542
0.070794 -0.000150 0.065241
0.020031 -0.079865 0.132540
-0.024741 -0.074825 0.084471
-0.065870 -0.036441 0.118480
0.053604 -0.049030 0.032980
0.063374 -0.038771 0.079264
0.069449 -0.017128 0.087944
-0.048807 0.039043 0.123708
0.070456 -0.003985 0.097352
-0.022728 0.064969 0.015407
0.034913 0.052306 0.089735
0.067117 -0.025940 0.045697
-0.058808 0.035733 0.001426
0.064873 -0.010599 0.132538
0.002396 0.068661 0.008374
0.025992 0.063470 0.032124
-0.024547 -0.076896 0.126089
-0.044353 -0.065764 0.115798
0.025814 0.062641 0.044472
-0.018372 -0.068922 0.017766
-0.011082 -0.080776 0.130121
0.069419 0.010666 0.014815
-0.067885 -0.015606 0.010139
-0.007937 0.053819 0.134507
0.034032 0.059418 0.024374
0.068188 0.012713 0.007722
0.033374 0.059419 0.008833
0.066248 -0.034096 0.131708
0.046141 -0.057605 0.047034
-0.015787 -0.081173 0.117631
0.062759 -0.015322 0.133820
-0.016620 0.066177 0.000990
-0.068577 0.005818 0.010187
0.012674 -0.080429 0.117725
-0.036057 -0.059106 0.003363
0.042268 0.043192 0.133143
-0.061302 0.031588 0.047767
0.026621 0.062835 0.016920
0.005465 -0.080588 0.126063
0.032936 -0.069674 0.076602
0.014855 -0.065887 0.133137
0.062958 -0.019772 0.000413
0.069521 0.008864 0.068745
0.002492 -0.075184 0.046198
-0.026730 0.056739 0.097174
-0.061235 -0.028245 0.001303
0.057489 0.023614 0.133929
-0.023727 -0.074083 0.132516
0.042459 -0.067198 0.105569
-0.070172 0.001415 0.029742
-0.051860 0.045684 0.000353
-0.069431 -0.010348 0.132740
-0.021029 0.046076 0.135003
-0.027188 -0.032766 0.134244
0.030339 0.054003 0.000049
0.050485 -0.042280 0.000338
-0.059455 -0.050444 0.128425
0.009797 -0.041560 0.134109
0.067802 0.015486 0.060460
0.021026 0.060255 0.083190
0.066423 -0.031178 0.086176
0.035504 -0.069242 0.085579
-0.001012 0.064903 0.071128
0.029588 0.038386 0.000003
-0.060870 0.025077 0.107268
-0.001672 -0.078972 0.083884
-0.062485 0.029934 0.014384
-0.050931 -0.060504 0.123383
0.042817 0.054863 0.007558
0.021325 0.055699 0.115035
-0.063160 0.027387 0.052603
-0.031763 0.048057 0.132825
-0.064355 -0.027075 0.008091
-0.065763 -0.034505 0.075783
-0.055000 -0.053990 0.128429
-0.059528 -0.030592 0.133671
-0.064630 0.016531 0.114687
-0.055531 -0.032037 0.000712
0.059064 -0.040987 0.033640
0.065898 0.013684 0.000937
-0.051717 0.027033 0.134761
-0.016475 -0.072993 0.048305
0.067126 0.019106 0.040781
-0.069920 0.001464 0.020897
0.069022 0.001124 0.003555
-0.055157 -0.037924 0.001182
