ply
format ascii 1.0
element vertex 204
property float x
property float y
property float z
end_header
0.044565 0.050512 0.001020
-0.019823 0.058510 0.130366
-0.067214 0.020003 0.024224
0.041913 0.053243 0.048873
0.070230 -0.015207 0.049471
0.004000 0.069074 0.010611
-0.040258 -0.050980 0.001892
-0.036577 -0.060447 0.016022
0.027205 -0.071995 0.105456
-0.051880 0.039243 0.133682
0.016069 0.063327 0.089587
-0.006138 -0.069071 0.009567
-0.056176 -0.045132 0.132535
-0.021090 -0.066052 0.010112
0.006859 -0.072744 0.040302
-0.036024 0.059733 0.008910
-0.063545 0.018674 0.133074
-0.062268 -0.007594 0.134275
-0.069788 -0.015798 0.063973
0.005905 0.060197 0.129832
-0.058225 -0.044984 0.079353
-0.016772 0.066750 0.016139
-0.066348 0.002829 0.133962
0.035616 -0.060338 0.011225
-0.067393 0.015035 0.086455
0.064343 -0.034125 0.120154
-0.042990 0.053963 0.040016
0.013813 -0.073360 0.059615
0.069122 -0.001773 0.129737
0.035195 0.051237 0.130556
-0.025332 0.048172 0.134983
0.042882 0.042295 0.135517
-0.035079 -0.033165 -0.000080
0.064786 0.015941 0.128270
-0.027241 -0.070218 0.076368
0.039219 -0.053499 -0.000111
0.004119 0.043611 0.135231
-0.050666 -0.053024 0.057148
0.003039 0.069498 0.019922
0.024594 0.052769 0.134402
0.065967 0.020136 0.085818
0.005044 0.062291 0.117957
0.037590 -0.063949 0.132517
0.046774 -0.059657 0.126426
0.033897 -0.064729 0.049403
0.052374 -0.053007 0.127917
-0.065640 -0.027399 0.132166
-0.015960 0.059142 0.129376
-0.061518 0.028202 0.001371
-0.025986 0.064216 0.004959
-0.013294 0.067063 0.041464
-0.046454 0.046754 0.101656
0.004327 0.067217 0.067167
0.070779 -0.007113 0.066336
-0.069571 0.001013 0.125687
-0.066413 -0.029727 0.072119
0.049847 -0.056475 0.131852
-0.060734 -0.040636 0.131827
0.012273 -0.076201 0.100491
-0.003300 0.064449 0.094677
-0.006475 0.068560 0.007947
0.057259 0.039274 0.002870
-0.017249 0.004672 -0.000030
-0.033298 -0.060867 0.003695
0.029956 -0.070901 0.114747
-0.069081 -0.008303 0.006351
0.020196 -0.071289 0.055953
0.012992 0.068245 0.024506
0.056189 -0.048101 0.081620
0.042134 -0.058472 0.035047
0.065166 0.020508 0.109795
0.046220 -0.060727 0.121613
0.021538 0.063888 0.000398
-0.036022 0.052609 0.126964
0.058399 0.033369 0.103845
-0.027346 -0.070653 0.083196
0.016581 0.066219 0.048730
0.070693 -0.001453 0.023899
-0.052955 0.043500 0.057946
0.063737 0.028428 0.005959
-0.064931 -0.032924 0.070149
0.058910 0.037905 0.032446
-0.067835 -0.025572 0.120589
0.061251 -0.033610 0.019334
0.068697 -0.013074 0.001507
-0.037179 -0.064915 0.082221
-0.025330 -0.074270 0.122113
0.014836 0.054556 0.134997
0.036190 0.057510 0.002174
-0.031506 -0.050197 0.000371
-0.013138 0.065736 0.066713
0.015446 0.060982 0.122340
0.052272 0.044838 0.050841
-0.061256 0.032847 0.029752
0.012853 -0.068356 0.000215
0.063175 0.023376 0.121170
-0.070441 -0.001597 0.106415
0.055636 -0.030735 0.134034
0.029548 -0.061574 0.004754
-0.069371 -0.005145 0.003414
0.060744 -0.021718 0.134077
-0.070413 -0.003326 0.075137
0.054101 -0.052118 0.112618
0.049328 -0.049620 0.004395
-0.010456 -0.067911 0.004454
-0.053276 -0.045260 0.027402
0.011881 0.067939 0.013894
-0.013709 0.062111 0.107743
-0.059944 -0.033965 0.012560
0.002512 -0.068866 0.000161
-0.042127 0.048186 0.125867
-0.028329 0.062704 0.021858
-0.040667 0.046654 0.134463
-0.059127 0.024282 0.133971
0.069659 0.010170 0.054837
-0.069144 -0.011047 0.019773
-0.033533 0.058165 0.064998
0.039073 -0.066624 0.119533
0.070758 0.001876 0.065076
0.020022 -0.075447 0.133007
-0.024855 -0.071882 0.085816
-0.065915 -0.032503 0.118984
0.053556 -0.048094 0.033751
0.063340 -0.035983 0.079964
0.069325 -0.014099 0.088107
-0.048770 0.043048 0.123284
0.070345 -0.000660 0.097303
-0.022684 0.065401 0.014885
0.034855 0.055368 0.088755
0.067142 -0.024642 0.046053
-0.058787 0.035763 0.001390
0.064789 -0.006168 0.132498
0.002402 0.068911 0.007803
0.026140 0.064307 0.031284
-0.024612 -0.072712 0.127039
-0.044483 -0.061971 0.116544
0.026008 0.063860 0.043459
-0.018388 -0.068503 0.018415
-0.011153 -0.076512 0.130946
0.069448 0.011058 0.014591
-0.067877 -0.015429 0.010194
-0.008004 0.058385 0.134280
0.034129 0.060087 0.023598
0.068262 0.012819 0.007535
0.033406 0.059620 0.008605
0.066129 -0.029800 0.132025
0.046046 -0.056246 0.048138
-0.015919 -0.077191 0.118760
0.062717 -0.010840 0.133963
-0.016610 0.066203 0.000811
-0.068600 0.006074 0.009962
0.012599 -0.076497 0.118700
-0.036085 -0.059072 0.003412
0.042273 0.047439 0.132760
-0.061345 0.032998 0.046928
0.026702 0.063310 0.016444
0.005433 -0.076480 0.126966
0.014805 -0.061514 0.133680
0.062957 -0.019752 0.000418
0.069477 0.010989 0.068332
0.002422 -0.073607 0.047594
-0.026679 0.059968 0.095910
-0.061237 -0.028212 0.001311
0.057376 0.028043 0.133864
0.053411 -0.037104 0.133748
-0.023768 -0.069687 0.133245
0.042384 -0.063601 0.106546
-0.070193 0.002308 0.029547
-0.051829 0.045744 0.000317
-0.069417 -0.006008 0.132871
-0.021021 0.050598 0.134904
-0.027174 -0.028368 0.134429
0.030306 0.054036 0.000042
0.050483 -0.042258 0.000359
-0.059481 -0.046288 0.129100
0.009765 -0.037146 0.134404
0.067838 0.017349 0.059904
0.021125 0.062768 0.081791
0.066355 -0.028258 0.086713
-0.000959 0.067061 0.069648
0.029589 0.038410 -0.000027
-0.060761 0.028633 0.106782
-0.001788 -0.076112 0.085299
-0.062522 0.030310 0.014022
-0.050992 -0.056455 0.124324
0.042875 0.055024 0.007378
0.021199 0.059542 0.114025
-0.063230 0.028927 0.051876
-0.031724 0.052289 0.132335
-0.064364 -0.026916 0.008133
-0.065797 -0.031912 0.076401
-0.055002 -0.049810 0.129211
-0.059467 -0.026181 0.133945
-0.064553 0.020401 0.114322
-0.055532 -0.032016 0.000719
0.059008 -0.040085 0.034170
0.065915 0.013709 0.000898
-0.051769 0.031517 0.134719
-0.016500 -0.071359 0.049627
0.067192 0.020130 0.040257
-0.069897 0.001933 0.020778
-0.064550 0.021713 0.099419
0.069025 0.001154 0.003540
-0.055151 -0.037897 0.001196
