ply
format ascii 1.0
element vertex 206
property float x
property float y
property float z
end_header
0.044587 0.050542 0.000960
-0.019457 0.066500 0.128399
-0.067542 0.020762 0.023234
0.070212 -0.013032 0.049345
0.003974 0.069647 0.009467
-0.040262 -0.050964 0.001933
-0.036626 -0.060066 0.016796
0.027108 -0.065291 0.107709
-0.017517 -0.068623 0.042368
-0.051450 0.047763 0.132752
-0.006222 -0.068901 0.009819
-0.056060 -0.036366 0.133577
-0.021103 -0.065891 0.010466
0.006541 -0.070884 0.042665
-0.036173 0.060120 0.008093
-0.063074 0.027239 0.132589
-0.062023 0.001103 0.134396
-0.069774 -0.012293 0.063928
0.006064 0.068384 0.127233
-0.058426 -0.040156 0.080484
-0.016794 0.067516 0.014949
-0.066022 0.011560 0.134047
0.035557 -0.060330 0.011241
-0.067255 0.020295 0.085075
0.064310 -0.026524 0.120980
-0.043307 0.055799 0.038010
0.013441 -0.070220 0.062151
0.069021 0.006496 0.129570
0.035481 0.059237 0.128718
0.054196 0.044283 0.091898
-0.043441 0.055026 0.101043
-0.025004 0.056818 0.134361
0.042919 0.050874 0.134719
-0.035091 -0.033148 -0.000080
0.064821 0.023896 0.127447
-0.027372 -0.065597 0.078810
0.039215 -0.053487 -0.000091
0.004280 0.052562 0.134570
-0.050750 -0.049874 0.058332
0.003062 0.070530 0.018539
-0.070328 -0.000434 0.038669
0.024938 0.061196 0.133675
-0.061487 0.031350 0.123789
0.005153 0.069513 0.115236
0.033795 -0.062460 0.051475
0.052167 -0.044937 0.129071
-0.065407 -0.018664 0.132500
-0.015591 0.067064 0.127383
-0.061547 0.028243 0.001274
-0.026040 0.064423 0.004583
-0.013427 0.069179 0.038845
-0.046255 0.052927 0.099076
0.004536 0.070534 0.063750
0.070789 -0.003613 0.065806
-0.069156 0.009246 0.125512
-0.066388 -0.025499 0.072761
0.049563 -0.048171 0.132901
-0.060602 -0.031920 0.132487
0.012148 -0.069827 0.103090
-0.003399 0.069882 0.091229
0.047070 0.010318 0.134741
-0.006512 0.068982 0.007062
0.057305 0.039395 0.002734
-0.017254 0.004700 -0.000055
-0.033373 -0.060845 0.003784
0.029888 -0.063503 0.116755
-0.069149 -0.008189 0.006250
0.019991 -0.068353 0.058010
-0.030584 0.063195 0.113978
0.013149 0.069435 0.022986
0.055847 -0.043327 0.082953
0.041988 -0.057341 0.036242
0.065123 0.027312 0.108367
0.045998 -0.052895 0.123035
0.021551 0.063953 0.000265
-0.035836 0.060436 0.125412
0.070096 0.007874 0.022711
0.058387 0.039641 0.101855
0.016715 0.068540 0.046071
0.070670 -0.000751 0.023330
-0.053230 0.046125 0.055495
0.063806 0.028653 0.005680
-0.064893 -0.028799 0.070980
0.059062 0.039156 0.031104
-0.067636 -0.017669 0.121070
0.061266 -0.033192 0.019623
0.068705 -0.013056 0.001475
-0.037302 -0.059822 0.084373
-0.025485 -0.066126 0.124220
0.015038 0.063651 0.134255
0.036218 0.057585 0.002088
-0.031513 -0.050187 0.000389
-0.012966 0.069208 0.063251
0.015570 0.068561 0.119445
0.052632 0.046692 0.048891
-0.061699 0.034051 0.028129
0.012847 -0.068303 0.000175
0.063257 0.030787 0.119757
-0.070004 0.005247 0.106359
0.055480 -0.021949 0.134484
0.029463 -0.061479 0.004849
-0.069413 -0.005085 0.003312
0.060544 -0.013009 0.134335
-0.070498 0.000915 0.074396
0.054037 -0.044866 0.113849
0.049277 -0.049655 0.004364
-0.010488 -0.067845 0.004514
-0.053499 -0.044397 0.028070
0.011923 0.068712 0.012625
-0.013580 0.068534 0.104153
-0.059879 -0.033865 0.012730
0.002499 -0.068843 0.000179
-0.041896 0.055917 0.124556
-0.040458 0.055079 0.133798
-0.058690 0.033023 0.133642
0.069735 0.012742 0.053415
-0.069407 -0.010695 0.019421
-0.021862 -0.051035 0.134536
0.039027 -0.058932 0.121408
0.070726 0.005290 0.063956
0.019937 -0.066125 0.134555
-0.024887 -0.066435 0.088242
-0.065634 -0.024743 0.119910
-0.067128 -0.019249 0.017702
0.053509 -0.046651 0.034890
0.063277 -0.031349 0.080886
-0.048535 0.050630 0.122043
0.070128 0.005171 0.096369
-0.022784 0.066168 0.013739
0.027180 -0.064960 0.045284
0.034869 0.060599 0.086070
0.067187 -0.022659 0.046219
-0.058829 0.035816 0.001260
0.002363 0.069327 0.006861
0.026409 0.065686 0.029476
-0.024755 -0.064185 0.128873
-0.022597 -0.067288 0.053017
0.057941 -0.040163 0.069878
-0.044697 -0.054101 0.118063
0.026282 0.065830 0.041075
-0.018328 -0.067836 0.019449
-0.011316 -0.067816 0.132526
0.069487 0.011639 0.013882
-0.067954 -0.015288 0.010114
-0.007812 0.066968 0.133007
0.034320 0.061125 0.021962
0.068462 0.012884 0.007026
0.033497 0.059966 0.008105
0.065947 -0.021252 0.132473
0.045928 -0.054143 0.049784
-0.015975 -0.069085 0.121229
0.062605 -0.002051 0.134045
-0.016584 0.066297 0.000652
-0.068754 0.006366 0.009502
0.012530 -0.068674 0.121044
-0.036156 -0.059079 0.003403
0.042516 0.055403 0.131179
-0.061641 0.035050 0.045089
0.026830 0.064022 0.015321
0.005192 -0.068038 0.129009
0.062955 -0.019731 0.000408
0.069456 0.014607 0.067016
0.002004 -0.071334 0.049907
-0.026507 0.065583 0.092595
-0.061247 -0.028193 0.001302
0.057117 0.036438 0.133291
0.053311 -0.028420 0.134494
-0.023781 -0.060607 0.134383
0.042264 -0.056703 0.108433
-0.070421 0.003288 0.028781
-0.051834 0.045770 0.000267
-0.069189 0.002601 0.132846
-0.020766 0.059241 0.134327
-0.027106 -0.019443 0.134678
0.030308 0.054067 0.000012
0.050484 -0.042229 0.000386
-0.059370 -0.037819 0.130276
0.009819 -0.028447 0.134806
0.067834 0.020456 0.057978
-0.000782 0.070539 0.066204
0.029587 0.038442 -0.000088
-0.003706 0.036984 0.134685
-0.060458 0.035260 0.105287
-0.001921 -0.070638 0.088115
-0.062801 0.030763 0.013227
-0.051008 -0.048375 0.126140
-0.059449 0.037481 0.078629
0.043000 0.055202 0.007150
0.021231 0.066494 0.111331
-0.037067 -0.037427 0.134469
-0.063443 0.031175 0.050077
-0.064424 -0.026780 0.008046
-0.065764 -0.027436 0.077102
-0.054909 -0.041340 0.130562
-0.059247 -0.017324 0.134320
-0.064208 0.027626 0.113238
-0.055547 -0.032002 0.000714
0.058999 -0.038737 0.034745
0.065960 0.013723 0.000801
-0.051487 0.040232 0.134409
-0.016631 -0.068974 0.051552
0.067256 0.021770 0.038975
-0.069933 0.002482 0.020317
-0.064478 0.027853 0.097701
0.069080 0.001157 0.003449
-0.055156 -0.037866 0.001187
