ply
format ascii 1.0
element vertex 204
property float x
property float y
property float z
end_header
0.044579 0.050518 0.000999
-0.019712 0.062484 0.129050
-0.067396 0.020257 0.023650
0.070244 -0.014368 0.049271
0.004002 0.069308 0.010055
-0.040259 -0.050987 0.001898
-0.036575 -0.060401 0.016306
0.027166 -0.068758 0.106574
-0.017425 -0.069786 0.041152
-0.051750 0.043428 0.133181
-0.006158 -0.069075 0.009595
-0.056113 -0.040802 0.133075
-0.021089 -0.066080 0.010185
0.006786 -0.072111 0.041253
-0.036114 0.059857 0.008520
-0.063407 0.022892 0.132800
-0.062195 -0.003271 0.134380
-0.069806 -0.014385 0.063732
0.005850 0.064196 0.128287
-0.058277 -0.042853 0.079876
-0.016732 0.067052 0.015591
-0.066250 0.007129 0.133905
0.035631 -0.060390 0.011151
-0.067369 0.017345 0.085579
0.064288 -0.030315 0.120584
-0.043208 0.054712 0.038930
0.013625 -0.072130 0.060631
0.068982 0.002431 0.129429
0.035196 0.055218 0.129472
0.054060 0.041309 0.092966
-0.025261 0.052503 0.134534
0.042809 0.046617 0.135050
-0.035085 -0.033163 -0.000088
0.064683 0.020007 0.127671
-0.027332 -0.068173 0.077473
0.039219 -0.053497 -0.000107
0.004134 0.048061 0.134876
-0.050664 -0.051769 0.057569
0.003080 0.069896 0.019307
-0.070230 -0.001473 0.038862
0.024681 0.057013 0.133996
0.004963 0.065701 0.116377
0.037318 -0.059450 0.133092
0.033870 -0.063919 0.050369
0.052246 -0.048963 0.128461
-0.065537 -0.023129 0.132329
-0.015845 0.063023 0.128070
-0.061533 0.028204 0.001324
-0.025983 0.064313 0.004816
-0.013330 0.067930 0.040088
-0.046433 0.049550 0.100102
0.004336 0.068580 0.065336
0.070778 -0.005681 0.065990
-0.069420 0.004975 0.125495
-0.066429 -0.027970 0.072317
0.049686 -0.052342 0.132373
-0.060685 -0.036316 0.132229
0.012158 -0.073166 0.101811
-0.003448 0.066868 0.092703
-0.006471 0.068741 0.007511
0.057284 0.039300 0.002820
-0.017250 0.004678 -0.000044
-0.033344 -0.060901 0.003703
0.029921 -0.067280 0.115828
-0.069124 -0.008293 0.006272
0.020124 -0.070121 0.056939
-0.030723 0.059284 0.115186
0.013084 0.068696 0.023806
0.055969 -0.045956 0.082243
0.042096 -0.058142 0.035426
0.065015 0.023839 0.108969
0.046077 -0.056801 0.122417
0.021549 0.063917 0.000337
-0.036031 0.056356 0.125970
0.069971 0.007350 0.023136
0.058230 0.036369 0.102613
-0.027418 -0.068329 0.084286
0.016652 0.067141 0.047397
0.070729 -0.001199 0.023504
-0.053162 0.044519 0.056613
0.063785 0.028527 0.005809
-0.064936 -0.031236 0.070462
0.058989 0.038357 0.031772
-0.067722 -0.021777 0.120720
0.061296 -0.033491 0.019347
0.068700 -0.013074 0.001486
-0.037249 -0.062619 0.083234
-0.025396 -0.070394 0.123236
0.014859 0.059181 0.134527
0.036211 0.057534 0.002136
-0.031508 -0.050203 0.000373
-0.013126 0.067143 0.064786
0.015392 0.064653 0.120567
0.052448 0.045465 0.049835
-0.061514 0.033305 0.028882
0.012855 -0.068360 0.000184
0.063060 0.027053 0.120303
-0.070262 0.001576 0.106255
0.055525 -0.026315 0.134270
0.029530 -0.061555 0.004761
-0.069400 -0.005141 0.003349
0.060637 -0.017306 0.134185
-0.070506 -0.001594 0.074554
0.054037 -0.048504 0.113338
0.049307 -0.049657 0.004365
-0.010462 -0.067927 0.004432
-0.053391 -0.045019 0.027573
0.011929 0.068256 0.013279
-0.013741 0.065127 0.105675
-0.059932 -0.033965 0.012561
0.002508 -0.068866 0.000160
-0.042092 0.051871 0.125077
-0.028363 0.063074 0.021163
-0.040567 0.050740 0.133982
-0.058986 0.028574 0.133801
0.069676 0.011186 0.054036
-0.069269 -0.011003 0.019536
0.039039 -0.062791 0.120564
0.070765 0.003268 0.064461
0.020045 -0.070796 0.133779
-0.024910 -0.069436 0.086950
-0.065777 -0.028804 0.119371
-0.067011 -0.019518 0.017549
0.053572 -0.047602 0.034104
0.063243 -0.033864 0.080468
-0.048721 0.046671 0.122422
0.070131 0.002130 0.096738
-0.022687 0.065680 0.014389
0.034739 0.057813 0.087186
0.067202 -0.023899 0.046006
-0.058810 0.035778 0.001328
0.002390 0.069082 0.007334
0.026286 0.064793 0.030422
-0.024655 -0.068617 0.128044
-0.022419 -0.068802 0.051981
-0.044553 -0.058160 0.117453
0.026168 0.064651 0.042229
-0.018342 -0.068364 0.018765
-0.011211 -0.072258 0.131975
0.069508 0.011288 0.014207
-0.067921 -0.015427 0.010082
-0.008005 0.062681 0.133513
0.034231 0.060481 0.022791
0.068372 0.012815 0.007263
0.033460 0.059737 0.008384
0.066029 -0.025477 0.132256
0.046012 -0.055491 0.048794
-0.015948 -0.073301 0.119907
0.062606 -0.006426 0.133925
-0.016595 0.066246 0.000725
-0.068694 0.006158 0.009652
0.012599 -0.072635 0.119930
-0.036128 -0.059108 0.003376
0.042249 0.051445 0.131885
-0.061520 0.033772 0.045873
0.026781 0.063575 0.015965
0.005402 -0.072321 0.128120
0.014794 -0.057043 0.134177
0.062957 -0.019749 0.000407
0.069444 0.012503 0.067498
0.002333 -0.072784 0.048573
-0.026708 0.062457 0.093976
-0.061244 -0.028210 0.001292
0.057193 0.032362 0.133620
0.053338 -0.032731 0.134074
-0.023742 -0.065219 0.133949
0.042309 -0.060236 0.107517
-0.070324 0.002714 0.029082
-0.051832 0.045755 0.000294
-0.069343 -0.001746 0.132940
-0.020989 0.054942 0.134483
-0.027130 -0.024000 0.134553
0.030308 0.054047 0.000031
0.050492 -0.042253 0.000365
-0.059419 -0.042129 0.129734
0.009783 -0.032822 0.134543
0.067847 0.018607 0.058881
0.021168 0.064612 0.079841
0.066259 -0.025804 0.086896
-0.000974 0.068504 0.067801
0.029591 0.038421 -0.000064
-0.060674 0.031689 0.105797
-0.001861 -0.073637 0.086620
-0.062668 0.030483 0.013589
-0.050983 -0.052553 0.125284
0.042951 0.055087 0.007270
0.021025 0.062829 0.112346
-0.063399 0.029766 0.050863
-0.031642 0.056270 0.131258
-0.064408 -0.026890 0.008022
-0.065813 -0.029976 0.076668
-0.054959 -0.045646 0.129958
-0.059372 -0.021834 0.134125
-0.064397 0.023807 0.113636
-0.055539 -0.032019 0.000709
0.059035 -0.039637 0.034313
0.065940 0.013711 0.000844
-0.051629 0.035790 0.134489
-0.016520 -0.070417 0.050506
0.067266 0.020718 0.039526
-0.069957 0.002090 0.020470
-0.064540 0.024496 0.098375
0.069047 0.001143 0.003498
-0.055153 -0.037895 0.001185
