ply
format ascii 1.0
element vertex 208
property float x
property float y
property float z
end_header
0.044759 0.050360 0.001283
-0.019729 0.050251 0.131812
-0.067107 0.019068 0.024842
0.041753 0.051031 0.050506
0.070325 -0.017750 0.049003
0.004062 0.068375 0.011830
-0.040280 -0.051026 0.001813
-0.036775 -0.060882 0.014844
0.027267 -0.078472 0.102973
-0.051865 0.030564 0.134009
0.016049 0.057925 0.092203
-0.056199 -0.053308 0.131152
-0.021124 -0.066295 0.009596
0.006910 -0.074780 0.037703
-0.035938 0.059290 0.009844
-0.063744 0.010345 0.133106
-0.062305 -0.016179 0.133951
-0.069827 -0.019484 0.063475
0.006178 0.051822 0.131417
-0.058234 -0.049773 0.077828
-0.016763 0.065852 0.017328
-0.066539 -0.005677 0.133735
0.035640 -0.060576 0.010936
-0.067410 0.009733 0.087098
0.064470 -0.041612 0.118665
-0.042832 0.051913 0.041703
0.013857 -0.076781 0.056759
0.069283 -0.010201 0.129841
0.035189 0.042912 0.131684
-0.043629 0.042279 0.105556
-0.025328 0.039353 0.135145
0.042999 0.033411 0.135708
0.003758 -0.057812 0.133092
-0.035074 -0.033190 -0.000092
0.064760 0.007826 0.128504
-0.027125 -0.074737 0.073574
0.039224 -0.053527 -0.000143
-0.048475 0.005164 0.134465
-0.050440 -0.056624 0.055476
0.003021 0.068400 0.021094
-0.070131 -0.003872 0.039439
0.024561 0.044010 0.134587
0.066362 0.014627 0.086713
0.005234 0.054844 0.119765
0.037875 -0.072045 0.130934
0.046886 -0.067373 0.124405
0.033958 -0.067082 0.046631
0.052435 -0.060814 0.126289
-0.065707 -0.035654 0.131397
-0.015877 0.050965 0.130745
-0.061512 0.028169 0.001428
-0.026001 0.063867 0.005715
-0.013284 0.064814 0.043704
-0.046454 0.040451 0.103377
0.004316 0.063460 0.069954
0.070805 -0.010811 0.065914
-0.069663 -0.007014 0.125433
-0.066502 -0.033981 0.070856
0.049956 -0.064231 0.130420
-0.060701 -0.048666 0.130477
0.012448 -0.082285 0.097403
0.009022 0.062022 0.001000
-0.003271 0.058728 0.097048
-0.006416 0.068036 0.009064
0.057345 0.039131 0.002934
-0.017254 0.004642 -0.000022
-0.033242 -0.060930 0.003503
0.029874 -0.077974 0.112313
-0.069088 -0.008474 0.006323
0.020255 -0.074329 0.053178
0.012932 0.066991 0.025785
0.056615 -0.052989 0.079510
0.042251 -0.060019 0.033553
0.065309 0.013506 0.110323
0.046254 -0.068243 0.119553
0.021700 0.063789 0.000996
-0.035980 0.044718 0.127875
0.058564 0.026781 0.104847
-0.027240 -0.075616 0.080385
0.016444 0.063687 0.050789
0.070743 -0.002411 0.024109
-0.052737 0.040359 0.059545
0.063698 0.028167 0.006146
-0.065059 -0.037069 0.068730
0.058949 0.036488 0.033497
-0.067777 -0.033047 0.119704
0.061279 -0.034229 0.018723
0.068710 -0.013115 0.001504
-0.036993 -0.069953 0.079790
-0.025175 -0.081677 0.119678
0.014867 0.045256 0.135405
0.036320 0.057322 0.002551
-0.031509 -0.050223 0.000331
-0.013115 0.062053 0.069276
0.015637 0.053094 0.124357
0.052118 0.042623 0.052265
0.012848 -0.068388 0.000188
0.063114 0.015814 0.121816
-0.070586 -0.008290 0.106002
0.053347 -0.059326 0.104266
0.055867 -0.039168 0.133329
0.029588 -0.061732 0.004547
-0.069371 -0.005239 0.003438
0.060886 -0.030275 0.133331
-0.070373 -0.007720 0.075118
0.054140 -0.059259 0.110959
0.049390 -0.049638 0.004355
-0.010474 -0.068013 0.004264
-0.053196 -0.046358 0.026395
0.011885 0.067053 0.015125
-0.013658 0.055406 0.109998
-0.060039 -0.034284 0.012235
0.002521 -0.068899 0.000107
-0.042061 0.040376 0.126656
-0.028334 0.061635 0.023120
-0.040603 0.038097 0.134879
-0.059225 0.015655 0.133935
0.069742 0.007214 0.055472
-0.033416 0.054511 0.067278
-0.021938 -0.068610 0.132514
0.039082 -0.073944 0.117095
0.070899 -0.001890 0.065205
0.020005 -0.083704 0.131665
-0.024753 -0.077044 0.082916
-0.065830 -0.039869 0.117717
0.053668 -0.049772 0.032140
0.063352 -0.041076 0.078548
0.069561 -0.019649 0.087464
-0.048783 0.035415 0.124161
0.070566 -0.006814 0.097194
-0.022655 0.064641 0.015995
0.034952 0.049754 0.090516
0.067117 -0.026925 0.045230
-0.058840 0.035708 0.001458
0.064932 -0.014729 0.132563
0.002490 0.068381 0.008965
0.025987 0.062804 0.032893
-0.024524 -0.080496 0.124765
-0.022395 -0.072593 0.048582
-0.044220 -0.068959 0.114613
0.025784 0.061697 0.045286
-0.018342 -0.069159 0.017189
-0.011003 -0.084627 0.129031
0.069452 0.010376 0.014924
-0.067920 -0.015678 0.010081
-0.007856 0.049428 0.134791
0.034054 0.058888 0.025067
0.068157 0.012651 0.007828
0.033474 0.059120 0.009212
0.066315 -0.037999 0.131054
-0.001309 0.063605 0.067534
0.046216 -0.058633 0.045845
-0.015711 -0.084470 0.116084
0.062827 -0.019531 0.133659
-0.016638 0.066132 0.001563
-0.068577 0.005699 0.010307
0.012654 -0.083849 0.116331
-0.036050 -0.059133 0.003305
0.042298 0.039058 0.133447
-0.061215 0.030654 0.048363
0.026678 0.062391 0.017439
0.005420 -0.084198 0.124817
0.032900 -0.071712 0.075100
0.062964 -0.019784 0.000407
0.069690 0.007038 0.068966
0.002532 -0.076296 0.044765
-0.026658 0.053949 0.098248
-0.061240 -0.028263 0.001291
0.057559 0.019327 0.133906
-0.023741 -0.078179 0.131542
0.042467 -0.070295 0.104190
-0.070186 0.000871 0.029813
-0.051898 0.045628 0.000499
-0.069459 -0.014419 0.132373
-0.020982 0.041706 0.135123
-0.027216 -0.036745 0.133836
0.030502 0.053905 0.000241
0.050491 -0.042295 0.000315
-0.059425 -0.054158 0.127443
0.009793 -0.045593 0.133736
0.067825 0.013941 0.060832
0.021069 0.058067 0.084377
0.066413 -0.033666 0.085407
0.035578 -0.071579 0.084104
-0.000958 0.063142 0.072348
0.029603 0.038354 0.000029
-0.060906 0.022009 0.107643
-0.001669 -0.081238 0.082175
-0.062461 0.029726 0.014622
-0.050854 -0.063985 0.122128
0.042898 0.054600 0.007927
0.021472 0.052213 0.115977
-0.063066 0.026350 0.053084
-0.031701 0.044005 0.133214
-0.064371 -0.027158 0.008033
-0.065788 -0.036393 0.075044
-0.054970 -0.057696 0.127383
-0.059576 -0.034530 0.133274
-0.064671 0.013181 0.114855
-0.055534 -0.032046 0.000702
0.059142 -0.041694 0.033053
0.065888 0.013667 0.000960
-0.051718 0.022787 0.134754
-0.016492 -0.074122 0.046976
0.067171 0.018300 0.041117
-0.069975 0.001231 0.020909
0.069033 0.001108 0.003555
-0.055165 -0.037937 0.001170
